# Blender v2.75 (sub 0) OBJ File: ''
# www.blender.org
mtllib Bunner_F104NG.mtl
o ShapeIndexedFaceSet.036_ShapeIndexedFaceSet.037
v -0.212100 0.096600 4.343500
v 0.000000 0.267400 5.426400
v 0.000000 -0.025200 4.349100
v -0.212100 0.340900 4.333000
v 0.000000 0.267400 5.426400
v -0.212100 0.096600 4.343500
v 0.000000 0.463400 4.327400
v 0.000000 0.267400 5.426400
v -0.212100 0.340900 4.333000
v 0.000000 -0.025200 4.349100
v 0.000000 0.267400 5.426400
v 0.212100 0.096600 4.343500
v 0.212100 0.096600 4.343500
v 0.000000 0.267400 5.426400
v 0.212100 0.340900 4.333000
v 0.212100 0.340900 4.333000
v 0.000000 0.267400 5.426400
v 0.000000 0.463400 4.327400
vn 0.489300 0.841600 -0.228600
vn 0.981600 -0.008200 -0.191000
vn 0.491200 -0.857500 -0.152900
vn -0.489300 0.841600 -0.228600
vn -0.981600 -0.008200 -0.191000
vn -0.491200 -0.857500 -0.152900
usemtl Shape.036
s 1
f 1//1 2//1 3//1
f 4//2 5//2 6//2
f 7//3 8//3 9//3
f 10//4 11//4 12//4
f 13//5 14//5 15//5
f 16//6 17//6 18//6
