# Blender v2.75 (sub 0) OBJ File: ''
# www.blender.org
mtllib Bunner_JAS39NG.mtl
o ShapeIndexedFaceSet.119_ShapeIndexedFaceSet
v 0.000000 0.000000 0.000000
v 3.900006 -2.249990 62.299999
v 2.250005 -3.899990 62.299999
v 0.000008 0.000016 95.300003
v 2.250005 -3.899990 62.299999
v 0.000005 -4.499990 62.299999
v 0.000008 0.000016 95.300003
v 0.000005 -4.499990 62.299999
v -2.249995 -3.899990 62.299999
v 0.000008 0.000016 95.300003
v -2.249995 -3.899990 62.299999
v -3.899995 -2.249990 62.299999
v 0.000008 0.000016 95.300003
v -3.899995 -2.249990 62.299999
v -4.499995 0.000010 62.299999
v 0.000008 0.000016 95.300003
v -4.499995 0.000010 62.299999
v -3.899995 2.250010 62.299999
v 0.000008 0.000016 95.300003
v -3.899995 2.250010 62.299999
v -2.249995 3.900010 62.299999
v 0.000008 0.000016 95.300003
v -2.249995 3.900010 62.299999
v 0.000005 4.500010 62.299999
v 0.000008 0.000016 95.300003
v 0.000005 4.500010 62.299999
v 2.250005 3.900010 62.299999
v 0.000008 0.000016 95.300003
v 2.250005 3.900010 62.299999
v 3.900006 2.250010 62.299999
v 0.000008 0.000016 95.300003
v 3.900006 2.250010 62.299999
v 4.500005 0.000010 62.299999
v 0.000008 0.000016 95.300003
v 0.000008 0.000016 95.300003
v 4.500005 0.000010 62.299999
v 3.900006 -2.249990 62.299999
vn 0.701000 -0.701000 0.130600
vn 0.255500 -0.958000 0.130600
vn -0.255500 -0.958000 0.130600
vn -0.701000 -0.701000 0.130600
vn -0.958000 -0.255500 0.130600
vn -0.958000 0.255500 0.130600
vn -0.701000 0.701000 0.130600
vn -0.255500 0.958000 0.130600
vn 0.255500 0.958000 0.130600
vn 0.701000 0.701000 0.130600
vn 0.958000 0.255500 0.130600
vn 0.958000 -0.255500 0.130600
usemtl Shape.119
s off
f 4//1 3//1 2//1
f 7//2 6//2 5//2
f 10//3 9//3 8//3
f 13//4 12//4 11//4
f 16//5 15//5 14//5
f 19//6 18//6 17//6
f 22//7 21//7 20//7
f 25//8 24//8 23//8
f 28//9 27//9 26//9
f 31//10 30//10 29//10
f 34//11 33//11 32//11
f 37//12 36//12 35//12
o ShapeIndexedFaceSet.017_ShapeIndexedFaceSet.018
v 0.000000 0.000000 0.000000
v 0.000006 0.000012 70.599998
v -2.249995 3.900010 62.299999
v 0.000005 4.500010 62.299999
v 0.000006 0.000012 70.599998
v -3.899995 2.250010 62.299999
v -2.249995 3.900010 62.299999
v 0.000006 0.000012 70.599998
v -4.499995 0.000010 62.299999
v -3.899995 2.250010 62.299999
v 0.000006 0.000012 70.599998
v -3.899995 -2.249990 62.299999
v -4.499995 0.000010 62.299999
v 0.000006 0.000012 70.599998
v -2.249995 -3.899990 62.299999
v -3.899995 -2.249990 62.299999
v 0.000006 0.000012 70.599998
v 0.000005 -4.499990 62.299999
v -2.249995 -3.899990 62.299999
v 0.000006 0.000012 70.599998
v 2.250005 -3.899990 62.299999
v 0.000005 -4.499990 62.299999
v 0.000006 0.000012 70.599998
v 3.900006 -2.249990 62.299999
v 2.250005 -3.899990 62.299999
v 0.000006 0.000012 70.599998
v 4.500005 0.000010 62.299999
v 3.900006 -2.249990 62.299999
v 0.000006 0.000012 70.599998
v 3.900006 2.250010 62.299999
v 4.500005 0.000010 62.299999
v 0.000006 0.000012 70.599998
v 2.250005 3.900010 62.299999
v 3.900006 2.250010 62.299999
v 0.000006 0.000012 70.599998
v 0.000005 4.500010 62.299999
v 2.250005 3.900010 62.299999
vn -0.228200 0.855900 0.464000
vn -0.626300 0.626300 0.464100
vn -0.855900 0.228200 0.464000
vn -0.855900 -0.228200 0.464000
vn -0.626300 -0.626300 0.464100
vn -0.228200 -0.855900 0.464000
vn 0.228200 -0.855900 0.464000
vn 0.626300 -0.626300 0.464100
vn 0.855900 -0.228200 0.464000
vn 0.855900 0.228200 0.464000
vn 0.626300 0.626300 0.464100
vn 0.228200 0.855900 0.464000
usemtl Shape.017
s off
f 41//13 40//13 39//13
f 44//14 43//14 42//14
f 47//15 46//15 45//15
f 50//16 49//16 48//16
f 53//17 52//17 51//17
f 56//18 55//18 54//18
f 59//19 58//19 57//19
f 62//20 61//20 60//20
f 65//21 64//21 63//21
f 68//22 67//22 66//22
f 71//23 70//23 69//23
f 74//24 73//24 72//24
