# Blender v2.75 (sub 0) OBJ File: ''
# www.blender.org
mtllib Bunner_tb2.mtl
o ShapeIndexedFaceSet.025_ShapeIndexedFaceSet.026
v -88.929955 -14.990273 554.989990
v -88.929962 11.309814 394.990112
v -103.329964 7.709816 394.990112
v -88.929955 -14.990273 554.989990
v -74.429962 7.709816 394.990112
v -88.929962 11.309814 394.990112
v -88.929955 -14.990273 554.989990
v -63.829967 -1.890182 394.990112
v -74.429962 7.709816 394.990112
v -88.929955 -14.990273 554.989990
v -60.029964 -14.990181 394.990112
v -63.829967 -1.890182 394.990112
v -88.929955 -14.990273 554.989990
v -63.829967 -28.090179 394.989990
v -60.029964 -14.990181 394.990112
v -88.929955 -14.990273 554.989990
v -74.429962 -37.790184 394.989990
v -63.829967 -28.090179 394.989990
v -88.929955 -14.990273 554.989990
v -88.929962 -41.190186 394.989990
v -74.429962 -37.790184 394.989990
v -88.929955 -14.990273 554.989990
v -103.329964 -37.790184 394.989990
v -88.929962 -41.190186 394.989990
v -88.929955 -14.990273 554.989990
v -113.929962 -28.090179 394.989990
v -103.329964 -37.790184 394.989990
v -88.929955 -14.990273 554.989990
v -117.829964 -14.990181 394.990112
v -113.929962 -28.090179 394.989990
v -88.929955 -14.990273 554.989990
v -113.929962 -1.890182 394.990112
v -117.829964 -14.990181 394.990112
v -88.929955 -14.990273 554.989990
v -103.329964 7.709816 394.990112
v -113.929962 -1.890182 394.990112
vn -0.239500 0.958000 0.157500
vn 0.238000 0.958400 0.157500
vn 0.662200 0.731200 0.163800
vn 0.946300 0.274500 0.170900
vn 0.946300 -0.274500 0.170900
vn 0.665900 -0.727700 0.164100
vn 0.225400 -0.961500 0.157400
vn -0.226900 -0.961100 0.157400
vn -0.666000 -0.727800 0.163600
vn -0.944400 -0.281200 0.170600
vn -0.944400 0.281200 0.170600
vn -0.662300 0.731200 0.163400
usemtl Shape.025
s 1
f 1//1 2//1 3//1
f 4//2 5//2 6//2
f 7//3 8//3 9//3
f 10//4 11//4 12//4
f 13//5 14//5 15//5
f 16//6 17//6 18//6
f 19//7 20//7 21//7
f 22//8 23//8 24//8
f 25//9 26//9 27//9
f 28//10 29//10 30//10
f 31//11 32//11 33//11
f 34//12 35//12 36//12
o ShapeIndexedFaceSet.026_ShapeIndexedFaceSet.027
v 88.870049 -14.990273 554.989990
v 88.870041 11.309814 394.990082
v 74.470039 7.709816 394.990082
v 88.870049 -14.990273 554.989990
v 103.370041 7.709816 394.990082
v 88.870041 11.309814 394.990082
v 88.870049 -14.990273 554.989990
v 113.970039 -1.890182 394.990082
v 103.370041 7.709816 394.990082
v 88.870049 -14.990273 554.989990
v 117.770035 -14.990181 394.990082
v 113.970039 -1.890182 394.990082
v 88.870049 -14.990273 554.989990
v 113.970039 -28.090179 394.989960
v 117.770035 -14.990181 394.990082
v 88.870049 -14.990273 554.989990
v 103.370041 -37.790184 394.989960
v 113.970039 -28.090179 394.989960
v 88.870049 -14.990273 554.989990
v 88.870041 -41.190186 394.989960
v 103.370041 -37.790184 394.989960
v 88.870049 -14.990273 554.989990
v 74.470039 -37.790184 394.989960
v 88.870041 -41.190186 394.989960
v 88.870049 -14.990273 554.989990
v 63.870033 -28.090179 394.989960
v 74.470039 -37.790184 394.989960
v 88.870049 -14.990273 554.989990
v 59.970036 -14.990181 394.990082
v 63.870033 -28.090179 394.989960
v 88.870049 -14.990273 554.989990
v 63.870033 -1.890182 394.990082
v 59.970036 -14.990181 394.990082
v 88.870049 -14.990273 554.989990
v 74.470039 7.709816 394.990082
v 63.870033 -1.890182 394.990082
vn -0.239500 0.958000 0.157500
vn 0.238000 0.958400 0.157500
vn 0.662200 0.731200 0.163800
vn 0.946300 0.274500 0.170900
vn 0.946300 -0.274500 0.170900
vn 0.665900 -0.727700 0.164100
vn 0.225400 -0.961500 0.157400
vn -0.226900 -0.961100 0.157400
vn -0.666000 -0.727800 0.163600
vn -0.944400 -0.281200 0.170600
vn -0.944400 0.281200 0.170600
vn -0.662300 0.731200 0.163400
usemtl Shape.026
s 1
f 37//13 38//13 39//13
f 40//14 41//14 42//14
f 43//15 44//15 45//15
f 46//16 47//16 48//16
f 49//17 50//17 51//17
f 52//18 53//18 54//18
f 55//19 56//19 57//19
f 58//20 59//20 60//20
f 61//21 62//21 63//21
f 64//22 65//22 66//22
f 67//23 68//23 69//23
f 70//24 71//24 72//24
o ShapeIndexedFaceSet.017_ShapeIndexedFaceSet.018
v 114.900032 -15.000000 390.000000
v 111.400032 -3.200000 390.000000
v 101.900032 5.400001 390.000000
v -101.899971 5.400001 390.000000
v -111.399971 -3.200000 390.000000
v -114.899971 -15.000000 390.000000
v 62.900036 -15.000000 390.000000
v 66.300034 -26.799999 390.000000
v 66.300034 -3.200000 390.000000
v 101.900032 -35.500000 390.000000
v 111.400032 -26.799999 390.000000
v 114.900032 -15.000000 390.000000
v 66.300034 -26.799999 390.000000
v 75.900032 -35.500000 390.000000
v 88.900032 -38.599998 390.000000
v 88.900032 8.600000 390.000000
v 75.900032 5.400001 390.000000
v 66.300034 -3.200000 390.000000
v 88.900032 -38.599998 390.000000
v 101.900032 -35.500000 390.000000
v 114.900032 -15.000000 390.000000
v 114.900032 -15.000000 390.000000
v 101.900032 5.400001 390.000000
v 88.900032 8.600000 390.000000
v 88.900032 -38.599998 390.000000
v 114.900032 -15.000000 390.000000
v 88.900032 8.600000 390.000000
v 66.300034 -26.799999 390.000000
v 88.900032 8.600000 390.000000
v 66.300034 -3.200000 390.000000
v 66.300034 -26.799999 390.000000
v 88.900032 -38.599998 390.000000
v 88.900032 8.600000 390.000000
v -66.299973 -3.200000 390.000000
v -66.299973 -26.799999 390.000000
v -62.899967 -15.000000 390.000000
v -114.899971 -15.000000 390.000000
v -111.399971 -26.799999 390.000000
v -101.899971 -35.500000 390.000000
v -66.299973 -3.200000 390.000000
v -75.899971 5.400001 390.000000
v -88.899971 8.600000 390.000000
v -88.899971 -38.599998 390.000000
v -75.899971 -35.500000 390.000000
v -66.299973 -26.799999 390.000000
v -88.899971 8.600000 390.000000
v -101.899971 5.400001 390.000000
v -114.899971 -15.000000 390.000000
v -114.899971 -15.000000 390.000000
v -101.899971 -35.500000 390.000000
v -88.899971 -38.599998 390.000000
v -88.899971 8.600000 390.000000
v -114.899971 -15.000000 390.000000
v -88.899971 -38.599998 390.000000
v -66.299973 -3.200000 390.000000
v -88.899971 -38.599998 390.000000
v -66.299973 -26.799999 390.000000
v -66.299973 -3.200000 390.000000
v -88.899971 8.600000 390.000000
v -88.899971 -38.599998 390.000000
vn 0.000000 0.000000 1.000000
usemtl Shape.017
s 1
f 73//25 74//25 75//25
f 76//25 77//25 78//25
f 79//25 80//25 81//25
f 82//25 83//25 84//25
f 85//25 86//25 87//25
f 88//25 89//25 90//25
f 91//25 92//25 93//25
f 94//25 95//25 96//25
f 97//25 98//25 99//25
f 100//25 101//25 102//25
f 103//25 104//25 105//25
f 106//25 107//25 108//25
f 109//25 110//25 111//25
f 112//25 113//25 114//25
f 115//25 116//25 117//25
f 118//25 119//25 120//25
f 121//25 122//25 123//25
f 124//25 125//25 126//25
f 127//25 128//25 129//25
f 130//25 131//25 132//25
