# Blender v2.75 (sub 0) OBJ File: ''
# www.blender.org
mtllib Bunner_F18_BlueAngelsNG.mtl
o ShapeIndexedFaceSet.020_ShapeIndexedFaceSet.021
v 7.850007 0.500000 81.000000
v 7.090007 2.340000 81.000000
v 5.340008 0.590000 94.099998
v 5.250007 3.100000 81.000000
v 5.250008 0.630000 94.099998
v 5.340008 0.590000 94.099998
v 5.250007 3.100000 81.000000
v 3.410007 2.340000 81.000000
v 5.160008 0.590000 94.099998
v 2.650007 0.500000 81.000000
v 5.120008 0.500000 94.099998
v 5.160008 0.590000 94.099998
v 2.650007 0.500000 81.000000
v 3.410007 -1.340000 81.000000
v 5.160008 0.410000 94.099998
v 5.250007 -2.100000 81.000000
v 5.250008 0.370000 94.099998
v 5.160008 0.410000 94.099998
v 5.250007 -2.100000 81.000000
v 7.090007 -1.340000 81.000000
v 5.340008 0.410000 94.099998
v 7.850007 0.500000 81.000000
v 5.380008 0.500000 94.099998
v 5.340008 0.410000 94.099998
v 7.850007 0.500000 81.000000
v 5.340008 0.590000 94.099998
v 5.380008 0.500000 94.099998
v 7.090007 2.340000 81.000000
v 5.250007 3.100000 81.000000
v 5.340008 0.590000 94.099998
v 5.250007 3.100000 81.000000
v 5.160008 0.590000 94.099998
v 5.250008 0.630000 94.099998
v 3.410007 2.340000 81.000000
v 2.650007 0.500000 81.000000
v 5.160008 0.590000 94.099998
v 2.650007 0.500000 81.000000
v 5.160008 0.410000 94.099998
v 5.120008 0.500000 94.099998
v 3.410007 -1.340000 81.000000
v 5.250007 -2.100000 81.000000
v 5.160008 0.410000 94.099998
v 5.250007 -2.100000 81.000000
v 5.340008 0.410000 94.099998
v 5.250008 0.370000 94.099998
v 7.090007 -1.340000 81.000000
v 7.850007 0.500000 81.000000
v 5.340008 0.410000 94.099998
vn 0.910500 0.376100 0.171900
vn 0.400200 0.900500 0.169800
vn -0.376100 0.910500 0.171900
vn -0.900500 0.400200 0.169800
vn -0.910500 -0.376100 0.171900
vn -0.400200 -0.900500 0.169800
vn 0.376100 -0.910500 0.171900
vn 0.900500 -0.400200 0.169800
vn 0.900500 0.400200 0.169800
vn 0.376100 0.910500 0.171900
vn -0.400200 0.900500 0.169800
vn -0.910500 0.376100 0.171900
vn -0.900500 -0.400200 0.169800
vn -0.376100 -0.910500 0.171900
vn 0.400200 -0.900500 0.169800
vn 0.910500 -0.376100 0.171900
usemtl Shape.020
s 1
f 1//1 2//1 3//1
f 4//2 5//2 6//2
f 7//3 8//3 9//3
f 10//4 11//4 12//4
f 13//5 14//5 15//5
f 16//6 17//6 18//6
f 19//7 20//7 21//7
f 22//8 23//8 24//8
f 25//9 26//9 27//9
f 28//10 29//10 30//10
f 31//11 32//11 33//11
f 34//12 35//12 36//12
f 37//13 38//13 39//13
f 40//14 41//14 42//14
f 43//15 44//15 45//15
f 46//16 47//16 48//16
o ShapeIndexedFaceSet.019_ShapeIndexedFaceSet.020
v 5.250007 -2.100000 81.000000
v 3.410007 -1.340000 81.000000
v 2.650007 0.500000 81.000000
v 5.340008 0.590000 94.099998
v 5.250008 0.630000 94.099998
v 5.160008 0.590000 94.099998
v 3.410007 2.340000 81.000000
v 5.250007 3.100000 81.000000
v 7.090007 2.340000 81.000000
v 7.090007 -1.340000 81.000000
v 5.250007 -2.100000 81.000000
v 7.850007 0.500000 81.000000
v 5.250007 -2.100000 81.000000
v 2.650007 0.500000 81.000000
v 3.410007 2.340000 81.000000
v 5.250007 -2.100000 81.000000
v 3.410007 2.340000 81.000000
v 7.090007 2.340000 81.000000
v 5.250007 -2.100000 81.000000
v 7.090007 2.340000 81.000000
v 7.850007 0.500000 81.000000
v 5.120008 0.500000 94.099998
v 5.160008 0.410000 94.099998
v 5.250008 0.370000 94.099998
v 5.380008 0.500000 94.099998
v 5.340008 0.590000 94.099998
v 5.340008 0.410000 94.099998
v 5.340008 0.590000 94.099998
v 5.160008 0.590000 94.099998
v 5.120008 0.500000 94.099998
v 5.340008 0.590000 94.099998
v 5.120008 0.500000 94.099998
v 5.250008 0.370000 94.099998
v 5.340008 0.590000 94.099998
v 5.250008 0.370000 94.099998
v 5.340008 0.410000 94.099998
vn 0.000000 0.000000 -1.000000
vn 0.000000 0.000000 1.000000
vn 0.000100 0.000000 1.000000
vn 0.000500 0.000000 1.000000
usemtl Shape.019
s 1
f 49//17 50//17 51//17
f 52//18 53//18 54//18
f 55//17 56//17 57//17
f 58//17 59//17 60//17
f 61//17 62//17 63//17
f 64//17 65//17 66//17
f 67//17 68//17 69//17
f 70//19 71//19 72//19
f 73//20 74//20 75//20
f 76//18 77//18 78//18
f 79//18 80//18 81//18
f 82//19 83//19 84//19
o ShapeIndexedFaceSet.017_ShapeIndexedFaceSet.018
v -5.249993 -2.100000 81.000000
v -7.089993 -1.340000 81.000000
v -7.849993 0.500000 81.000000
v -5.159992 0.590000 94.099998
v -5.249992 0.630000 94.099998
v -5.339992 0.590000 94.099998
v -7.089993 2.340000 81.000000
v -5.249993 3.100000 81.000000
v -3.409993 2.340000 81.000000
v -3.409993 -1.340000 81.000000
v -5.249993 -2.100000 81.000000
v -2.649993 0.500000 81.000000
v -5.249993 -2.100000 81.000000
v -7.849993 0.500000 81.000000
v -7.089993 2.340000 81.000000
v -5.249993 -2.100000 81.000000
v -7.089993 2.340000 81.000000
v -3.409993 2.340000 81.000000
v -5.249993 -2.100000 81.000000
v -3.409993 2.340000 81.000000
v -2.649993 0.500000 81.000000
v -5.379992 0.500000 94.099998
v -5.339992 0.410000 94.099998
v -5.249992 0.370000 94.099998
v -5.119992 0.500000 94.099998
v -5.159992 0.590000 94.099998
v -5.159992 0.410000 94.099998
v -5.159992 0.590000 94.099998
v -5.339992 0.590000 94.099998
v -5.379992 0.500000 94.099998
v -5.159992 0.590000 94.099998
v -5.379992 0.500000 94.099998
v -5.249992 0.370000 94.099998
v -5.159992 0.590000 94.099998
v -5.249992 0.370000 94.099998
v -5.159992 0.410000 94.099998
vn 0.000000 0.000000 -1.000000
vn 0.000000 0.000000 1.000000
vn 0.000100 0.000000 1.000000
vn 0.000500 0.000000 1.000000
usemtl Shape.017
s 1
f 85//21 86//21 87//21
f 88//22 89//22 90//22
f 91//21 92//21 93//21
f 94//21 95//21 96//21
f 97//21 98//21 99//21
f 100//21 101//21 102//21
f 103//21 104//21 105//21
f 106//23 107//23 108//23
f 109//24 110//24 111//24
f 112//22 113//22 114//22
f 115//22 116//22 117//22
f 118//23 119//23 120//23
o ShapeIndexedFaceSet.018_ShapeIndexedFaceSet.019
v -2.649993 0.500000 81.000000
v -3.409993 2.340000 81.000000
v -5.159992 0.590000 94.099998
v -5.249993 3.100000 81.000000
v -5.249992 0.630000 94.099998
v -5.159992 0.590000 94.099998
v -5.249993 3.100000 81.000000
v -7.089993 2.340000 81.000000
v -5.339992 0.590000 94.099998
v -7.849993 0.500000 81.000000
v -5.379992 0.500000 94.099998
v -5.339992 0.590000 94.099998
v -7.849993 0.500000 81.000000
v -7.089993 -1.340000 81.000000
v -5.339992 0.410000 94.099998
v -5.249993 -2.100000 81.000000
v -5.249992 0.370000 94.099998
v -5.339992 0.410000 94.099998
v -5.249993 -2.100000 81.000000
v -3.409993 -1.340000 81.000000
v -5.159992 0.410000 94.099998
v -2.649993 0.500000 81.000000
v -5.119992 0.500000 94.099998
v -5.159992 0.410000 94.099998
v -2.649993 0.500000 81.000000
v -5.159992 0.590000 94.099998
v -5.119992 0.500000 94.099998
v -3.409993 2.340000 81.000000
v -5.249993 3.100000 81.000000
v -5.159992 0.590000 94.099998
v -5.249993 3.100000 81.000000
v -5.339992 0.590000 94.099998
v -5.249992 0.630000 94.099998
v -7.089993 2.340000 81.000000
v -7.849993 0.500000 81.000000
v -5.339992 0.590000 94.099998
v -7.849993 0.500000 81.000000
v -5.339992 0.410000 94.099998
v -5.379992 0.500000 94.099998
v -7.089993 -1.340000 81.000000
v -5.249993 -2.100000 81.000000
v -5.339992 0.410000 94.099998
v -5.249993 -2.100000 81.000000
v -5.159992 0.410000 94.099998
v -5.249992 0.370000 94.099998
v -3.409993 -1.340000 81.000000
v -2.649993 0.500000 81.000000
v -5.159992 0.410000 94.099998
vn 0.910500 0.376100 0.171900
vn 0.400200 0.900500 0.169800
vn -0.376100 0.910500 0.171900
vn -0.900500 0.400200 0.169800
vn -0.910500 -0.376100 0.171900
vn -0.400200 -0.900500 0.169800
vn 0.376100 -0.910500 0.171900
vn 0.900500 -0.400200 0.169800
vn 0.900500 0.400200 0.169800
vn 0.376100 0.910500 0.171900
vn -0.400200 0.900500 0.169800
vn -0.910500 0.376100 0.171900
vn -0.900500 -0.400200 0.169800
vn -0.376100 -0.910500 0.171900
vn 0.400200 -0.900500 0.169800
vn 0.910500 -0.376100 0.171900
usemtl Shape.018
s 1
f 121//25 122//25 123//25
f 124//26 125//26 126//26
f 127//27 128//27 129//27
f 130//28 131//28 132//28
f 133//29 134//29 135//29
f 136//30 137//30 138//30
f 139//31 140//31 141//31
f 142//32 143//32 144//32
f 145//33 146//33 147//33
f 148//34 149//34 150//34
f 151//35 152//35 153//35
f 154//36 155//36 156//36
f 157//37 158//37 159//37
f 160//38 161//38 162//38
f 163//39 164//39 165//39
f 166//40 167//40 168//40
