# Blender v2.75 (sub 0) OBJ File: ''
# www.blender.org
mtllib Bunner_RafaleNG.mtl
o ShapeIndexedFaceSet.060_ShapeIndexedFaceSet.061
v -4.999991 1.600000 98.500000
v -3.699994 4.600000 68.500000
v -2.699994 3.900000 68.500000
v -4.999991 1.600000 98.500000
v -4.999994 4.900000 68.500000
v -3.699994 4.600000 68.500000
v -4.999991 1.600000 98.500000
v -6.299994 4.600000 68.500000
v -4.999994 4.900000 68.500000
v -4.999991 1.600000 98.500000
v -7.299994 3.900000 68.500000
v -6.299994 4.600000 68.500000
v -4.999991 1.600000 98.500000
v -7.999994 2.900000 68.500000
v -7.299994 3.900000 68.500000
v -4.999991 1.600000 98.500000
v -8.299994 1.600000 68.500000
v -7.999994 2.900000 68.500000
v -7.299994 -0.700000 68.500000
v -7.999994 0.300000 68.500000
v -4.999991 1.600000 98.500000
v -7.999994 0.300000 68.500000
v -8.299994 1.600000 68.500000
v -4.999991 1.600000 98.500000
v -4.999994 -1.700000 68.500000
v -3.699994 -1.400000 68.500000
v -4.999994 1.600000 67.000000
v -4.999994 1.600000 67.000000
v -6.299994 -1.400000 68.500000
v -4.999994 -1.700000 68.500000
v -4.999994 1.600000 67.000000
v -4.999994 4.900000 68.500000
v -6.299994 4.600000 68.500000
v -4.999994 1.600000 67.000000
v -6.299994 4.600000 68.500000
v -7.299994 3.900000 68.500000
v -4.999994 1.600000 67.000000
v -7.299994 3.900000 68.500000
v -7.999994 2.900000 68.500000
v -4.999994 1.600000 67.000000
v -7.999994 2.900000 68.500000
v -8.299994 1.600000 68.500000
v -4.999994 1.600000 67.000000
v -8.299994 1.600000 68.500000
v -7.999994 0.300000 68.500000
v -4.999994 1.600000 67.000000
v -7.999994 0.300000 68.500000
v -7.299994 -0.700000 68.500000
v -4.999994 1.600000 67.000000
v -7.299994 -0.700000 68.500000
v -6.299994 -1.400000 68.500000
v -3.699994 -1.400000 68.500000
v -2.699994 -0.700000 68.500000
v -4.999994 1.600000 67.000000
v -2.699994 -0.700000 68.500000
v -1.999994 0.300000 68.500000
v -4.999994 1.600000 67.000000
v -1.999994 0.300000 68.500000
v -1.699994 1.600000 68.500000
v -4.999994 1.600000 67.000000
v -1.699994 1.600000 68.500000
v -1.999994 2.900000 68.500000
v -4.999994 1.600000 67.000000
v -1.999994 2.900000 68.500000
v -2.699994 3.900000 68.500000
v -4.999994 1.600000 67.000000
v -2.699994 3.900000 68.500000
v -3.699994 4.600000 68.500000
v -4.999994 1.600000 67.000000
v -3.699994 4.600000 68.500000
v -4.999994 4.900000 68.500000
v -4.999994 1.600000 67.000000
v -4.999991 1.600000 98.500000
v -2.699994 3.900000 68.500000
v -1.999994 2.900000 68.500000
v -4.999991 1.600000 98.500000
v -1.999994 2.900000 68.500000
v -1.699994 1.600000 68.500000
v -4.999991 1.600000 98.500000
v -1.699994 1.600000 68.500000
v -1.999994 0.300000 68.500000
v -4.999991 1.600000 98.500000
v -1.999994 0.300000 68.500000
v -2.699994 -0.700000 68.500000
v -4.999991 1.600000 98.500000
v -2.699994 -0.700000 68.500000
v -3.699994 -1.400000 68.500000
v -4.999991 1.600000 98.500000
v -3.699994 -1.400000 68.500000
v -4.999994 -1.700000 68.500000
v -4.999991 1.600000 98.500000
v -4.999994 -1.700000 68.500000
v -6.299994 -1.400000 68.500000
v -6.299994 -1.400000 68.500000
v -7.299994 -0.700000 68.500000
v -4.999991 1.600000 98.500000
vn -0.570200 -0.814600 -0.106200
vn -0.223600 -0.968800 -0.106600
vn 0.223600 -0.968800 -0.106600
vn 0.570200 -0.814600 -0.106200
vn 0.814600 -0.570200 -0.106200
vn 0.968800 -0.223600 -0.106600
vn 0.814600 0.570200 -0.106200
vn 0.968800 0.223600 -0.106600
vn -0.095100 0.411900 0.906200
vn 0.095100 0.411900 0.906200
vn 0.095100 -0.411900 0.906200
vn 0.243200 -0.347400 0.905600
vn 0.347400 -0.243200 0.905600
vn 0.411900 -0.095100 0.906200
vn 0.411900 0.095100 0.906200
vn 0.347400 0.243200 0.905600
vn 0.243200 0.347400 0.905600
vn -0.243200 0.347400 0.905600
vn -0.347400 0.243200 0.905600
vn -0.411900 0.095100 0.906200
vn -0.411900 -0.095100 0.906200
vn -0.347400 -0.243200 0.905600
vn -0.243200 -0.347400 0.905600
vn -0.095100 -0.411900 0.906200
vn -0.814600 -0.570200 -0.106200
vn -0.968800 -0.223600 -0.106600
vn -0.968800 0.223600 -0.106600
vn -0.814600 0.570200 -0.106200
vn -0.570200 0.814600 -0.106200
vn -0.223600 0.968800 -0.106600
vn 0.223600 0.968800 -0.106600
vn 0.570200 0.814600 -0.106200
usemtl Shape.060
s 1
f 1//1 2//1 3//1
f 4//2 5//2 6//2
f 7//3 8//3 9//3
f 10//4 11//4 12//4
f 13//5 14//5 15//5
f 16//6 17//6 18//6
f 19//7 20//7 21//7
f 22//8 23//8 24//8
f 25//9 26//9 27//9
f 28//10 29//10 30//10
f 31//11 32//11 33//11
f 34//12 35//12 36//12
f 37//13 38//13 39//13
f 40//14 41//14 42//14
f 43//15 44//15 45//15
f 46//16 47//16 48//16
f 49//17 50//17 51//17
f 52//18 53//18 54//18
f 55//19 56//19 57//19
f 58//20 59//20 60//20
f 61//21 62//21 63//21
f 64//22 65//22 66//22
f 67//23 68//23 69//23
f 70//24 71//24 72//24
f 73//25 74//25 75//25
f 76//26 77//26 78//26
f 79//27 80//27 81//27
f 82//28 83//28 84//28
f 85//29 86//29 87//29
f 88//30 89//30 90//30
f 91//31 92//31 93//31
f 94//32 95//32 96//32
o ShapeIndexedFaceSet.008_ShapeIndexedFaceSet.009
v -6.299994 4.600000 68.599998
v -6.299994 4.800000 68.500000
v -7.499994 4.100000 68.500000
v -4.999994 4.900000 68.599998
v -4.999994 5.100000 68.500000
v -6.299994 4.800000 68.500000
v -3.699994 4.800000 68.500000
v -4.999994 5.100000 68.500000
v -4.999994 4.900000 68.599998
v -2.499994 4.100000 68.500000
v -3.699994 4.800000 68.500000
v -3.699994 4.600000 68.599998
v -1.999994 2.900000 68.599998
v -1.799994 2.900000 68.500000
v -2.499994 4.100000 68.500000
v -1.699994 1.600000 68.599998
v -1.499994 1.600000 68.500000
v -1.799994 2.900000 68.500000
v -1.699994 1.600000 68.599998
v -1.999994 0.300000 68.599998
v -1.799994 0.300000 68.500000
v -2.499994 -0.900000 68.500000
v -1.799994 0.300000 68.500000
v -1.999994 0.300000 68.599998
v -2.499994 -0.900000 68.500000
v -2.699994 -0.700000 68.599998
v -3.699994 -1.400000 68.599998
v -3.699994 -1.600000 68.500000
v -3.699994 -1.400000 68.599998
v -4.999994 -1.700000 68.599998
v -4.999994 -1.700000 68.599998
v -6.299994 -1.400000 68.599998
v -6.299994 -1.600000 68.500000
v -6.299994 -1.400000 68.599998
v -7.299994 -0.700000 68.599998
v -7.499994 -0.900000 68.500000
v -7.999994 0.300000 68.599998
v -8.199994 0.300000 68.500000
v -7.499994 -0.900000 68.500000
v -8.299994 1.600000 68.599998
v -8.499994 1.600000 68.500000
v -8.199994 0.300000 68.500000
v -8.199994 2.900000 68.500000
v -8.499994 1.600000 68.500000
v -8.299994 1.600000 68.599998
v -7.999994 2.900000 68.599998
v -7.299994 3.900000 68.599998
v -7.499994 4.100000 68.500000
v 7.500006 4.100000 68.500000
v 6.300006 4.800000 68.500000
v 6.300006 4.600000 68.599998
v 6.300006 4.800000 68.500000
v 5.000006 5.100000 68.500000
v 5.000006 4.900000 68.599998
v 5.000006 4.900000 68.599998
v 5.000006 5.100000 68.500000
v 3.700006 4.800000 68.500000
v 3.700006 4.600000 68.599998
v 3.700006 4.800000 68.500000
v 2.500006 4.100000 68.500000
v 2.500006 4.100000 68.500000
v 1.800006 2.900000 68.500000
v 2.000006 2.900000 68.599998
v 1.800006 2.900000 68.500000
v 1.500006 1.600000 68.500000
v 1.700006 1.600000 68.599998
v 1.800006 0.300000 68.500000
v 2.000006 0.300000 68.599998
v 1.700006 1.600000 68.599998
v 2.000006 0.300000 68.599998
v 1.800006 0.300000 68.500000
v 2.500006 -0.900000 68.500000
v 3.700006 -1.400000 68.599998
v 2.700006 -0.700000 68.599998
v 2.500006 -0.900000 68.500000
v 5.000006 -1.700000 68.599998
v 3.700006 -1.400000 68.599998
v 3.700006 -1.600000 68.500000
v 6.300006 -1.600000 68.500000
v 6.300006 -1.400000 68.599998
v 5.000006 -1.700000 68.599998
v 7.500006 -0.900000 68.500000
v 7.300006 -0.700000 68.599998
v 6.300006 -1.400000 68.599998
v 7.500006 -0.900000 68.500000
v 8.200006 0.300000 68.500000
v 8.000006 0.300000 68.599998
v 8.200006 0.300000 68.500000
v 8.500006 1.600000 68.500000
v 8.300006 1.600000 68.599998
v 8.300006 1.600000 68.599998
v 8.500006 1.600000 68.500000
v 8.200006 2.900000 68.500000
v 7.500006 4.100000 68.500000
v 7.300006 3.900000 68.599998
v 8.000006 2.900000 68.599998
v -6.299994 4.600000 68.599998
v -7.499994 4.100000 68.500000
v -7.299994 3.900000 68.599998
v -4.999994 4.900000 68.599998
v -6.299994 4.800000 68.500000
v -6.299994 4.600000 68.599998
v -3.699994 4.600000 68.599998
v -3.699994 4.800000 68.500000
v -4.999994 4.900000 68.599998
v -2.699994 3.900000 68.599998
v -2.499994 4.100000 68.500000
v -3.699994 4.600000 68.599998
v -1.999994 2.900000 68.599998
v -2.499994 4.100000 68.500000
v -2.699994 3.900000 68.599998
v -1.699994 1.600000 68.599998
v -1.799994 2.900000 68.500000
v -1.999994 2.900000 68.599998
v -1.499994 1.600000 68.500000
v -1.699994 1.600000 68.599998
v -1.799994 0.300000 68.500000
v -2.699994 -0.700000 68.599998
v -2.499994 -0.900000 68.500000
v -1.999994 0.300000 68.599998
v -2.499994 -0.900000 68.500000
v -3.699994 -1.400000 68.599998
v -3.699994 -1.600000 68.500000
v -3.699994 -1.600000 68.500000
v -4.999994 -1.700000 68.599998
v -4.999994 -1.900000 68.500000
v -4.999994 -1.900000 68.500000
v -4.999994 -1.700000 68.599998
v -6.299994 -1.600000 68.500000
v -6.299994 -1.400000 68.599998
v -7.499994 -0.900000 68.500000
v -6.299994 -1.600000 68.500000
v -7.299994 -0.700000 68.599998
v -7.999994 0.300000 68.599998
v -7.499994 -0.900000 68.500000
v -8.299994 1.600000 68.599998
v -8.199994 0.300000 68.500000
v -7.999994 0.300000 68.599998
v -7.999994 2.900000 68.599998
v -8.199994 2.900000 68.500000
v -8.299994 1.600000 68.599998
v -7.999994 2.900000 68.599998
v -7.499994 4.100000 68.500000
v -8.199994 2.900000 68.500000
v 7.300006 3.900000 68.599998
v 7.500006 4.100000 68.500000
v 6.300006 4.600000 68.599998
v 6.300006 4.600000 68.599998
v 6.300006 4.800000 68.500000
v 5.000006 4.900000 68.599998
v 5.000006 4.900000 68.599998
v 3.700006 4.800000 68.500000
v 3.700006 4.600000 68.599998
v 3.700006 4.600000 68.599998
v 2.500006 4.100000 68.500000
v 2.700006 3.900000 68.599998
v 2.700006 3.900000 68.599998
v 2.500006 4.100000 68.500000
v 2.000006 2.900000 68.599998
v 2.000006 2.900000 68.599998
v 1.800006 2.900000 68.500000
v 1.700006 1.600000 68.599998
v 1.800006 0.300000 68.500000
v 1.700006 1.600000 68.599998
v 1.500006 1.600000 68.500000
v 2.000006 0.300000 68.599998
v 2.500006 -0.900000 68.500000
v 2.700006 -0.700000 68.599998
v 3.700006 -1.600000 68.500000
v 3.700006 -1.400000 68.599998
v 2.500006 -0.900000 68.500000
v 5.000006 -1.900000 68.500000
v 5.000006 -1.700000 68.599998
v 3.700006 -1.600000 68.500000
v 6.300006 -1.600000 68.500000
v 5.000006 -1.700000 68.599998
v 5.000006 -1.900000 68.500000
v 6.300006 -1.600000 68.500000
v 7.500006 -0.900000 68.500000
v 6.300006 -1.400000 68.599998
v 7.500006 -0.900000 68.500000
v 8.000006 0.300000 68.599998
v 7.300006 -0.700000 68.599998
v 8.000006 0.300000 68.599998
v 8.200006 0.300000 68.500000
v 8.300006 1.600000 68.599998
v 8.300006 1.600000 68.599998
v 8.200006 2.900000 68.500000
v 8.000006 2.900000 68.599998
v 8.200006 2.900000 68.500000
v 7.500006 4.100000 68.500000
v 8.000006 2.900000 68.599998
vn -0.252500 0.432700 0.865500
vn -0.102700 0.444800 0.889700
vn 0.102700 0.444800 0.889700
vn 0.252400 0.432700 0.865500
vn 0.432800 0.252400 0.865400
vn 0.444900 0.102700 0.889700
vn 0.444800 -0.102700 0.889700
vn 0.432800 -0.252400 0.865400
vn 0.193800 -0.276800 0.941200
vn 0.102600 -0.444800 0.889700
vn -0.102600 -0.444800 0.889700
vn -0.193800 -0.276800 0.941200
vn -0.432800 -0.252400 0.865400
vn -0.444900 -0.102700 0.889700
vn -0.444900 0.102700 0.889700
vn -0.276800 0.193800 0.941200
vn -0.432800 0.252400 0.865400
vn -0.444800 -0.102700 0.889700
vn 0.444900 -0.102700 0.889700
vn 0.276800 0.193800 0.941200
vn -0.193700 0.276800 0.941200
vn 0.193800 0.276800 0.941200
vn 0.444800 0.102700 0.889700
vn 0.276800 -0.193800 0.941200
vn 0.252400 -0.432700 0.865500
vn 0.102700 -0.444800 0.889700
vn -0.102700 -0.444800 0.889700
vn -0.252400 -0.432700 0.865500
vn -0.276800 -0.193800 0.941200
vn -0.444800 0.102700 0.889700
vn -0.276700 -0.193800 0.941200
vn 0.276700 -0.193800 0.941200
usemtl Shape.008
s 1
f 97//33 98//33 99//33
f 100//34 101//34 102//34
f 103//35 104//35 105//35
f 106//36 107//36 108//36
f 109//37 110//37 111//37
f 112//38 113//38 114//38
f 115//39 116//39 117//39
f 118//40 119//40 120//40
f 121//41 122//41 123//41
f 124//42 125//42 126//42
f 127//43 128//43 129//43
f 130//44 131//44 132//44
f 133//45 134//45 135//45
f 136//46 137//46 138//46
f 139//47 140//47 141//47
f 142//48 143//48 144//48
f 145//36 146//36 147//36
f 148//35 149//35 150//35
f 151//34 152//34 153//34
f 154//33 155//33 156//33
f 157//49 158//49 159//49
f 160//47 161//47 162//47
f 163//50 164//50 165//50
f 166//45 167//45 168//45
f 169//44 170//44 171//44
f 172//43 173//43 174//43
f 175//42 176//42 177//42
f 178//41 179//41 180//41
f 181//40 182//40 183//40
f 184//51 185//51 186//51
f 187//38 188//38 189//38
f 190//52 191//52 192//52
f 193//53 194//53 195//53
f 196//34 197//34 198//34
f 199//35 200//35 201//35
f 202//54 203//54 204//54
f 205//52 206//52 207//52
f 208//55 209//55 210//55
f 211//51 212//51 213//51
f 214//56 215//56 216//56
f 217//57 218//57 219//57
f 220//58 221//58 222//58
f 223//59 224//59 225//59
f 226//60 227//60 228//60
f 229//61 230//61 231//61
f 232//50 233//50 234//50
f 235//62 236//62 237//62
f 238//49 239//49 240//49
f 241//54 242//54 243//54
f 244//35 245//35 246//35
f 247//34 248//34 249//34
f 250//53 251//53 252//53
f 253//48 254//48 255//48
f 256//62 257//62 258//62
f 259//46 260//46 261//46
f 262//63 263//63 264//63
f 265//60 266//60 267//60
f 268//59 269//59 270//59
f 271//58 272//58 273//58
f 274//57 275//57 276//57
f 277//64 278//64 279//64
f 280//39 281//39 282//39
f 283//55 284//55 285//55
f 286//37 287//37 288//37
o ShapeIndexedFaceSet.059_ShapeIndexedFaceSet.060
v -4.999993 1.600000 84.500000
v -6.099994 0.500000 68.500000
v -4.999994 0.100000 68.500000
v -4.999994 0.100000 68.500000
v -3.899994 0.500000 68.500000
v -4.999993 1.600000 84.500000
v -3.899994 0.500000 68.500000
v -3.499994 1.600000 68.500000
v -4.999993 1.600000 84.500000
v -3.499994 1.600000 68.500000
v -3.899994 2.700000 68.500000
v -4.999993 1.600000 84.500000
v -3.899994 2.700000 68.500000
v -4.999994 3.100000 68.500000
v -4.999993 1.600000 84.500000
v -4.999994 3.100000 68.500000
v -6.099994 2.700000 68.500000
v -4.999993 1.600000 84.500000
v -4.999993 1.600000 84.500000
v -6.499994 1.600000 68.500000
v -6.099994 0.500000 68.500000
v -4.999993 1.600000 84.500000
v -6.099994 2.700000 68.500000
v -6.499994 1.600000 68.500000
vn -0.340400 -0.936200 0.087800
vn 0.340400 -0.936200 0.087800
vn 0.936200 -0.340400 0.087800
vn 0.936200 0.340400 0.087800
vn 0.340400 0.936200 0.087800
vn -0.340400 0.936200 0.087800
vn -0.936200 -0.340400 0.087800
vn -0.936200 0.340400 0.087800
usemtl Shape.059
s 1
f 289//65 290//65 291//65
f 292//66 293//66 294//66
f 295//67 296//67 297//67
f 298//68 299//68 300//68
f 301//69 302//69 303//69
f 304//70 305//70 306//70
f 307//71 308//71 309//71
f 310//72 311//72 312//72
o ShapeIndexedFaceSet.061_ShapeIndexedFaceSet.062
v 5.000007 1.600000 84.500000
v 3.900006 0.500000 68.500000
v 5.000006 0.100000 68.500000
v 5.000006 0.100000 68.500000
v 6.100006 0.500000 68.500000
v 5.000007 1.600000 84.500000
v 6.100006 0.500000 68.500000
v 6.500006 1.600000 68.500000
v 5.000007 1.600000 84.500000
v 6.500006 1.600000 68.500000
v 6.100006 2.700000 68.500000
v 5.000007 1.600000 84.500000
v 6.100006 2.700000 68.500000
v 5.000006 3.100000 68.500000
v 5.000007 1.600000 84.500000
v 5.000006 3.100000 68.500000
v 3.900006 2.700000 68.500000
v 5.000007 1.600000 84.500000
v 5.000007 1.600000 84.500000
v 3.500006 1.600000 68.500000
v 3.900006 0.500000 68.500000
v 5.000007 1.600000 84.500000
v 3.900006 2.700000 68.500000
v 3.500006 1.600000 68.500000
vn -0.340400 -0.936200 0.087800
vn 0.340400 -0.936200 0.087800
vn 0.936200 -0.340400 0.087800
vn 0.936200 0.340400 0.087800
vn 0.340400 0.936200 0.087800
vn -0.340400 0.936200 0.087800
vn -0.936200 -0.340400 0.087800
vn -0.936200 0.340400 0.087800
usemtl Shape.061
s 1
f 313//73 314//73 315//73
f 316//74 317//74 318//74
f 319//75 320//75 321//75
f 322//76 323//76 324//76
f 325//77 326//77 327//77
f 328//78 329//78 330//78
f 331//79 332//79 333//79
f 334//80 335//80 336//80
o ShapeIndexedFaceSet.062_ShapeIndexedFaceSet.063
v 5.000009 1.600000 98.500000
v 6.300006 4.600000 68.500000
v 7.300006 3.900000 68.500000
v 5.000009 1.600000 98.500000
v 5.000006 4.900000 68.500000
v 6.300006 4.600000 68.500000
v 5.000009 1.600000 98.500000
v 3.700006 4.600000 68.500000
v 5.000006 4.900000 68.500000
v 5.000009 1.600000 98.500000
v 2.700006 3.900000 68.500000
v 3.700006 4.600000 68.500000
v 5.000009 1.600000 98.500000
v 2.000006 2.900000 68.500000
v 2.700006 3.900000 68.500000
v 5.000009 1.600000 98.500000
v 1.700006 1.600000 68.500000
v 2.000006 2.900000 68.500000
v 2.700006 -0.700000 68.500000
v 2.000006 0.300000 68.500000
v 5.000009 1.600000 98.500000
v 2.000006 0.300000 68.500000
v 1.700006 1.600000 68.500000
v 5.000009 1.600000 98.500000
v 5.000006 -1.700000 68.500000
v 6.300006 -1.400000 68.500000
v 5.000006 1.600000 67.000000
v 5.000006 1.600000 67.000000
v 3.700006 -1.400000 68.500000
v 5.000006 -1.700000 68.500000
v 5.000006 1.600000 67.000000
v 5.000006 4.900000 68.500000
v 3.700006 4.600000 68.500000
v 5.000006 1.600000 67.000000
v 3.700006 4.600000 68.500000
v 2.700006 3.900000 68.500000
v 5.000006 1.600000 67.000000
v 2.700006 3.900000 68.500000
v 2.000006 2.900000 68.500000
v 5.000006 1.600000 67.000000
v 2.000006 2.900000 68.500000
v 1.700006 1.600000 68.500000
v 5.000006 1.600000 67.000000
v 1.700006 1.600000 68.500000
v 2.000006 0.300000 68.500000
v 5.000006 1.600000 67.000000
v 2.000006 0.300000 68.500000
v 2.700006 -0.700000 68.500000
v 5.000006 1.600000 67.000000
v 2.700006 -0.700000 68.500000
v 3.700006 -1.400000 68.500000
v 6.300006 -1.400000 68.500000
v 7.300006 -0.700000 68.500000
v 5.000006 1.600000 67.000000
v 7.300006 -0.700000 68.500000
v 8.000006 0.300000 68.500000
v 5.000006 1.600000 67.000000
v 8.000006 0.300000 68.500000
v 8.300006 1.600000 68.500000
v 5.000006 1.600000 67.000000
v 8.300006 1.600000 68.500000
v 8.000006 2.900000 68.500000
v 5.000006 1.600000 67.000000
v 8.000006 2.900000 68.500000
v 7.300006 3.900000 68.500000
v 5.000006 1.600000 67.000000
v 7.300006 3.900000 68.500000
v 6.300006 4.600000 68.500000
v 5.000006 1.600000 67.000000
v 6.300006 4.600000 68.500000
v 5.000006 4.900000 68.500000
v 5.000006 1.600000 67.000000
v 5.000009 1.600000 98.500000
v 7.300006 3.900000 68.500000
v 8.000006 2.900000 68.500000
v 5.000009 1.600000 98.500000
v 8.000006 2.900000 68.500000
v 8.300006 1.600000 68.500000
v 5.000009 1.600000 98.500000
v 8.300006 1.600000 68.500000
v 8.000006 0.300000 68.500000
v 5.000009 1.600000 98.500000
v 8.000006 0.300000 68.500000
v 7.300006 -0.700000 68.500000
v 5.000009 1.600000 98.500000
v 7.300006 -0.700000 68.500000
v 6.300006 -1.400000 68.500000
v 5.000009 1.600000 98.500000
v 6.300006 -1.400000 68.500000
v 5.000006 -1.700000 68.500000
v 5.000009 1.600000 98.500000
v 5.000006 -1.700000 68.500000
v 3.700006 -1.400000 68.500000
v 3.700006 -1.400000 68.500000
v 2.700006 -0.700000 68.500000
v 5.000009 1.600000 98.500000
vn -0.570200 -0.814600 -0.106200
vn -0.223600 -0.968800 -0.106600
vn 0.223600 -0.968800 -0.106600
vn 0.570200 -0.814600 -0.106200
vn 0.814600 -0.570200 -0.106200
vn 0.968800 -0.223600 -0.106600
vn 0.814600 0.570200 -0.106200
vn 0.968800 0.223600 -0.106600
vn -0.095100 0.411900 0.906200
vn 0.095100 0.411900 0.906200
vn 0.095100 -0.411900 0.906200
vn 0.243200 -0.347400 0.905600
vn 0.347400 -0.243200 0.905600
vn 0.411900 -0.095100 0.906200
vn 0.411900 0.095100 0.906200
vn 0.347400 0.243200 0.905600
vn 0.243200 0.347400 0.905600
vn -0.243200 0.347400 0.905600
vn -0.347400 0.243200 0.905600
vn -0.411900 0.095100 0.906200
vn -0.411900 -0.095100 0.906200
vn -0.347400 -0.243200 0.905600
vn -0.243200 -0.347400 0.905600
vn -0.095100 -0.411900 0.906200
vn -0.814600 -0.570200 -0.106200
vn -0.968800 -0.223600 -0.106600
vn -0.968800 0.223600 -0.106600
vn -0.814600 0.570200 -0.106200
vn -0.570200 0.814600 -0.106200
vn -0.223600 0.968800 -0.106600
vn 0.223600 0.968800 -0.106600
vn 0.570200 0.814600 -0.106200
usemtl Shape.062
s 1
f 337//81 338//81 339//81
f 340//82 341//82 342//82
f 343//83 344//83 345//83
f 346//84 347//84 348//84
f 349//85 350//85 351//85
f 352//86 353//86 354//86
f 355//87 356//87 357//87
f 358//88 359//88 360//88
f 361//89 362//89 363//89
f 364//90 365//90 366//90
f 367//91 368//91 369//91
f 370//92 371//92 372//92
f 373//93 374//93 375//93
f 376//94 377//94 378//94
f 379//95 380//95 381//95
f 382//96 383//96 384//96
f 385//97 386//97 387//97
f 388//98 389//98 390//98
f 391//99 392//99 393//99
f 394//100 395//100 396//100
f 397//101 398//101 399//101
f 400//102 401//102 402//102
f 403//103 404//103 405//103
f 406//104 407//104 408//104
f 409//105 410//105 411//105
f 412//106 413//106 414//106
f 415//107 416//107 417//107
f 418//108 419//108 420//108
f 421//109 422//109 423//109
f 424//110 425//110 426//110
f 427//111 428//111 429//111
f 430//112 431//112 432//112
