# Blender v2.75 (sub 0) OBJ File: ''
# www.blender.org
mtllib Bunner_Su27HaruhiNG.mtl
o ShapeIndexedFaceSet.017_ShapeIndexedFaceSet.018
v -8.449992 -0.000000 89.000000
v -9.399992 2.299999 89.000000
v -11.589992 0.110000 102.099998
v -11.699992 3.250000 89.000000
v -11.699991 0.160000 102.099998
v -11.589992 0.110000 102.099998
v -11.699992 3.250000 89.000000
v -13.999992 2.299999 89.000000
v -11.809992 0.110000 102.099998
v -14.949992 -0.000000 89.000000
v -11.859991 0.000000 102.099998
v -11.809992 0.110000 102.099998
v -14.949992 -0.000000 89.000000
v -13.999992 -2.299999 89.000000
v -11.809992 -0.110000 102.099998
v -11.699992 -3.250000 89.000000
v -11.699991 -0.160000 102.099998
v -11.809992 -0.110000 102.099998
v -11.699992 -3.250000 89.000000
v -9.399992 -2.299999 89.000000
v -11.589992 -0.110000 102.099998
v -8.449992 -0.000000 89.000000
v -11.539991 0.000000 102.099998
v -11.589992 -0.110000 102.099998
v -8.449992 -0.000000 89.000000
v -11.589992 0.110000 102.099998
v -11.539991 0.000000 102.099998
v -9.399992 2.299999 89.000000
v -11.699992 3.250000 89.000000
v -11.589992 0.110000 102.099998
v -11.699992 3.250000 89.000000
v -11.809992 0.110000 102.099998
v -11.699991 0.160000 102.099998
v -13.999992 2.299999 89.000000
v -14.949992 -0.000000 89.000000
v -11.809992 0.110000 102.099998
v -14.949992 -0.000000 89.000000
v -11.809992 -0.110000 102.099998
v -11.859991 0.000000 102.099998
v -13.999992 -2.299999 89.000000
v -11.699992 -3.250000 89.000000
v -11.809992 -0.110000 102.099998
v -11.699992 -3.250000 89.000000
v -11.589992 -0.110000 102.099998
v -11.699991 -0.160000 102.099998
v -9.399992 -2.299999 89.000000
v -8.449992 -0.000000 89.000000
v -11.589992 -0.110000 102.099998
vn 0.903000 0.373000 0.213300
vn 0.404600 0.890100 0.210000
vn -0.373000 0.903000 0.213300
vn -0.890100 0.404600 0.209900
vn -0.903000 -0.373000 0.213300
vn -0.404600 -0.890100 0.209900
vn 0.373000 -0.903000 0.213300
vn 0.890100 -0.404600 0.209900
vn 0.890100 0.404600 0.209900
vn 0.373000 0.903000 0.213300
vn -0.404600 0.890100 0.209900
vn -0.903000 0.373000 0.213300
vn -0.890100 -0.404600 0.209900
vn -0.373000 -0.903000 0.213300
vn 0.404600 -0.890100 0.210000
vn 0.903000 -0.373000 0.213300
usemtl Shape.157
s 1
f 1//1 2//1 3//1
f 4//2 5//2 6//2
f 7//3 8//3 9//3
f 10//4 11//4 12//4
f 13//5 14//5 15//5
f 16//6 17//6 18//6
f 19//7 20//7 21//7
f 22//8 23//8 24//8
f 25//9 26//9 27//9
f 28//10 29//10 30//10
f 31//11 32//11 33//11
f 34//12 35//12 36//12
f 37//13 38//13 39//13
f 40//14 41//14 42//14
f 43//15 44//15 45//15
f 46//16 47//16 48//16
o ShapeIndexedFaceSet.018_ShapeIndexedFaceSet.019
v 11.700007 3.250000 89.000000
v 14.000008 2.299999 89.000000
v 14.950007 -0.000000 89.000000
v 11.810009 0.110000 102.099998
v 11.700008 0.160000 102.099998
v 11.590009 0.110000 102.099998
v 9.400007 -2.299999 89.000000
v 8.450007 -0.000000 89.000000
v 9.400007 2.299999 89.000000
v 14.000008 -2.299999 89.000000
v 11.700007 -3.250000 89.000000
v 14.950007 -0.000000 89.000000
v 9.400007 2.299999 89.000000
v 11.700007 3.250000 89.000000
v 14.950007 -0.000000 89.000000
v 9.400007 -2.299999 89.000000
v 9.400007 2.299999 89.000000
v 14.950007 -0.000000 89.000000
v 11.700007 -3.250000 89.000000
v 9.400007 -2.299999 89.000000
v 14.950007 -0.000000 89.000000
v 11.540009 0.000000 102.099998
v 11.590009 -0.110000 102.099998
v 11.700008 -0.160000 102.099998
v 11.860008 0.000000 102.099998
v 11.810009 0.110000 102.099998
v 11.810009 -0.110000 102.099998
v 11.810009 0.110000 102.099998
v 11.590009 0.110000 102.099998
v 11.540009 0.000000 102.099998
v 11.810009 0.110000 102.099998
v 11.540009 0.000000 102.099998
v 11.700008 -0.160000 102.099998
v 11.810009 0.110000 102.099998
v 11.700008 -0.160000 102.099998
v 11.810009 -0.110000 102.099998
vn -0.000000 0.000000 -1.000000
vn 0.000000 0.000000 1.000000
vn 0.000100 0.000000 1.000000
vn -0.000100 0.000000 1.000000
usemtl Shape.200
s 1
f 49//17 50//17 51//17
f 52//18 53//18 54//18
f 55//17 56//17 57//17
f 58//17 59//17 60//17
f 61//17 62//17 63//17
f 64//17 65//17 66//17
f 67//17 68//17 69//17
f 70//19 71//19 72//19
f 73//18 74//18 75//18
f 76//18 77//18 78//18
f 79//18 80//18 81//18
f 82//20 83//20 84//20
o ShapeIndexedFaceSet.019_ShapeIndexedFaceSet.020
v 14.950007 -0.000000 89.000000
v 14.000008 2.299999 89.000000
v 11.810009 0.110000 102.099998
v 11.700007 3.250000 89.000000
v 11.700008 0.160000 102.099998
v 11.810009 0.110000 102.099998
v 11.700007 3.250000 89.000000
v 9.400007 2.299999 89.000000
v 11.590009 0.110000 102.099998
v 8.450007 -0.000000 89.000000
v 11.540009 0.000000 102.099998
v 11.590009 0.110000 102.099998
v 8.450007 -0.000000 89.000000
v 9.400007 -2.299999 89.000000
v 11.590009 -0.110000 102.099998
v 11.700007 -3.250000 89.000000
v 11.700008 -0.160000 102.099998
v 11.590009 -0.110000 102.099998
v 11.700007 -3.250000 89.000000
v 14.000008 -2.299999 89.000000
v 11.810009 -0.110000 102.099998
v 14.950007 -0.000000 89.000000
v 11.860008 0.000000 102.099998
v 11.810009 -0.110000 102.099998
v 14.950007 -0.000000 89.000000
v 11.810009 0.110000 102.099998
v 11.860008 0.000000 102.099998
v 14.000008 2.299999 89.000000
v 11.700007 3.250000 89.000000
v 11.810009 0.110000 102.099998
v 11.700007 3.250000 89.000000
v 11.590009 0.110000 102.099998
v 11.700008 0.160000 102.099998
v 9.400007 2.299999 89.000000
v 8.450007 -0.000000 89.000000
v 11.590009 0.110000 102.099998
v 8.450007 -0.000000 89.000000
v 11.590009 -0.110000 102.099998
v 11.540009 0.000000 102.099998
v 9.400007 -2.299999 89.000000
v 11.700007 -3.250000 89.000000
v 11.590009 -0.110000 102.099998
v 11.700007 -3.250000 89.000000
v 11.810009 -0.110000 102.099998
v 11.700008 -0.160000 102.099998
v 14.000008 -2.299999 89.000000
v 14.950007 -0.000000 89.000000
v 11.810009 -0.110000 102.099998
vn 0.903000 0.373000 0.213300
vn 0.404600 0.890100 0.209900
vn -0.373000 0.903000 0.213300
vn -0.890100 0.404600 0.210000
vn -0.903000 -0.373000 0.213300
vn -0.404600 -0.890100 0.209900
vn 0.373000 -0.903000 0.213300
vn 0.890100 -0.404600 0.209900
vn 0.890100 0.404600 0.209900
vn 0.373000 0.903000 0.213300
vn -0.404600 0.890100 0.209900
vn -0.903000 0.373000 0.213300
vn -0.890100 -0.404600 0.210000
vn -0.373000 -0.903000 0.213300
vn 0.404600 -0.890100 0.209900
vn 0.903000 -0.373000 0.213300
usemtl Shape.135
s 1
f 85//21 86//21 87//21
f 88//22 89//22 90//22
f 91//23 92//23 93//23
f 94//24 95//24 96//24
f 97//25 98//25 99//25
f 100//26 101//26 102//26
f 103//27 104//27 105//27
f 106//28 107//28 108//28
f 109//29 110//29 111//29
f 112//30 113//30 114//30
f 115//31 116//31 117//31
f 118//32 119//32 120//32
f 121//33 122//33 123//33
f 124//34 125//34 126//34
f 127//35 128//35 129//35
f 130//36 131//36 132//36
o ShapeIndexedFaceSet.016_ShapeIndexedFaceSet.017
v -11.699992 3.250000 89.000000
v -9.399992 2.299999 89.000000
v -8.449992 -0.000000 89.000000
v -11.589992 0.110000 102.099998
v -11.699991 0.160000 102.099998
v -11.809992 0.110000 102.099998
v -13.999992 -2.299999 89.000000
v -14.949992 -0.000000 89.000000
v -13.999992 2.299999 89.000000
v -9.399992 -2.299999 89.000000
v -11.699992 -3.250000 89.000000
v -8.449992 -0.000000 89.000000
v -13.999992 2.299999 89.000000
v -11.699992 3.250000 89.000000
v -8.449992 -0.000000 89.000000
v -13.999992 -2.299999 89.000000
v -13.999992 2.299999 89.000000
v -8.449992 -0.000000 89.000000
v -11.699992 -3.250000 89.000000
v -13.999992 -2.299999 89.000000
v -8.449992 -0.000000 89.000000
v -11.859991 0.000000 102.099998
v -11.809992 -0.110000 102.099998
v -11.699991 -0.160000 102.099998
v -11.539991 0.000000 102.099998
v -11.589992 0.110000 102.099998
v -11.589992 -0.110000 102.099998
v -11.589992 0.110000 102.099998
v -11.809992 0.110000 102.099998
v -11.859991 0.000000 102.099998
v -11.589992 0.110000 102.099998
v -11.859991 0.000000 102.099998
v -11.699991 -0.160000 102.099998
v -11.589992 0.110000 102.099998
v -11.699991 -0.160000 102.099998
v -11.589992 -0.110000 102.099998
vn -0.000000 0.000000 -1.000000
vn 0.000000 0.000000 1.000000
vn 0.000100 0.000000 1.000000
vn -0.000100 0.000000 1.000000
usemtl Shape.178
s 1
f 133//37 134//37 135//37
f 136//38 137//38 138//38
f 139//37 140//37 141//37
f 142//37 143//37 144//37
f 145//37 146//37 147//37
f 148//37 149//37 150//37
f 151//37 152//37 153//37
f 154//39 155//39 156//39
f 157//38 158//38 159//38
f 160//38 161//38 162//38
f 163//38 164//38 165//38
f 166//40 167//40 168//40
o ShapeIndexedFaceSet.018_ShapeIndexedFaceSet.019
v 0.000000 0.000000 0.000000
v 14.950007 0.000014 89.000000
v 14.000008 2.300014 89.000000
v 11.700007 3.250015 89.000000
v 11.590009 0.110017 102.099998
v 11.700008 0.160017 102.099998
v 11.810009 0.110017 102.099998
v 9.400007 2.300014 89.000000
v 8.450007 0.000014 89.000000
v 9.400007 -2.299985 89.000000
v 14.950007 0.000014 89.000000
v 11.700007 -3.249985 89.000000
v 14.000008 -2.299985 89.000000
v 14.950007 0.000014 89.000000
v 11.700007 3.250015 89.000000
v 9.400007 2.300014 89.000000
v 14.950007 0.000014 89.000000
v 9.400007 2.300014 89.000000
v 9.400007 -2.299985 89.000000
v 14.950007 0.000014 89.000000
v 9.400007 -2.299985 89.000000
v 11.700007 -3.249985 89.000000
v 11.700008 -0.159983 102.099998
v 11.590009 -0.109983 102.099998
v 11.540009 0.000017 102.099998
v 11.810009 -0.109983 102.099998
v 11.810009 0.110017 102.099998
v 11.860008 0.000017 102.099998
v 11.540009 0.000017 102.099998
v 11.590009 0.110017 102.099998
v 11.810009 0.110017 102.099998
v 11.700008 -0.159983 102.099998
v 11.540009 0.000017 102.099998
v 11.810009 0.110017 102.099998
v 11.810009 -0.109983 102.099998
v 11.700008 -0.159983 102.099998
v 11.810009 0.110017 102.099998
vn 0.000000 0.000000 -1.000000
vn 0.000000 0.000000 1.000000
vn 0.000400 0.000000 1.000000
vn -0.000100 0.000000 1.000000
vn 0.000100 0.000000 1.000000
usemtl Shape.018
s off
f 172//41 171//41 170//41
f 175//42 174//42 173//42
f 178//41 177//41 176//41
f 181//41 180//41 179//41
f 184//41 183//41 182//41
f 187//41 186//41 185//41
f 190//41 189//41 188//41
f 193//43 192//43 191//43
f 196//42 195//42 194//42
f 199//42 198//42 197//42
f 202//44 201//44 200//44
f 205//45 204//45 203//45
o ShapeIndexedFaceSet.016_ShapeIndexedFaceSet.017
v 0.000000 0.000000 0.000000
v -8.449992 0.000014 89.000000
v -9.399992 2.300014 89.000000
v -11.699992 3.250015 89.000000
v -11.809992 0.110017 102.099998
v -11.699991 0.160017 102.099998
v -11.589992 0.110017 102.099998
v -13.999992 2.300014 89.000000
v -14.949992 0.000014 89.000000
v -13.999992 -2.299985 89.000000
v -8.449992 0.000014 89.000000
v -11.699992 -3.249985 89.000000
v -9.399992 -2.299985 89.000000
v -8.449992 0.000014 89.000000
v -11.699992 3.250015 89.000000
v -13.999992 2.300014 89.000000
v -8.449992 0.000014 89.000000
v -13.999992 2.300014 89.000000
v -13.999992 -2.299985 89.000000
v -8.449992 0.000014 89.000000
v -13.999992 -2.299985 89.000000
v -11.699992 -3.249985 89.000000
v -11.699991 -0.159983 102.099998
v -11.809992 -0.109983 102.099998
v -11.859991 0.000017 102.099998
v -11.589992 -0.109983 102.099998
v -11.589992 0.110017 102.099998
v -11.539991 0.000017 102.099998
v -11.859991 0.000017 102.099998
v -11.809992 0.110017 102.099998
v -11.589992 0.110017 102.099998
v -11.699991 -0.159983 102.099998
v -11.859991 0.000017 102.099998
v -11.589992 0.110017 102.099998
v -11.589992 -0.109983 102.099998
v -11.699991 -0.159983 102.099998
v -11.589992 0.110017 102.099998
vn 0.000000 0.000000 -1.000000
vn 0.000000 0.000000 1.000000
vn 0.000400 0.000000 1.000000
vn -0.000100 0.000000 1.000000
vn 0.000100 0.000000 1.000000
usemtl Shape.016
s off
f 209//46 208//46 207//46
f 212//47 211//47 210//47
f 215//46 214//46 213//46
f 218//46 217//46 216//46
f 221//46 220//46 219//46
f 224//46 223//46 222//46
f 227//46 226//46 225//46
f 230//48 229//48 228//48
f 233//47 232//47 231//47
f 236//47 235//47 234//47
f 239//49 238//49 237//49
f 242//50 241//50 240//50
