# Blender v2.75 (sub 0) OBJ File: ''
# www.blender.org
mtllib Bunner_F20ANG.mtl
o ShapeIndexedFaceSet.083_ShapeIndexedFaceSet.084
v 5.098004 1.095999 51.742001
v 3.605005 4.701000 51.742001
v -3.604995 4.701000 51.742001
v -3.604995 -2.510000 51.742001
v 3.605005 -2.510000 51.742001
v 5.098004 1.095999 51.742001
v 0.000005 6.193999 51.742001
v -3.604995 4.701000 51.742001
v 3.605005 4.701000 51.742001
v 3.605005 -2.510000 51.742001
v -3.604995 -2.510000 51.742001
v 0.000005 -4.003000 51.742001
v -5.097996 1.095999 51.742001
v 5.098004 1.095999 51.742001
v -3.604995 4.701000 51.742001
v -5.097996 1.095999 51.742001
v -3.604995 -2.510000 51.742001
v 5.098004 1.095999 51.742001
vn 0.000000 0.000000 1.000000
usemtl Shape.083
s 1
f 1//1 2//1 3//1
f 4//1 5//1 6//1
f 7//1 8//1 9//1
f 10//1 11//1 12//1
f 13//1 14//1 15//1
f 16//1 17//1 18//1
o ShapeIndexedFaceSet.084_ShapeIndexedFaceSet.085
v 0.000006 4.919000 67.470001
v -2.702994 3.800000 67.470001
v 2.703006 3.800000 67.470001
v 0.000006 -2.728000 67.470001
v 2.703006 -1.608000 67.470001
v -2.702994 -1.608000 67.470001
v 3.823006 1.096000 67.470001
v 2.703006 3.800000 67.470001
v -2.702994 3.800000 67.470001
v -2.702994 -1.608000 67.470001
v 2.703006 -1.608000 67.470001
v 3.823006 1.096000 67.470001
v 2.549007 1.096000 83.198997
v 1.802007 2.898000 83.198997
v -1.801993 2.898000 83.198997
v -1.801993 -0.707000 83.198997
v 1.802007 -0.707000 83.198997
v 2.549007 1.096000 83.198997
v 0.000007 3.645000 83.198997
v -1.801993 2.898000 83.198997
v 1.802007 2.898000 83.198997
v 1.802007 -0.707000 83.198997
v -1.801993 -0.707000 83.198997
v 0.000007 -1.454000 83.198997
v 0.000009 2.370000 98.927002
v -0.900991 1.997000 98.927002
v 0.901009 1.997000 98.927002
v 0.000009 -0.179000 98.927002
v 0.901009 0.194000 98.927002
v -0.900991 0.194000 98.927002
v -1.273991 1.096000 98.927002
v 1.274009 1.096000 98.927002
v 0.901009 1.997000 98.927002
v -0.900991 0.194000 98.927002
v 0.901009 0.194000 98.927002
v 1.274009 1.096000 98.927002
v -2.702994 3.800000 67.470001
v 0.000006 4.919000 67.470001
v 2.703006 3.800000 67.470001
v 2.703006 -1.608000 67.470001
v 0.000006 -2.728000 67.470001
v -2.702994 -1.608000 67.470001
v 3.823006 1.096000 67.470001
v -3.822994 1.096000 67.470001
v -2.702994 3.800000 67.470001
v -2.702994 -1.608000 67.470001
v -3.822994 1.096000 67.470001
v 3.823006 1.096000 67.470001
v 2.549007 1.096000 83.198997
v -2.548993 1.096000 83.198997
v -1.801993 2.898000 83.198997
v -1.801993 -0.707000 83.198997
v -2.548993 1.096000 83.198997
v 2.549007 1.096000 83.198997
v -1.801993 2.898000 83.198997
v 0.000007 3.645000 83.198997
v 1.802007 2.898000 83.198997
v -1.801993 -0.707000 83.198997
v 1.802007 -0.707000 83.198997
v 0.000007 -1.454000 83.198997
v -0.900991 1.997000 98.927002
v 0.000009 2.370000 98.927002
v 0.901009 1.997000 98.927002
v 0.901009 0.194000 98.927002
v 0.000009 -0.179000 98.927002
v -0.900991 0.194000 98.927002
v -1.273991 1.096000 98.927002
v -0.900991 1.997000 98.927002
v 0.901009 1.997000 98.927002
v -0.900991 0.194000 98.927002
v -1.273991 1.096000 98.927002
v 1.274009 1.096000 98.927002
v -3.822994 1.096000 67.470001
v 3.823006 1.096000 67.470001
v -2.702994 3.800000 67.470001
v -3.822994 1.096000 67.470001
v -2.702994 -1.608000 67.470001
v 3.823006 1.096000 67.470001
v -2.548993 1.096000 83.198997
v 2.549007 1.096000 83.198997
v -1.801993 2.898000 83.198997
v -2.548993 1.096000 83.198997
v -1.801993 -0.707000 83.198997
v 2.549007 1.096000 83.198997
v -0.900991 1.997000 98.927002
v -1.273991 1.096000 98.927002
v 0.901009 1.997000 98.927002
v -1.273991 1.096000 98.927002
v -0.900991 0.194000 98.927002
v 1.274009 1.096000 98.927002
v 2.703006 3.800000 67.470001
v 3.823006 1.096000 67.470001
v -2.702994 3.800000 67.470001
v 2.703006 -1.608000 67.470001
v -2.702994 -1.608000 67.470001
v 3.823006 1.096000 67.470001
v 1.802007 2.898000 83.198997
v 2.549007 1.096000 83.198997
v -1.801993 2.898000 83.198997
v 1.802007 -0.707000 83.198997
v -1.801993 -0.707000 83.198997
v 2.549007 1.096000 83.198997
v 1.274009 1.096000 98.927002
v -1.273991 1.096000 98.927002
v 0.901009 1.997000 98.927002
v 0.901009 0.194000 98.927002
v -0.900991 0.194000 98.927002
v 1.274009 1.096000 98.927002
vn 0.000000 0.000000 1.000000
vn 0.000000 0.000000 -1.000000
usemtl Shape.084
s 1
f 19//2 20//2 21//2
f 22//2 23//2 24//2
f 25//2 26//2 27//2
f 28//2 29//2 30//2
f 31//2 32//2 33//2
f 34//2 35//2 36//2
f 37//2 38//2 39//2
f 40//2 41//2 42//2
f 43//2 44//2 45//2
f 46//2 47//2 48//2
f 49//2 50//2 51//2
f 52//2 53//2 54//2
f 55//3 56//3 57//3
f 58//3 59//3 60//3
f 61//3 62//3 63//3
f 64//3 65//3 66//3
f 67//3 68//3 69//3
f 70//3 71//3 72//3
f 73//3 74//3 75//3
f 76//3 77//3 78//3
f 79//3 80//3 81//3
f 82//3 83//3 84//3
f 85//3 86//3 87//3
f 88//3 89//3 90//3
f 91//2 92//2 93//2
f 94//2 95//2 96//2
f 97//2 98//2 99//2
f 100//2 101//2 102//2
f 103//2 104//2 105//2
f 106//2 107//2 108//2
f 109//3 110//3 111//3
f 112//3 113//3 114//3
f 115//3 116//3 117//3
f 118//3 119//3 120//3
f 121//3 122//3 123//3
f 124//3 125//3 126//3
o ShapeIndexedFaceSet.085_ShapeIndexedFaceSet.086
v -2.702994 3.800000 67.470001
v 0.000006 4.919000 67.470001
v 0.000005 6.193999 51.742001
v -5.097996 1.095999 51.742001
v -3.822994 1.096000 67.470001
v -2.702994 3.800000 67.470001
v -2.702994 -1.608000 67.470001
v -3.822994 1.096000 67.470001
v -5.097996 1.095999 51.742001
v 0.000005 -4.003000 51.742001
v 0.000006 -2.728000 67.470001
v -2.702994 -1.608000 67.470001
v 2.703006 -1.608000 67.470001
v 0.000006 -2.728000 67.470001
v 0.000005 -4.003000 51.742001
v 5.098004 1.095999 51.742001
v 3.823006 1.096000 67.470001
v 2.703006 -1.608000 67.470001
v 2.703006 3.800000 67.470001
v 3.823006 1.096000 67.470001
v 5.098004 1.095999 51.742001
v 0.000005 6.193999 51.742001
v 0.000006 4.919000 67.470001
v 2.703006 3.800000 67.470001
v -1.801993 2.898000 83.198997
v 0.000007 3.645000 83.198997
v 0.000006 4.919000 67.470001
v -3.822994 1.096000 67.470001
v -2.548993 1.096000 83.198997
v -1.801993 2.898000 83.198997
v -1.801993 -0.707000 83.198997
v -2.548993 1.096000 83.198997
v -3.822994 1.096000 67.470001
v 0.000006 -2.728000 67.470001
v 0.000007 -1.454000 83.198997
v -1.801993 -0.707000 83.198997
v 1.802007 -0.707000 83.198997
v 0.000007 -1.454000 83.198997
v 0.000006 -2.728000 67.470001
v 3.823006 1.096000 67.470001
v 2.549007 1.096000 83.198997
v 1.802007 -0.707000 83.198997
v 1.802007 2.898000 83.198997
v 2.549007 1.096000 83.198997
v 3.823006 1.096000 67.470001
v 0.000006 4.919000 67.470001
v 0.000007 3.645000 83.198997
v 1.802007 2.898000 83.198997
v -0.900991 1.997000 98.927002
v 0.000009 2.370000 98.927002
v 0.000007 3.645000 83.198997
v -2.548993 1.096000 83.198997
v -1.273991 1.096000 98.927002
v -0.900991 1.997000 98.927002
v -0.900991 0.194000 98.927002
v -1.273991 1.096000 98.927002
v -2.548993 1.096000 83.198997
v 0.000007 -1.454000 83.198997
v 0.000009 -0.179000 98.927002
v -0.900991 0.194000 98.927002
v 0.901009 0.194000 98.927002
v 0.000009 -0.179000 98.927002
v 0.000007 -1.454000 83.198997
v 2.549007 1.096000 83.198997
v 1.274009 1.096000 98.927002
v 0.901009 0.194000 98.927002
v 0.901009 1.997000 98.927002
v 1.274009 1.096000 98.927002
v 2.549007 1.096000 83.198997
v 0.000007 3.645000 83.198997
v 0.000009 2.370000 98.927002
v 0.901009 1.997000 98.927002
v -0.900991 1.997000 98.927002
v 0.000010 1.096000 114.655998
v 0.000009 2.370000 98.927002
v -1.273991 1.096000 98.927002
v 0.000010 1.096000 114.655998
v -0.900991 1.997000 98.927002
v -0.900991 0.194000 98.927002
v 0.000010 1.096000 114.655998
v -1.273991 1.096000 98.927002
v 0.000009 -0.179000 98.927002
v 0.000010 1.096000 114.655998
v -0.900991 0.194000 98.927002
v 0.901009 0.194000 98.927002
v 0.000010 1.096000 114.655998
v 0.000009 -0.179000 98.927002
v 1.274009 1.096000 98.927002
v 0.000010 1.096000 114.655998
v 0.901009 0.194000 98.927002
v 0.901009 1.997000 98.927002
v 0.000010 1.096000 114.655998
v 1.274009 1.096000 98.927002
v 0.000009 2.370000 98.927002
v 0.000010 1.096000 114.655998
v 0.901009 1.997000 98.927002
v -3.604995 4.701000 51.742001
v -2.702994 3.800000 67.470001
v 0.000005 6.193999 51.742001
v -5.097996 1.095999 51.742001
v -2.702994 3.800000 67.470001
v -3.604995 4.701000 51.742001
v -3.604995 -2.510000 51.742001
v -2.702994 -1.608000 67.470001
v -5.097996 1.095999 51.742001
v 0.000005 -4.003000 51.742001
v -2.702994 -1.608000 67.470001
v -3.604995 -2.510000 51.742001
v 3.605005 -2.510000 51.742001
v 2.703006 -1.608000 67.470001
v 0.000005 -4.003000 51.742001
v 5.098004 1.095999 51.742001
v 2.703006 -1.608000 67.470001
v 3.605005 -2.510000 51.742001
v 3.605005 4.701000 51.742001
v 2.703006 3.800000 67.470001
v 5.098004 1.095999 51.742001
v 0.000005 6.193999 51.742001
v 2.703006 3.800000 67.470001
v 3.605005 4.701000 51.742001
v -2.702994 3.800000 67.470001
v -1.801993 2.898000 83.198997
v 0.000006 4.919000 67.470001
v -3.822994 1.096000 67.470001
v -1.801993 2.898000 83.198997
v -2.702994 3.800000 67.470001
v -2.702994 -1.608000 67.470001
v -1.801993 -0.707000 83.198997
v -3.822994 1.096000 67.470001
v 0.000006 -2.728000 67.470001
v -1.801993 -0.707000 83.198997
v -2.702994 -1.608000 67.470001
v 2.703006 -1.608000 67.470001
v 1.802007 -0.707000 83.198997
v 0.000006 -2.728000 67.470001
v 3.823006 1.096000 67.470001
v 1.802007 -0.707000 83.198997
v 2.703006 -1.608000 67.470001
v 2.703006 3.800000 67.470001
v 1.802007 2.898000 83.198997
v 3.823006 1.096000 67.470001
v 0.000006 4.919000 67.470001
v 1.802007 2.898000 83.198997
v 2.703006 3.800000 67.470001
v -1.801993 2.898000 83.198997
v -0.900991 1.997000 98.927002
v 0.000007 3.645000 83.198997
v -2.548993 1.096000 83.198997
v -0.900991 1.997000 98.927002
v -1.801993 2.898000 83.198997
v -1.801993 -0.707000 83.198997
v -0.900991 0.194000 98.927002
v -2.548993 1.096000 83.198997
v 0.000007 -1.454000 83.198997
v -0.900991 0.194000 98.927002
v -1.801993 -0.707000 83.198997
v 1.802007 -0.707000 83.198997
v 0.901009 0.194000 98.927002
v 0.000007 -1.454000 83.198997
v 2.549007 1.096000 83.198997
v 0.901009 0.194000 98.927002
v 1.802007 -0.707000 83.198997
v 1.802007 2.898000 83.198997
v 0.901009 1.997000 98.927002
v 2.549007 1.096000 83.198997
v 0.000007 3.645000 83.198997
v 0.901009 1.997000 98.927002
v 1.802007 2.898000 83.198997
vn -0.381400 0.921400 0.074700
vn -0.921300 0.381600 0.074700
vn -0.921300 -0.381600 0.074700
vn -0.381700 -0.921300 0.074700
vn 0.381700 -0.921300 0.074700
vn 0.921300 -0.381600 0.074700
vn 0.921300 0.381600 0.074700
vn 0.381400 0.921400 0.074700
vn -0.381900 0.921200 0.074600
vn -0.921200 0.381900 0.074600
vn -0.921300 -0.381700 0.074600
vn -0.381900 -0.921200 0.074600
vn 0.381900 -0.921200 0.074600
vn 0.921300 -0.381700 0.074600
vn 0.921200 0.381900 0.074600
vn 0.381900 0.921200 0.074600
vn -0.921400 0.381400 0.074700
vn -0.921500 -0.381100 0.074700
vn -0.381400 -0.921400 0.074700
vn 0.381400 -0.921400 0.074700
vn 0.921500 -0.381100 0.074700
vn 0.921400 0.381400 0.074700
vn -0.381400 0.921400 0.074600
vn -0.921400 0.381400 0.074600
vn -0.921500 -0.381100 0.074600
vn 0.921500 -0.381100 0.074600
vn 0.921400 0.381400 0.074600
vn 0.381400 0.921400 0.074600
vn -0.381600 0.921300 0.074700
vn -0.921400 -0.381500 0.074700
vn -0.381600 -0.921300 0.074700
vn 0.381600 -0.921300 0.074700
vn 0.921400 -0.381500 0.074700
vn 0.381600 0.921300 0.074700
vn -0.921300 -0.381600 0.074600
vn -0.381700 -0.921300 0.074600
vn 0.381700 -0.921300 0.074600
vn 0.921300 -0.381600 0.074600
usemtl Shape.085
s 1
f 127//4 128//4 129//4
f 130//5 131//5 132//5
f 133//6 134//6 135//6
f 136//7 137//7 138//7
f 139//8 140//8 141//8
f 142//9 143//9 144//9
f 145//10 146//10 147//10
f 148//11 149//11 150//11
f 151//12 152//12 153//12
f 154//13 155//13 156//13
f 157//14 158//14 159//14
f 160//15 161//15 162//15
f 163//16 164//16 165//16
f 166//17 167//17 168//17
f 169//18 170//18 171//18
f 172//19 173//19 174//19
f 175//4 176//4 177//4
f 178//20 179//20 180//20
f 181//21 182//21 183//21
f 184//22 185//22 186//22
f 187//23 188//23 189//23
f 190//24 191//24 192//24
f 193//25 194//25 195//25
f 196//11 197//11 198//11
f 199//26 200//26 201//26
f 202//27 203//27 204//27
f 205//28 206//28 207//28
f 208//22 209//22 210//22
f 211//23 212//23 213//23
f 214//29 215//29 216//29
f 217//30 218//30 219//30
f 220//31 221//31 222//31
f 223//32 224//32 225//32
f 226//5 227//5 228//5
f 229//33 230//33 231//33
f 232//34 233//34 234//34
f 235//35 236//35 237//35
f 238//36 239//36 240//36
f 241//10 242//10 243//10
f 244//37 245//37 246//37
f 247//4 248//4 249//4
f 250//5 251//5 252//5
f 253//38 254//38 255//38
f 256//39 257//39 258//39
f 259//40 260//40 261//40
f 262//41 263//41 264//41
f 265//10 266//10 267//10
f 268//11 269//11 270//11
f 271//12 272//12 273//12
f 274//13 275//13 276//13
f 277//14 278//14 279//14
f 280//15 281//15 282//15
f 283//16 284//16 285//16
f 286//17 287//17 288//17
f 289//18 290//18 291//18
f 292//19 293//19 294//19
