# Blender v2.75 (sub 0) OBJ File: ''
# www.blender.org
mtllib Bunner_F16_ThanderBirdsNG.mtl
o ShapeIndexedFaceSet.021_ShapeIndexedFaceSet.022
v 3.250005 -0.000000 62.000000
v 2.300005 2.300000 62.000000
v 0.110007 0.110000 75.099998
v 0.000005 3.250000 62.000000
v 0.000007 0.160000 75.099998
v 0.110007 0.110000 75.099998
v 0.000005 3.250000 62.000000
v -2.299994 2.300000 62.000000
v -0.109993 0.110000 75.099998
v -3.249995 -0.000000 62.000000
v -0.159993 -0.000000 75.099998
v -0.109993 0.110000 75.099998
v -3.249995 -0.000000 62.000000
v -2.299994 -2.300000 62.000000
v -0.109993 -0.110000 75.099998
v 0.000005 -3.250000 62.000000
v 0.000007 -0.160000 75.099998
v -0.109993 -0.110000 75.099998
v 0.000005 -3.250000 62.000000
v 2.300005 -2.300000 62.000000
v 0.110007 -0.110000 75.099998
v 3.250005 -0.000000 62.000000
v 0.160007 -0.000000 75.099998
v 0.110007 -0.110000 75.099998
v 3.250005 -0.000000 62.000000
v 0.110007 0.110000 75.099998
v 0.160007 -0.000000 75.099998
v 2.300005 2.300000 62.000000
v 0.000005 3.250000 62.000000
v 0.110007 0.110000 75.099998
v 0.000005 3.250000 62.000000
v -0.109993 0.110000 75.099998
v 0.000007 0.160000 75.099998
v -2.299994 2.300000 62.000000
v -3.249995 -0.000000 62.000000
v -0.109993 0.110000 75.099998
v -3.249995 -0.000000 62.000000
v -0.109993 -0.110000 75.099998
v -0.159993 -0.000000 75.099998
v -2.299994 -2.300000 62.000000
v 0.000005 -3.250000 62.000000
v -0.109993 -0.110000 75.099998
v 0.000005 -3.250000 62.000000
v 0.110007 -0.110000 75.099998
v 0.000007 -0.160000 75.099998
v 2.300005 -2.300000 62.000000
v 3.250005 -0.000000 62.000000
v 0.110007 -0.110000 75.099998
vn 0.903000 0.373000 0.213300
vn 0.404600 0.890100 0.210000
vn -0.373000 0.903000 0.213300
vn -0.890100 0.404600 0.209900
vn -0.903000 -0.373000 0.213300
vn -0.404600 -0.890100 0.209900
vn 0.373000 -0.903000 0.213300
vn 0.890100 -0.404600 0.209900
vn 0.890100 0.404600 0.209900
vn 0.373000 0.903000 0.213300
vn -0.404600 0.890100 0.210000
vn -0.903000 0.373000 0.213300
vn -0.890100 -0.404600 0.209900
vn -0.373000 -0.903000 0.213300
vn 0.404600 -0.890100 0.209900
vn 0.903000 -0.373000 0.213300
usemtl Shape.021
s 1
f 1//1 2//1 3//1
f 4//2 5//2 6//2
f 7//3 8//3 9//3
f 10//4 11//4 12//4
f 13//5 14//5 15//5
f 16//6 17//6 18//6
f 19//7 20//7 21//7
f 22//8 23//8 24//8
f 25//9 26//9 27//9
f 28//10 29//10 30//10
f 31//11 32//11 33//11
f 34//12 35//12 36//12
f 37//13 38//13 39//13
f 40//14 41//14 42//14
f 43//15 44//15 45//15
f 46//16 47//16 48//16
o ShapeIndexedFaceSet.020_ShapeIndexedFaceSet.021
v 0.000005 3.250000 62.000000
v 2.300005 2.300000 62.000000
v 3.250005 -0.000000 62.000000
v 0.110007 0.110000 75.099998
v 0.000007 0.160000 75.099998
v -0.109993 0.110000 75.099998
v -2.299994 -2.300000 62.000000
v -3.249995 -0.000000 62.000000
v -2.299994 2.300000 62.000000
v 2.300005 -2.300000 62.000000
v 0.000005 -3.250000 62.000000
v 3.250005 -0.000000 62.000000
v -2.299994 2.300000 62.000000
v 0.000005 3.250000 62.000000
v 3.250005 -0.000000 62.000000
v -2.299994 -2.300000 62.000000
v -2.299994 2.300000 62.000000
v 3.250005 -0.000000 62.000000
v 0.000005 -3.250000 62.000000
v -2.299994 -2.300000 62.000000
v 3.250005 -0.000000 62.000000
v -0.159993 -0.000000 75.099998
v -0.109993 -0.110000 75.099998
v 0.000007 -0.160000 75.099998
v 0.160007 -0.000000 75.099998
v 0.110007 0.110000 75.099998
v 0.110007 -0.110000 75.099998
v 0.110007 0.110000 75.099998
v -0.109993 0.110000 75.099998
v -0.159993 -0.000000 75.099998
v 0.110007 0.110000 75.099998
v -0.159993 -0.000000 75.099998
v 0.000007 -0.160000 75.099998
v 0.110007 0.110000 75.099998
v 0.000007 -0.160000 75.099998
v 0.110007 -0.110000 75.099998
vn -0.000000 0.000000 -1.000000
vn 0.000000 0.000000 1.000000
vn 0.000100 0.000000 1.000000
usemtl Shape.020
s 1
f 49//17 50//17 51//17
f 52//18 53//18 54//18
f 55//17 56//17 57//17
f 58//17 59//17 60//17
f 61//17 62//17 63//17
f 64//17 65//17 66//17
f 67//17 68//17 69//17
f 70//18 71//18 72//18
f 73//18 74//18 75//18
f 76//18 77//18 78//18
f 79//18 80//18 81//18
f 82//19 83//19 84//19
