# Blender v2.75 (sub 0) OBJ File: ''
# www.blender.org
mtllib Bunner_T2_BlueimpulseNG.mtl
o ShapeIndexedFaceSet.024_ShapeIndexedFaceSet.025
v -4.899995 -0.050000 55.000000
v -2.599995 -1.000000 55.000000
v -1.649995 -3.300000 55.000000
v -4.789994 -3.190000 68.099998
v -4.899994 -3.140000 68.099998
v -5.009995 -3.190000 68.099998
v -7.199995 -5.600000 55.000000
v -8.149995 -3.300000 55.000000
v -7.199995 -1.000000 55.000000
v -2.599995 -5.600000 55.000000
v -4.899995 -6.550000 55.000000
v -1.649995 -3.300000 55.000000
v -7.199995 -1.000000 55.000000
v -4.899995 -0.050000 55.000000
v -1.649995 -3.300000 55.000000
v -7.199995 -5.600000 55.000000
v -7.199995 -1.000000 55.000000
v -1.649995 -3.300000 55.000000
v -4.899995 -6.550000 55.000000
v -7.199995 -5.600000 55.000000
v -1.649995 -3.300000 55.000000
v -5.059994 -3.300000 68.099998
v -5.009995 -3.410000 68.099998
v -4.899994 -3.460000 68.099998
v -4.739994 -3.300000 68.099998
v -4.789994 -3.190000 68.099998
v -4.789994 -3.410000 68.099998
v -4.789994 -3.190000 68.099998
v -5.009995 -3.190000 68.099998
v -5.059994 -3.300000 68.099998
v -4.789994 -3.190000 68.099998
v -5.059994 -3.300000 68.099998
v -4.899994 -3.460000 68.099998
v -4.789994 -3.190000 68.099998
v -4.899994 -3.460000 68.099998
v -4.789994 -3.410000 68.099998
vn 0.000000 0.000000 -1.000000
vn 0.000000 0.000000 1.000000
vn 0.000100 0.000000 1.000000
usemtl Shape.024
s 1
f 1//1 2//1 3//1
f 4//2 5//2 6//2
f 7//1 8//1 9//1
f 10//1 11//1 12//1
f 13//1 14//1 15//1
f 16//1 17//1 18//1
f 19//1 20//1 21//1
f 22//2 23//2 24//2
f 25//2 26//2 27//2
f 28//2 29//2 30//2
f 31//2 32//2 33//2
f 34//3 35//3 36//3
o ShapeIndexedFaceSet.022_ShapeIndexedFaceSet.023
v 4.900005 -0.050000 55.000000
v 7.200005 -1.000000 55.000000
v 8.150004 -3.300000 55.000000
v 5.010006 -3.190000 68.099998
v 4.900006 -3.140000 68.099998
v 4.790006 -3.190000 68.099998
v 2.600005 -5.600000 55.000000
v 1.650005 -3.300000 55.000000
v 2.600005 -1.000000 55.000000
v 7.200005 -5.600000 55.000000
v 4.900005 -6.550000 55.000000
v 8.150004 -3.300000 55.000000
v 2.600005 -1.000000 55.000000
v 4.900005 -0.050000 55.000000
v 8.150004 -3.300000 55.000000
v 2.600005 -5.600000 55.000000
v 2.600005 -1.000000 55.000000
v 8.150004 -3.300000 55.000000
v 4.900005 -6.550000 55.000000
v 2.600005 -5.600000 55.000000
v 8.150004 -3.300000 55.000000
v 4.740005 -3.300000 68.099998
v 4.790006 -3.410000 68.099998
v 4.900006 -3.460000 68.099998
v 5.060006 -3.300000 68.099998
v 5.010006 -3.190000 68.099998
v 5.010006 -3.410000 68.099998
v 5.010006 -3.190000 68.099998
v 4.790006 -3.190000 68.099998
v 4.740005 -3.300000 68.099998
v 5.010006 -3.190000 68.099998
v 4.740005 -3.300000 68.099998
v 4.900006 -3.460000 68.099998
v 5.010006 -3.190000 68.099998
v 4.900006 -3.460000 68.099998
v 5.010006 -3.410000 68.099998
vn 0.000000 0.000000 -1.000000
vn 0.000000 0.000000 1.000000
vn 0.000100 0.000000 1.000000
usemtl Shape.022
s 1
f 37//4 38//4 39//4
f 40//5 41//5 42//5
f 43//4 44//4 45//4
f 46//4 47//4 48//4
f 49//4 50//4 51//4
f 52//4 53//4 54//4
f 55//4 56//4 57//4
f 58//5 59//5 60//5
f 61//5 62//5 63//5
f 64//5 65//5 66//5
f 67//5 68//5 69//5
f 70//6 71//6 72//6
o ShapeIndexedFaceSet.025_ShapeIndexedFaceSet.026
v -1.649995 -3.300000 55.000000
v -2.599995 -1.000000 55.000000
v -4.789994 -3.190000 68.099998
v -4.899995 -0.050000 55.000000
v -4.899994 -3.140000 68.099998
v -4.789994 -3.190000 68.099998
v -4.899995 -0.050000 55.000000
v -7.199995 -1.000000 55.000000
v -5.009995 -3.190000 68.099998
v -8.149995 -3.300000 55.000000
v -5.059994 -3.300000 68.099998
v -5.009995 -3.190000 68.099998
v -8.149995 -3.300000 55.000000
v -7.199995 -5.600000 55.000000
v -5.009995 -3.410000 68.099998
v -4.899995 -6.550000 55.000000
v -4.899994 -3.460000 68.099998
v -5.009995 -3.410000 68.099998
v -4.899995 -6.550000 55.000000
v -2.599995 -5.600000 55.000000
v -4.789994 -3.410000 68.099998
v -1.649995 -3.300000 55.000000
v -4.739994 -3.300000 68.099998
v -4.789994 -3.410000 68.099998
v -1.649995 -3.300000 55.000000
v -4.789994 -3.190000 68.099998
v -4.739994 -3.300000 68.099998
v -2.599995 -1.000000 55.000000
v -4.899995 -0.050000 55.000000
v -4.789994 -3.190000 68.099998
v -4.899995 -0.050000 55.000000
v -5.009995 -3.190000 68.099998
v -4.899994 -3.140000 68.099998
v -7.199995 -1.000000 55.000000
v -8.149995 -3.300000 55.000000
v -5.009995 -3.190000 68.099998
v -8.149995 -3.300000 55.000000
v -5.009995 -3.410000 68.099998
v -5.059994 -3.300000 68.099998
v -7.199995 -5.600000 55.000000
v -4.899995 -6.550000 55.000000
v -5.009995 -3.410000 68.099998
v -4.899995 -6.550000 55.000000
v -4.789994 -3.410000 68.099998
v -4.899994 -3.460000 68.099998
v -2.599995 -5.600000 55.000000
v -1.649995 -3.300000 55.000000
v -4.789994 -3.410000 68.099998
vn 0.903000 0.373000 0.213300
vn 0.404600 0.890100 0.209900
vn -0.373000 0.903000 0.213300
vn -0.890100 0.404600 0.210000
vn -0.903000 -0.373000 0.213300
vn -0.404600 -0.890100 0.209900
vn 0.373000 -0.903000 0.213300
vn 0.890100 -0.404600 0.209900
vn 0.890100 0.404600 0.210000
vn 0.373000 0.903000 0.213300
vn -0.404600 0.890100 0.209900
vn -0.903000 0.373000 0.213300
vn -0.890100 -0.404600 0.209900
vn -0.373000 -0.903000 0.213300
vn 0.404600 -0.890100 0.209900
vn 0.903000 -0.373000 0.213300
usemtl Shape.025
s 1
f 73//7 74//7 75//7
f 76//8 77//8 78//8
f 79//9 80//9 81//9
f 82//10 83//10 84//10
f 85//11 86//11 87//11
f 88//12 89//12 90//12
f 91//13 92//13 93//13
f 94//14 95//14 96//14
f 97//15 98//15 99//15
f 100//16 101//16 102//16
f 103//17 104//17 105//17
f 106//18 107//18 108//18
f 109//19 110//19 111//19
f 112//20 113//20 114//20
f 115//21 116//21 117//21
f 118//22 119//22 120//22
o ShapeIndexedFaceSet.023_ShapeIndexedFaceSet.024
v 8.150004 -3.300000 55.000000
v 7.200005 -1.000000 55.000000
v 5.010006 -3.190000 68.099998
v 4.900005 -0.050000 55.000000
v 4.900006 -3.140000 68.099998
v 5.010006 -3.190000 68.099998
v 4.900005 -0.050000 55.000000
v 2.600005 -1.000000 55.000000
v 4.790006 -3.190000 68.099998
v 1.650005 -3.300000 55.000000
v 4.740005 -3.300000 68.099998
v 4.790006 -3.190000 68.099998
v 1.650005 -3.300000 55.000000
v 2.600005 -5.600000 55.000000
v 4.790006 -3.410000 68.099998
v 4.900005 -6.550000 55.000000
v 4.900006 -3.460000 68.099998
v 4.790006 -3.410000 68.099998
v 4.900005 -6.550000 55.000000
v 7.200005 -5.600000 55.000000
v 5.010006 -3.410000 68.099998
v 8.150004 -3.300000 55.000000
v 5.060006 -3.300000 68.099998
v 5.010006 -3.410000 68.099998
v 8.150004 -3.300000 55.000000
v 5.010006 -3.190000 68.099998
v 5.060006 -3.300000 68.099998
v 7.200005 -1.000000 55.000000
v 4.900005 -0.050000 55.000000
v 5.010006 -3.190000 68.099998
v 4.900005 -0.050000 55.000000
v 4.790006 -3.190000 68.099998
v 4.900006 -3.140000 68.099998
v 2.600005 -1.000000 55.000000
v 1.650005 -3.300000 55.000000
v 4.790006 -3.190000 68.099998
v 1.650005 -3.300000 55.000000
v 4.790006 -3.410000 68.099998
v 4.740005 -3.300000 68.099998
v 2.600005 -5.600000 55.000000
v 4.900005 -6.550000 55.000000
v 4.790006 -3.410000 68.099998
v 4.900005 -6.550000 55.000000
v 5.010006 -3.410000 68.099998
v 4.900006 -3.460000 68.099998
v 7.200005 -5.600000 55.000000
v 8.150004 -3.300000 55.000000
v 5.010006 -3.410000 68.099998
vn 0.903000 0.373000 0.213300
vn 0.404600 0.890100 0.209900
vn -0.373000 0.903000 0.213300
vn -0.890100 0.404600 0.209900
vn -0.903000 -0.373000 0.213300
vn -0.404600 -0.890100 0.209900
vn 0.373000 -0.903000 0.213300
vn 0.890100 -0.404600 0.209900
vn 0.890100 0.404600 0.209900
vn 0.373000 0.903000 0.213300
vn -0.404600 0.890100 0.209900
vn -0.903000 0.373000 0.213300
vn -0.890100 -0.404600 0.209900
vn -0.373000 -0.903000 0.213300
vn 0.404600 -0.890100 0.209900
vn 0.903000 -0.373000 0.213300
usemtl Shape.023
s 1
f 121//23 122//23 123//23
f 124//24 125//24 126//24
f 127//25 128//25 129//25
f 130//26 131//26 132//26
f 133//27 134//27 135//27
f 136//28 137//28 138//28
f 139//29 140//29 141//29
f 142//30 143//30 144//30
f 145//31 146//31 147//31
f 148//32 149//32 150//32
f 151//33 152//33 153//33
f 154//34 155//34 156//34
f 157//35 158//35 159//35
f 160//36 161//36 162//36
f 163//37 164//37 165//37
f 166//38 167//38 168//38
