# Blender v2.79 (sub 0) OBJ File: ''
# www.blender.org
mtllib Gear_MU300.mtl
o Shape_IndexedFaceSet.014
v 14.360000 -15.960000 -4.430000
v 14.359999 -15.390000 -5.800002
v 14.359999 -14.030000 -6.360002
v 11.740000 -15.960000 -4.430000
v 11.740000 -15.390000 -3.060002
v 11.740000 -14.030000 -2.500001
v 14.360000 -14.030000 -2.500001
v 14.360000 -15.390000 -3.060002
v 14.360000 -15.960000 -4.430000
v 14.360000 -12.090000 -4.430001
v 14.360000 -12.660000 -3.060001
v 14.360000 -14.030000 -2.500001
v 14.360000 -12.090000 -4.430001
v 14.359999 -14.030000 -6.360002
v 14.359999 -12.660000 -5.800001
v 14.360000 -14.030000 -2.500001
v 14.360000 -15.960000 -4.430000
v 14.359999 -14.030000 -6.360002
v 14.360000 -12.090000 -4.430001
v 14.360000 -14.030000 -2.500001
v 14.359999 -14.030000 -6.360002
v 11.740000 -15.960000 -4.430000
v 11.739999 -14.030000 -6.360002
v 11.739999 -15.390000 -5.800002
v 11.740000 -12.090000 -4.430001
v 11.739999 -12.660000 -5.800001
v 11.739999 -14.030000 -6.360002
v 11.740000 -14.030000 -2.500001
v 11.740000 -12.660000 -3.060001
v 11.740000 -12.090000 -4.430001
v 11.740000 -14.030000 -2.500001
v 11.740000 -12.090000 -4.430001
v 11.739999 -14.030000 -6.360002
v 11.740000 -15.960000 -4.430000
v 11.740000 -14.030000 -2.500001
v 11.739999 -14.030000 -6.360002
vn 1.0000 0.0000 -0.0000
vn -1.0000 0.0000 0.0000
usemtl Shape.014
s 1
f 1//1 2//1 3//1
f 4//2 5//2 6//2
f 7//1 8//1 9//1
f 10//1 11//1 12//1
f 13//1 14//1 15//1
f 16//1 17//1 18//1
f 19//1 20//1 21//1
f 22//2 23//2 24//2
f 25//2 26//2 27//2
f 28//2 29//2 30//2
f 31//2 32//2 33//2
f 34//2 35//2 36//2
o Shape_IndexedFaceSet.013
v 14.349999 -16.170000 -6.570002
v 14.350000 -17.049999 -4.430001
v 11.780000 -17.049999 -4.430001
v 14.349999 -14.030000 -7.460001
v 14.349999 -16.170000 -6.570002
v 11.779999 -16.170000 -6.570002
v 14.349999 -11.880000 -6.570002
v 14.349999 -14.030000 -7.460001
v 11.779999 -14.030000 -7.460001
v 14.350000 -11.000000 -4.430001
v 14.349999 -11.880000 -6.570002
v 11.779999 -11.880000 -6.570001
v 11.780000 -16.170000 -2.290001
v 11.780000 -17.049999 -4.430001
v 14.350000 -17.049999 -4.430001
v 11.780000 -14.030000 -1.400001
v 11.780000 -16.170000 -2.290001
v 14.350000 -16.170000 -2.290002
v 11.780000 -14.030000 -1.400001
v 14.350000 -14.030000 -1.400001
v 14.350000 -11.880000 -2.290001
v 11.780000 -11.880000 -2.290001
v 14.350000 -11.880000 -2.290001
v 14.350000 -11.000000 -4.430001
v 14.350000 -17.049999 -4.430001
v 14.349999 -16.170000 -6.570002
v 14.349999 -14.030000 -7.460001
v 11.780000 -17.049999 -4.430001
v 11.780000 -16.170000 -2.290001
v 11.780000 -14.030000 -1.400001
v 11.779999 -16.170000 -6.570002
v 14.349999 -16.170000 -6.570002
v 11.780000 -17.049999 -4.430001
v 11.779999 -14.030000 -7.460001
v 14.349999 -14.030000 -7.460001
v 11.779999 -16.170000 -6.570002
v 11.779999 -11.880000 -6.570001
v 14.349999 -11.880000 -6.570002
v 11.779999 -14.030000 -7.460001
v 11.780000 -11.000000 -4.430001
v 14.350000 -11.000000 -4.430001
v 11.779999 -11.880000 -6.570001
v 14.350000 -16.170000 -2.290002
v 11.780000 -16.170000 -2.290001
v 14.350000 -17.049999 -4.430001
v 14.350000 -14.030000 -1.400001
v 11.780000 -14.030000 -1.400001
v 14.350000 -16.170000 -2.290002
v 11.780000 -11.880000 -2.290001
v 11.780000 -14.030000 -1.400001
v 14.350000 -11.880000 -2.290001
v 11.780000 -11.000000 -4.430001
v 11.780000 -11.880000 -2.290001
v 14.350000 -11.000000 -4.430001
v 14.350000 -14.030000 -1.400001
v 14.350000 -16.170000 -2.290002
v 14.350000 -17.049999 -4.430001
v 14.350000 -17.049999 -4.430001
v 14.349999 -14.030000 -7.460001
v 14.349999 -11.880000 -6.570002
v 14.350000 -11.000000 -4.430001
v 14.350000 -11.880000 -2.290001
v 14.349999 -11.880000 -6.570002
v 14.350000 -11.880000 -2.290001
v 14.350000 -14.030000 -1.400001
v 14.350000 -17.049999 -4.430001
v 14.350000 -11.880000 -2.290001
v 14.350000 -17.049999 -4.430001
v 14.349999 -11.880000 -6.570002
v 11.779999 -14.030000 -7.460001
v 11.779999 -16.170000 -6.570002
v 11.780000 -17.049999 -4.430001
v 11.780000 -11.880000 -2.290001
v 11.780000 -11.000000 -4.430001
v 11.779999 -11.880000 -6.570001
v 11.779999 -11.880000 -6.570001
v 11.779999 -14.030000 -7.460001
v 11.780000 -17.049999 -4.430001
v 11.780000 -11.880000 -2.290001
v 11.779999 -11.880000 -6.570001
v 11.780000 -17.049999 -4.430001
v 11.780000 -11.880000 -2.290001
v 11.780000 -17.049999 -4.430001
v 11.780000 -14.030000 -1.400001
vn 0.0000 -0.9249 -0.3803
vn 0.0000 -0.3840 -0.9233
vn 0.0000 0.3825 -0.9240
vn -0.0000 0.9249 -0.3803
vn 0.0000 -0.9249 0.3803
vn 0.0000 -0.3840 0.9233
vn 0.0000 0.3825 0.9240
vn 0.0000 0.9249 0.3803
vn 1.0000 -0.0000 -0.0000
vn -1.0000 0.0000 0.0000
usemtl Shape.013
s 1
f 37//3 38//3 39//3
f 40//4 41//4 42//4
f 43//5 44//5 45//5
f 46//6 47//6 48//6
f 49//7 50//7 51//7
f 52//8 53//8 54//8
f 55//9 56//9 57//9
f 58//10 59//10 60//10
f 61//11 62//11 63//11
f 64//12 65//12 66//12
f 67//3 68//3 69//3
f 70//4 71//4 72//4
f 73//5 74//5 75//5
f 76//6 77//6 78//6
f 79//7 80//7 81//7
f 82//8 83//8 84//8
f 85//9 86//9 87//9
f 88//10 89//10 90//10
f 91//11 92//11 93//11
f 94//11 95//11 96//11
f 97//11 98//11 99//11
f 100//11 101//11 102//11
f 103//11 104//11 105//11
f 106//12 107//12 108//12
f 109//12 110//12 111//12
f 112//12 113//12 114//12
f 115//12 116//12 117//12
f 118//12 119//12 120//12
o Shape_IndexedFaceSet.015
v -11.630000 -6.970000 -5.169999
v -11.630000 -14.720000 -5.170000
v -11.630000 -14.720000 -4.020000
v -10.430000 -14.720000 -4.020000
v -10.430000 -6.969999 -4.019999
v -11.630000 -6.969999 -4.019999
v -10.430000 -14.720000 -5.170000
v -10.430000 -14.720000 -4.020000
v -11.630000 -14.720000 -4.020000
v -10.430000 -6.970000 -5.169999
v -10.430000 -14.720000 -5.170000
v -11.630000 -14.720000 -5.170000
v -10.430000 -14.720000 -5.170000
v -10.430000 -6.970000 -5.169999
v -10.430000 -6.969999 -4.019999
v -11.630000 -6.969999 -4.019999
v -11.630000 -6.970000 -5.169999
v -11.630000 -14.720000 -4.020000
v -11.630000 -14.720000 -4.020000
v -10.430000 -14.720000 -4.020000
v -11.630000 -6.969999 -4.019999
v -11.630000 -14.720000 -5.170000
v -10.430000 -14.720000 -5.170000
v -11.630000 -14.720000 -4.020000
v -11.630000 -6.970000 -5.169999
v -10.430000 -6.970000 -5.169999
v -11.630000 -14.720000 -5.170000
v -10.430000 -14.720000 -4.020000
v -10.430000 -14.720000 -5.170000
v -10.430000 -6.969999 -4.019999
vn -1.0000 0.0000 0.0000
vn 0.0000 -0.0000 1.0000
vn 0.0000 -1.0000 0.0000
vn 0.0000 0.0000 -1.0000
vn 1.0000 0.0000 0.0000
usemtl Shape.015
s 1
f 121//13 122//13 123//13
f 124//14 125//14 126//14
f 127//15 128//15 129//15
f 130//16 131//16 132//16
f 133//17 134//17 135//17
f 136//13 137//13 138//13
f 139//14 140//14 141//14
f 142//15 143//15 144//15
f 145//16 146//16 147//16
f 148//17 149//17 150//17
o Shape_IndexedFaceSet.016
v -14.350000 -16.170000 -2.429999
v -14.350000 -17.049999 -4.569999
v -11.780000 -17.049999 -4.569999
v -14.350000 -14.030000 -1.539998
v -14.350000 -16.170000 -2.429999
v -11.780000 -16.170000 -2.429999
v -14.350000 -11.880000 -2.429999
v -14.350000 -14.030000 -1.539998
v -11.780000 -14.030000 -1.539999
v -14.350000 -11.000000 -4.569999
v -14.350000 -11.880000 -2.429999
v -11.780000 -11.880000 -2.429999
v -11.780001 -16.170000 -6.709999
v -11.780000 -17.049999 -4.569999
v -14.350000 -17.049999 -4.569999
v -11.780001 -14.030000 -7.599999
v -11.780001 -16.170000 -6.709999
v -14.350001 -16.170000 -6.709999
v -11.780001 -14.030000 -7.599999
v -14.350001 -14.030000 -7.599999
v -14.350001 -11.880000 -6.709999
v -11.780001 -11.880000 -6.709999
v -14.350001 -11.880000 -6.709999
v -14.350000 -11.000000 -4.569999
v -14.350000 -17.049999 -4.569999
v -14.350000 -16.170000 -2.429999
v -14.350000 -14.030000 -1.539998
v -11.780000 -17.049999 -4.569999
v -11.780001 -16.170000 -6.709999
v -11.780001 -14.030000 -7.599999
v -11.780000 -16.170000 -2.429999
v -14.350000 -16.170000 -2.429999
v -11.780000 -17.049999 -4.569999
v -11.780000 -14.030000 -1.539999
v -14.350000 -14.030000 -1.539998
v -11.780000 -16.170000 -2.429999
v -11.780000 -11.880000 -2.429999
v -14.350000 -11.880000 -2.429999
v -11.780000 -14.030000 -1.539999
v -11.780000 -11.000000 -4.569999
v -14.350000 -11.000000 -4.569999
v -11.780000 -11.880000 -2.429999
v -14.350001 -16.170000 -6.709999
v -11.780001 -16.170000 -6.709999
v -14.350000 -17.049999 -4.569999
v -14.350001 -14.030000 -7.599999
v -11.780001 -14.030000 -7.599999
v -14.350001 -16.170000 -6.709999
v -11.780001 -11.880000 -6.709999
v -11.780001 -14.030000 -7.599999
v -14.350001 -11.880000 -6.709999
v -11.780000 -11.000000 -4.569999
v -11.780001 -11.880000 -6.709999
v -14.350000 -11.000000 -4.569999
v -14.350001 -14.030000 -7.599999
v -14.350001 -16.170000 -6.709999
v -14.350000 -17.049999 -4.569999
v -14.350000 -17.049999 -4.569999
v -14.350000 -14.030000 -1.539998
v -14.350000 -11.880000 -2.429999
v -14.350000 -11.000000 -4.569999
v -14.350001 -11.880000 -6.709999
v -14.350000 -11.880000 -2.429999
v -14.350001 -11.880000 -6.709999
v -14.350001 -14.030000 -7.599999
v -14.350000 -17.049999 -4.569999
v -14.350001 -11.880000 -6.709999
v -14.350000 -17.049999 -4.569999
v -14.350000 -11.880000 -2.429999
v -11.780000 -14.030000 -1.539999
v -11.780000 -16.170000 -2.429999
v -11.780000 -17.049999 -4.569999
v -11.780001 -11.880000 -6.709999
v -11.780000 -11.000000 -4.569999
v -11.780000 -11.880000 -2.429999
v -11.780000 -11.880000 -2.429999
v -11.780000 -14.030000 -1.539999
v -11.780000 -17.049999 -4.569999
v -11.780001 -11.880000 -6.709999
v -11.780000 -11.880000 -2.429999
v -11.780000 -17.049999 -4.569999
v -11.780001 -11.880000 -6.709999
v -11.780000 -17.049999 -4.569999
v -11.780001 -14.030000 -7.599999
vn 0.0000 -0.9249 0.3803
vn 0.0000 -0.3840 0.9233
vn 0.0000 0.3825 0.9240
vn 0.0000 0.9249 0.3803
vn 0.0000 -0.9249 -0.3803
vn 0.0000 -0.3840 -0.9233
vn 0.0000 0.3825 -0.9240
vn 0.0000 0.9249 -0.3803
vn -1.0000 0.0000 0.0000
vn 1.0000 -0.0000 -0.0000
usemtl Shape.016
s 1
f 151//18 152//18 153//18
f 154//19 155//19 156//19
f 157//20 158//20 159//20
f 160//21 161//21 162//21
f 163//22 164//22 165//22
f 166//23 167//23 168//23
f 169//24 170//24 171//24
f 172//25 173//25 174//25
f 175//26 176//26 177//26
f 178//27 179//27 180//27
f 181//18 182//18 183//18
f 184//19 185//19 186//19
f 187//20 188//20 189//20
f 190//21 191//21 192//21
f 193//22 194//22 195//22
f 196//23 197//23 198//23
f 199//24 200//24 201//24
f 202//25 203//25 204//25
f 205//26 206//26 207//26
f 208//26 209//26 210//26
f 211//26 212//26 213//26
f 214//26 215//26 216//26
f 217//26 218//26 219//26
f 220//27 221//27 222//27
f 223//27 224//27 225//27
f 226//27 227//27 228//27
f 229//27 230//27 231//27
f 232//27 233//27 234//27
o Shape_IndexedFaceSet.011
v 0.719995 -15.380000 -57.849998
v 0.719995 -15.640000 -58.919998
v 0.719995 -15.060000 -59.860001
v -0.710005 -13.050000 -57.849998
v -0.710005 -12.789999 -58.919998
v -0.710005 -13.360000 -59.860001
v 0.719995 -13.050000 -59.549999
v 0.719995 -12.789999 -58.480000
v 0.719995 -13.990000 -60.119999
v 0.719995 -13.360000 -57.529999
v 0.719995 -14.440000 -57.270000
v 0.719995 -15.380000 -57.849998
v 0.719995 -12.789999 -58.480000
v 0.719995 -13.360000 -57.529999
v 0.719995 -15.380000 -57.849998
v 0.719995 -12.789999 -58.480000
v 0.719995 -15.060000 -59.860001
v 0.719995 -13.990000 -60.119999
v 0.719995 -12.789999 -58.480000
v 0.719995 -15.380000 -57.849998
v 0.719995 -15.060000 -59.860001
v -0.710005 -15.380000 -59.549999
v -0.710005 -15.640000 -58.480000
v -0.710005 -14.440000 -60.119999
v -0.710005 -15.060000 -57.529999
v -0.710005 -13.990000 -57.270000
v -0.710005 -13.050000 -57.849998
v -0.710005 -13.050000 -57.849998
v -0.710005 -13.360000 -59.860001
v -0.710005 -14.440000 -60.119999
v -0.710005 -15.060000 -57.529999
v -0.710005 -13.050000 -57.849998
v -0.710005 -14.440000 -60.119999
v -0.710005 -15.640000 -58.480000
v -0.710005 -15.060000 -57.529999
v -0.710005 -14.440000 -60.119999
vn 1.0000 0.0000 0.0000
vn -1.0000 -0.0000 0.0000
usemtl Shape.011
s 1
f 235//28 236//28 237//28
f 238//29 239//29 240//29
f 241//28 242//28 243//28
f 244//28 245//28 246//28
f 247//28 248//28 249//28
f 250//28 251//28 252//28
f 253//28 254//28 255//28
f 256//29 257//29 258//29
f 259//29 260//29 261//29
f 262//29 263//29 264//29
f 265//29 266//29 267//29
f 268//29 269//29 270//29
o Shape_IndexedFaceSet.009
v 0.449995 -8.060000 -59.459999
v 0.449995 -7.889999 -58.369999
v 0.449995 -11.660000 -58.240002
v 0.449995 -11.660000 -58.240002
v 0.449995 -7.889999 -58.369999
v -0.450005 -7.889999 -58.369999
v -0.450005 -11.660000 -58.239998
v -0.450005 -7.889999 -58.369999
v -0.450005 -8.060000 -59.459999
v 0.449995 -8.060000 -59.459999
v 0.449995 -11.830000 -59.320004
v -0.450005 -11.830000 -59.320000
v -0.950005 -14.330000 -58.169998
v -0.950005 -14.500000 -59.259998
v -0.950005 -11.830000 -59.320000
v -0.450005 -11.660000 -58.239998
v -0.450005 -11.830000 -59.320000
v 0.449995 -11.830000 -59.320004
v -0.450005 -11.830000 -59.320000
v -0.450005 -11.660000 -58.239998
v -0.950005 -11.660000 -58.239998
v 0.949995 -14.330000 -58.169998
v 0.949995 -14.500000 -59.259998
v 0.949995 -11.830000 -59.320004
v 0.449995 -11.660000 -58.240002
v 0.949995 -11.660000 -58.240002
v 0.949995 -11.830000 -59.320004
v -0.950005 -11.830000 -59.320000
v -0.950005 -14.500000 -59.259998
v -0.950005 -14.330000 -58.169998
v -0.450005 -11.660000 -58.239998
v -0.450005 -11.830000 -59.320000
v -0.950005 -11.830000 -59.320000
v 0.449995 -11.830000 -59.320004
v 0.949995 -11.830000 -59.320004
v 0.949995 -11.660000 -58.240002
v 0.949995 -11.830000 -59.320004
v 0.949995 -14.500000 -59.259998
v 0.949995 -14.330000 -58.169998
v 0.449995 -8.060000 -59.459999
v 0.449995 -11.660000 -58.240002
v 0.449995 -11.830000 -59.320004
v -0.450005 -11.660000 -58.239998
v 0.449995 -11.660000 -58.240002
v -0.450005 -7.889999 -58.369999
v -0.450005 -11.830000 -59.320000
v -0.450005 -11.660000 -58.239998
v -0.450005 -8.060000 -59.459999
v -0.450005 -8.060000 -59.459999
v 0.449995 -8.060000 -59.459999
v -0.450005 -11.830000 -59.320000
v -0.950005 -14.330000 -58.169998
v -0.950005 -11.830000 -59.320000
v -0.950005 -11.660000 -58.239998
v 0.449995 -11.660000 -58.240002
v -0.450005 -11.660000 -58.239998
v 0.449995 -11.830000 -59.320004
v -0.950005 -11.830000 -59.320000
v -0.450005 -11.830000 -59.320000
v -0.950005 -11.660000 -58.239998
v 0.949995 -14.330000 -58.169998
v 0.949995 -11.830000 -59.320004
v 0.949995 -11.660000 -58.240002
v 0.449995 -11.830000 -59.320004
v 0.449995 -11.660000 -58.240002
v 0.949995 -11.830000 -59.320004
v -0.950005 -11.830000 -59.320000
v -0.950005 -14.330000 -58.169998
v -0.950005 -11.660000 -58.239998
v -0.950005 -11.660000 -58.239998
v -0.450005 -11.660000 -58.239998
v -0.950005 -11.830000 -59.320000
v 0.449995 -11.660000 -58.240002
v 0.449995 -11.830000 -59.320004
v 0.949995 -11.660000 -58.240002
v 0.949995 -11.830000 -59.320004
v 0.949995 -14.330000 -58.169998
v 0.949995 -11.660000 -58.240002
vn 1.0000 0.0000 0.0000
vn 0.0000 0.0345 0.9994
vn -1.0000 0.0000 0.0000
vn 0.0000 -0.0371 -0.9993
vn 0.0000 -0.9878 0.1555
vn 0.0000 0.9878 -0.1555
usemtl Shape.009
s 1
f 271//30 272//30 273//30
f 274//31 275//31 276//31
f 277//32 278//32 279//32
f 280//33 281//33 282//33
f 283//30 284//30 285//30
f 286//34 287//34 288//34
f 289//34 290//34 291//34
f 292//30 293//30 294//30
f 295//35 296//35 297//35
f 298//32 299//32 300//32
f 301//35 302//35 303//35
f 304//34 305//34 306//34
f 307//32 308//32 309//32
f 310//30 311//30 312//30
f 313//31 314//31 315//31
f 316//32 317//32 318//32
f 319//33 320//33 321//33
f 322//30 323//30 324//30
f 325//34 326//34 327//34
f 328//34 329//34 330//34
f 331//30 332//30 333//30
f 334//35 335//35 336//35
f 337//32 338//32 339//32
f 340//35 341//35 342//35
f 343//34 344//34 345//34
f 346//32 347//32 348//32
o Shape_IndexedFaceSet.010
v 0.699995 -14.550000 -60.820000
v -0.700005 -14.550000 -60.820000
v -0.700005 -12.950000 -60.439999
v -0.700005 -12.950000 -60.439999
v -0.700005 -12.090000 -59.029999
v 0.699995 -12.090000 -59.029999
v -0.700005 -12.090000 -59.029999
v -0.700005 -12.480000 -57.430000
v 0.699995 -12.480000 -57.430000
v -0.700005 -12.480000 -57.430000
v -0.700005 -13.880000 -56.570000
v 0.699995 -13.880000 -56.570000
v -0.700005 -13.880000 -56.570000
v -0.700005 -15.480000 -56.959999
v 0.699995 -15.480000 -56.959999
v -0.700005 -15.480000 -56.959999
v -0.700005 -16.340000 -58.369999
v 0.699995 -16.340000 -58.369999
v 0.699995 -15.950000 -59.970001
v 0.699995 -16.340000 -58.369999
v -0.700005 -16.340000 -58.369999
v 0.699995 -14.550000 -60.820000
v 0.699995 -15.950000 -59.970001
v -0.700005 -15.950000 -59.970001
v 0.699995 -16.340000 -58.369999
v 0.699995 -15.950000 -59.970001
v 0.699995 -14.550000 -60.820000
v -0.700005 -14.550000 -60.820000
v -0.700005 -15.950000 -59.970001
v -0.700005 -16.340000 -58.369999
v 0.699995 -12.950000 -60.439999
v 0.699995 -14.550000 -60.820000
v -0.700005 -12.950000 -60.439999
v 0.699995 -12.950000 -60.439999
v -0.700005 -12.950000 -60.439999
v 0.699995 -12.090000 -59.029999
v 0.699995 -12.090000 -59.029999
v -0.700005 -12.090000 -59.029999
v 0.699995 -12.480000 -57.430000
v 0.699995 -12.480000 -57.430000
v -0.700005 -12.480000 -57.430000
v 0.699995 -13.880000 -56.570000
v 0.699995 -13.880000 -56.570000
v -0.700005 -13.880000 -56.570000
v 0.699995 -15.480000 -56.959999
v 0.699995 -15.480000 -56.959999
v -0.700005 -15.480000 -56.959999
v 0.699995 -16.340000 -58.369999
v -0.700005 -15.950000 -59.970001
v 0.699995 -15.950000 -59.970001
v -0.700005 -16.340000 -58.369999
v -0.700005 -14.550000 -60.820000
v 0.699995 -14.550000 -60.820000
v -0.700005 -15.950000 -59.970001
v 0.699995 -12.480000 -57.430000
v 0.699995 -13.880000 -56.570000
v 0.699995 -15.480000 -56.959999
v 0.699995 -15.480000 -56.959999
v 0.699995 -16.340000 -58.369999
v 0.699995 -14.550000 -60.820000
v 0.699995 -12.950000 -60.439999
v 0.699995 -12.090000 -59.029999
v 0.699995 -14.550000 -60.820000
v 0.699995 -12.480000 -57.430000
v 0.699995 -15.480000 -56.959999
v 0.699995 -14.550000 -60.820000
v 0.699995 -12.090000 -59.029999
v 0.699995 -12.480000 -57.430000
v 0.699995 -14.550000 -60.820000
v -0.700005 -12.090000 -59.029999
v -0.700005 -12.950000 -60.439999
v -0.700005 -14.550000 -60.820000
v -0.700005 -12.480000 -57.430000
v -0.700005 -15.480000 -56.959999
v -0.700005 -13.880000 -56.570000
v -0.700005 -14.550000 -60.820000
v -0.700005 -16.340000 -58.369999
v -0.700005 -15.480000 -56.959999
v -0.700005 -12.090000 -59.029999
v -0.700005 -14.550000 -60.820000
v -0.700005 -15.480000 -56.959999
v -0.700005 -12.480000 -57.430000
v -0.700005 -12.090000 -59.029999
v -0.700005 -15.480000 -56.959999
vn 0.0000 0.2311 -0.9729
vn 0.0000 0.8537 -0.5207
vn 0.0000 0.9716 0.2368
vn 0.0000 0.5234 0.8521
vn 0.0000 -0.2368 0.9716
vn 0.0000 -0.8537 0.5207
vn 0.0000 -0.9716 -0.2368
vn 0.0000 -0.5190 -0.8548
vn 1.0000 0.0000 0.0000
vn -1.0000 -0.0000 0.0000
usemtl Shape.010
s 1
f 349//36 350//36 351//36
f 352//37 353//37 354//37
f 355//38 356//38 357//38
f 358//39 359//39 360//39
f 361//40 362//40 363//40
f 364//41 365//41 366//41
f 367//42 368//42 369//42
f 370//43 371//43 372//43
f 373//44 374//44 375//44
f 376//45 377//45 378//45
f 379//36 380//36 381//36
f 382//37 383//37 384//37
f 385//38 386//38 387//38
f 388//39 389//39 390//39
f 391//40 392//40 393//40
f 394//41 395//41 396//41
f 397//42 398//42 399//42
f 400//43 401//43 402//43
f 403//44 404//44 405//44
f 406//44 407//44 408//44
f 409//44 410//44 411//44
f 412//44 413//44 414//44
f 415//44 416//44 417//44
f 418//45 419//45 420//45
f 421//45 422//45 423//45
f 424//45 425//45 426//45
f 427//45 428//45 429//45
f 430//45 431//45 432//45
o Shape_IndexedFaceSet.012
v 11.630000 -6.969999 -3.830001
v 11.630000 -14.720000 -3.830000
v 11.630000 -14.720000 -4.980001
v 10.430000 -14.720000 -4.980001
v 10.430000 -6.970000 -4.980001
v 11.630000 -6.970000 -4.980001
v 10.430000 -14.720000 -3.830000
v 10.430000 -14.720000 -4.980001
v 11.630000 -14.720000 -4.980001
v 10.430000 -6.969999 -3.830001
v 10.430000 -14.720000 -3.830000
v 11.630000 -14.720000 -3.830000
v 10.430000 -14.720000 -3.830000
v 10.430000 -6.969999 -3.830001
v 10.430000 -6.970000 -4.980001
v 11.630000 -6.970000 -4.980001
v 11.630000 -6.969999 -3.830001
v 11.630000 -14.720000 -4.980001
v 11.630000 -14.720000 -4.980001
v 10.430000 -14.720000 -4.980001
v 11.630000 -6.970000 -4.980001
v 11.630000 -14.720000 -3.830000
v 10.430000 -14.720000 -3.830000
v 11.630000 -14.720000 -4.980001
v 11.630000 -6.969999 -3.830001
v 10.430000 -6.969999 -3.830001
v 11.630000 -14.720000 -3.830000
v 10.430000 -14.720000 -4.980001
v 10.430000 -14.720000 -3.830000
v 10.430000 -6.970000 -4.980001
vn 1.0000 0.0000 0.0000
vn 0.0000 0.0000 -1.0000
vn 0.0000 -1.0000 0.0000
vn 0.0000 0.0000 1.0000
vn -1.0000 0.0000 0.0000
usemtl Shape.012
s 1
f 433//46 434//46 435//46
f 436//47 437//47 438//47
f 439//48 440//48 441//48
f 442//49 443//49 444//49
f 445//50 446//50 447//50
f 448//46 449//46 450//46
f 451//47 452//47 453//47
f 454//48 455//48 456//48
f 457//49 458//49 459//49
f 460//50 461//50 462//50
o Shape_IndexedFaceSet.017
v -14.360000 -15.960000 -4.569998
v -14.360000 -15.390000 -3.199999
v -14.360000 -14.030000 -2.639999
v -11.740000 -15.960000 -4.569998
v -11.740001 -15.390000 -5.940000
v -11.740001 -14.030000 -6.500000
v -14.360001 -14.030000 -6.500000
v -14.360001 -15.390000 -5.939998
v -14.360000 -15.960000 -4.569998
v -14.360000 -12.090000 -4.569999
v -14.360001 -12.660000 -5.939999
v -14.360001 -14.030000 -6.500000
v -14.360000 -12.090000 -4.569999
v -14.360000 -14.030000 -2.639999
v -14.360000 -12.660000 -3.199999
v -14.360001 -14.030000 -6.500000
v -14.360000 -15.960000 -4.569998
v -14.360000 -14.030000 -2.639999
v -14.360000 -12.090000 -4.569999
v -14.360001 -14.030000 -6.500000
v -14.360000 -14.030000 -2.639999
v -11.740000 -15.960000 -4.569998
v -11.740000 -14.030000 -2.639999
v -11.740000 -15.390000 -3.199999
v -11.740000 -12.090000 -4.569999
v -11.740000 -12.660000 -3.199999
v -11.740000 -14.030000 -2.639999
v -11.740001 -14.030000 -6.500000
v -11.740001 -12.660000 -5.939999
v -11.740000 -12.090000 -4.569999
v -11.740001 -14.030000 -6.500000
v -11.740000 -12.090000 -4.569999
v -11.740000 -14.030000 -2.639999
v -11.740000 -15.960000 -4.569998
v -11.740001 -14.030000 -6.500000
v -11.740000 -14.030000 -2.639999
vn -1.0000 0.0000 0.0000
vn 1.0000 0.0000 -0.0000
usemtl Shape.017
s 1
f 463//51 464//51 465//51
f 466//52 467//52 468//52
f 469//51 470//51 471//51
f 472//51 473//51 474//51
f 475//51 476//51 477//51
f 478//51 479//51 480//51
f 481//51 482//51 483//51
f 484//52 485//52 486//52
f 487//52 488//52 489//52
f 490//52 491//52 492//52
f 493//52 494//52 495//52
f 496//52 497//52 498//52
