# Blender v2.75 (sub 0) OBJ File: ''
# www.blender.org
mtllib Prop_P51NP.mtl
o ShapeIndexedFaceSet.063_ShapeIndexedFaceSet.064
v -2.600010 -0.515582 -30.995762
v -7.600010 -0.515582 -30.995760
v -7.600009 -2.056852 -29.309280
v -15.400010 -0.192550 -31.251942
v -15.400009 -2.247577 -29.003305
v -13.800010 -2.297364 -28.870897
v -7.600010 -1.658445 -30.368137
v -2.600010 -1.997150 -30.873367
v -2.600009 -2.056852 -29.309282
v -7.600009 -2.056852 -29.309280
v -7.600010 -1.658445 -30.368137
v -2.600009 -2.056852 -29.309282
v -7.600010 -1.658445 -30.368137
v -7.600010 -0.515582 -30.995760
v -2.600010 -0.515582 -30.995762
v -7.600010 -1.658445 -30.368137
v -2.600010 -0.515582 -30.995762
v -2.600010 -1.997150 -30.873367
v -7.600010 -1.658445 -30.368137
v -7.600009 -2.056852 -29.309280
v -11.500010 -2.247577 -29.003307
v -7.600010 -1.658445 -30.368137
v -11.500010 -2.247577 -29.003307
v -13.800010 -2.297364 -28.870897
v -13.800010 -2.297364 -28.870897
v -15.400009 -2.247577 -29.003305
v -15.400009 -2.197787 -29.135611
v -7.600010 -1.658445 -30.368137
v -15.400009 -2.197787 -29.135611
v -15.400009 -1.261322 -30.218672
v -7.600010 -1.658445 -30.368137
v -15.400009 -1.261322 -30.218672
v -15.400010 -0.374747 -31.169424
v -15.400010 -0.374747 -31.169424
v -15.400010 -0.192550 -31.251942
v -13.700010 -0.142764 -31.384350
v -7.600010 -1.658445 -30.368137
v -13.700010 -0.142764 -31.384350
v -11.500010 -0.192550 -31.251942
v -11.500010 -0.192550 -31.251942
v -7.600010 -0.515582 -30.995760
v -7.600010 -1.658445 -30.368137
v -2.600010 -0.515582 -30.995762
v -7.600009 -2.056852 -29.309280
v -2.600009 -2.056852 -29.309282
v -13.700010 -0.142764 -31.384350
v -13.800010 -2.297364 -28.870897
v -11.500010 -2.247577 -29.003307
v -11.500010 -0.192550 -31.251942
v -13.700010 -0.142764 -31.384350
v -11.500010 -2.247577 -29.003307
v -7.600010 -0.515582 -30.995760
v -11.500010 -2.247577 -29.003307
v -7.600009 -2.056852 -29.309280
v -7.600010 -0.515582 -30.995760
v -11.500010 -0.192550 -31.251942
v -11.500010 -2.247577 -29.003307
v -13.700010 -0.142764 -31.384350
v -15.400010 -0.192550 -31.251942
v -13.800010 -2.297364 -28.870897
v -7.600010 -1.658445 -30.368137
v -13.800010 -2.297364 -28.870897
v -15.400009 -2.197787 -29.135611
v -7.600010 -1.658445 -30.368137
v -15.400010 -0.374747 -31.169424
v -13.700010 -0.142764 -31.384350
vn 0.000000 0.738200 0.674600
vn -0.032800 0.737800 0.674300
vn -0.071400 -0.996700 -0.038000
vn -0.000000 -0.935900 -0.352200
vn 0.000000 -0.481400 -0.876500
vn -0.105700 -0.081900 -0.991000
vn 0.018100 -0.935800 -0.352100
vn -0.003500 -0.914400 -0.404700
vn -0.051000 -0.755500 -0.653200
vn -0.050200 -0.730400 -0.681100
vn -0.058800 -0.411800 -0.909400
vn 0.044800 -0.425800 -0.903700
vn 0.017700 -0.481300 -0.876400
vn 0.021100 0.758600 0.651200
vn -0.023900 0.738000 0.674400
vn 0.016800 0.738100 0.674500
vn 0.028500 0.758400 0.651200
vn 0.004600 -0.926500 -0.376300
vn -0.017900 -0.605600 -0.795600
usemtl Shape.063
s 1
f 1//1 2//1 3//1
f 4//2 5//2 6//2
f 7//3 8//3 9//3
f 10//4 11//4 12//4
f 13//5 14//5 15//5
f 16//6 17//6 18//6
f 19//7 20//7 21//7
f 22//8 23//8 24//8
f 25//4 26//4 27//4
f 28//9 29//9 30//9
f 31//10 32//10 33//10
f 34//11 35//11 36//11
f 37//12 38//12 39//12
f 40//13 41//13 42//13
f 43//1 44//1 45//1
f 46//14 47//14 48//14
f 49//15 50//15 51//15
f 52//16 53//16 54//16
f 55//16 56//16 57//16
f 58//17 59//17 60//17
f 61//18 62//18 63//18
f 64//19 65//19 66//19
o ShapeIndexedFaceSet.065_ShapeIndexedFaceSet.066
v -15.400010 -0.192550 -31.251942
v -16.300009 -0.192550 -31.251942
v -16.800009 -1.220064 -30.127623
v -15.400010 -0.374747 -31.169424
v -16.300009 -0.192550 -31.251942
v -15.400010 -0.192550 -31.251942
v -15.400009 -1.261322 -30.218672
v -16.800009 -1.220064 -30.127623
v -16.300009 -0.192550 -31.251942
v -16.300009 -2.247577 -29.003305
v -16.800009 -1.220064 -30.127623
v -15.400009 -1.261322 -30.218672
v -15.400009 -2.247577 -29.003305
v -16.300009 -2.247577 -29.003305
v -15.400009 -2.197787 -29.135611
v -16.800009 -1.220064 -30.127623
v -16.300009 -2.247577 -29.003305
v -15.400009 -2.247577 -29.003305
v -15.400010 -0.192550 -31.251942
v -16.800009 -1.220064 -30.127623
v -15.400009 -2.247577 -29.003305
v -15.400009 -1.261322 -30.218672
v -16.300009 -0.192550 -31.251942
v -15.400010 -0.374747 -31.169424
v -15.400009 -2.197787 -29.135611
v -16.300009 -2.247577 -29.003305
v -15.400009 -1.261322 -30.218672
vn 0.000000 0.738200 0.674600
vn 0.000000 -0.412600 -0.910900
vn -0.066100 -0.721800 -0.689000
vn -0.064900 -0.750800 -0.657300
vn 0.000000 -0.935900 -0.352200
vn -0.085200 -0.728700 -0.679500
vn -0.054200 -0.755300 -0.653100
usemtl Shape.065
s 1
f 67//20 68//20 69//20
f 70//21 71//21 72//21
f 73//22 74//22 75//22
f 76//23 77//23 78//23
f 79//24 80//24 81//24
f 82//20 83//20 84//20
f 85//20 86//20 87//20
f 88//25 89//25 90//25
f 91//26 92//26 93//26
o ShapeIndexedFaceSet.069_ShapeIndexedFaceSet.070
v 2.599990 -1.994877 -30.933617
v 7.599990 -1.994877 -30.933619
v 7.599990 -0.317587 -29.382355
v 15.399989 -2.338258 -31.161808
v 15.399990 -0.101871 -29.093458
v 13.799991 -0.041154 -28.965693
v 7.599990 -0.803400 -30.404064
v 2.599990 -0.508264 -30.935917
v 2.599990 -0.317587 -29.382353
v 7.599990 -0.317587 -29.382355
v 7.599990 -0.803400 -30.404064
v 2.599990 -0.317587 -29.382353
v 7.599990 -0.803400 -30.404064
v 7.599990 -1.994877 -30.933619
v 2.599990 -1.994877 -30.933617
v 7.599990 -0.803400 -30.404064
v 2.599990 -1.994877 -30.933617
v 2.599990 -0.508264 -30.935917
v 7.599990 -0.803400 -30.404064
v 7.599990 -0.317587 -29.382355
v 11.499990 -0.101871 -29.093456
v 7.599990 -0.803400 -30.404064
v 11.499990 -0.101871 -29.093456
v 13.799991 -0.041154 -28.965693
v 13.799991 -0.041154 -28.965693
v 15.399990 -0.101871 -29.093458
v 15.399990 -0.162582 -29.221121
v 7.599990 -0.803400 -30.404064
v 15.399990 -0.162582 -29.221121
v 15.399990 -1.186588 -30.221823
v 7.599990 -0.803400 -30.404064
v 15.399990 -1.186588 -30.221823
v 15.399989 -2.149782 -31.094862
v 15.399989 -2.149782 -31.094862
v 15.399989 -2.338258 -31.161808
v 13.699989 -2.398974 -31.289574
v 7.599990 -0.803400 -30.404064
v 13.699989 -2.398974 -31.289574
v 11.499990 -2.338258 -31.161808
v 11.499990 -2.338258 -31.161808
v 7.599990 -1.994877 -30.933619
v 7.599990 -0.803400 -30.404064
v 2.599990 -1.994877 -30.933617
v 7.599990 -0.317587 -29.382355
v 2.599990 -0.317587 -29.382353
v 13.699989 -2.398974 -31.289574
v 13.799991 -0.041154 -28.965693
v 11.499990 -0.101871 -29.093456
v 11.499990 -2.338258 -31.161808
v 13.699989 -2.398974 -31.289574
v 11.499990 -0.101871 -29.093456
v 7.599990 -1.994877 -30.933619
v 11.499990 -0.101871 -29.093456
v 7.599990 -0.317587 -29.382355
v 7.599990 -1.994877 -30.933619
v 11.499990 -2.338258 -31.161808
v 11.499990 -0.101871 -29.093456
v 13.699989 -2.398974 -31.289574
v 15.399989 -2.338258 -31.161808
v 13.799991 -0.041154 -28.965693
v 7.599990 -0.803400 -30.404064
v 13.799991 -0.041154 -28.965693
v 15.399990 -0.162582 -29.221121
v 7.599990 -0.803400 -30.404064
v 15.399989 -2.149782 -31.094862
v 13.699989 -2.398974 -31.289574
vn 0.000000 -0.679000 0.734100
vn 0.032800 -0.678600 0.733800
vn 0.071400 0.990000 -0.121500
vn -0.000000 0.903100 -0.429400
vn 0.000000 0.406100 -0.913800
vn 0.105700 -0.001500 -0.994400
vn -0.018100 0.903000 -0.429300
vn 0.003500 0.877300 -0.480000
vn -0.000000 0.903100 -0.429500
vn 0.051000 0.698000 -0.714300
vn 0.050200 0.670700 -0.740000
vn 0.058800 0.334100 -0.940700
vn -0.044800 0.348500 -0.936200
vn -0.017700 0.406100 -0.913700
vn -0.021100 -0.701400 0.712500
vn 0.023900 -0.678800 0.733900
vn -0.016800 -0.678900 0.734000
vn -0.028500 -0.701100 0.712500
vn -0.004600 0.891700 -0.452700
vn 0.017900 0.536700 -0.843600
usemtl Shape.069
s 1
f 94//27 95//27 96//27
f 97//28 98//28 99//28
f 100//29 101//29 102//29
f 103//30 104//30 105//30
f 106//31 107//31 108//31
f 109//32 110//32 111//32
f 112//33 113//33 114//33
f 115//34 116//34 117//34
f 118//35 119//35 120//35
f 121//36 122//36 123//36
f 124//37 125//37 126//37
f 127//38 128//38 129//38
f 130//39 131//39 132//39
f 133//40 134//40 135//40
f 136//27 137//27 138//27
f 139//41 140//41 141//41
f 142//42 143//42 144//42
f 145//43 146//43 147//43
f 148//43 149//43 150//43
f 151//44 152//44 153//44
f 154//45 155//45 156//45
f 157//46 158//46 159//46
o ShapeIndexedFaceSet.061_ShapeIndexedFaceSet.062
v 0.740290 1.342479 -31.073822
v -0.745110 1.345001 -31.013773
v -0.870410 1.410489 -29.454948
vn -0.000000 0.999100 -0.042000
usemtl Shape.061
s 1
f 160//47 161//47 162//47
o ShapeIndexedFaceSet.060_ShapeIndexedFaceSet.061
v 0.740290 1.342479 -31.073822
v 0.740290 6.338072 -31.283689
v -0.870410 6.406082 -29.664816
v 1.073790 14.121023 -31.853270
v -1.073810 14.211702 -29.694777
v -1.129110 12.618579 -29.497532
v -0.427910 6.362379 -30.705099
v -0.745110 1.345001 -31.013773
v -0.870410 1.410489 -29.454948
v -0.870410 6.406082 -29.664816
v -0.427910 6.362379 -30.705099
v -0.870410 1.410489 -29.454948
v -0.427910 6.362379 -30.705099
v 0.740290 6.338072 -31.283689
v 0.740290 1.342479 -31.073822
v -0.427910 6.362379 -30.705099
v 0.740290 1.342479 -31.073822
v -0.745110 1.345001 -31.013773
v -0.427910 6.362379 -30.705099
v -0.870410 6.406082 -29.664816
v -1.073810 10.315142 -29.531078
v -0.427910 6.362379 -30.705099
v -1.073810 10.315142 -29.531078
v -1.129110 12.618579 -29.497532
v -1.129110 12.618579 -29.497532
v -1.073810 14.211702 -29.694777
v -1.018510 14.206243 -29.824760
v -0.427910 6.362379 -30.705099
v -1.018510 14.206243 -29.824760
v -0.037410 14.162472 -30.866642
v -0.427910 6.362379 -30.705099
v -0.037410 14.162472 -30.866642
v 0.888290 14.124163 -31.778538
v 0.888290 14.124163 -31.778538
v 1.073790 14.121023 -31.853270
v 1.129090 12.417056 -31.912001
v -0.427910 6.362379 -30.705099
v 1.129090 12.417056 -31.912001
v 1.073790 10.224461 -31.689571
v 1.073790 10.224461 -31.689571
v 0.740290 6.338072 -31.283689
v -0.427910 6.362379 -30.705099
v 0.740290 1.342479 -31.073822
v -0.870410 6.406082 -29.664816
v -0.870410 1.410489 -29.454948
v 1.129090 12.417056 -31.912001
v -1.129110 12.618579 -29.497532
v -1.073810 10.315142 -29.531078
v 1.073790 10.224461 -31.689571
v 1.129090 12.417056 -31.912001
v -1.073810 10.315142 -29.531078
v 0.740290 6.338072 -31.283689
v -1.073810 10.315142 -29.531078
v -0.870410 6.406082 -29.664816
v 0.740290 6.338072 -31.283689
v 1.073790 10.224461 -31.689571
v -1.073810 10.315142 -29.531078
v 1.129090 12.417056 -31.912001
v 1.073790 14.121023 -31.853270
v -1.129110 12.618579 -29.497532
v -0.427910 6.362379 -30.705099
v -1.129110 12.618579 -29.497532
v -1.018510 14.206243 -29.824760
v -0.427910 6.362379 -30.705099
v 0.888290 14.124163 -31.778538
v 1.129090 12.417056 -31.912001
vn 0.709200 0.029600 0.704400
vn 0.708800 0.062400 0.702600
vn -0.994200 0.067900 -0.082800
vn -0.920300 -0.016400 -0.390800
vn -0.444100 -0.037600 -0.895200
vn -0.040200 0.063900 -0.997100
vn -0.920200 -0.034500 -0.390000
vn -0.896600 -0.015100 -0.442500
vn -0.727400 0.022200 -0.685900
vn -0.701200 0.020300 -0.712700
vn -0.373300 0.019900 -0.927500
vn -0.387500 -0.083400 -0.918100
vn -0.444100 -0.055300 -0.894300
vn 0.730600 0.007600 0.682700
vn 0.709000 0.053500 0.703200
vn 0.709100 0.012800 0.705000
vn 0.730400 0.000200 0.683100
vn -0.909900 -0.022000 -0.414300
vn -0.571700 -0.016500 -0.820300
usemtl Shape.060
s 1
f 163//48 164//48 165//48
f 166//49 167//49 168//49
f 169//50 170//50 171//50
f 172//51 173//51 174//51
f 175//52 176//52 177//52
f 178//53 179//53 180//53
f 181//54 182//54 183//54
f 184//55 185//55 186//55
f 187//51 188//51 189//51
f 190//56 191//56 192//56
f 193//57 194//57 195//57
f 196//58 197//58 198//58
f 199//59 200//59 201//59
f 202//60 203//60 204//60
f 205//48 206//48 207//48
f 208//61 209//61 210//61
f 211//62 212//62 213//62
f 214//63 215//63 216//63
f 217//63 218//63 219//63
f 220//64 221//64 222//64
f 223//65 224//65 225//65
f 226//66 227//66 228//66
o ShapeIndexedFaceSet.070_ShapeIndexedFaceSet.071
v 2.599990 -1.994877 -30.933617
v 2.599990 -0.508264 -30.935917
v 2.599990 -0.317587 -29.382353
vn 1.000000 0.000000 0.000000
usemtl Shape.070
s 1
f 229//67 230//67 231//67
o ShapeIndexedFaceSet.071_ShapeIndexedFaceSet.072
v 15.399989 -2.338258 -31.161808
v 16.299990 -2.338258 -31.161808
v 16.799990 -1.220064 -30.127634
v 15.399989 -2.149782 -31.094862
v 16.299990 -2.338258 -31.161808
v 15.399989 -2.338258 -31.161808
v 15.399990 -1.186588 -30.221823
v 16.799990 -1.220064 -30.127634
v 16.299990 -2.338258 -31.161808
v 16.299990 -0.101871 -29.093458
v 16.799990 -1.220064 -30.127634
v 15.399990 -1.186588 -30.221823
v 15.399990 -0.101871 -29.093458
v 16.299990 -0.101871 -29.093458
v 15.399990 -0.162582 -29.221121
v 16.799990 -1.220064 -30.127634
v 16.299990 -0.101871 -29.093458
v 15.399990 -0.101871 -29.093458
v 15.399989 -2.338258 -31.161808
v 16.799990 -1.220064 -30.127634
v 15.399990 -0.101871 -29.093458
v 15.399990 -1.186588 -30.221823
v 16.299990 -2.338258 -31.161808
v 15.399989 -2.149782 -31.094862
v 15.399990 -0.162582 -29.221121
v 16.299990 -0.101871 -29.093458
v 15.399990 -1.186588 -30.221823
vn 0.000000 -0.679000 0.734200
vn 0.000000 0.334700 -0.942300
vn 0.066100 0.661400 -0.747100
vn 0.064900 0.693000 -0.718000
vn 0.000000 0.903100 -0.429500
vn 0.000000 -0.679000 0.734100
vn 0.085200 0.669100 -0.738200
vn 0.054200 0.697900 -0.714100
usemtl Shape.071
s 1
f 232//68 233//68 234//68
f 235//69 236//69 237//69
f 238//70 239//70 240//70
f 241//71 242//71 243//71
f 244//72 245//72 246//72
f 247//68 248//68 249//68
f 250//73 251//73 252//73
f 253//74 254//74 255//74
f 256//75 257//75 258//75
o ShapeIndexedFaceSet.066_ShapeIndexedFaceSet.067
v -0.740310 -3.852938 -30.855556
v -0.740310 -8.848531 -30.645689
v 0.870390 -8.780521 -29.026819
v -1.073810 -16.651831 -30.560480
v 1.073790 -16.561153 -28.401987
v 1.129090 -14.957097 -28.339058
v 0.427890 -8.824224 -30.067102
v 0.745090 -3.850415 -30.795511
v 0.870390 -3.784928 -29.236687
v 0.870390 -8.780521 -29.026819
v 0.427890 -8.824224 -30.067102
v 0.870390 -3.784928 -29.236687
v 0.427890 -8.824224 -30.067102
v -0.740310 -8.848531 -30.645689
v -0.740310 -3.852938 -30.855556
v 0.427890 -8.824224 -30.067102
v -0.740310 -3.852938 -30.855556
v 0.745090 -3.850415 -30.795511
v 0.427890 -8.824224 -30.067102
v 0.870390 -8.780521 -29.026819
v 1.073790 -12.664589 -28.565685
v 0.427890 -8.824224 -30.067102
v 1.073790 -12.664589 -28.565685
v 1.129090 -14.957097 -28.339058
v 1.129090 -14.957097 -28.339058
v 1.073790 -16.561153 -28.401987
v 1.018490 -16.566614 -28.531971
v 0.427890 -8.824224 -30.067102
v 1.018490 -16.566614 -28.531971
v 0.037390 -16.610382 -29.573853
v 0.427890 -8.824224 -30.067102
v 0.037390 -16.610382 -29.573853
v -0.888310 -16.648691 -30.485748
v -0.888310 -16.648691 -30.485748
v -1.073810 -16.651831 -30.560480
v -1.129110 -14.958795 -30.761923
v 0.427890 -8.824224 -30.067102
v -1.129110 -14.958795 -30.761923
v -1.073810 -12.755270 -30.724178
v -1.073810 -12.755270 -30.724178
v -0.740310 -8.848531 -30.645689
v 0.427890 -8.824224 -30.067102
v -0.740310 -3.852938 -30.855556
v 0.870390 -8.780521 -29.026819
v 0.870390 -3.784928 -29.236687
v -1.129110 -14.958795 -30.761923
v 1.129090 -14.957097 -28.339058
v 1.073790 -12.664589 -28.565685
v -1.073810 -12.755270 -30.724178
v -1.129110 -14.958795 -30.761923
v 1.073790 -12.664589 -28.565685
v -0.740310 -8.848531 -30.645689
v 1.073790 -12.664589 -28.565685
v 0.870390 -8.780521 -29.026819
v -0.740310 -8.848531 -30.645689
v -1.073810 -12.755270 -30.724178
v 1.073790 -12.664589 -28.565685
v -1.129110 -14.958795 -30.761923
v -1.073810 -16.651831 -30.560480
v 1.129090 -14.957097 -28.339058
v 0.427890 -8.824224 -30.067102
v 1.129090 -14.957097 -28.339058
v 1.018490 -16.566614 -28.531971
v 0.427890 -8.824224 -30.067102
v -0.888310 -16.648691 -30.485748
v -1.129110 -14.958795 -30.761923
vn -0.709200 0.029600 0.704400
vn -0.708800 -0.003200 0.705400
vn 0.994200 -0.074700 -0.076800
vn 0.920300 -0.016400 -0.390800
vn 0.444100 -0.037600 -0.895200
vn 0.040200 -0.147300 -0.988300
vn 0.920200 0.001700 -0.391500
vn 0.896600 -0.022100 -0.442200
vn 0.727400 -0.079700 -0.681600
vn 0.701200 -0.080000 -0.708500
vn 0.373300 -0.097600 -0.922600
vn 0.387500 0.006100 -0.921900
vn 0.444100 -0.019900 -0.895800
vn -0.730600 0.049700 0.681000
vn -0.709000 0.005700 0.705200
vn -0.709100 0.046400 0.703600
vn -0.730400 0.057100 0.680700
vn 0.909900 -0.012800 -0.414700
vn 0.571700 -0.052400 -0.818800
usemtl Shape.066
s 1
f 259//76 260//76 261//76
f 262//77 263//77 264//77
f 265//78 266//78 267//78
f 268//79 269//79 270//79
f 271//80 272//80 273//80
f 274//81 275//81 276//81
f 277//82 278//82 279//82
f 280//83 281//83 282//83
f 283//79 284//79 285//79
f 286//84 287//84 288//84
f 289//85 290//85 291//85
f 292//86 293//86 294//86
f 295//87 296//87 297//87
f 298//88 299//88 300//88
f 301//76 302//76 303//76
f 304//89 305//89 306//89
f 307//90 308//90 309//90
f 310//91 311//91 312//91
f 313//91 314//91 315//91
f 316//92 317//92 318//92
f 319//93 320//93 321//93
f 322//94 323//94 324//94
o ShapeIndexedFaceSet.067_ShapeIndexedFaceSet.068
v -0.740310 -3.852938 -30.855556
v 0.745090 -3.850415 -30.795511
v 0.870390 -3.784928 -29.236687
vn 0.000000 -0.999100 0.042000
usemtl Shape.067
s 1
f 325//95 326//95 327//95
o ShapeIndexedFaceSet.068_ShapeIndexedFaceSet.069
v -1.073810 -16.651831 -30.560480
v -1.073810 -17.551037 -30.522703
v -0.000010 -18.005257 -29.422472
v -0.888310 -16.648691 -30.485748
v -1.073810 -17.551037 -30.522703
v -1.073810 -16.651831 -30.560480
v 0.037390 -16.610382 -29.573853
v -0.000010 -18.005257 -29.422472
v -1.073810 -17.551037 -30.522703
v 1.073790 -17.460360 -28.364210
v -0.000010 -18.005257 -29.422472
v 0.037390 -16.610382 -29.573853
v 1.073790 -16.561153 -28.401987
v 1.073790 -17.460360 -28.364210
v 1.018490 -16.566614 -28.531971
v -0.000010 -18.005257 -29.422472
v 1.073790 -17.460360 -28.364210
v 1.073790 -16.561153 -28.401987
v -1.073810 -16.651831 -30.560480
v -0.000010 -18.005257 -29.422472
v 1.073790 -16.561153 -28.401987
v 0.037390 -16.610382 -29.573853
v -1.073810 -17.551037 -30.522703
v -0.888310 -16.648691 -30.485748
v 1.018490 -16.566614 -28.531971
v 1.073790 -17.460360 -28.364210
v 0.037390 -16.610382 -29.573853
vn -0.709200 0.029600 0.704400
vn 0.374000 -0.038900 -0.926600
vn 0.692200 -0.096200 -0.715300
vn 0.722600 -0.093700 -0.684900
vn 0.920300 -0.016400 -0.390800
vn 0.699500 -0.114900 -0.705300
vn 0.727300 -0.082900 -0.681300
usemtl Shape.068
s 1
f 328//96 329//96 330//96
f 331//97 332//97 333//97
f 334//98 335//98 336//98
f 337//99 338//99 339//99
f 340//100 341//100 342//100
f 343//96 344//96 345//96
f 346//96 347//96 348//96
f 349//101 350//101 351//101
f 352//102 353//102 354//102
o ShapeIndexedFaceSet.064_ShapeIndexedFaceSet.065
v -2.600010 -0.515582 -30.995762
v -2.600010 -1.997150 -30.873367
v -2.600009 -2.056852 -29.309282
vn -1.000000 0.000000 0.000000
usemtl Shape.064
s 1
f 355//103 356//103 357//103
o ShapeIndexedFaceSet.062_ShapeIndexedFaceSet.063
v 1.073790 14.121023 -31.853270
v 1.073790 15.020229 -31.891047
v -0.000010 15.565128 -30.832787
v 0.888290 14.124163 -31.778538
v 1.073790 15.020229 -31.891047
v 1.073790 14.121023 -31.853270
v -0.037410 14.162472 -30.866642
v -0.000010 15.565128 -30.832787
v 1.073790 15.020229 -31.891047
v -1.073810 15.110909 -29.732553
v -0.000010 15.565128 -30.832787
v -0.037410 14.162472 -30.866642
v -1.073810 14.211702 -29.694777
v -1.073810 15.110909 -29.732553
v -1.018510 14.206243 -29.824760
v -0.000010 15.565128 -30.832787
v -1.073810 15.110909 -29.732553
v -1.073810 14.211702 -29.694777
v 1.073790 14.121023 -31.853270
v -0.000010 15.565128 -30.832787
v -1.073810 14.211702 -29.694777
v -0.037410 14.162472 -30.866642
v 1.073790 15.020229 -31.891047
v 0.888290 14.124163 -31.778538
v -1.018510 14.206243 -29.824760
v -1.073810 15.110909 -29.732553
v -0.037410 14.162472 -30.866642
vn 0.709200 0.029600 0.704400
vn -0.374000 -0.038900 -0.926600
vn -0.692200 0.035900 -0.720800
vn -0.722600 0.035900 -0.690400
vn -0.920300 -0.016400 -0.390800
vn -0.699500 0.055400 -0.712500
vn -0.727300 0.025500 -0.685900
usemtl Shape.062
s 1
f 358//104 359//104 360//104
f 361//105 362//105 363//105
f 364//106 365//106 366//106
f 367//107 368//107 369//107
f 370//108 371//108 372//108
f 373//104 374//104 375//104
f 376//104 377//104 378//104
f 379//109 380//109 381//109
f 382//110 383//110 384//110
