# Blender v2.75 (sub 0) OBJ File: ''
# www.blender.org
mtllib Prop_z64.mtl
o ShapeIndexedFaceSet.052_ShapeIndexedFaceSet.053
v 0.599998 5.600004 -42.099998
v 0.299998 3.000004 -41.900002
v 0.149998 3.000004 -42.160000
v 0.799998 11.900003 -42.200001
v 0.699998 11.900003 -42.299999
v 0.589998 14.700004 -42.219997
v 0.769998 9.200004 -42.200005
v 0.599998 5.600004 -42.099998
v 0.449998 5.600004 -42.279999
v 0.699998 11.900003 -42.299999
v 0.799998 11.900003 -42.200001
v 0.769998 9.200004 -42.200005
v 9.089998 -5.059996 -42.299999
v 9.039998 -5.139997 -42.200001
v 6.719998 -3.769996 -42.200001
v 6.799998 -3.619996 -42.299999
v 6.719998 -3.769996 -42.200001
v 3.679998 -1.819996 -42.099998
v 9.089998 -5.059996 -42.299999
v 11.569998 -6.359996 -42.220001
v 11.539998 -6.409997 -42.169998
v 3.679998 -1.819996 -42.099998
v 1.579998 -0.259996 -41.900002
v 1.659998 -0.129996 -42.160000
v -4.210002 -0.909996 -42.279999
v -4.280002 -0.779996 -42.099998
v -1.880002 0.260004 -41.900002
v -9.790002 -3.839996 -42.299995
v -12.160002 -5.339996 -42.219997
v -12.190001 -5.289996 -42.169998
v -9.790002 -3.839996 -42.299995
v -9.840002 -3.759997 -42.199997
v -7.490002 -2.429996 -42.199997
v -7.400002 -2.579996 -42.299995
v -7.490002 -2.429996 -42.199997
v -4.280002 -0.779996 -42.099998
v 0.449998 5.600004 -42.279999
v 0.599998 5.600004 -42.099998
v 0.149998 3.000004 -42.160000
v 0.799998 11.900003 -42.200001
v 0.589998 14.700004 -42.219997
v 0.649998 14.700004 -42.169998
v 0.599998 9.200004 -42.300003
v 0.769998 9.200004 -42.200005
v 0.449998 5.600004 -42.279999
v 0.699998 11.900003 -42.299999
v 0.769998 9.200004 -42.200005
v 0.599998 9.200004 -42.300003
v 9.089998 -5.059996 -42.299999
v 6.719998 -3.769996 -42.200001
v 6.799998 -3.619996 -42.299999
v 6.799998 -3.619996 -42.299999
v 3.679998 -1.819996 -42.099998
v 3.759998 -1.689996 -42.279999
v 9.039998 -5.139997 -42.200001
v 9.089998 -5.059996 -42.299999
v 11.539998 -6.409997 -42.169998
v 3.759998 -1.689996 -42.279999
v 3.679998 -1.819996 -42.099998
v 1.659998 -0.129996 -42.160000
v -4.210002 -0.909996 -42.279999
v -1.880002 0.260004 -41.900002
v -1.810002 0.130004 -42.160000
v -9.840002 -3.759997 -42.199997
v -9.790002 -3.839996 -42.299995
v -12.190001 -5.289996 -42.169998
v -9.790002 -3.839996 -42.299995
v -7.490002 -2.429996 -42.199997
v -7.400002 -2.579996 -42.299995
v -7.400002 -2.579996 -42.299995
v -4.280002 -0.779996 -42.099998
v -4.210002 -0.909996 -42.279999
vn 0.858000 -0.137100 -0.495000
vn 0.706300 0.047900 -0.706300
vn 0.767100 -0.054000 -0.639300
vn 0.707100 -0.007900 -0.707100
vn -0.369900 -0.626400 -0.686100
vn -0.295100 -0.416000 -0.860100
vn -0.283600 -0.587700 -0.757800
vn -0.545700 -0.670200 -0.503000
vn -0.263900 0.730300 -0.630100
vn -0.366500 0.538700 -0.758600
vn -0.358400 0.633300 -0.685900
vn -0.206400 0.454000 -0.866800
vn 0.762900 -0.117400 -0.635700
vn 0.639600 0.042500 -0.767500
vn 0.506900 -0.025900 -0.861600
vn 0.507000 -0.018800 -0.861800
vn -0.270400 -0.430000 -0.861400
vn -0.411900 -0.642000 -0.646700
vn -0.323700 -0.653300 -0.684500
vn -0.479700 -0.596200 -0.643800
vn -0.325500 0.807800 -0.491500
vn -0.403100 0.605700 -0.686100
vn -0.231700 0.439500 -0.867800
vn -0.355500 0.686600 -0.634200
usemtl Shape.052
s 1
f 1//1 2//1 3//1
f 4//2 5//2 6//2
f 7//3 8//3 9//3
f 10//4 11//4 12//4
f 13//5 14//5 15//5
f 16//6 17//6 18//6
f 19//7 20//7 21//7
f 22//8 23//8 24//8
f 25//9 26//9 27//9
f 28//10 29//10 30//10
f 31//11 32//11 33//11
f 34//12 35//12 36//12
f 37//13 38//13 39//13
f 40//14 41//14 42//14
f 43//15 44//15 45//15
f 46//16 47//16 48//16
f 49//17 50//17 51//17
f 52//18 53//18 54//18
f 55//19 56//19 57//19
f 58//20 59//20 60//20
f 61//21 62//21 63//21
f 64//22 65//22 66//22
f 67//23 68//23 69//23
f 70//24 71//24 72//24
o ShapeIndexedFaceSet.050_ShapeIndexedFaceSet.051
v -12.240002 -6.089996 -41.949997
v -12.410002 -6.699996 -41.719997
v -12.650002 -6.589996 -41.799995
v -12.240002 -6.089996 -41.949997
v -12.860002 -5.899996 -42.079998
v -12.570002 -5.549997 -42.149998
v -12.900002 -6.159997 -42.000000
v -12.860002 -5.899996 -42.079998
v -12.240002 -6.089996 -41.949997
v -12.240002 -6.089996 -41.949997
v -12.820002 -6.399996 -41.899998
v -12.900002 -6.159997 -42.000000
v -12.240002 -6.089996 -41.949997
v -12.650002 -6.589996 -41.799995
v -12.820002 -6.399996 -41.899998
v -12.240002 -6.089996 -41.949997
v -11.940001 -6.619997 -41.639999
v -12.410002 -6.699996 -41.719997
v -1.880002 0.260004 -41.900002
v -4.280002 -0.779996 -42.099998
v -3.680002 -1.819996 -41.599998
v -12.190001 -5.289996 -42.169998
v -11.510002 -6.449996 -41.599998
v -9.080002 -5.279997 -41.559998
v -1.660002 -0.129996 -41.639999
v -1.880002 0.260004 -41.900002
v -3.680002 -1.819996 -41.599998
v -12.900002 -6.159997 -42.000000
v -12.820002 -6.399996 -41.899998
v -12.650002 -6.589996 -41.799995
v -6.640002 -3.899996 -41.519997
v -7.050002 -3.189996 -42.139999
v -3.930002 -1.399996 -42.169998
v -7.050002 -3.189996 -42.139999
v -7.400002 -2.579996 -42.299995
v -4.210002 -0.909996 -42.279999
v -11.850002 -5.879996 -41.989998
v -9.380002 -4.549997 -42.119999
v -9.080002 -5.279997 -41.559998
v -9.380002 -4.549997 -42.119999
v -7.050002 -3.189996 -42.139999
v -6.640002 -3.899996 -41.519997
v -6.640002 -3.899996 -41.519997
v -3.930002 -1.399996 -42.169998
v -3.680002 -1.819996 -41.599998
v -3.930002 -1.399996 -42.169998
v -4.210002 -0.909996 -42.279999
v -1.810002 0.130004 -42.160000
v -9.380002 -4.549997 -42.119999
v -9.790002 -3.839996 -42.299995
v -7.400002 -2.579996 -42.299995
v -12.160002 -5.339996 -42.219997
v -9.790002 -3.839996 -42.299995
v -9.380002 -4.549997 -42.119999
v -3.680002 -1.819996 -41.599998
v -3.930002 -1.399996 -42.169998
v -1.660002 -0.129996 -42.160000
v -1.580002 -0.259996 -41.900002
v -1.660002 -0.129996 -41.639999
v -3.680002 -1.819996 -41.599998
v 1.879998 0.260004 -41.900002
v 1.809998 0.130004 -41.639999
v 4.279998 -0.779996 -41.599998
v 4.039998 -1.199996 -42.169998
v 1.809998 0.130004 -42.160000
v 1.879998 0.260004 -41.900002
v 11.569998 -6.359996 -42.220001
v 9.089998 -5.059996 -42.299999
v 9.499998 -4.349996 -42.120003
v 9.499998 -4.349996 -42.120003
v 9.089998 -5.059996 -42.299999
v 6.799998 -3.619996 -42.299999
v 4.039998 -1.199996 -42.169998
v 3.759998 -1.689996 -42.279999
v 1.659998 -0.129996 -42.160000
v 7.559998 -2.299996 -41.520000
v 4.039998 -1.199996 -42.169998
v 4.279998 -0.779996 -41.599998
v 9.499998 -4.349996 -42.120003
v 7.149998 -3.009997 -42.139999
v 7.559998 -2.299996 -41.520000
v 11.879998 -5.819997 -41.989998
v 9.499998 -4.349996 -42.120003
v 9.979998 -3.719996 -41.559998
v 7.149998 -3.009997 -42.139999
v 6.799998 -3.619996 -42.299999
v 3.759998 -1.689996 -42.279999
v 7.559998 -2.299996 -41.520000
v 7.149998 -3.009997 -42.139999
v 4.039998 -1.199996 -42.169998
v 12.649998 -6.589996 -42.000000
v 12.819998 -6.399996 -41.900002
v 12.899998 -6.159997 -41.799999
v 1.809998 0.130004 -41.639999
v 1.579998 -0.259996 -41.900002
v 4.279998 -0.779996 -41.599998
v 11.539998 -6.409997 -42.169998
v 12.209998 -5.239996 -41.599998
v 9.979998 -3.719996 -41.559998
v 1.579998 -0.259996 -41.900002
v 3.679998 -1.819996 -42.099998
v 4.279998 -0.779996 -41.599998
v 12.259998 -6.059996 -41.950001
v 12.569998 -5.529997 -41.639999
v 12.869998 -5.899996 -41.720001
v 12.259998 -6.059996 -41.950001
v 12.899998 -6.159997 -41.799999
v 12.819998 -6.399996 -41.900002
v -0.020002 15.150003 -41.950001
v -0.460002 15.600005 -41.719997
v -0.250002 15.750004 -41.799999
v -0.020002 15.150003 -41.950001
v 0.449998 15.590004 -42.079998
v 0.609998 15.160004 -42.149998
v 0.249998 15.750004 -41.999996
v 0.449998 15.590004 -42.079998
v -0.020002 15.150003 -41.950001
v -0.020002 15.150003 -41.950001
v -0.000002 15.800004 -41.899998
v 0.249998 15.750004 -41.999996
v -0.020002 15.150003 -41.950001
v -0.250002 15.750004 -41.799999
v -0.000002 15.800004 -41.899998
v -0.020002 15.150003 -41.950001
v -0.630002 15.150003 -41.639996
v -0.460002 15.600005 -41.719997
v 0.299998 3.000004 -41.900002
v 0.599998 5.600004 -42.099998
v -0.600002 5.600004 -41.599998
v 0.649998 14.700004 -42.169998
v -0.700002 14.690003 -41.599998
v -0.900002 12.000004 -41.559998
v -0.150002 3.000004 -41.639999
v 0.299998 3.000004 -41.900002
v -0.600002 5.600004 -41.599998
v 0.449998 15.590004 -42.079998
v 0.249998 15.750004 -41.999996
v -0.000002 15.800004 -41.899998
v -0.920002 9.200004 -41.520004
v -0.100002 9.200004 -42.139999
v -0.110002 5.600004 -42.169998
v -0.100002 9.200004 -42.139999
v 0.599998 9.200004 -42.300003
v 0.449998 5.600004 -42.279999
v -0.030002 14.700004 -41.989998
v -0.120002 11.900003 -42.119999
v -0.900002 12.000004 -41.559998
v -0.120002 11.900003 -42.119999
v -0.100002 9.200004 -42.139999
v -0.920002 9.200004 -41.520004
v -0.920002 9.200004 -41.520004
v -0.110002 5.600004 -42.169998
v -0.600002 5.600004 -41.599998
v -0.110002 5.600004 -42.169998
v 0.449998 5.600004 -42.279999
v 0.149998 3.000004 -42.160000
v -0.120002 11.900003 -42.119999
v 0.699998 11.900003 -42.299999
v 0.599998 9.200004 -42.300003
v 0.589998 14.700004 -42.219997
v 0.699998 11.900003 -42.299999
v -0.120002 11.900003 -42.119999
v -0.110002 5.600004 -42.169998
v -0.150002 3.000004 -42.160000
v -0.300002 3.000004 -41.900002
v -0.300002 3.000004 -41.900002
v -0.150002 3.000004 -41.639999
v -0.600002 5.600004 -41.599998
v 12.259998 -6.059996 -41.950001
v 12.819998 -6.399996 -41.900002
v 12.649998 -6.589996 -42.000000
v 12.649998 -6.589996 -42.000000
v 12.409998 -6.689996 -42.080002
v 12.259998 -6.059996 -41.950001
v 12.259998 -6.059996 -41.950001
v 12.409998 -6.689996 -42.080002
v 11.959998 -6.609996 -42.150002
v 12.259998 -6.059996 -41.950001
v 12.869998 -5.899996 -41.720001
v 12.899998 -6.159997 -41.799999
v -7.490002 -2.429996 -42.199997
v -6.640002 -3.899996 -41.519997
v -3.680002 -1.819996 -41.599998
v -7.490002 -2.429996 -42.199997
v -3.680002 -1.819996 -41.599998
v -4.280002 -0.779996 -42.099998
v -9.840002 -3.759997 -42.199997
v -9.080002 -5.279997 -41.559998
v -6.640002 -3.899996 -41.519997
v -7.490002 -2.429996 -42.199997
v -9.840002 -3.759997 -42.199997
v -6.640002 -3.899996 -41.519997
v -9.840002 -3.759997 -42.199997
v -12.190001 -5.289996 -42.169998
v -9.080002 -5.279997 -41.559998
v -12.570002 -5.549997 -42.149998
v -12.860002 -5.899996 -42.079998
v -12.900002 -6.159997 -42.000000
v -12.650002 -6.589996 -41.799995
v -12.410002 -6.699996 -41.719997
v -11.940001 -6.619997 -41.639999
v -12.570002 -5.549997 -42.149998
v -12.900002 -6.159997 -42.000000
v -12.650002 -6.589996 -41.799995
v -12.570002 -5.549997 -42.149998
v -12.650002 -6.589996 -41.799995
v -11.940001 -6.619997 -41.639999
v -7.050002 -3.189996 -42.139999
v -4.210002 -0.909996 -42.279999
v -3.930002 -1.399996 -42.169998
v -11.510002 -6.449996 -41.599998
v -11.850002 -5.879996 -41.989998
v -9.080002 -5.279997 -41.559998
v -9.080002 -5.279997 -41.559998
v -9.380002 -4.549997 -42.119999
v -6.640002 -3.899996 -41.519997
v -3.930002 -1.399996 -42.169998
v -1.810002 0.130004 -42.160000
v -1.660002 -0.129996 -42.160000
v -9.380002 -4.549997 -42.119999
v -7.400002 -2.579996 -42.299995
v -7.050002 -3.189996 -42.139999
v -11.850002 -5.879996 -41.989998
v -12.160002 -5.339996 -42.219997
v -9.380002 -4.549997 -42.119999
v -3.680002 -1.819996 -41.599998
v -1.660002 -0.129996 -42.160000
v -1.580002 -0.259996 -41.900002
v 4.279998 -0.779996 -41.599998
v 4.039998 -1.199996 -42.169998
v 1.879998 0.260004 -41.900002
v 11.879998 -5.819997 -41.989998
v 11.569998 -6.359996 -42.220001
v 9.499998 -4.349996 -42.120003
v 9.499998 -4.349996 -42.120003
v 6.799998 -3.619996 -42.299999
v 7.149998 -3.009997 -42.139999
v 4.039998 -1.199996 -42.169998
v 1.659998 -0.129996 -42.160000
v 1.809998 0.130004 -42.160000
v 9.979998 -3.719996 -41.559998
v 9.499998 -4.349996 -42.120003
v 7.559998 -2.299996 -41.520000
v 12.209998 -5.239996 -41.599998
v 11.879998 -5.819997 -41.989998
v 9.979998 -3.719996 -41.559998
v 7.149998 -3.009997 -42.139999
v 3.759998 -1.689996 -42.279999
v 4.039998 -1.199996 -42.169998
v 11.959998 -6.609996 -42.150002
v 12.409998 -6.689996 -42.080002
v 12.649998 -6.589996 -42.000000
v 12.899998 -6.159997 -41.799999
v 12.869998 -5.899996 -41.720001
v 12.569998 -5.529997 -41.639999
v 11.959998 -6.609996 -42.150002
v 12.649998 -6.589996 -42.000000
v 12.899998 -6.159997 -41.799999
v 11.959998 -6.609996 -42.150002
v 12.899998 -6.159997 -41.799999
v 12.569998 -5.529997 -41.639999
v 6.719998 -3.769996 -42.200001
v 7.559998 -2.299996 -41.520000
v 4.279998 -0.779996 -41.599998
v 6.719998 -3.769996 -42.200001
v 4.279998 -0.779996 -41.599998
v 3.679998 -1.819996 -42.099998
v 9.039998 -5.139997 -42.200001
v 9.979998 -3.719996 -41.559998
v 7.559998 -2.299996 -41.520000
v 6.719998 -3.769996 -42.200001
v 9.039998 -5.139997 -42.200001
v 7.559998 -2.299996 -41.520000
v 9.039998 -5.139997 -42.200001
v 11.539998 -6.409997 -42.169998
v 9.979998 -3.719996 -41.559998
v 0.799998 11.900003 -42.200001
v -0.900002 12.000004 -41.559998
v -0.920002 9.200004 -41.520004
v 0.769998 9.200004 -42.200005
v 0.799998 11.900003 -42.200001
v -0.920002 9.200004 -41.520004
v 0.769998 9.200004 -42.200005
v -0.600002 5.600004 -41.599998
v 0.599998 5.600004 -42.099998
v 0.769998 9.200004 -42.200005
v -0.920002 9.200004 -41.520004
v -0.600002 5.600004 -41.599998
v 0.799998 11.900003 -42.200001
v 0.649998 14.700004 -42.169998
v -0.900002 12.000004 -41.559998
v -0.000002 15.800004 -41.899998
v -0.250002 15.750004 -41.799999
v -0.460002 15.600005 -41.719997
v 0.609998 15.160004 -42.149998
v 0.449998 15.590004 -42.079998
v -0.000002 15.800004 -41.899998
v -0.000002 15.800004 -41.899998
v -0.460002 15.600005 -41.719997
v -0.630002 15.150003 -41.639996
v 0.609998 15.160004 -42.149998
v -0.000002 15.800004 -41.899998
v -0.630002 15.150003 -41.639996
v -0.100002 9.200004 -42.139999
v 0.449998 5.600004 -42.279999
v -0.110002 5.600004 -42.169998
v -0.700002 14.690003 -41.599998
v -0.030002 14.700004 -41.989998
v -0.900002 12.000004 -41.559998
v -0.900002 12.000004 -41.559998
v -0.120002 11.900003 -42.119999
v -0.920002 9.200004 -41.520004
v -0.110002 5.600004 -42.169998
v 0.149998 3.000004 -42.160000
v -0.150002 3.000004 -42.160000
v -0.120002 11.900003 -42.119999
v 0.599998 9.200004 -42.300003
v -0.100002 9.200004 -42.139999
v -0.030002 14.700004 -41.989998
v 0.589998 14.700004 -42.219997
v -0.120002 11.900003 -42.119999
v -0.600002 5.600004 -41.599998
v -0.110002 5.600004 -42.169998
v -0.300002 3.000004 -41.900002
vn 0.130200 -0.381400 -0.915200
vn 0.112700 -0.283800 -0.952200
vn 0.104200 -0.307100 -0.946000
vn 0.107700 -0.351600 -0.929900
vn 0.121300 -0.375200 -0.919000
vn 0.219300 -0.397100 -0.891200
vn -0.215300 0.319400 0.922800
vn -0.181700 0.345800 0.920500
vn -0.315100 0.397000 0.862100
vn -0.181100 0.326200 0.927800
vn 0.294400 -0.526500 -0.797600
vn 0.107700 -0.194000 -0.975100
vn 0.240600 -0.526600 -0.815400
vn 0.298900 -0.523900 -0.797600
vn 0.424900 -0.629700 -0.650300
vn 0.115800 -0.154100 -0.981200
vn 0.100100 -0.189800 -0.976700
vn 0.090600 -0.195200 -0.976600
vn 0.372900 -0.661300 -0.650800
vn 0.560900 -0.658500 0.501800
vn 0.294400 0.820700 0.489600
vn 0.443900 0.748000 -0.493500
vn 0.123800 0.176100 -0.976600
vn 0.114200 0.181600 -0.976700
vn 0.075500 0.177100 -0.981300
vn 0.333800 0.686300 -0.646200
vn 0.303900 0.521000 -0.797600
vn 0.335100 0.470400 -0.816400
vn 0.114300 0.190200 -0.975100
vn 0.309100 0.518000 -0.797600
vn -0.181200 -0.326200 0.927800
vn -0.186000 -0.466700 0.864600
vn -0.208100 -0.329500 0.920900
vn -0.169200 -0.346100 0.922800
vn 0.235800 0.384200 -0.892600
vn 0.261500 0.295700 -0.918800
vn -0.401000 0.074500 -0.913000
vn -0.302900 0.042300 -0.952100
vn -0.323800 0.067100 -0.943700
vn -0.355800 0.082600 -0.930900
vn -0.384300 0.082600 -0.919500
vn -0.453000 0.012700 -0.891400
vn 0.384500 0.026600 0.922700
vn 0.389000 -0.015200 0.921100
vn 0.498900 0.073100 0.863600
vn 0.371400 -0.000000 0.928500
vn -0.603100 0.008300 -0.797600
vn -0.222800 0.003900 -0.974800
vn -0.577500 0.056400 -0.814400
vn -0.603100 0.001400 -0.797700
vn -0.757300 -0.052800 -0.651000
vn -0.192700 -0.023000 -0.981000
vn -0.214400 0.007900 -0.976700
vn -0.214400 0.019500 -0.976600
vn -0.866100 0.011400 -0.499700
vn -0.855600 -0.155700 0.493600
vn 0.246600 0.269300 -0.930900
vn 0.212800 0.245800 -0.945700
vn 0.191000 0.241800 -0.951300
vn 0.262700 0.311300 -0.913300
vn -0.196700 0.315600 0.928300
vn -0.198100 0.329500 0.923100
vn -0.185600 0.301000 0.935400
vn -0.183100 0.323500 0.928300
vn -0.184400 0.301600 0.935400
vn -0.149800 0.311700 0.938300
vn -0.203200 0.246000 0.947700
vn -0.181200 0.326200 0.927800
vn -0.194700 0.326300 0.925000
vn 0.088100 -0.170000 -0.981500
vn 0.231600 -0.451500 -0.861700
vn 0.296900 -0.501400 -0.812700
vn 0.003300 0.001900 -1.000000
vn 0.105600 -0.195200 -0.975100
vn 0.126400 -0.326400 -0.936700
vn 0.466500 -0.725300 -0.506200
vn 0.369800 0.666800 -0.647000
vn 0.219700 0.272800 -0.936600
vn 0.116100 0.189100 -0.975100
vn -0.003300 0.001900 -1.000000
vn 0.284000 0.507000 -0.813800
vn 0.273900 0.424500 -0.863000
vn 0.103300 0.161300 -0.981500
vn -0.196100 -0.281000 0.939500
vn -0.124200 -0.304900 0.944300
vn -0.192400 -0.319700 0.927800
vn -0.185400 -0.332000 0.924900
vn -0.175200 -0.329100 0.927900
vn -0.185600 -0.336700 0.923100
vn -0.167100 -0.311100 0.935600
vn -0.189500 -0.321000 0.927900
vn -0.168700 -0.310000 0.935600
vn 0.352900 0.010800 0.935600
vn 0.373300 -0.004100 0.927700
vn 0.384600 0.007500 0.923000
vn 0.373300 0.012600 0.927600
vn 0.352800 0.008900 0.935700
vn 0.377100 -0.034300 0.925600
vn 0.365000 -0.015700 0.930900
vn 0.351500 0.033500 0.935600
vn 0.380400 0.001300 0.924800
vn -0.192700 0.008700 -0.981200
vn -0.503200 0.024600 -0.863800
vn -0.583800 -0.007400 -0.811900
vn 0.000000 -0.003800 -1.000000
vn -0.222800 0.005600 -0.974800
vn -0.347300 0.054600 -0.936200
vn -0.758300 -0.012300 -0.651800
usemtl Shape.050
s 1
f 73//25 74//25 75//25
f 76//26 77//26 78//26
f 79//27 80//27 81//27
f 82//28 83//28 84//28
f 85//29 86//29 87//29
f 88//30 89//30 90//30
f 91//31 92//31 93//31
f 94//32 95//32 96//32
f 97//33 98//33 99//33
f 100//34 101//34 102//34
f 103//35 104//35 105//35
f 106//36 107//36 108//36
f 109//37 110//37 111//37
f 112//38 113//38 114//38
f 115//39 116//39 117//39
f 118//40 119//40 120//40
f 121//41 122//41 123//41
f 124//42 125//42 126//42
f 127//43 128//43 129//43
f 130//44 131//44 132//44
f 133//45 134//45 135//45
f 136//46 137//46 138//46
f 139//47 140//47 141//47
f 142//48 143//48 144//48
f 145//49 146//49 147//49
f 148//50 149//50 150//50
f 151//51 152//51 153//51
f 154//52 155//52 156//52
f 157//53 158//53 159//53
f 160//54 161//54 162//54
f 163//55 164//55 165//55
f 166//56 167//56 168//56
f 169//57 170//57 171//57
f 172//58 173//58 174//58
f 175//59 176//59 177//59
f 178//60 179//60 180//60
f 181//61 182//61 183//61
f 184//62 185//62 186//62
f 187//63 188//63 189//63
f 190//64 191//64 192//64
f 193//65 194//65 195//65
f 196//66 197//66 198//66
f 199//67 200//67 201//67
f 202//68 203//68 204//68
f 205//69 206//69 207//69
f 208//70 209//70 210//70
f 211//71 212//71 213//71
f 214//72 215//72 216//72
f 217//73 218//73 219//73
f 220//74 221//74 222//74
f 223//75 224//75 225//75
f 226//76 227//76 228//76
f 229//77 230//77 231//77
f 232//78 233//78 234//78
f 235//79 236//79 237//79
f 238//80 239//80 240//80
f 241//81 242//81 243//81
f 244//82 245//82 246//82
f 247//83 248//83 249//83
f 250//84 251//84 252//84
f 253//85 254//85 255//85
f 256//86 257//86 258//86
f 259//87 260//87 261//87
f 262//88 263//88 264//88
f 265//89 266//89 267//89
f 268//90 269//90 270//90
f 271//91 272//91 273//91
f 274//92 275//92 276//92
f 277//93 278//93 279//93
f 280//94 281//94 282//94
f 283//95 284//95 285//95
f 286//96 287//96 288//96
f 289//97 290//97 291//97
f 292//98 293//98 294//98
f 295//99 296//99 297//99
f 298//100 299//100 300//100
f 301//101 302//101 303//101
f 304//102 305//102 306//102
f 307//103 308//103 309//103
f 310//104 311//104 312//104
f 313//105 314//105 315//105
f 316//106 317//106 318//106
f 319//107 320//107 321//107
f 322//108 323//108 324//108
f 325//109 326//109 327//109
f 328//110 329//110 330//110
f 331//111 332//111 333//111
f 334//112 335//112 336//112
f 337//113 338//113 339//113
f 340//114 341//114 342//114
f 343//115 344//115 345//115
f 346//116 347//116 348//116
f 349//117 350//117 351//117
f 352//118 353//118 354//118
f 355//119 356//119 357//119
f 358//120 359//120 360//120
f 361//121 362//121 363//121
f 364//122 365//122 366//122
f 367//123 368//123 369//123
f 370//124 371//124 372//124
f 373//125 374//125 375//125
f 376//126 377//126 378//126
f 379//127 380//127 381//127
f 382//128 383//128 384//128
f 385//129 386//129 387//129
f 388//130 389//130 390//130
f 391//131 392//131 393//131
f 394//132 395//132 396//132
o ShapeIndexedFaceSet.051_ShapeIndexedFaceSet.052
v 0.649998 14.700004 -42.169998
v 0.609998 15.160004 -42.149998
v -0.630002 15.150003 -41.639996
v 11.539998 -6.409997 -42.169998
v 11.959998 -6.609996 -42.150002
v 12.569998 -5.529997 -41.639999
v 11.879998 -5.819997 -41.989998
v 12.209998 -5.239996 -41.599998
v 12.569998 -5.529997 -41.639999
v 11.569998 -6.359996 -42.220001
v 11.879998 -5.819997 -41.989998
v 11.959998 -6.609996 -42.150002
v 11.879998 -5.819997 -41.989998
v 12.259998 -6.059996 -41.950001
v 11.959998 -6.609996 -42.150002
v 11.879998 -5.819997 -41.989998
v 12.569998 -5.529997 -41.639999
v 12.259998 -6.059996 -41.950001
v -11.850002 -5.879996 -41.989998
v -11.940001 -6.619997 -41.639999
v -12.240002 -6.089996 -41.949997
v -11.850002 -5.879996 -41.989998
v -12.240002 -6.089996 -41.949997
v -12.570002 -5.549997 -42.149998
v -12.160002 -5.339996 -42.219997
v -11.850002 -5.879996 -41.989998
v -12.570002 -5.549997 -42.149998
v -11.850002 -5.879996 -41.989998
v -11.510002 -6.449996 -41.599998
v -11.940001 -6.619997 -41.639999
v -12.190001 -5.289996 -42.169998
v -12.570002 -5.549997 -42.149998
v -11.940001 -6.619997 -41.639999
v -0.030002 14.700004 -41.989998
v -0.630002 15.150003 -41.639996
v -0.020002 15.150003 -41.950001
v -0.030002 14.700004 -41.989998
v -0.700002 14.690003 -41.599998
v -0.630002 15.150003 -41.639996
v 0.589998 14.700004 -42.219997
v -0.030002 14.700004 -41.989998
v 0.609998 15.160004 -42.149998
v -0.030002 14.700004 -41.989998
v -0.020002 15.150003 -41.950001
v 0.609998 15.160004 -42.149998
v 0.649998 14.700004 -42.169998
v 0.589998 14.700004 -42.219997
v 0.609998 15.160004 -42.149998
v 11.539998 -6.409997 -42.169998
v 11.569998 -6.359996 -42.220001
v 11.959998 -6.609996 -42.150002
v -12.190001 -5.289996 -42.169998
v -12.160002 -5.339996 -42.219997
v -12.570002 -5.549997 -42.149998
v 0.649998 14.700004 -42.169998
v -0.630002 15.150003 -41.639996
v -0.700002 14.690003 -41.599998
v 11.539998 -6.409997 -42.169998
v 12.569998 -5.529997 -41.639999
v 12.209998 -5.239996 -41.599998
v -12.190001 -5.289996 -42.169998
v -11.940001 -6.619997 -41.639999
v -11.510002 -6.449996 -41.599998
vn 0.380400 -0.007100 0.924800
vn -0.198600 -0.324500 0.924800
vn 0.254900 0.435500 -0.863300
vn 0.306500 0.218700 -0.926400
vn 0.236000 0.215800 -0.947500
vn 0.308000 0.339600 -0.888700
vn 0.144500 -0.437400 -0.887600
vn 0.069100 -0.309100 -0.948500
vn 0.034000 -0.375100 -0.926400
vn 0.253600 -0.438600 -0.862100
vn -0.180300 0.334700 0.924900
vn -0.451300 0.089000 -0.887900
vn -0.503100 0.001400 -0.864200
vn -0.343500 0.155900 -0.926100
vn -0.302600 0.091100 -0.948700
vn 0.637600 0.088700 -0.765200
vn -0.251900 -0.604600 -0.755700
vn -0.395600 0.519800 -0.757200
vn 0.388800 0.020900 0.921100
vn -0.177300 -0.347100 0.920900
vn -0.214700 0.326500 0.920500
usemtl Shape.051
s 1
f 397//133 398//133 399//133
f 400//134 401//134 402//134
f 403//135 404//135 405//135
f 406//136 407//136 408//136
f 409//137 410//137 411//137
f 412//138 413//138 414//138
f 415//139 416//139 417//139
f 418//140 419//140 420//140
f 421//141 422//141 423//141
f 424//142 425//142 426//142
f 427//143 428//143 429//143
f 430//144 431//144 432//144
f 433//145 434//145 435//145
f 436//146 437//146 438//146
f 439//147 440//147 441//147
f 442//148 443//148 444//148
f 445//149 446//149 447//149
f 448//150 449//150 450//150
f 451//151 452//151 453//151
f 454//152 455//152 456//152
f 457//153 458//153 459//153
