# Blender v2.75 (sub 0) OBJ File: ''
# www.blender.org
mtllib Prop_RQ1.mtl
o ShapeIndexedFaceSet.055_ShapeIndexedFaceSet.056
v 4.300004 1.050000 36.500000
v 2.750003 0.900000 36.500000
v 2.100003 0.600000 36.500000
v 5.250003 -0.550000 36.599998
v 6.400003 -0.500000 36.560001
v 7.600003 -0.350000 36.500000
v 2.100003 0.600000 36.500000
v 2.100003 0.150000 36.700001
v 2.700003 -0.250000 36.799999
v 2.100003 0.600000 36.500000
v 2.750003 0.900000 36.500000
v 4.300004 1.050000 36.500000
v 7.600003 -0.350000 36.500000
v 6.400003 -0.500000 36.560001
v 5.250003 -0.550000 36.599998
v 2.700003 -0.250000 36.799999
v 2.100003 0.150000 36.700001
v 2.100003 0.600000 36.500000
v -4.299997 -0.250000 36.500000
v -2.749997 -0.100000 36.500000
v -2.099997 0.200000 36.500000
v -5.249997 1.350000 36.599998
v -6.399997 1.300000 36.560001
v -7.599997 1.150000 36.500000
v -2.099997 0.200000 36.500000
v -2.099997 0.650000 36.700001
v -2.699997 1.050000 36.799999
v -2.099997 0.200000 36.500000
v -2.749997 -0.100000 36.500000
v -4.299997 -0.250000 36.500000
v -7.599997 1.150000 36.500000
v -6.399997 1.300000 36.560001
v -5.249997 1.350000 36.599998
v -2.699997 1.050000 36.799999
v -2.099997 0.650000 36.700001
v -2.099997 0.200000 36.500000
v 7.600003 -0.350000 36.500000
v 7.600003 0.900000 36.500000
v 5.800004 1.050000 36.500000
v 7.600003 -0.350000 36.500000
v 5.800004 1.050000 36.500000
v 4.300004 1.050000 36.500000
v 7.600003 -0.350000 36.500000
v 4.300004 1.050000 36.500000
v 2.100003 0.600000 36.500000
v 2.100003 0.600000 36.500000
v 5.250003 -0.550000 36.599998
v 7.600003 -0.350000 36.500000
v 2.100003 0.600000 36.500000
v 2.700003 -0.250000 36.799999
v 5.250003 -0.550000 36.599998
v 5.800004 1.050000 36.500000
v 7.600003 0.900000 36.500000
v 7.600003 -0.350000 36.500000
v 4.300004 1.050000 36.500000
v 5.800004 1.050000 36.500000
v 7.600003 -0.350000 36.500000
v 2.100003 0.600000 36.500000
v 4.300004 1.050000 36.500000
v 7.600003 -0.350000 36.500000
v 7.600003 -0.350000 36.500000
v 5.250003 -0.550000 36.599998
v 2.100003 0.600000 36.500000
v 5.250003 -0.550000 36.599998
v 2.700003 -0.250000 36.799999
v 2.100003 0.600000 36.500000
v -7.599997 1.150000 36.500000
v -7.599997 -0.100000 36.500000
v -5.799997 -0.250000 36.500000
v -7.599997 1.150000 36.500000
v -5.799997 -0.250000 36.500000
v -4.299997 -0.250000 36.500000
v -7.599997 1.150000 36.500000
v -4.299997 -0.250000 36.500000
v -2.099997 0.200000 36.500000
v -2.099997 0.200000 36.500000
v -5.249997 1.350000 36.599998
v -7.599997 1.150000 36.500000
v -2.099997 0.200000 36.500000
v -2.699997 1.050000 36.799999
v -5.249997 1.350000 36.599998
v -5.799997 -0.250000 36.500000
v -7.599997 -0.100000 36.500000
v -7.599997 1.150000 36.500000
v -4.299997 -0.250000 36.500000
v -5.799997 -0.250000 36.500000
v -7.599997 1.150000 36.500000
v -2.099997 0.200000 36.500000
v -4.299997 -0.250000 36.500000
v -7.599997 1.150000 36.500000
v -7.599997 1.150000 36.500000
v -5.249997 1.350000 36.599998
v -2.099997 0.200000 36.500000
v -5.249997 1.350000 36.599998
v -2.699997 1.050000 36.799999
v -2.099997 0.200000 36.500000
vn 0.000000 0.000000 1.000000
vn 0.026200 0.183500 0.982700
vn 0.117600 0.403300 0.907500
vn -0.000000 0.000000 -1.000000
vn -0.026200 -0.183500 -0.982700
vn -0.117600 -0.403300 -0.907500
vn -0.026200 -0.183500 0.982700
vn -0.117600 -0.403300 0.907500
vn 0.026200 0.183500 -0.982700
vn 0.117600 0.403300 -0.907500
vn 0.028100 0.162800 0.986300
vn 0.118700 0.403900 0.907100
vn -0.028100 -0.162800 -0.986300
vn -0.118700 -0.403900 -0.907100
vn -0.028100 -0.162800 0.986300
vn -0.118700 -0.403900 0.907100
vn 0.028100 0.162800 -0.986300
vn 0.118700 0.403900 -0.907100
usemtl Shape.055
s 1
f 1//1 2//1 3//1
f 4//2 5//2 6//2
f 7//3 8//3 9//3
f 10//4 11//4 12//4
f 13//5 14//5 15//5
f 16//6 17//6 18//6
f 19//1 20//1 21//1
f 22//7 23//7 24//7
f 25//8 26//8 27//8
f 28//4 29//4 30//4
f 31//9 32//9 33//9
f 34//10 35//10 36//10
f 37//1 38//1 39//1
f 40//1 41//1 42//1
f 43//1 44//1 45//1
f 46//11 47//11 48//11
f 49//12 50//12 51//12
f 52//4 53//4 54//4
f 55//4 56//4 57//4
f 58//4 59//4 60//4
f 61//13 62//13 63//13
f 64//14 65//14 66//14
f 67//1 68//1 69//1
f 70//1 71//1 72//1
f 73//1 74//1 75//1
f 76//15 77//15 78//15
f 79//16 80//16 81//16
f 82//4 83//4 84//4
f 85//4 86//4 87//4
f 88//4 89//4 90//4
f 91//17 92//17 93//17
f 94//18 95//18 96//18
o ShapeIndexedFaceSet.054_ShapeIndexedFaceSet.055
v 0.000003 2.700000 35.599998
v 0.000003 1.500000 40.000000
v 0.420003 1.420000 40.000000
v 0.880003 2.520000 35.599998
v 0.420003 1.420000 40.000000
v 0.780003 1.180000 40.000000
v 0.780003 1.180000 40.000000
v 1.020003 0.820000 40.000000
v 2.120003 1.280000 35.599998
v 1.020003 0.820000 40.000000
v 1.100003 0.400000 40.000000
v 2.300003 0.400000 35.599998
v 2.300003 0.400000 35.599998
v 1.100003 0.400000 40.000000
v 1.020003 -0.020000 40.000000
v 2.120003 -0.480000 35.599998
v 1.020003 -0.020000 40.000000
v 0.780003 -0.380000 40.000000
v 0.780003 -0.380000 40.000000
v 0.420003 -0.620000 40.000000
v 0.880003 -1.720000 35.599998
v 0.420003 -0.620000 40.000000
v 0.000003 -0.700000 40.000000
v 0.000003 -1.900000 35.599998
v 0.000003 -1.900000 35.599998
v 0.000003 -0.700000 40.000000
v -0.419997 -0.620000 40.000000
v -0.879997 -1.720000 35.599998
v -0.419997 -0.620000 40.000000
v -0.779996 -0.380000 40.000000
v -0.779996 -0.380000 40.000000
v -1.019997 -0.020000 40.000000
v -2.119997 -0.480000 35.599998
v -1.019997 -0.020000 40.000000
v -1.099997 0.400000 40.000000
v -2.299997 0.400000 35.599998
v -2.299997 0.400000 35.599998
v -1.099997 0.400000 40.000000
v -1.019997 0.820000 40.000000
v -2.119997 1.280000 35.599998
v -1.019997 0.820000 40.000000
v -0.779996 1.180000 40.000000
v -0.779996 1.180000 40.000000
v -0.419997 1.420000 40.000000
v -0.879997 2.520000 35.599998
v -0.419997 1.420000 40.000000
v 0.000003 1.500000 40.000000
v 0.000003 2.700000 35.599998
v 0.000003 1.500000 40.000000
v 0.000004 0.400000 41.400002
v 0.420003 1.420000 40.000000
v 0.420003 1.420000 40.000000
v 0.000004 0.400000 41.400002
v 0.780003 1.180000 40.000000
v 0.780003 1.180000 40.000000
v 0.000004 0.400000 41.400002
v 1.020003 0.820000 40.000000
v 1.020003 0.820000 40.000000
v 0.000004 0.400000 41.400002
v 1.100003 0.400000 40.000000
v 1.100003 0.400000 40.000000
v 0.000004 0.400000 41.400002
v 1.020003 -0.020000 40.000000
v 1.020003 -0.020000 40.000000
v 0.000004 0.400000 41.400002
v 0.780003 -0.380000 40.000000
v 0.780003 -0.380000 40.000000
v 0.000004 0.400000 41.400002
v 0.420003 -0.620000 40.000000
v 0.420003 -0.620000 40.000000
v 0.000004 0.400000 41.400002
v 0.000003 -0.700000 40.000000
v 0.000003 -0.700000 40.000000
v 0.000004 0.400000 41.400002
v -0.419997 -0.620000 40.000000
v -0.419997 -0.620000 40.000000
v 0.000004 0.400000 41.400002
v -0.779996 -0.380000 40.000000
v -0.779996 -0.380000 40.000000
v 0.000004 0.400000 41.400002
v -1.019997 -0.020000 40.000000
v -1.019997 -0.020000 40.000000
v 0.000004 0.400000 41.400002
v -1.099997 0.400000 40.000000
v -1.099997 0.400000 40.000000
v 0.000004 0.400000 41.400002
v -1.019997 0.820000 40.000000
v -1.019997 0.820000 40.000000
v 0.000004 0.400000 41.400002
v -0.779996 1.180000 40.000000
v -0.779996 1.180000 40.000000
v 0.000004 0.400000 41.400002
v -0.419997 1.420000 40.000000
v -0.419997 1.420000 40.000000
v 0.000004 0.400000 41.400002
v 0.000003 1.500000 40.000000
v 0.000003 2.700000 35.599998
v 0.420003 1.420000 40.000000
v 0.880003 2.520000 35.599998
v 0.880003 2.520000 35.599998
v 0.780003 1.180000 40.000000
v 1.630003 2.030000 35.599998
v 1.630003 2.030000 35.599998
v 0.780003 1.180000 40.000000
v 2.120003 1.280000 35.599998
v 2.120003 1.280000 35.599998
v 1.020003 0.820000 40.000000
v 2.300003 0.400000 35.599998
v 2.300003 0.400000 35.599998
v 1.020003 -0.020000 40.000000
v 2.120003 -0.480000 35.599998
v 2.120003 -0.480000 35.599998
v 0.780003 -0.380000 40.000000
v 1.630003 -1.230000 35.599998
v 1.630003 -1.230000 35.599998
v 0.780003 -0.380000 40.000000
v 0.880003 -1.720000 35.599998
v 0.880003 -1.720000 35.599998
v 0.420003 -0.620000 40.000000
v 0.000003 -1.900000 35.599998
v 0.000003 -1.900000 35.599998
v -0.419997 -0.620000 40.000000
v -0.879997 -1.720000 35.599998
v -0.879997 -1.720000 35.599998
v -0.779996 -0.380000 40.000000
v -1.629997 -1.230000 35.599998
v -1.629997 -1.230000 35.599998
v -0.779996 -0.380000 40.000000
v -2.119997 -0.480000 35.599998
v -2.119997 -0.480000 35.599998
v -1.019997 -0.020000 40.000000
v -2.299997 0.400000 35.599998
v -2.299997 0.400000 35.599998
v -1.019997 0.820000 40.000000
v -2.119997 1.280000 35.599998
v -2.119997 1.280000 35.599998
v -0.779996 1.180000 40.000000
v -1.629997 2.030000 35.599998
v -1.629997 2.030000 35.599998
v -0.779996 1.180000 40.000000
v -0.879997 2.520000 35.599998
v -0.879997 2.520000 35.599998
v -0.419997 1.420000 40.000000
v 0.000003 2.700000 35.599998
vn 0.180700 0.948900 0.258800
vn 0.536100 0.804100 0.257100
vn 0.804100 0.536100 0.257100
vn 0.948900 0.180700 0.258800
vn 0.948900 -0.180700 0.258800
vn 0.804100 -0.536100 0.257100
vn 0.536100 -0.804100 0.257100
vn 0.180700 -0.948900 0.258800
vn -0.180700 -0.948900 0.258800
vn -0.536100 -0.804100 0.257100
vn -0.804100 -0.536100 0.257100
vn -0.948900 -0.180700 0.258800
vn -0.948900 0.180700 0.258800
vn -0.804100 0.536100 0.257100
vn -0.536100 0.804100 0.257100
vn -0.180700 0.948900 0.258800
vn 0.148100 0.777600 0.611000
vn 0.439000 0.658400 0.611400
vn 0.658400 0.438900 0.611400
vn 0.777600 0.148100 0.611000
vn 0.777600 -0.148100 0.611000
vn 0.658400 -0.438900 0.611400
vn 0.438900 -0.658400 0.611400
vn 0.148100 -0.777600 0.611000
vn -0.148100 -0.777600 0.611000
vn -0.438900 -0.658400 0.611400
vn -0.658400 -0.438900 0.611400
vn -0.777600 -0.148100 0.611000
vn -0.777600 0.148100 0.611000
vn -0.658400 0.438900 0.611400
vn -0.439000 0.658400 0.611400
vn -0.148100 0.777600 0.611000
vn 0.193700 0.946800 0.257000
vn 0.528400 0.808800 0.258300
vn 0.808800 0.528400 0.258300
vn 0.946800 0.193700 0.257000
vn 0.946800 -0.193700 0.257000
vn 0.808800 -0.528400 0.258300
vn 0.528400 -0.808800 0.258300
vn 0.193700 -0.946800 0.257000
vn -0.193700 -0.946800 0.257000
vn -0.528400 -0.808800 0.258300
vn -0.808800 -0.528400 0.258300
vn -0.946800 -0.193700 0.257000
vn -0.946800 0.193700 0.257000
vn -0.808800 0.528400 0.258300
vn -0.528400 0.808800 0.258300
vn -0.193700 0.946800 0.257000
usemtl Shape.054
s 1
f 97//19 98//19 99//19
f 100//20 101//20 102//20
f 103//21 104//21 105//21
f 106//22 107//22 108//22
f 109//23 110//23 111//23
f 112//24 113//24 114//24
f 115//25 116//25 117//25
f 118//26 119//26 120//26
f 121//27 122//27 123//27
f 124//28 125//28 126//28
f 127//29 128//29 129//29
f 130//30 131//30 132//30
f 133//31 134//31 135//31
f 136//32 137//32 138//32
f 139//33 140//33 141//33
f 142//34 143//34 144//34
f 145//35 146//35 147//35
f 148//36 149//36 150//36
f 151//37 152//37 153//37
f 154//38 155//38 156//38
f 157//39 158//39 159//39
f 160//40 161//40 162//40
f 163//41 164//41 165//41
f 166//42 167//42 168//42
f 169//43 170//43 171//43
f 172//44 173//44 174//44
f 175//45 176//45 177//45
f 178//46 179//46 180//46
f 181//47 182//47 183//47
f 184//48 185//48 186//48
f 187//49 188//49 189//49
f 190//50 191//50 192//50
f 193//51 194//51 195//51
f 196//52 197//52 198//52
f 199//53 200//53 201//53
f 202//54 203//54 204//54
f 205//55 206//55 207//55
f 208//56 209//56 210//56
f 211//57 212//57 213//57
f 214//58 215//58 216//58
f 217//59 218//59 219//59
f 220//60 221//60 222//60
f 223//61 224//61 225//61
f 226//62 227//62 228//62
f 229//63 230//63 231//63
f 232//64 233//64 234//64
f 235//65 236//65 237//65
f 238//66 239//66 240//66
o ShapeIndexedFaceSet.056_ShapeIndexedFaceSet.057
v 8.500003 0.550000 36.500000
v 8.200003 0.800000 36.500000
v 7.600003 0.900000 36.500000
v 7.600003 0.900000 36.500000
v 8.200003 0.800000 36.500000
v 8.500003 0.550000 36.500000
v -8.499997 0.250000 36.500000
v -8.199997 0.000000 36.500000
v -7.599997 -0.100000 36.500000
v -7.599997 -0.100000 36.500000
v -8.199997 0.000000 36.500000
v -8.499997 0.250000 36.500000
v 8.500003 0.550000 36.500000
v 7.600003 0.900000 36.500000
v 7.600003 -0.350000 36.500000
v 8.500003 -0.150000 36.500000
v 8.500003 0.550000 36.500000
v 7.600003 -0.350000 36.500000
v 7.600003 -0.350000 36.500000
v 7.600003 0.900000 36.500000
v 8.500003 0.550000 36.500000
v 7.600003 -0.350000 36.500000
v 8.500003 0.550000 36.500000
v 8.500003 -0.150000 36.500000
v -8.499997 0.250000 36.500000
v -7.599997 -0.100000 36.500000
v -7.599997 1.150000 36.500000
v -8.499997 0.950000 36.500000
v -8.499997 0.250000 36.500000
v -7.599997 1.150000 36.500000
v -7.599997 1.150000 36.500000
v -7.599997 -0.100000 36.500000
v -8.499997 0.250000 36.500000
v -7.599997 1.150000 36.500000
v -8.499997 0.250000 36.500000
v -8.499997 0.950000 36.500000
vn -0.000000 0.000000 1.000000
vn 0.000000 0.000000 -1.000000
usemtl Shape.056
s 1
f 241//67 242//67 243//67
f 244//68 245//68 246//68
f 247//67 248//67 249//67
f 250//68 251//68 252//68
f 253//67 254//67 255//67
f 256//67 257//67 258//67
f 259//68 260//68 261//68
f 262//68 263//68 264//68
f 265//67 266//67 267//67
f 268//67 269//67 270//67
f 271//68 272//68 273//68
f 274//68 275//68 276//68
