# Blender v2.75 (sub 0) OBJ File: ''
# www.blender.org
mtllib Prop_KI61III.mtl
o ShapeIndexedFaceSet.133_ShapeIndexedFaceSet.134
v 0.598996 -15.407199 -44.910999
v -0.001404 -15.607500 -45.071602
v 0.030196 -15.066800 -45.189400
v -0.601804 -15.407199 -45.232101
v -0.869704 -15.066800 -45.303600
v 0.030196 -15.066800 -45.189400
v 0.545896 -8.302600 -45.083801
v 0.547096 -8.902200 -45.083500
v 0.056996 -8.902200 -45.292500
v -0.470304 -8.302700 -45.348900
v 0.056996 -8.302600 -45.292500
v 0.056996 -8.902200 -45.292500
v 13.655497 9.290600 -44.911003
v 14.129196 8.870800 -45.071503
v 13.645196 8.627700 -45.189404
v 14.255897 8.250700 -45.232105
v 14.095097 7.848400 -45.303604
v 13.645196 8.627700 -45.189404
v 7.529396 5.692300 -45.083801
v 8.047997 5.993000 -45.083500
v 8.293097 5.568700 -45.292500
v 8.556796 5.112000 -45.348900
v 8.037497 4.812200 -45.348900
v 7.773996 5.268900 -45.292500
v -14.279903 8.261500 -44.910999
v -14.153104 8.881600 -45.071499
v -13.700603 8.583900 -45.189400
v -13.679503 9.301400 -45.232101
v -13.250604 9.363300 -45.303600
v -13.700603 8.583900 -45.189400
v -8.100604 4.755200 -45.083801
v -8.620404 5.054000 -45.083500
v -8.375304 5.478400 -45.292500
v -7.592504 5.635300 -45.348900
v -7.856104 5.178700 -45.292500
v -8.375304 5.478400 -45.292500
v 0.598996 -15.407199 -44.910999
v 0.030196 -15.066800 -45.189400
v 0.866996 -15.066800 -44.839401
v -0.001404 -15.607500 -45.071602
v -0.601804 -15.407199 -45.232101
v 0.030196 -15.066800 -45.189400
v 0.056996 -8.302600 -45.292500
v 0.545896 -8.302600 -45.083801
v 0.056996 -8.902200 -45.292500
v -0.470304 -8.902200 -45.348900
v -0.470304 -8.302700 -45.348900
v 0.056996 -8.902200 -45.292500
v 13.655497 9.290600 -44.911003
v 13.645196 8.627700 -45.189404
v 13.226696 9.352500 -44.839405
v 14.129196 8.870800 -45.071503
v 14.255897 8.250700 -45.232105
v 13.645196 8.627700 -45.189404
v 7.773996 5.268900 -45.292500
v 7.529396 5.692300 -45.083801
v 8.293097 5.568700 -45.292500
v 8.556796 5.112000 -45.348900
v 7.773996 5.268900 -45.292500
v 8.293097 5.568700 -45.292500
v -14.279903 8.261500 -44.910999
v -13.700603 8.583900 -45.189400
v -14.119004 7.859200 -44.839500
v -14.153104 8.881600 -45.071499
v -13.679503 9.301400 -45.232101
v -13.700603 8.583900 -45.189400
v -7.856104 5.178700 -45.292500
v -8.100604 4.755200 -45.083801
v -8.375304 5.478400 -45.292500
v -8.111704 5.935100 -45.348900
v -7.592504 5.635300 -45.348900
v -8.375304 5.478400 -45.292500
vn 0.319800 -0.219500 -0.921700
vn 0.125200 -0.108600 -0.986200
vn 0.392300 0.000300 -0.919900
vn 0.106400 0.000000 -0.994300
vn 0.030300 0.386600 -0.921700
vn 0.031500 0.162700 -0.986200
vn -0.196400 0.339600 -0.919800
vn -0.053200 0.092100 -0.994300
vn -0.350000 -0.167000 -0.921700
vn -0.156600 -0.054100 -0.986200
vn -0.195900 -0.339900 -0.919900
vn -0.053200 -0.092100 -0.994300
vn 0.383600 -0.109100 -0.917000
vn 0.183000 -0.219500 -0.958300
vn 0.392600 0.000000 -0.919700
vn 0.106300 0.000000 -0.994300
vn -0.097300 0.386700 -0.917100
vn 0.098700 0.268300 -0.958300
vn -0.196300 0.339900 -0.919700
vn -0.286300 -0.277500 -0.917100
vn -0.281700 -0.048700 -0.958300
vn -0.196200 -0.340000 -0.919700
usemtl Shape.133
s 1
f 1//1 2//1 3//1
f 4//2 5//2 6//2
f 7//3 8//3 9//3
f 10//4 11//4 12//4
f 13//5 14//5 15//5
f 16//6 17//6 18//6
f 19//7 20//7 21//7
f 22//8 23//8 24//8
f 25//9 26//9 27//9
f 28//10 29//10 30//10
f 31//11 32//11 33//11
f 34//12 35//12 36//12
f 37//13 38//13 39//13
f 40//14 41//14 42//14
f 43//15 44//15 45//15
f 46//16 47//16 48//16
f 49//17 50//17 51//17
f 52//18 53//18 54//18
f 55//19 56//19 57//19
f 58//8 59//8 60//8
f 61//20 62//20 63//20
f 64//21 65//21 66//21
f 67//22 68//22 69//22
f 70//12 71//12 72//12
o ShapeIndexedFaceSet.132_ShapeIndexedFaceSet.133
v -0.056504 -2.448100 -44.865501
v -0.032804 0.823400 -44.953602
v -0.523504 0.823400 -45.211102
v -0.056504 -2.448100 -44.865501
v 1.096496 -2.448100 -44.778000
v 0.520796 0.823400 -44.931999
v -0.056704 -9.266900 -44.864498
v -0.056504 -2.448100 -44.865501
v -1.099204 -2.448100 -45.365101
v -0.056704 -9.266900 -44.864498
v 1.279996 -9.266900 -44.729000
v 1.096496 -2.448100 -44.778000
v -1.093704 -13.986300 -45.363602
v -0.051404 -13.986300 -44.884102
v -0.056704 -9.266900 -44.864498
v 1.090996 -13.986300 -44.779499
v 1.279996 -9.266900 -44.729000
v -0.056704 -9.266900 -44.864498
v -0.869704 -15.066800 -45.303600
v -0.032804 -15.066800 -44.953602
v -0.051404 -13.986300 -44.884102
v 0.866996 -15.066800 -44.839401
v 1.090996 -13.986300 -44.779499
v -0.051404 -13.986300 -44.884102
v -0.601804 -15.407199 -45.232101
v -0.001404 -15.607500 -45.071602
v -0.032804 -15.066800 -44.953602
v 0.598996 -15.407199 -44.910999
v 0.866996 -15.066800 -44.839401
v -0.032804 -15.066800 -44.953602
v 2.760296 2.243500 -44.865398
v -0.084604 0.628000 -44.953602
v 0.160696 0.203200 -45.211102
v 2.760296 2.243500 -44.865398
v 2.183896 3.241900 -44.778000
v -0.361404 1.107500 -44.931999
v 8.665796 5.652500 -44.864399
v 2.760296 2.243500 -44.865398
v 3.281696 1.340400 -45.365101
v 8.665796 5.652500 -44.864399
v 7.997396 6.810200 -44.729000
v 2.183896 3.241900 -44.778000
v 13.271496 7.114300 -45.363605
v 12.750396 8.016900 -44.884106
v 8.665796 5.652500 -44.864399
v 12.179096 9.006300 -44.779503
v 7.997396 6.810200 -44.729000
v 8.665796 5.652500 -44.864399
v 14.095097 7.848400 -45.303604
v 13.676696 8.573100 -44.953606
v 12.750396 8.016900 -44.884106
v 13.226696 9.352500 -44.839405
v 12.179096 9.006300 -44.779503
v 12.750396 8.016900 -44.884106
v 14.255897 8.250700 -45.232105
v 14.129196 8.870800 -45.071503
v 13.676696 8.573100 -44.953606
v 13.655497 9.290600 -44.911003
v 13.226696 9.352500 -44.839405
v 13.676696 8.573100 -44.953606
v -2.729204 2.349600 -44.865398
v 0.092196 0.693400 -44.953602
v 0.337396 1.118300 -45.211102
v -2.729204 2.349600 -44.865398
v -3.305704 1.351200 -44.778000
v -0.184604 0.214000 -44.931999
v -8.634404 5.759200 -44.864399
v -2.729204 2.349600 -44.865398
v -2.207904 3.252600 -45.365101
v -8.634404 5.759200 -44.864399
v -9.302704 4.601600 -44.729000
v -3.305704 1.351200 -44.778000
v -12.203104 9.017000 -45.363602
v -12.724204 8.114400 -44.884102
v -8.634404 5.759200 -44.864399
v -13.295403 7.125000 -44.779499
v -9.302704 4.601600 -44.729000
v -8.634404 5.759200 -44.864399
v -13.250604 9.363300 -45.303600
v -13.669104 8.638500 -44.953602
v -12.724204 8.114400 -44.884102
v -14.119004 7.859200 -44.839500
v -13.295403 7.125000 -44.779499
v -12.724204 8.114400 -44.884102
v -13.679503 9.301400 -45.232101
v -14.153104 8.881600 -45.071499
v -13.669104 8.638500 -44.953602
v -14.279903 8.261500 -44.910999
v -14.119004 7.859200 -44.839500
v -13.669104 8.638500 -44.953602
v -1.099204 -2.448100 -45.365101
v -0.056504 -2.448100 -44.865501
v -0.523504 0.823400 -45.211102
v -0.056504 -2.448100 -44.865501
v 0.520796 0.823400 -44.931999
v -0.032804 0.823400 -44.953602
v -1.282704 -9.266900 -45.414101
v -0.056704 -9.266900 -44.864498
v -1.099204 -2.448100 -45.365101
v -0.056704 -9.266900 -44.864498
v 1.096496 -2.448100 -44.778000
v -0.056504 -2.448100 -44.865501
v -1.093704 -13.986300 -45.363602
v -0.056704 -9.266900 -44.864498
v -1.282704 -9.266900 -45.414101
v -0.051404 -13.986300 -44.884102
v 1.090996 -13.986300 -44.779499
v -0.056704 -9.266900 -44.864498
v -0.869704 -15.066800 -45.303600
v -0.051404 -13.986300 -44.884102
v -1.093704 -13.986300 -45.363602
v -0.032804 -15.066800 -44.953602
v 0.866996 -15.066800 -44.839401
v -0.051404 -13.986300 -44.884102
v -0.601804 -15.407199 -45.232101
v -0.032804 -15.066800 -44.953602
v -0.869704 -15.066800 -45.303600
v -0.001404 -15.607500 -45.071602
v 0.598996 -15.407199 -44.910999
v -0.032804 -15.066800 -44.953602
v 3.281696 1.340400 -45.365101
v 2.760296 2.243500 -44.865398
v 0.160696 0.203200 -45.211102
v 2.760296 2.243500 -44.865398
v -0.361404 1.107500 -44.931999
v -0.084604 0.628000 -44.953602
v 9.278796 4.590800 -45.414101
v 8.665796 5.652500 -44.864399
v 3.281696 1.340400 -45.365101
v 8.665796 5.652500 -44.864399
v 2.183896 3.241900 -44.778000
v 2.760296 2.243500 -44.865398
v 13.271496 7.114300 -45.363605
v 8.665796 5.652500 -44.864399
v 9.278796 4.590800 -45.414101
v 12.750396 8.016900 -44.884106
v 12.179096 9.006300 -44.779503
v 8.665796 5.652500 -44.864399
v 14.095097 7.848400 -45.303604
v 12.750396 8.016900 -44.884106
v 13.271496 7.114300 -45.363605
v 13.676696 8.573100 -44.953606
v 13.226696 9.352500 -44.839405
v 12.750396 8.016900 -44.884106
v 14.255897 8.250700 -45.232105
v 13.676696 8.573100 -44.953606
v 14.095097 7.848400 -45.303604
v 14.129196 8.870800 -45.071503
v 13.655497 9.290600 -44.911003
v 13.676696 8.573100 -44.953606
v -2.207904 3.252600 -45.365101
v -2.729204 2.349600 -44.865398
v 0.337396 1.118300 -45.211102
v -2.729204 2.349600 -44.865398
v -0.184604 0.214000 -44.931999
v 0.092196 0.693400 -44.953602
v -8.021304 6.821000 -45.414101
v -8.634404 5.759200 -44.864399
v -2.207904 3.252600 -45.365101
v -8.634404 5.759200 -44.864399
v -3.305704 1.351200 -44.778000
v -2.729204 2.349600 -44.865398
v -12.203104 9.017000 -45.363602
v -8.634404 5.759200 -44.864399
v -8.021304 6.821000 -45.414101
v -12.724204 8.114400 -44.884102
v -13.295403 7.125000 -44.779499
v -8.634404 5.759200 -44.864399
v -13.250604 9.363300 -45.303600
v -12.724204 8.114400 -44.884102
v -12.203104 9.017000 -45.363602
v -13.669104 8.638500 -44.953602
v -14.119004 7.859200 -44.839500
v -12.724204 8.114400 -44.884102
v -13.679503 9.301400 -45.232101
v -13.669104 8.638500 -44.953602
v -13.250604 9.363300 -45.303600
v -14.153104 8.881600 -45.071499
v -14.279903 8.261500 -44.910999
v -13.669104 8.638500 -44.953602
vn -0.464500 0.027200 0.885200
vn -0.075600 0.033600 0.996600
vn -0.432100 0.000100 0.901800
vn -0.100900 0.004400 0.994900
vn -0.417900 -0.004200 0.908500
vn -0.100800 -0.006600 0.994900
vn -0.385000 -0.065800 0.920600
vn -0.091100 -0.036300 0.995200
vn -0.319700 -0.219700 0.921700
vn -0.125200 -0.108900 0.986100
vn 0.208800 -0.416000 0.885100
vn 0.008700 -0.082200 0.996600
vn 0.215900 -0.374300 0.901800
vn 0.046500 -0.089500 0.994900
vn 0.212700 -0.359800 0.908500
vn 0.056100 -0.084000 0.994900
vn 0.249500 -0.300500 0.920600
vn 0.077000 -0.060800 0.995200
vn 0.350100 -0.167200 0.921700
vn 0.156900 -0.053900 0.986100
vn 0.255900 0.388700 0.885100
vn 0.066900 0.048600 0.996600
vn 0.216200 0.374200 0.901800
vn 0.054200 0.085100 0.994900
vn 0.205300 0.364100 0.908500
vn 0.044700 0.090600 0.994900
vn 0.135500 0.366300 0.920600
vn 0.014100 0.097100 0.995200
vn -0.030300 0.386700 0.921700
vn -0.031600 0.162600 0.986200
vn -0.431900 0.033600 0.901300
vn -0.039000 0.027200 0.998900
vn -0.409100 0.004500 0.912500
vn -0.075700 0.000100 0.997100
vn -0.409100 -0.006600 0.912500
vn -0.091200 -0.004200 0.995800
vn -0.417700 -0.036200 0.907900
vn -0.125600 -0.065800 0.989900
vn -0.383500 -0.109200 0.917000
vn -0.183000 -0.219800 0.958200
vn 0.186900 -0.390800 0.901300
vn -0.004100 -0.047400 0.998900
vn 0.200700 -0.356600 0.912500
vn 0.037700 -0.065500 0.997100
vn 0.210300 -0.351000 0.912500
vn 0.049300 -0.076800 0.995800
vn 0.240200 -0.343600 0.907900
vn 0.119800 -0.075900 0.989900
vn 0.286500 -0.277500 0.917000
vn 0.281600 -0.048600 0.958300
vn 0.245100 0.357300 0.901300
vn 0.043100 0.020200 0.998900
vn 0.208400 0.352100 0.912500
vn 0.037900 0.065400 0.997100
vn 0.198800 0.357600 0.912500
vn 0.041900 0.081100 0.995800
vn 0.177600 0.379800 0.907900
vn 0.005700 0.141600 0.989900
vn 0.097100 0.386800 0.917000
vn -0.098700 0.268200 0.958300
usemtl Shape.132
s 1
f 73//23 74//23 75//23
f 76//24 77//24 78//24
f 79//25 80//25 81//25
f 82//26 83//26 84//26
f 85//27 86//27 87//27
f 88//28 89//28 90//28
f 91//29 92//29 93//29
f 94//30 95//30 96//30
f 97//31 98//31 99//31
f 100//32 101//32 102//32
f 103//33 104//33 105//33
f 106//34 107//34 108//34
f 109//35 110//35 111//35
f 112//36 113//36 114//36
f 115//37 116//37 117//37
f 118//38 119//38 120//38
f 121//39 122//39 123//39
f 124//40 125//40 126//40
f 127//41 128//41 129//41
f 130//42 131//42 132//42
f 133//43 134//43 135//43
f 136//44 137//44 138//44
f 139//45 140//45 141//45
f 142//46 143//46 144//46
f 145//47 146//47 147//47
f 148//48 149//48 150//48
f 151//49 152//49 153//49
f 154//50 155//50 156//50
f 157//51 158//51 159//51
f 160//52 161//52 162//52
f 163//53 164//53 165//53
f 166//54 167//54 168//54
f 169//55 170//55 171//55
f 172//56 173//56 174//56
f 175//57 176//57 177//57
f 178//58 179//58 180//58
f 181//59 182//59 183//59
f 184//60 185//60 186//60
f 187//61 188//61 189//61
f 190//62 191//62 192//62
f 193//63 194//63 195//63
f 196//64 197//64 198//64
f 199//65 200//65 201//65
f 202//66 203//66 204//66
f 205//67 206//67 207//67
f 208//68 209//68 210//68
f 211//69 212//69 213//69
f 214//70 215//70 216//70
f 217//71 218//71 219//71
f 220//72 221//72 222//72
f 223//73 224//73 225//73
f 226//74 227//74 228//74
f 229//75 230//75 231//75
f 232//76 233//76 234//76
f 235//77 236//77 237//77
f 238//78 239//78 240//78
f 241//79 242//79 243//79
f 244//80 245//80 246//80
f 247//81 248//81 249//81
f 250//82 251//82 252//82
o ShapeIndexedFaceSet.134_ShapeIndexedFaceSet.135
v 0.053696 -2.448100 -45.277599
v 0.030196 0.823400 -45.189400
v 0.520796 0.823400 -44.931999
v 0.053696 -2.448100 -45.277599
v -1.099204 -2.448100 -45.365101
v -0.523504 0.823400 -45.211102
v 0.053996 -9.266900 -45.278599
v 0.053696 -2.448100 -45.277599
v 1.096496 -2.448100 -44.778000
v 0.053996 -9.266900 -45.278599
v -1.282704 -9.266900 -45.414101
v -1.099204 -2.448100 -45.365101
v 1.090996 -13.986300 -44.779499
v 0.048796 -13.986300 -45.258999
v 0.053996 -9.266900 -45.278599
v -1.093704 -13.986300 -45.363602
v -1.282704 -9.266900 -45.414101
v 0.053996 -9.266900 -45.278599
v 0.866996 -15.066800 -44.839401
v 0.030196 -15.066800 -45.189400
v 0.048796 -13.986300 -45.258999
v -0.869704 -15.066800 -45.303600
v -1.093704 -13.986300 -45.363602
v 0.048796 -13.986300 -45.258999
v 2.705296 2.338800 -45.277599
v -0.116104 0.682600 -45.189400
v -0.361404 1.107500 -44.931999
v 2.705296 2.338800 -45.277599
v 3.281696 1.340400 -45.365101
v 0.160696 0.203200 -45.211102
v 8.610396 5.748500 -45.278599
v 2.705296 2.338800 -45.277599
v 2.183896 3.241900 -44.778000
v 8.610396 5.748500 -45.278599
v 9.278796 4.590800 -45.414101
v 3.281696 1.340400 -45.365101
v 12.179096 9.006300 -44.779503
v 12.700196 8.103600 -45.258904
v 8.610396 5.748500 -45.278599
v 13.271496 7.114300 -45.363605
v 9.278796 4.590800 -45.414101
v 8.610396 5.748500 -45.278599
v 13.226696 9.352500 -44.839405
v 13.645196 8.627700 -45.189404
v 12.700196 8.103600 -45.258904
v 14.095097 7.848400 -45.303604
v 13.271496 7.114300 -45.363605
v 12.700196 8.103600 -45.258904
v -2.784304 2.254200 -45.277599
v 0.060596 0.638800 -45.189400
v -0.184604 0.214000 -44.931999
v -2.784304 2.254200 -45.277599
v -2.207904 3.252600 -45.365101
v 0.337396 1.118300 -45.211102
v -8.689704 5.663300 -45.278599
v -2.784304 2.254200 -45.277599
v -3.305704 1.351200 -44.778000
v -8.689704 5.663300 -45.278599
v -8.021304 6.821000 -45.414101
v -2.207904 3.252600 -45.365101
v -13.295403 7.125000 -44.779499
v -12.774303 8.027600 -45.258900
v -8.689704 5.663300 -45.278599
v -12.203104 9.017000 -45.363602
v -8.021304 6.821000 -45.414101
v -8.689704 5.663300 -45.278599
v -14.119004 7.859200 -44.839500
v -13.700603 8.583900 -45.189400
v -12.774303 8.027600 -45.258900
v -13.250604 9.363300 -45.303600
v -12.203104 9.017000 -45.363602
v -12.774303 8.027600 -45.258900
v 1.096496 -2.448100 -44.778000
v 0.053696 -2.448100 -45.277599
v 0.520796 0.823400 -44.931999
v 0.053696 -2.448100 -45.277599
v -0.523504 0.823400 -45.211102
v 0.030196 0.823400 -45.189400
v 1.279996 -9.266900 -44.729000
v 0.053996 -9.266900 -45.278599
v 1.096496 -2.448100 -44.778000
v 0.053996 -9.266900 -45.278599
v -1.099204 -2.448100 -45.365101
v 0.053696 -2.448100 -45.277599
v 1.090996 -13.986300 -44.779499
v 0.053996 -9.266900 -45.278599
v 1.279996 -9.266900 -44.729000
v 0.048796 -13.986300 -45.258999
v -1.093704 -13.986300 -45.363602
v 0.053996 -9.266900 -45.278599
v 0.866996 -15.066800 -44.839401
v 0.048796 -13.986300 -45.258999
v 1.090996 -13.986300 -44.779499
v 0.030196 -15.066800 -45.189400
v -0.869704 -15.066800 -45.303600
v 0.048796 -13.986300 -45.258999
v 2.183896 3.241900 -44.778000
v 2.705296 2.338800 -45.277599
v -0.361404 1.107500 -44.931999
v 2.705296 2.338800 -45.277599
v 0.160696 0.203200 -45.211102
v -0.116104 0.682600 -45.189400
v 7.997396 6.810200 -44.729000
v 8.610396 5.748500 -45.278599
v 2.183896 3.241900 -44.778000
v 8.610396 5.748500 -45.278599
v 3.281696 1.340400 -45.365101
v 2.705296 2.338800 -45.277599
v 12.179096 9.006300 -44.779503
v 8.610396 5.748500 -45.278599
v 7.997396 6.810200 -44.729000
v 12.700196 8.103600 -45.258904
v 13.271496 7.114300 -45.363605
v 8.610396 5.748500 -45.278599
v 13.226696 9.352500 -44.839405
v 12.700196 8.103600 -45.258904
v 12.179096 9.006300 -44.779503
v 13.645196 8.627700 -45.189404
v 14.095097 7.848400 -45.303604
v 12.700196 8.103600 -45.258904
v -3.305704 1.351200 -44.778000
v -2.784304 2.254200 -45.277599
v -0.184604 0.214000 -44.931999
v -2.784304 2.254200 -45.277599
v 0.337396 1.118300 -45.211102
v 0.060596 0.638800 -45.189400
v -9.302704 4.601600 -44.729000
v -8.689704 5.663300 -45.278599
v -3.305704 1.351200 -44.778000
v -8.689704 5.663300 -45.278599
v -2.207904 3.252600 -45.365101
v -2.784304 2.254200 -45.277599
v -13.295403 7.125000 -44.779499
v -8.689704 5.663300 -45.278599
v -9.302704 4.601600 -44.729000
v -12.774303 8.027600 -45.258900
v -12.203104 9.017000 -45.363602
v -8.689704 5.663300 -45.278599
v -14.119004 7.859200 -44.839500
v -12.774303 8.027600 -45.258900
v -13.295403 7.125000 -44.779499
v -13.700603 8.583900 -45.189400
v -13.250604 9.363300 -45.303600
v -12.774303 8.027600 -45.258900
vn 0.464400 0.027200 -0.885200
vn 0.075600 0.033600 -0.996600
vn 0.432100 0.000200 -0.901800
vn 0.100900 0.004400 -0.994900
vn 0.418000 -0.004200 -0.908500
vn 0.100900 -0.006600 -0.994900
vn 0.385000 -0.065900 -0.920600
vn 0.091100 -0.036400 -0.995200
vn -0.255800 0.388600 -0.885200
vn -0.066900 0.048700 -0.996600
vn -0.216200 0.374100 -0.901800
vn -0.054300 0.085100 -0.994900
vn -0.205200 0.364000 -0.908500
vn -0.044700 0.090600 -0.994900
vn -0.135500 0.366300 -0.920600
vn -0.014100 0.097200 -0.995200
vn -0.208700 -0.415900 -0.885200
vn -0.008700 -0.082300 -0.996600
vn -0.215900 -0.374300 -0.901800
vn -0.046600 -0.089600 -0.994900
vn -0.212600 -0.359800 -0.908500
vn -0.056100 -0.084000 -0.994900
vn -0.249500 -0.300400 -0.920600
vn -0.077100 -0.060800 -0.995200
vn 0.431800 0.033600 -0.901300
vn 0.039100 0.027200 -0.998900
vn 0.409100 0.004500 -0.912500
vn 0.075700 0.000100 -0.997100
vn 0.409100 -0.006600 -0.912500
vn 0.091200 -0.004200 -0.995800
vn 0.417700 -0.036300 -0.907900
vn 0.125600 -0.065900 -0.989900
vn -0.245000 0.357200 -0.901300
vn -0.043200 0.020300 -0.998900
vn -0.208400 0.352000 -0.912500
vn -0.038000 0.065500 -0.997100
vn -0.198800 0.357600 -0.912500
vn -0.041900 0.081200 -0.995800
vn -0.177400 0.379800 -0.907900
vn -0.005800 0.141700 -0.989900
vn -0.186900 -0.390800 -0.901300
vn 0.004000 -0.047500 -0.998900
vn -0.200700 -0.356500 -0.912500
vn -0.037700 -0.065600 -0.997100
vn -0.210300 -0.351000 -0.912500
vn -0.049300 -0.076900 -0.995800
vn -0.240100 -0.343600 -0.907900
vn -0.119800 -0.075900 -0.989900
usemtl Shape.134
s 1
f 253//83 254//83 255//83
f 256//84 257//84 258//84
f 259//85 260//85 261//85
f 262//86 263//86 264//86
f 265//87 266//87 267//87
f 268//88 269//88 270//88
f 271//89 272//89 273//89
f 274//90 275//90 276//90
f 277//91 278//91 279//91
f 280//92 281//92 282//92
f 283//93 284//93 285//93
f 286//94 287//94 288//94
f 289//95 290//95 291//95
f 292//96 293//96 294//96
f 295//97 296//97 297//97
f 298//98 299//98 300//98
f 301//99 302//99 303//99
f 304//100 305//100 306//100
f 307//101 308//101 309//101
f 310//102 311//102 312//102
f 313//103 314//103 315//103
f 316//104 317//104 318//104
f 319//105 320//105 321//105
f 322//106 323//106 324//106
f 325//107 326//107 327//107
f 328//108 329//108 330//108
f 331//109 332//109 333//109
f 334//110 335//110 336//110
f 337//111 338//111 339//111
f 340//112 341//112 342//112
f 343//113 344//113 345//113
f 346//114 347//114 348//114
f 349//115 350//115 351//115
f 352//116 353//116 354//116
f 355//117 356//117 357//117
f 358//118 359//118 360//118
f 361//119 362//119 363//119
f 364//120 365//120 366//120
f 367//121 368//121 369//121
f 370//122 371//122 372//122
f 373//123 374//123 375//123
f 376//124 377//124 378//124
f 379//125 380//125 381//125
f 382//126 383//126 384//126
f 385//127 386//127 387//127
f 388//128 389//128 390//128
f 391//129 392//129 393//129
f 394//130 395//130 396//130
