# Blender v2.75 (sub 0) OBJ File: ''
# www.blender.org
mtllib Prop_Tenzan.mtl
o ShapeIndexedFaceSet.104_ShapeIndexedFaceSet.105
v 3.086997 -0.349700 -31.318001
v 3.079997 -0.216700 -31.521000
v 3.072997 0.273300 -31.486000
v 3.086997 -0.272700 -30.674000
v 2.456997 -0.272800 -30.674000
v 2.456997 -0.489800 -31.115000
v 3.079997 -0.216700 -31.521000
v 3.086997 -0.349700 -31.318001
v 3.086997 -0.489700 -31.115000
v 3.072997 0.273300 -31.486000
v 3.079997 -0.216700 -31.521000
v 2.449997 -0.216800 -31.521000
v 3.072997 0.273300 -31.486000
v 2.442997 0.273200 -31.486000
v 2.442997 0.490200 -31.045000
v 3.072997 0.490300 -31.045000
v 2.442997 0.490200 -31.045000
v 2.449997 0.217200 -30.639000
v 3.079997 0.217300 -30.639000
v 2.449997 0.217200 -30.639000
v 2.456997 -0.272800 -30.674000
v 7.538897 0.805700 -32.228001
v 9.029997 -0.489100 -31.570000
v 3.086997 -0.349700 -31.318001
v 7.560098 -0.706300 -29.952999
v 3.086997 -0.272700 -30.674000
v 3.086997 -0.349700 -31.318001
v 9.029997 -0.489100 -31.570000
v 7.560098 -0.706300 -29.952999
v 3.086997 -0.349700 -31.318001
v 7.538897 0.805700 -32.228001
v 3.086997 -0.349700 -31.318001
v 3.072997 0.273300 -31.486000
v 17.499998 0.001700 -31.080002
v 16.862999 -0.320400 -30.534002
v 14.903097 -0.600600 -30.114002
v 14.888897 0.603400 -31.920002
v 16.925999 0.414600 -31.640001
v 17.499998 0.001700 -31.080002
v 9.029997 -0.489100 -31.570000
v 14.903097 -0.600600 -30.114002
v 10.710097 -0.734000 -29.917999
v 10.828897 0.820000 -32.249001
v 14.888897 0.603400 -31.920002
v 9.029997 -0.489100 -31.570000
v 10.710097 -0.734000 -29.917999
v 7.560098 -0.706300 -29.952999
v 9.029997 -0.489100 -31.570000
v 10.828897 0.820000 -32.249001
v 9.029997 -0.489100 -31.570000
v 7.538897 0.805700 -32.228001
v 16.862999 -0.320400 -30.534002
v 17.499998 0.001700 -31.080002
v 16.925999 0.414600 -31.640001
v 3.072997 0.490300 -31.045000
v 3.079997 0.217300 -30.639000
v 3.086997 -0.272700 -30.674000
v 3.086997 -0.489700 -31.115000
v 3.086997 -0.349700 -31.318001
v 3.086997 -0.272700 -30.674000
v 3.086997 -0.349700 -31.318001
v 3.072997 0.273300 -31.486000
v 3.072997 0.490300 -31.045000
v 3.086997 -0.349700 -31.318001
v 3.072997 0.490300 -31.045000
v 3.086997 -0.272700 -30.674000
v 3.086997 -0.489700 -31.115000
v 3.086997 -0.272700 -30.674000
v 2.456997 -0.489800 -31.115000
v 3.079997 -0.216700 -31.521000
v 3.086997 -0.489700 -31.115000
v 2.456997 -0.489800 -31.115000
v 3.079997 -0.216700 -31.521000
v 2.456997 -0.489800 -31.115000
v 2.449997 -0.216800 -31.521000
v 3.072997 0.273300 -31.486000
v 2.449997 -0.216800 -31.521000
v 2.442997 0.273200 -31.486000
v 3.072997 0.490300 -31.045000
v 3.072997 0.273300 -31.486000
v 2.442997 0.490200 -31.045000
v 3.079997 0.217300 -30.639000
v 3.072997 0.490300 -31.045000
v 2.449997 0.217200 -30.639000
v 3.086997 -0.272700 -30.674000
v 3.079997 0.217300 -30.639000
v 2.456997 -0.272800 -30.674000
v 17.499998 0.001700 -31.080002
v 14.903097 -0.600600 -30.114002
v 9.029997 -0.489100 -31.570000
v 14.888897 0.603400 -31.920002
v 17.499998 0.001700 -31.080002
v 9.029997 -0.489100 -31.570000
v 16.862999 -0.320400 -30.534002
v 16.925999 0.414600 -31.640001
v 14.888897 0.603400 -31.920002
v 14.903097 -0.600600 -30.114002
v 14.888897 0.603400 -31.920002
v 10.828897 0.820000 -32.249001
v 3.086997 -0.272700 -30.674000
v 7.560098 -0.706300 -29.952999
v 7.538897 0.805700 -32.228001
v 3.072997 0.273300 -31.486000
v 3.086997 -0.272700 -30.674000
v 7.538897 0.805700 -32.228001
v 10.710097 -0.734000 -29.917999
v 10.828897 0.820000 -32.249001
v 7.538897 0.805700 -32.228001
v 7.560098 -0.706300 -29.952999
v 10.710097 -0.734000 -29.917999
v 7.538897 0.805700 -32.228001
v 10.710097 -0.734000 -29.917999
v 14.903097 -0.600600 -30.114002
v 10.828897 0.820000 -32.249001
v 14.903097 -0.600600 -30.114002
v 16.862999 -0.320400 -30.534002
v 14.888897 0.603400 -31.920002
vn 0.999600 0.016000 -0.024000
vn 0.000100 -0.897300 0.441500
vn 0.635500 -0.635600 -0.438300
vn -0.000000 0.071200 -0.997500
vn -0.000100 0.897300 -0.441500
vn -0.000100 0.829800 0.558000
vn 0.000000 -0.071200 0.997500
vn -0.048400 -0.496200 -0.866800
vn -0.114600 -0.986400 0.117900
vn -0.029900 -0.986700 -0.159700
vn -0.127900 -0.260900 -0.956900
vn 0.019200 -0.870800 -0.491300
vn 0.008100 -0.800900 -0.598800
vn 0.023400 -0.985200 -0.169900
vn 0.042800 -0.505800 -0.861600
vn -0.007200 -0.990200 -0.139500
vn -0.003700 -0.456400 -0.889800
vn 0.055800 0.830100 0.554800
vn 0.999900 0.014800 -0.007300
vn 1.000000 0.000000 0.000000
vn 0.999800 0.019800 -0.009800
vn 0.999800 0.017300 -0.002100
vn 0.000100 -0.829800 -0.558000
vn 0.075200 -0.924300 -0.374100
vn 0.081500 -0.672800 -0.735300
vn 0.001100 0.832800 0.553500
vn -0.000600 0.832000 0.554700
vn -0.008500 0.832800 0.553600
vn -0.006200 0.829800 0.558100
vn -0.000100 0.832100 0.554700
vn 0.001200 0.832800 0.553500
vn -0.000500 0.832100 0.554700
usemtl Shape.104
s 1
f 1//1 2//1 3//1
f 4//2 5//2 6//2
f 7//3 8//3 9//3
f 10//4 11//4 12//4
f 13//5 14//5 15//5
f 16//6 17//6 18//6
f 19//7 20//7 21//7
f 22//8 23//8 24//8
f 25//9 26//9 27//9
f 28//10 29//10 30//10
f 31//11 32//11 33//11
f 34//12 35//12 36//12
f 37//13 38//13 39//13
f 40//14 41//14 42//14
f 43//15 44//15 45//15
f 46//16 47//16 48//16
f 49//17 50//17 51//17
f 52//18 53//18 54//18
f 55//19 56//19 57//19
f 58//20 59//20 60//20
f 61//21 62//21 63//21
f 64//22 65//22 66//22
f 67//2 68//2 69//2
f 70//23 71//23 72//23
f 73//23 74//23 75//23
f 76//4 77//4 78//4
f 79//5 80//5 81//5
f 82//6 83//6 84//6
f 85//7 86//7 87//7
f 88//24 89//24 90//24
f 91//25 92//25 93//25
f 94//26 95//26 96//26
f 97//27 98//27 99//27
f 100//28 101//28 102//28
f 103//29 104//29 105//29
f 106//30 107//30 108//30
f 109//31 110//31 111//31
f 112//32 113//32 114//32
f 115//30 116//30 117//30
o ShapeIndexedFaceSet.103_ShapeIndexedFaceSet.104
v -3.087003 0.350000 -31.318001
v -3.080003 0.217000 -31.521000
v -3.073003 -0.273000 -31.486000
v -3.087003 0.273000 -30.674000
v -2.457003 0.273000 -30.674000
v -2.457003 0.490000 -31.115000
v -3.080003 0.217000 -31.521000
v -3.087003 0.350000 -31.318001
v -3.087003 0.490000 -31.115000
v -3.073003 -0.273000 -31.486000
v -3.080003 0.217000 -31.521000
v -2.450003 0.217000 -31.521000
v -3.073003 -0.273000 -31.486000
v -2.443003 -0.273000 -31.486000
v -2.443003 -0.490000 -31.045000
v -3.073003 -0.490000 -31.045000
v -2.443003 -0.490000 -31.045000
v -2.450003 -0.217000 -30.639000
v -3.080003 -0.217000 -30.639000
v -2.450003 -0.217000 -30.639000
v -2.457003 0.273000 -30.674000
v -7.539003 -0.805000 -32.228001
v -9.030003 0.490000 -31.570000
v -3.087003 0.350000 -31.318001
v -7.560002 0.707000 -29.952999
v -3.087003 0.273000 -30.674000
v -3.087003 0.350000 -31.318001
v -9.030003 0.490000 -31.570000
v -7.560002 0.707000 -29.952999
v -3.087003 0.350000 -31.318001
v -7.539003 -0.805000 -32.228001
v -3.087003 0.350000 -31.318001
v -3.073003 -0.273000 -31.486000
v -17.500002 0.000000 -31.079998
v -16.863003 0.322000 -30.533998
v -14.903003 0.602000 -30.113998
v -14.889003 -0.602000 -31.919998
v -16.926003 -0.413000 -31.639997
v -17.500002 0.000000 -31.079998
v -9.030003 0.490000 -31.570000
v -14.903003 0.602000 -30.113998
v -10.710003 0.735000 -29.917999
v -10.829003 -0.819000 -32.249001
v -14.889003 -0.602000 -31.919998
v -9.030003 0.490000 -31.570000
v -10.710003 0.735000 -29.917999
v -7.560002 0.707000 -29.952999
v -9.030003 0.490000 -31.570000
v -10.829003 -0.819000 -32.249001
v -9.030003 0.490000 -31.570000
v -7.539003 -0.805000 -32.228001
v -16.863003 0.322000 -30.533998
v -17.500002 0.000000 -31.079998
v -16.926003 -0.413000 -31.639997
v -3.073003 -0.490000 -31.045000
v -3.080003 -0.217000 -30.639000
v -3.087003 0.273000 -30.674000
v -3.087003 0.490000 -31.115000
v -3.087003 0.350000 -31.318001
v -3.087003 0.273000 -30.674000
v -3.087003 0.350000 -31.318001
v -3.073003 -0.273000 -31.486000
v -3.073003 -0.490000 -31.045000
v -3.087003 0.350000 -31.318001
v -3.073003 -0.490000 -31.045000
v -3.087003 0.273000 -30.674000
v -3.087003 0.490000 -31.115000
v -3.087003 0.273000 -30.674000
v -2.457003 0.490000 -31.115000
v -3.080003 0.217000 -31.521000
v -3.087003 0.490000 -31.115000
v -2.457003 0.490000 -31.115000
v -3.080003 0.217000 -31.521000
v -2.457003 0.490000 -31.115000
v -2.450003 0.217000 -31.521000
v -3.073003 -0.273000 -31.486000
v -2.450003 0.217000 -31.521000
v -2.443003 -0.273000 -31.486000
v -3.073003 -0.490000 -31.045000
v -3.073003 -0.273000 -31.486000
v -2.443003 -0.490000 -31.045000
v -3.080003 -0.217000 -30.639000
v -3.073003 -0.490000 -31.045000
v -2.450003 -0.217000 -30.639000
v -3.087003 0.273000 -30.674000
v -3.080003 -0.217000 -30.639000
v -2.457003 0.273000 -30.674000
v -17.500002 0.000000 -31.079998
v -14.903003 0.602000 -30.113998
v -9.030003 0.490000 -31.570000
v -14.889003 -0.602000 -31.919998
v -17.500002 0.000000 -31.079998
v -9.030003 0.490000 -31.570000
v -16.863003 0.322000 -30.533998
v -16.926003 -0.413000 -31.639997
v -14.889003 -0.602000 -31.919998
v -14.903003 0.602000 -30.113998
v -14.889003 -0.602000 -31.919998
v -10.829003 -0.819000 -32.249001
v -3.087003 0.273000 -30.674000
v -7.560002 0.707000 -29.952999
v -7.539003 -0.805000 -32.228001
v -3.073003 -0.273000 -31.486000
v -3.087003 0.273000 -30.674000
v -7.539003 -0.805000 -32.228001
v -10.710003 0.735000 -29.917999
v -10.829003 -0.819000 -32.249001
v -7.539003 -0.805000 -32.228001
v -7.560002 0.707000 -29.952999
v -10.710003 0.735000 -29.917999
v -7.539003 -0.805000 -32.228001
v -10.710003 0.735000 -29.917999
v -14.903003 0.602000 -30.113998
v -10.829003 -0.819000 -32.249001
v -14.903003 0.602000 -30.113998
v -16.863003 0.322000 -30.533998
v -14.889003 -0.602000 -31.919998
vn -0.999600 -0.016000 -0.024000
vn 0.000000 0.897300 0.441500
vn -0.636100 0.635200 -0.438100
vn 0.000000 -0.071200 -0.997500
vn 0.000000 -0.897300 -0.441500
vn 0.000000 -0.829800 0.558000
vn 0.000000 0.071200 0.997500
vn 0.048400 0.496200 -0.866800
vn 0.114700 0.986400 0.117900
vn 0.030000 0.986700 -0.159700
vn 0.127900 0.260900 -0.956900
vn -0.019100 0.870800 -0.491200
vn -0.008000 0.800800 -0.598800
vn -0.023300 0.985200 -0.169800
vn -0.042800 0.505700 -0.861600
vn 0.007300 0.990200 -0.139500
vn 0.003700 0.456400 -0.889800
vn -0.056000 -0.830100 0.554800
vn -0.999900 -0.014800 -0.007300
vn -1.000000 0.000000 0.000000
vn -0.999800 -0.019800 -0.009800
vn -0.999800 -0.017300 -0.002100
vn 0.000000 0.829800 -0.558000
vn -0.075100 0.924300 -0.374100
vn -0.081500 0.672800 -0.735400
vn -0.001200 -0.832800 0.553500
vn 0.000500 -0.832000 0.554700
vn 0.008400 -0.832800 0.553600
vn 0.006100 -0.829800 0.558100
vn 0.000000 -0.832100 0.554700
vn -0.001300 -0.832800 0.553500
vn 0.000500 -0.832100 0.554700
usemtl Shape.103
s 1
f 118//33 119//33 120//33
f 121//34 122//34 123//34
f 124//35 125//35 126//35
f 127//36 128//36 129//36
f 130//37 131//37 132//37
f 133//38 134//38 135//38
f 136//39 137//39 138//39
f 139//40 140//40 141//40
f 142//41 143//41 144//41
f 145//42 146//42 147//42
f 148//43 149//43 150//43
f 151//44 152//44 153//44
f 154//45 155//45 156//45
f 157//46 158//46 159//46
f 160//47 161//47 162//47
f 163//48 164//48 165//48
f 166//49 167//49 168//49
f 169//50 170//50 171//50
f 172//51 173//51 174//51
f 175//52 176//52 177//52
f 178//53 179//53 180//53
f 181//54 182//54 183//54
f 184//34 185//34 186//34
f 187//55 188//55 189//55
f 190//55 191//55 192//55
f 193//36 194//36 195//36
f 196//37 197//37 198//37
f 199//38 200//38 201//38
f 202//39 203//39 204//39
f 205//56 206//56 207//56
f 208//57 209//57 210//57
f 211//58 212//58 213//58
f 214//59 215//59 216//59
f 217//60 218//60 219//60
f 220//61 221//61 222//61
f 223//62 224//62 225//62
f 226//63 227//63 228//63
f 229//64 230//64 231//64
f 232//62 233//62 234//62
o ShapeIndexedFaceSet.105_ShapeIndexedFaceSet.106
v -0.350003 -3.087000 -31.318001
v -0.217003 -3.080000 -31.521000
v 0.272997 -3.073000 -31.486000
v -0.273003 -3.087000 -30.674000
v -0.273003 -2.457000 -30.674000
v -0.490003 -2.457000 -31.115000
v -0.217003 -3.080000 -31.521000
v -0.350003 -3.087000 -31.318001
v -0.490003 -3.087000 -31.115000
v 0.272997 -3.073000 -31.486000
v -0.217003 -3.080000 -31.521000
v -0.217003 -2.450000 -31.521000
v 0.272997 -3.073000 -31.486000
v 0.272997 -2.443000 -31.486000
v 0.489997 -2.443000 -31.045000
v 0.489997 -3.073000 -31.045000
v 0.489997 -2.443000 -31.045000
v 0.216997 -2.450000 -30.639000
v 0.216997 -3.080000 -30.639000
v 0.216997 -2.450000 -30.639000
v -0.273003 -2.457000 -30.674000
v 0.804997 -7.539000 -32.228001
v -0.490003 -9.030001 -31.570000
v -0.350003 -3.087000 -31.318001
v -0.707003 -7.560000 -29.952999
v -0.273003 -3.087000 -30.674000
v -0.350003 -3.087000 -31.318001
v -0.490003 -9.030001 -31.570000
v -0.707003 -7.560000 -29.952999
v -0.350003 -3.087000 -31.318001
v 0.804997 -7.539000 -32.228001
v -0.350003 -3.087000 -31.318001
v 0.272997 -3.073000 -31.486000
v -0.000003 -17.500000 -31.080000
v -0.322003 -16.863001 -30.534000
v -0.602003 -14.903000 -30.114000
v 0.601997 -14.889000 -31.920000
v 0.412997 -16.926001 -31.639999
v -0.000003 -17.500000 -31.080000
v -0.490003 -9.030001 -31.570000
v -0.602003 -14.903000 -30.114000
v -0.735003 -10.710000 -29.917999
v 0.818997 -10.829000 -32.249001
v 0.601997 -14.889000 -31.920000
v -0.490003 -9.030001 -31.570000
v -0.735003 -10.710000 -29.917999
v -0.707003 -7.560000 -29.952999
v -0.490003 -9.030001 -31.570000
v 0.818997 -10.829000 -32.249001
v -0.490003 -9.030001 -31.570000
v 0.804997 -7.539000 -32.228001
v -0.322003 -16.863001 -30.534000
v -0.000003 -17.500000 -31.080000
v 0.412997 -16.926001 -31.639999
v 0.489997 -3.073000 -31.045000
v 0.216997 -3.080000 -30.639000
v -0.273003 -3.087000 -30.674000
v -0.490003 -3.087000 -31.115000
v -0.350003 -3.087000 -31.318001
v -0.273003 -3.087000 -30.674000
v -0.350003 -3.087000 -31.318001
v 0.272997 -3.073000 -31.486000
v 0.489997 -3.073000 -31.045000
v -0.350003 -3.087000 -31.318001
v 0.489997 -3.073000 -31.045000
v -0.273003 -3.087000 -30.674000
v -0.490003 -3.087000 -31.115000
v -0.273003 -3.087000 -30.674000
v -0.490003 -2.457000 -31.115000
v -0.217003 -3.080000 -31.521000
v -0.490003 -3.087000 -31.115000
v -0.490003 -2.457000 -31.115000
v -0.217003 -3.080000 -31.521000
v -0.490003 -2.457000 -31.115000
v -0.217003 -2.450000 -31.521000
v 0.272997 -3.073000 -31.486000
v -0.217003 -2.450000 -31.521000
v 0.272997 -2.443000 -31.486000
v 0.489997 -3.073000 -31.045000
v 0.272997 -3.073000 -31.486000
v 0.489997 -2.443000 -31.045000
v 0.216997 -3.080000 -30.639000
v 0.489997 -3.073000 -31.045000
v 0.216997 -2.450000 -30.639000
v -0.273003 -3.087000 -30.674000
v 0.216997 -3.080000 -30.639000
v -0.273003 -2.457000 -30.674000
v -0.000003 -17.500000 -31.080000
v -0.602003 -14.903000 -30.114000
v -0.490003 -9.030001 -31.570000
v 0.601997 -14.889000 -31.920000
v -0.000003 -17.500000 -31.080000
v -0.490003 -9.030001 -31.570000
v -0.322003 -16.863001 -30.534000
v 0.412997 -16.926001 -31.639999
v 0.601997 -14.889000 -31.920000
v -0.602003 -14.903000 -30.114000
v 0.601997 -14.889000 -31.920000
v 0.818997 -10.829000 -32.249001
v -0.273003 -3.087000 -30.674000
v -0.707003 -7.560000 -29.952999
v 0.804997 -7.539000 -32.228001
v 0.272997 -3.073000 -31.486000
v -0.273003 -3.087000 -30.674000
v 0.804997 -7.539000 -32.228001
v -0.735003 -10.710000 -29.917999
v 0.818997 -10.829000 -32.249001
v 0.804997 -7.539000 -32.228001
v -0.707003 -7.560000 -29.952999
v -0.735003 -10.710000 -29.917999
v 0.804997 -7.539000 -32.228001
v -0.735003 -10.710000 -29.917999
v -0.602003 -14.903000 -30.114000
v 0.818997 -10.829000 -32.249001
v -0.602003 -14.903000 -30.114000
v -0.322003 -16.863001 -30.534000
v 0.601997 -14.889000 -31.920000
vn 0.016000 -0.999600 -0.024000
vn -0.897300 0.000000 0.441500
vn -0.635600 -0.635500 -0.438300
vn 0.071200 0.000000 -0.997500
vn 0.897300 0.000000 -0.441500
vn 0.829800 0.000000 0.558000
vn -0.071200 0.000000 0.997500
vn -0.496200 0.048400 -0.866800
vn -0.986400 0.114700 0.117900
vn -0.986700 0.030000 -0.159700
vn -0.260900 0.127900 -0.956900
vn -0.870800 -0.019100 -0.491200
vn -0.800800 -0.008000 -0.598800
vn -0.985200 -0.023300 -0.169800
vn -0.505700 -0.042800 -0.861600
vn -0.990200 0.007300 -0.139500
vn -0.456400 0.003700 -0.889800
vn 0.830100 -0.056000 0.554800
vn 0.014800 -0.999900 -0.007300
vn 0.000000 -1.000000 0.000000
vn 0.019800 -0.999800 -0.009800
vn 0.017300 -0.999800 -0.002100
vn -0.829800 0.000000 -0.558000
vn 0.071300 0.000000 -0.997500
vn -0.924300 -0.075100 -0.374100
vn -0.672800 -0.081500 -0.735400
vn 0.832800 -0.001200 0.553500
vn 0.832000 0.000500 0.554700
vn 0.832800 0.008400 0.553600
vn 0.829800 0.006100 0.558100
vn 0.832100 0.000000 0.554700
vn 0.832800 -0.001300 0.553500
vn 0.832100 0.000500 0.554700
usemtl Shape.105
s 1
f 235//65 236//65 237//65
f 238//66 239//66 240//66
f 241//67 242//67 243//67
f 244//68 245//68 246//68
f 247//69 248//69 249//69
f 250//70 251//70 252//70
f 253//71 254//71 255//71
f 256//72 257//72 258//72
f 259//73 260//73 261//73
f 262//74 263//74 264//74
f 265//75 266//75 267//75
f 268//76 269//76 270//76
f 271//77 272//77 273//77
f 274//78 275//78 276//78
f 277//79 278//79 279//79
f 280//80 281//80 282//80
f 283//81 284//81 285//81
f 286//82 287//82 288//82
f 289//83 290//83 291//83
f 292//84 293//84 294//84
f 295//85 296//85 297//85
f 298//86 299//86 300//86
f 301//66 302//66 303//66
f 304//87 305//87 306//87
f 307//87 308//87 309//87
f 310//88 311//88 312//88
f 313//69 314//69 315//69
f 316//70 317//70 318//70
f 319//71 320//71 321//71
f 322//89 323//89 324//89
f 325//90 326//90 327//90
f 328//91 329//91 330//91
f 331//92 332//92 333//92
f 334//93 335//93 336//93
f 337//94 338//94 339//94
f 340//95 341//95 342//95
f 343//96 344//96 345//96
f 346//97 347//97 348//97
f 349//95 350//95 351//95
o ShapeIndexedFaceSet.102_ShapeIndexedFaceSet.103
v 0.349997 3.087000 -31.318001
v 0.216997 3.080000 -31.521000
v -0.273003 3.073000 -31.486000
v 0.272997 3.087000 -30.674000
v 0.272997 2.457000 -30.674000
v 0.489997 2.457000 -31.115000
v 0.216997 3.080000 -31.521000
v 0.349997 3.087000 -31.318001
v 0.489997 3.087000 -31.115000
v -0.273003 3.073000 -31.486000
v 0.216997 3.080000 -31.521000
v 0.216997 2.450000 -31.521000
v -0.273003 3.073000 -31.486000
v -0.273003 2.443000 -31.486000
v -0.490003 2.443000 -31.045000
v -0.490003 3.073000 -31.045000
v -0.490003 2.443000 -31.045000
v -0.217003 2.450000 -30.639000
v -0.217003 3.080000 -30.639000
v -0.217003 2.450000 -30.639000
v 0.272997 2.457000 -30.674000
v -0.805003 7.539000 -32.228001
v 0.489997 9.030000 -31.570000
v 0.349997 3.087000 -31.318001
v 0.706997 7.560000 -29.952999
v 0.272997 3.087000 -30.674000
v 0.349997 3.087000 -31.318001
v 0.489997 9.030000 -31.570000
v 0.706997 7.560000 -29.952999
v 0.349997 3.087000 -31.318001
v -0.805003 7.539000 -32.228001
v 0.349997 3.087000 -31.318001
v -0.273003 3.073000 -31.486000
v -0.000003 17.500000 -31.080000
v 0.321997 16.863001 -30.534000
v 0.601997 14.903000 -30.114000
v -0.602003 14.889000 -31.920000
v -0.413003 16.926001 -31.639999
v -0.000003 17.500000 -31.080000
v 0.489997 9.030000 -31.570000
v 0.601997 14.903000 -30.114000
v 0.734997 10.710000 -29.917999
v -0.819003 10.829000 -32.249001
v -0.602003 14.889000 -31.920000
v 0.489997 9.030000 -31.570000
v 0.734997 10.710000 -29.917999
v 0.706997 7.560000 -29.952999
v 0.489997 9.030000 -31.570000
v -0.819003 10.829000 -32.249001
v 0.489997 9.030000 -31.570000
v -0.805003 7.539000 -32.228001
v 0.321997 16.863001 -30.534000
v -0.000003 17.500000 -31.080000
v -0.413003 16.926001 -31.639999
v -0.490003 3.073000 -31.045000
v -0.217003 3.080000 -30.639000
v 0.272997 3.087000 -30.674000
v 0.489997 3.087000 -31.115000
v 0.349997 3.087000 -31.318001
v 0.272997 3.087000 -30.674000
v 0.349997 3.087000 -31.318001
v -0.273003 3.073000 -31.486000
v -0.490003 3.073000 -31.045000
v 0.349997 3.087000 -31.318001
v -0.490003 3.073000 -31.045000
v 0.272997 3.087000 -30.674000
v 0.489997 3.087000 -31.115000
v 0.272997 3.087000 -30.674000
v 0.489997 2.457000 -31.115000
v 0.216997 3.080000 -31.521000
v 0.489997 3.087000 -31.115000
v 0.489997 2.457000 -31.115000
v 0.216997 3.080000 -31.521000
v 0.489997 2.457000 -31.115000
v 0.216997 2.450000 -31.521000
v -0.273003 3.073000 -31.486000
v 0.216997 2.450000 -31.521000
v -0.273003 2.443000 -31.486000
v -0.490003 3.073000 -31.045000
v -0.273003 3.073000 -31.486000
v -0.490003 2.443000 -31.045000
v -0.217003 3.080000 -30.639000
v -0.490003 3.073000 -31.045000
v -0.217003 2.450000 -30.639000
v 0.272997 3.087000 -30.674000
v -0.217003 3.080000 -30.639000
v 0.272997 2.457000 -30.674000
v -0.000003 17.500000 -31.080000
v 0.601997 14.903000 -30.114000
v 0.489997 9.030000 -31.570000
v -0.602003 14.889000 -31.920000
v -0.000003 17.500000 -31.080000
v 0.489997 9.030000 -31.570000
v 0.321997 16.863001 -30.534000
v -0.413003 16.926001 -31.639999
v -0.602003 14.889000 -31.920000
v 0.601997 14.903000 -30.114000
v -0.602003 14.889000 -31.920000
v -0.819003 10.829000 -32.249001
v 0.272997 3.087000 -30.674000
v 0.706997 7.560000 -29.952999
v -0.805003 7.539000 -32.228001
v -0.273003 3.073000 -31.486000
v 0.272997 3.087000 -30.674000
v -0.805003 7.539000 -32.228001
v 0.734997 10.710000 -29.917999
v -0.819003 10.829000 -32.249001
v -0.805003 7.539000 -32.228001
v 0.706997 7.560000 -29.952999
v 0.734997 10.710000 -29.917999
v -0.805003 7.539000 -32.228001
v 0.734997 10.710000 -29.917999
v 0.601997 14.903000 -30.114000
v -0.819003 10.829000 -32.249001
v 0.601997 14.903000 -30.114000
v 0.321997 16.863001 -30.534000
v -0.602003 14.889000 -31.920000
vn -0.016000 0.999600 -0.024000
vn 0.897300 0.000000 0.441500
vn 0.635600 0.635500 -0.438300
vn -0.071200 0.000000 -0.997500
vn -0.897300 0.000000 -0.441500
vn -0.829800 0.000000 0.558000
vn 0.071200 0.000000 0.997500
vn 0.496200 -0.048400 -0.866800
vn 0.986400 -0.114700 0.117900
vn 0.986700 -0.030000 -0.159700
vn 0.260900 -0.127900 -0.956900
vn 0.870800 0.019100 -0.491200
vn 0.800800 0.008000 -0.598800
vn 0.985200 0.023300 -0.169800
vn 0.505700 0.042800 -0.861600
vn 0.990200 -0.007300 -0.139500
vn 0.456400 -0.003700 -0.889800
vn -0.830100 0.056000 0.554800
vn -0.014800 0.999900 -0.007300
vn 0.000000 1.000000 -0.000000
vn -0.019800 0.999800 -0.009800
vn -0.017300 0.999800 -0.002100
vn 0.829800 0.000000 -0.558000
vn -0.071300 0.000000 -0.997500
vn 0.924300 0.075100 -0.374100
vn 0.672800 0.081500 -0.735400
vn -0.832800 0.001200 0.553500
vn -0.832000 -0.000500 0.554700
vn -0.832800 -0.008400 0.553600
vn -0.829800 -0.006100 0.558100
vn -0.832100 -0.000000 0.554700
vn -0.832800 0.001300 0.553500
vn -0.832100 -0.000500 0.554700
usemtl Shape.102
s 1
f 352//98 353//98 354//98
f 355//99 356//99 357//99
f 358//100 359//100 360//100
f 361//101 362//101 363//101
f 364//102 365//102 366//102
f 367//103 368//103 369//103
f 370//104 371//104 372//104
f 373//105 374//105 375//105
f 376//106 377//106 378//106
f 379//107 380//107 381//107
f 382//108 383//108 384//108
f 385//109 386//109 387//109
f 388//110 389//110 390//110
f 391//111 392//111 393//111
f 394//112 395//112 396//112
f 397//113 398//113 399//113
f 400//114 401//114 402//114
f 403//115 404//115 405//115
f 406//116 407//116 408//116
f 409//117 410//117 411//117
f 412//118 413//118 414//118
f 415//119 416//119 417//119
f 418//99 419//99 420//99
f 421//120 422//120 423//120
f 424//120 425//120 426//120
f 427//121 428//121 429//121
f 430//102 431//102 432//102
f 433//103 434//103 435//103
f 436//104 437//104 438//104
f 439//122 440//122 441//122
f 442//123 443//123 444//123
f 445//124 446//124 447//124
f 448//125 449//125 450//125
f 451//126 452//126 453//126
f 454//127 455//127 456//127
f 457//128 458//128 459//128
f 460//129 461//129 462//129
f 463//130 464//130 465//130
f 466//128 467//128 468//128
