# Blender v2.75 (sub 0) OBJ File: ''
# www.blender.org
mtllib Prop_z32.mtl
o ShapeIndexedFaceSet.075_ShapeIndexedFaceSet.076
v -12.240002 -6.690000 -19.950001
v -12.410002 -7.300000 -19.719999
v -12.650002 -7.190000 -19.799999
v -12.240002 -6.690000 -19.950001
v -12.860002 -6.500000 -20.080000
v -12.570002 -6.150000 -20.150000
v -12.900002 -6.760000 -20.000000
v -12.860002 -6.500000 -20.080000
v -12.240002 -6.690000 -19.950001
v -12.240002 -6.690000 -19.950001
v -12.820002 -7.000000 -19.900000
v -12.900002 -6.760000 -20.000000
v -12.240002 -6.690000 -19.950001
v -12.650002 -7.190000 -19.799999
v -12.820002 -7.000000 -19.900000
v -12.240002 -6.690000 -19.950001
v -11.940001 -7.220000 -19.639999
v -12.410002 -7.300000 -19.719999
v -1.880002 -0.340000 -19.900000
v -4.280002 -1.380000 -20.100000
v -3.680002 -2.420000 -19.600000
v -12.190001 -5.890000 -20.170000
v -11.510002 -7.050000 -19.600000
v -9.080002 -5.880000 -19.559999
v -1.660002 -0.730000 -19.639999
v -1.880002 -0.340000 -19.900000
v -3.680002 -2.420000 -19.600000
v -12.900002 -6.760000 -20.000000
v -12.820002 -7.000000 -19.900000
v -12.650002 -7.190000 -19.799999
v -6.640002 -4.500000 -19.519999
v -7.050002 -3.790000 -20.139997
v -3.930002 -2.000000 -20.170000
v -7.050002 -3.790000 -20.139997
v -7.400002 -3.180000 -20.299997
v -4.210002 -1.510000 -20.280001
v -11.850002 -6.480000 -19.990000
v -9.380002 -5.150000 -20.119999
v -9.080002 -5.880000 -19.559999
v -9.380002 -5.150000 -20.119999
v -7.050002 -3.790000 -20.139997
v -6.640002 -4.500000 -19.519999
v -6.640002 -4.500000 -19.519999
v -3.930002 -2.000000 -20.170000
v -3.680002 -2.420000 -19.600000
v -3.930002 -2.000000 -20.170000
v -4.210002 -1.510000 -20.280001
v -1.810002 -0.470000 -20.160000
v -9.380002 -5.150000 -20.119999
v -9.790002 -4.440000 -20.299997
v -7.400002 -3.180000 -20.299997
v -12.160002 -5.940000 -20.219999
v -9.790002 -4.440000 -20.299997
v -9.380002 -5.150000 -20.119999
v -3.680002 -2.420000 -19.600000
v -3.930002 -2.000000 -20.170000
v -1.660002 -0.730000 -20.160000
v -1.580002 -0.860000 -19.900000
v -1.660002 -0.730000 -19.639999
v -3.680002 -2.420000 -19.600000
v 1.879998 -0.340000 -19.900000
v 1.809998 -0.470000 -19.639999
v 4.279998 -1.380000 -19.600000
v 4.039998 -1.800000 -20.170000
v 1.809998 -0.470000 -20.160000
v 1.879998 -0.340000 -19.900000
v 11.569998 -6.960000 -20.220001
v 9.089998 -5.660000 -20.299999
v 9.499998 -4.950000 -20.120001
v 9.499998 -4.950000 -20.120001
v 9.089998 -5.660000 -20.299999
v 6.799998 -4.220000 -20.299999
v 4.039998 -1.800000 -20.170000
v 3.759998 -2.290000 -20.280001
v 1.659998 -0.730000 -20.160000
v 7.559998 -2.900000 -19.520000
v 4.039998 -1.800000 -20.170000
v 4.279998 -1.380000 -19.600000
v 9.499998 -4.950000 -20.120001
v 7.149998 -3.610000 -20.139999
v 7.559998 -2.900000 -19.520000
v 11.879998 -6.420000 -19.990002
v 9.499998 -4.950000 -20.120001
v 9.979998 -4.320000 -19.559999
v 7.149998 -3.610000 -20.139999
v 6.799998 -4.220000 -20.299999
v 3.759998 -2.290000 -20.280001
v 7.559998 -2.900000 -19.520000
v 7.149998 -3.610000 -20.139999
v 4.039998 -1.800000 -20.170000
v 12.649998 -7.190000 -20.000002
v 12.819998 -7.000000 -19.900002
v 12.899998 -6.760000 -19.800001
v 1.809998 -0.470000 -19.639999
v 1.579998 -0.860000 -19.900000
v 4.279998 -1.380000 -19.600000
v 11.539998 -7.010000 -20.170002
v 12.209998 -5.840000 -19.600000
v 9.979998 -4.320000 -19.559999
v 1.579998 -0.860000 -19.900000
v 3.679998 -2.420000 -20.100000
v 4.279998 -1.380000 -19.600000
v 12.259998 -6.660000 -19.950003
v 12.569998 -6.130000 -19.640001
v 12.869998 -6.500000 -19.720001
v 12.259998 -6.660000 -19.950003
v 12.899998 -6.760000 -19.800001
v 12.819998 -7.000000 -19.900002
v -0.020002 14.549999 -19.950001
v -0.460002 15.000000 -19.719999
v -0.250002 15.150000 -19.799999
v -0.020002 14.549999 -19.950001
v 0.449998 14.990000 -20.080000
v 0.609998 14.559999 -20.150000
v 0.249998 15.150000 -20.000000
v 0.449998 14.990000 -20.080000
v -0.020002 14.549999 -19.950001
v -0.020002 14.549999 -19.950001
v -0.000002 15.200000 -19.900000
v 0.249998 15.150000 -20.000000
v -0.020002 14.549999 -19.950001
v -0.250002 15.150000 -19.799999
v -0.000002 15.200000 -19.900000
v -0.020002 14.549999 -19.950001
v -0.630002 14.549999 -19.639999
v -0.460002 15.000000 -19.719999
v 0.299998 2.400000 -19.900000
v 0.599998 5.000000 -20.100000
v -0.600002 5.000000 -19.600000
v 0.649998 14.099999 -20.170000
v -0.700002 14.089999 -19.600000
v -0.900002 11.400000 -19.559999
v -0.150002 2.400000 -19.639999
v 0.299998 2.400000 -19.900000
v -0.600002 5.000000 -19.600000
v 0.449998 14.990000 -20.080000
v 0.249998 15.150000 -20.000000
v -0.000002 15.200000 -19.900000
v -0.920002 8.599999 -19.520000
v -0.100002 8.599999 -20.139999
v -0.110002 5.000000 -20.170000
v -0.100002 8.599999 -20.139999
v 0.599998 8.599999 -20.299999
v 0.449998 5.000000 -20.280001
v -0.030002 14.099999 -19.990000
v -0.120002 11.299999 -20.120001
v -0.900002 11.400000 -19.559999
v -0.120002 11.299999 -20.120001
v -0.100002 8.599999 -20.139999
v -0.920002 8.599999 -19.520000
v -0.920002 8.599999 -19.520000
v -0.110002 5.000000 -20.170000
v -0.600002 5.000000 -19.600000
v -0.110002 5.000000 -20.170000
v 0.449998 5.000000 -20.280001
v 0.149998 2.400000 -20.160000
v -0.120002 11.299999 -20.120001
v 0.699998 11.299999 -20.299999
v 0.599998 8.599999 -20.299999
v 0.589998 14.099999 -20.219999
v 0.699998 11.299999 -20.299999
v -0.120002 11.299999 -20.120001
v -0.110002 5.000000 -20.170000
v -0.150002 2.400000 -20.160000
v -0.300002 2.400000 -19.900000
v -0.300002 2.400000 -19.900000
v -0.150002 2.400000 -19.639999
v -0.600002 5.000000 -19.600000
v 12.259998 -6.660000 -19.950003
v 12.819998 -7.000000 -19.900002
v 12.649998 -7.190000 -20.000002
v 12.649998 -7.190000 -20.000002
v 12.409998 -7.289999 -20.080002
v 12.259998 -6.660000 -19.950003
v 12.259998 -6.660000 -19.950003
v 12.409998 -7.289999 -20.080002
v 11.959998 -7.210000 -20.150002
v 12.259998 -6.660000 -19.950003
v 12.869998 -6.500000 -19.720001
v 12.899998 -6.760000 -19.800001
v -7.490002 -3.030000 -20.199999
v -6.640002 -4.500000 -19.519999
v -3.680002 -2.420000 -19.600000
v -7.490002 -3.030000 -20.199999
v -3.680002 -2.420000 -19.600000
v -4.280002 -1.380000 -20.100000
v -9.840002 -4.360000 -20.199999
v -9.080002 -5.880000 -19.559999
v -6.640002 -4.500000 -19.519999
v -7.490002 -3.030000 -20.199999
v -9.840002 -4.360000 -20.199999
v -6.640002 -4.500000 -19.519999
v -9.840002 -4.360000 -20.199999
v -12.190001 -5.890000 -20.170000
v -9.080002 -5.880000 -19.559999
v -12.570002 -6.150000 -20.150000
v -12.860002 -6.500000 -20.080000
v -12.900002 -6.760000 -20.000000
v -12.650002 -7.190000 -19.799999
v -12.410002 -7.300000 -19.719999
v -11.940001 -7.220000 -19.639999
v -12.570002 -6.150000 -20.150000
v -12.900002 -6.760000 -20.000000
v -12.650002 -7.190000 -19.799999
v -12.570002 -6.150000 -20.150000
v -12.650002 -7.190000 -19.799999
v -11.940001 -7.220000 -19.639999
v -7.050002 -3.790000 -20.139997
v -4.210002 -1.510000 -20.280001
v -3.930002 -2.000000 -20.170000
v -11.510002 -7.050000 -19.600000
v -11.850002 -6.480000 -19.990000
v -9.080002 -5.880000 -19.559999
v -9.080002 -5.880000 -19.559999
v -9.380002 -5.150000 -20.119999
v -6.640002 -4.500000 -19.519999
v -3.930002 -2.000000 -20.170000
v -1.810002 -0.470000 -20.160000
v -1.660002 -0.730000 -20.160000
v -9.380002 -5.150000 -20.119999
v -7.400002 -3.180000 -20.299997
v -7.050002 -3.790000 -20.139997
v -11.850002 -6.480000 -19.990000
v -12.160002 -5.940000 -20.219999
v -9.380002 -5.150000 -20.119999
v -3.680002 -2.420000 -19.600000
v -1.660002 -0.730000 -20.160000
v -1.580002 -0.860000 -19.900000
v 4.279998 -1.380000 -19.600000
v 4.039998 -1.800000 -20.170000
v 1.879998 -0.340000 -19.900000
v 11.879998 -6.420000 -19.990002
v 11.569998 -6.960000 -20.220001
v 9.499998 -4.950000 -20.120001
v 9.499998 -4.950000 -20.120001
v 6.799998 -4.220000 -20.299999
v 7.149998 -3.610000 -20.139999
v 4.039998 -1.800000 -20.170000
v 1.659998 -0.730000 -20.160000
v 1.809998 -0.470000 -20.160000
v 9.979998 -4.320000 -19.559999
v 9.499998 -4.950000 -20.120001
v 7.559998 -2.900000 -19.520000
v 12.209998 -5.840000 -19.600000
v 11.879998 -6.420000 -19.990002
v 9.979998 -4.320000 -19.559999
v 7.149998 -3.610000 -20.139999
v 3.759998 -2.290000 -20.280001
v 4.039998 -1.800000 -20.170000
v 11.959998 -7.210000 -20.150002
v 12.409998 -7.289999 -20.080002
v 12.649998 -7.190000 -20.000002
v 12.899998 -6.760000 -19.800001
v 12.869998 -6.500000 -19.720001
v 12.569998 -6.130000 -19.640001
v 11.959998 -7.210000 -20.150002
v 12.649998 -7.190000 -20.000002
v 12.899998 -6.760000 -19.800001
v 11.959998 -7.210000 -20.150002
v 12.899998 -6.760000 -19.800001
v 12.569998 -6.130000 -19.640001
v 6.719998 -4.370000 -20.200001
v 7.559998 -2.900000 -19.520000
v 4.279998 -1.380000 -19.600000
v 6.719998 -4.370000 -20.200001
v 4.279998 -1.380000 -19.600000
v 3.679998 -2.420000 -20.100000
v 9.039998 -5.740000 -20.200001
v 9.979998 -4.320000 -19.559999
v 7.559998 -2.900000 -19.520000
v 6.719998 -4.370000 -20.200001
v 9.039998 -5.740000 -20.200001
v 7.559998 -2.900000 -19.520000
v 9.039998 -5.740000 -20.200001
v 11.539998 -7.010000 -20.170002
v 9.979998 -4.320000 -19.559999
v 0.799998 11.299999 -20.200001
v -0.900002 11.400000 -19.559999
v -0.920002 8.599999 -19.520000
v 0.769998 8.599999 -20.200001
v 0.799998 11.299999 -20.200001
v -0.920002 8.599999 -19.520000
v 0.769998 8.599999 -20.200001
v -0.600002 5.000000 -19.600000
v 0.599998 5.000000 -20.100000
v 0.769998 8.599999 -20.200001
v -0.920002 8.599999 -19.520000
v -0.600002 5.000000 -19.600000
v 0.799998 11.299999 -20.200001
v 0.649998 14.099999 -20.170000
v -0.900002 11.400000 -19.559999
v -0.000002 15.200000 -19.900000
v -0.250002 15.150000 -19.799999
v -0.460002 15.000000 -19.719999
v 0.609998 14.559999 -20.150000
v 0.449998 14.990000 -20.080000
v -0.000002 15.200000 -19.900000
v -0.000002 15.200000 -19.900000
v -0.460002 15.000000 -19.719999
v -0.630002 14.549999 -19.639999
v 0.609998 14.559999 -20.150000
v -0.000002 15.200000 -19.900000
v -0.630002 14.549999 -19.639999
v -0.100002 8.599999 -20.139999
v 0.449998 5.000000 -20.280001
v -0.110002 5.000000 -20.170000
v -0.700002 14.089999 -19.600000
v -0.030002 14.099999 -19.990000
v -0.900002 11.400000 -19.559999
v -0.900002 11.400000 -19.559999
v -0.120002 11.299999 -20.120001
v -0.920002 8.599999 -19.520000
v -0.110002 5.000000 -20.170000
v 0.149998 2.400000 -20.160000
v -0.150002 2.400000 -20.160000
v -0.120002 11.299999 -20.120001
v 0.599998 8.599999 -20.299999
v -0.100002 8.599999 -20.139999
v -0.030002 14.099999 -19.990000
v 0.589998 14.099999 -20.219999
v -0.120002 11.299999 -20.120001
v -0.600002 5.000000 -19.600000
v -0.110002 5.000000 -20.170000
v -0.300002 2.400000 -19.900000
vn 0.130300 -0.381400 -0.915200
vn 0.112700 -0.283800 -0.952200
vn 0.104200 -0.307100 -0.946000
vn 0.107700 -0.351600 -0.929900
vn 0.121300 -0.375200 -0.919000
vn 0.219300 -0.397100 -0.891200
vn -0.215300 0.319400 0.922800
vn -0.181700 0.345800 0.920500
vn -0.315100 0.397000 0.862100
vn -0.181200 0.326200 0.927800
vn 0.294400 -0.526500 -0.797600
vn 0.107700 -0.194000 -0.975100
vn 0.240600 -0.526600 -0.815400
vn 0.298900 -0.523900 -0.797600
vn 0.424900 -0.629700 -0.650300
vn 0.115800 -0.154100 -0.981200
vn 0.100100 -0.189800 -0.976700
vn 0.090600 -0.195300 -0.976600
vn 0.372900 -0.661300 -0.650800
vn 0.560900 -0.658500 0.501800
vn 0.294400 0.820700 0.489600
vn 0.443900 0.748000 -0.493500
vn 0.123800 0.176100 -0.976600
vn 0.114200 0.181700 -0.976700
vn 0.075500 0.177100 -0.981300
vn 0.333800 0.686300 -0.646200
vn 0.303900 0.521000 -0.797600
vn 0.335100 0.470400 -0.816400
vn 0.114300 0.190200 -0.975100
vn 0.309100 0.518000 -0.797600
vn -0.181200 -0.326200 0.927800
vn -0.186000 -0.466700 0.864600
vn -0.208100 -0.329500 0.920900
vn -0.169200 -0.346100 0.922800
vn 0.235800 0.384200 -0.892600
vn 0.261500 0.295700 -0.918800
vn -0.401100 0.074500 -0.913000
vn -0.302900 0.042300 -0.952100
vn -0.323800 0.067100 -0.943700
vn -0.355900 0.082600 -0.930900
vn -0.384300 0.082600 -0.919500
vn -0.453000 0.012700 -0.891400
vn 0.384500 0.026600 0.922700
vn 0.389000 -0.015200 0.921100
vn 0.498900 0.073100 0.863500
vn 0.371400 0.000000 0.928500
vn -0.603100 0.008300 -0.797600
vn -0.222800 0.003900 -0.974800
vn -0.577500 0.056400 -0.814400
vn -0.603100 0.001400 -0.797700
vn -0.757300 -0.052800 -0.651000
vn -0.192700 -0.023000 -0.981000
vn -0.214400 0.007900 -0.976700
vn -0.214400 0.019500 -0.976600
vn -0.866100 0.011400 -0.499700
vn -0.855600 -0.155700 0.493600
vn 0.246600 0.269300 -0.930900
vn 0.212800 0.245800 -0.945700
vn 0.191000 0.241800 -0.951400
vn 0.262700 0.311300 -0.913300
vn -0.196700 0.315700 0.928300
vn -0.198100 0.329500 0.923100
vn -0.185600 0.301000 0.935400
vn -0.183100 0.323500 0.928300
vn -0.184400 0.301600 0.935400
vn -0.149700 0.311700 0.938300
vn -0.203200 0.246000 0.947700
vn -0.194700 0.326300 0.925000
vn 0.088100 -0.170000 -0.981500
vn 0.231600 -0.451500 -0.861700
vn 0.296900 -0.501400 -0.812700
vn 0.003300 0.001900 -1.000000
vn 0.105600 -0.195200 -0.975100
vn 0.126400 -0.326400 -0.936700
vn 0.466500 -0.725300 -0.506200
vn 0.369800 0.666800 -0.647000
vn 0.219700 0.272800 -0.936600
vn 0.116100 0.189100 -0.975100
vn -0.003300 0.001900 -1.000000
vn 0.284000 0.507000 -0.813800
vn 0.273900 0.424500 -0.863000
vn 0.103300 0.161300 -0.981500
vn -0.196100 -0.281000 0.939500
vn -0.124200 -0.304900 0.944300
vn -0.192400 -0.319700 0.927800
vn -0.185400 -0.332000 0.924900
vn -0.175200 -0.329100 0.927900
vn -0.185600 -0.336700 0.923100
vn -0.167100 -0.311100 0.935600
vn -0.189500 -0.321000 0.927900
vn -0.168700 -0.310000 0.935600
vn 0.352900 0.010800 0.935600
vn 0.373300 -0.004100 0.927700
vn 0.384600 0.007500 0.923100
vn 0.373300 0.012600 0.927600
vn 0.352800 0.008900 0.935700
vn 0.377100 -0.034300 0.925500
vn 0.365000 -0.015700 0.930900
vn 0.351500 0.033500 0.935600
vn 0.380400 0.001300 0.924800
vn -0.192700 0.008700 -0.981200
vn -0.503200 0.024600 -0.863800
vn -0.583800 -0.007400 -0.811900
vn 0.000000 -0.003800 -1.000000
vn -0.222800 0.005600 -0.974800
vn -0.347300 0.054600 -0.936200
vn -0.758300 -0.012300 -0.651800
usemtl Shape.075
s 1
f 1//1 2//1 3//1
f 4//2 5//2 6//2
f 7//3 8//3 9//3
f 10//4 11//4 12//4
f 13//5 14//5 15//5
f 16//6 17//6 18//6
f 19//7 20//7 21//7
f 22//8 23//8 24//8
f 25//9 26//9 27//9
f 28//10 29//10 30//10
f 31//11 32//11 33//11
f 34//12 35//12 36//12
f 37//13 38//13 39//13
f 40//14 41//14 42//14
f 43//15 44//15 45//15
f 46//16 47//16 48//16
f 49//17 50//17 51//17
f 52//18 53//18 54//18
f 55//19 56//19 57//19
f 58//20 59//20 60//20
f 61//21 62//21 63//21
f 64//22 65//22 66//22
f 67//23 68//23 69//23
f 70//24 71//24 72//24
f 73//25 74//25 75//25
f 76//26 77//26 78//26
f 79//27 80//27 81//27
f 82//28 83//28 84//28
f 85//29 86//29 87//29
f 88//30 89//30 90//30
f 91//31 92//31 93//31
f 94//32 95//32 96//32
f 97//33 98//33 99//33
f 100//34 101//34 102//34
f 103//35 104//35 105//35
f 106//36 107//36 108//36
f 109//37 110//37 111//37
f 112//38 113//38 114//38
f 115//39 116//39 117//39
f 118//40 119//40 120//40
f 121//41 122//41 123//41
f 124//42 125//42 126//42
f 127//43 128//43 129//43
f 130//44 131//44 132//44
f 133//45 134//45 135//45
f 136//46 137//46 138//46
f 139//47 140//47 141//47
f 142//48 143//48 144//48
f 145//49 146//49 147//49
f 148//50 149//50 150//50
f 151//51 152//51 153//51
f 154//52 155//52 156//52
f 157//53 158//53 159//53
f 160//54 161//54 162//54
f 163//55 164//55 165//55
f 166//56 167//56 168//56
f 169//57 170//57 171//57
f 172//58 173//58 174//58
f 175//59 176//59 177//59
f 178//60 179//60 180//60
f 181//61 182//61 183//61
f 184//62 185//62 186//62
f 187//63 188//63 189//63
f 190//64 191//64 192//64
f 193//65 194//65 195//65
f 196//66 197//66 198//66
f 199//67 200//67 201//67
f 202//10 203//10 204//10
f 205//68 206//68 207//68
f 208//69 209//69 210//69
f 211//70 212//70 213//70
f 214//71 215//71 216//71
f 217//72 218//72 219//72
f 220//73 221//73 222//73
f 223//74 224//74 225//74
f 226//75 227//75 228//75
f 229//76 230//76 231//76
f 232//77 233//77 234//77
f 235//78 236//78 237//78
f 238//79 239//79 240//79
f 241//80 242//80 243//80
f 244//81 245//81 246//81
f 247//82 248//82 249//82
f 250//83 251//83 252//83
f 253//84 254//84 255//84
f 256//85 257//85 258//85
f 259//86 260//86 261//86
f 262//87 263//87 264//87
f 265//88 266//88 267//88
f 268//89 269//89 270//89
f 271//90 272//90 273//90
f 274//91 275//91 276//91
f 277//92 278//92 279//92
f 280//93 281//93 282//93
f 283//94 284//94 285//94
f 286//95 287//95 288//95
f 289//96 290//96 291//96
f 292//97 293//97 294//97
f 295//98 296//98 297//98
f 298//99 299//99 300//99
f 301//100 302//100 303//100
f 304//101 305//101 306//101
f 307//102 308//102 309//102
f 310//103 311//103 312//103
f 313//104 314//104 315//104
f 316//105 317//105 318//105
f 319//106 320//106 321//106
f 322//107 323//107 324//107
o ShapeIndexedFaceSet.077_ShapeIndexedFaceSet.078
v 0.599998 5.000000 -20.100000
v 0.299998 2.400000 -19.900000
v 0.149998 2.400000 -20.160000
v 0.699998 11.299999 -20.299999
v 0.589998 14.099999 -20.219999
v 0.649998 14.099999 -20.170000
v 0.599998 8.599999 -20.299999
v 0.769998 8.599999 -20.200001
v 0.599998 5.000000 -20.100000
v 0.699998 11.299999 -20.299999
v 0.799998 11.299999 -20.200001
v 0.769998 8.599999 -20.200001
v 9.089998 -5.660000 -20.299999
v 9.039998 -5.740000 -20.200001
v 6.719998 -4.370000 -20.200001
v 6.799998 -4.220000 -20.299999
v 6.719998 -4.370000 -20.200001
v 3.679998 -2.420000 -20.100000
v 9.089998 -5.660000 -20.299999
v 11.569998 -6.960000 -20.220001
v 11.539998 -7.010000 -20.170002
v 3.679998 -2.420000 -20.100000
v 1.579998 -0.860000 -19.900000
v 1.659998 -0.730000 -20.160000
v -4.210002 -1.510000 -20.280001
v -4.280002 -1.380000 -20.100000
v -1.880002 -0.340000 -19.900000
v -9.790002 -4.440000 -20.299997
v -12.160002 -5.940000 -20.219999
v -12.190001 -5.890000 -20.170000
v -9.790002 -4.440000 -20.299997
v -9.840002 -4.360000 -20.199999
v -7.490002 -3.030000 -20.199999
v -7.400002 -3.180000 -20.299997
v -7.490002 -3.030000 -20.199999
v -4.280002 -1.380000 -20.100000
v 0.449998 5.000000 -20.280001
v 0.599998 5.000000 -20.100000
v 0.149998 2.400000 -20.160000
v 0.799998 11.299999 -20.200001
v 0.699998 11.299999 -20.299999
v 0.649998 14.099999 -20.170000
v 0.599998 8.599999 -20.299999
v 0.599998 5.000000 -20.100000
v 0.449998 5.000000 -20.280001
v 0.699998 11.299999 -20.299999
v 0.769998 8.599999 -20.200001
v 0.599998 8.599999 -20.299999
v 9.089998 -5.660000 -20.299999
v 6.719998 -4.370000 -20.200001
v 6.799998 -4.220000 -20.299999
v 6.799998 -4.220000 -20.299999
v 3.679998 -2.420000 -20.100000
v 3.759998 -2.290000 -20.280001
v 9.039998 -5.740000 -20.200001
v 9.089998 -5.660000 -20.299999
v 11.539998 -7.010000 -20.170002
v 3.759998 -2.290000 -20.280001
v 3.679998 -2.420000 -20.100000
v 1.659998 -0.730000 -20.160000
v -4.210002 -1.510000 -20.280001
v -1.880002 -0.340000 -19.900000
v -1.810002 -0.470000 -20.160000
v -9.840002 -4.360000 -20.199999
v -9.790002 -4.440000 -20.299997
v -12.190001 -5.890000 -20.170000
v -9.790002 -4.440000 -20.299997
v -7.490002 -3.030000 -20.199999
v -7.400002 -3.180000 -20.299997
v -7.400002 -3.180000 -20.299997
v -4.280002 -1.380000 -20.100000
v -4.210002 -1.510000 -20.280001
vn 0.858000 -0.137100 -0.495000
vn 0.639500 0.047000 -0.767400
vn 0.506400 -0.047800 -0.861000
vn 0.707100 -0.007900 -0.707100
vn -0.369900 -0.626400 -0.686100
vn -0.295100 -0.416000 -0.860100
vn -0.283600 -0.587600 -0.757800
vn -0.545800 -0.670200 -0.503000
vn -0.264000 0.730300 -0.630100
vn -0.366500 0.538700 -0.758600
vn -0.358400 0.633300 -0.685900
vn -0.206400 0.454000 -0.866800
vn 0.762900 -0.117400 -0.635800
vn 0.706400 0.045400 -0.706400
vn 0.767700 -0.035500 -0.639800
vn 0.506900 -0.018800 -0.861800
vn -0.270400 -0.430000 -0.861400
vn -0.411800 -0.642000 -0.646700
vn -0.323700 -0.653300 -0.684500
vn -0.479700 -0.596200 -0.643800
vn -0.325500 0.807800 -0.491500
vn -0.403100 0.605700 -0.686100
vn -0.231700 0.439500 -0.867800
vn -0.355500 0.686600 -0.634200
usemtl Shape.077
s 1
f 325//108 326//108 327//108
f 328//109 329//109 330//109
f 331//110 332//110 333//110
f 334//111 335//111 336//111
f 337//112 338//112 339//112
f 340//113 341//113 342//113
f 343//114 344//114 345//114
f 346//115 347//115 348//115
f 349//116 350//116 351//116
f 352//117 353//117 354//117
f 355//118 356//118 357//118
f 358//119 359//119 360//119
f 361//120 362//120 363//120
f 364//121 365//121 366//121
f 367//122 368//122 369//122
f 370//123 371//123 372//123
f 373//124 374//124 375//124
f 376//125 377//125 378//125
f 379//126 380//126 381//126
f 382//127 383//127 384//127
f 385//128 386//128 387//128
f 388//129 389//129 390//129
f 391//130 392//130 393//130
f 394//131 395//131 396//131
o ShapeIndexedFaceSet.076_ShapeIndexedFaceSet.077
v 0.649998 14.099999 -20.170000
v 0.609998 14.559999 -20.150000
v -0.630002 14.549999 -19.639999
v 11.539998 -7.010000 -20.170002
v 11.959998 -7.210000 -20.150002
v 12.569998 -6.130000 -19.640001
v 11.879998 -6.420000 -19.990002
v 12.209998 -5.840000 -19.600000
v 12.569998 -6.130000 -19.640001
v 11.569998 -6.960000 -20.220001
v 11.879998 -6.420000 -19.990002
v 11.959998 -7.210000 -20.150002
v 11.879998 -6.420000 -19.990002
v 12.259998 -6.660000 -19.950003
v 11.959998 -7.210000 -20.150002
v 11.879998 -6.420000 -19.990002
v 12.569998 -6.130000 -19.640001
v 12.259998 -6.660000 -19.950003
v -11.850002 -6.480000 -19.990000
v -11.940001 -7.220000 -19.639999
v -12.240002 -6.690000 -19.950001
v -11.850002 -6.480000 -19.990000
v -12.240002 -6.690000 -19.950001
v -12.570002 -6.150000 -20.150000
v -12.160002 -5.940000 -20.219999
v -11.850002 -6.480000 -19.990000
v -12.570002 -6.150000 -20.150000
v -11.850002 -6.480000 -19.990000
v -11.510002 -7.050000 -19.600000
v -11.940001 -7.220000 -19.639999
v -12.190001 -5.890000 -20.170000
v -12.570002 -6.150000 -20.150000
v -11.940001 -7.220000 -19.639999
v -0.030002 14.099999 -19.990000
v -0.630002 14.549999 -19.639999
v -0.020002 14.549999 -19.950001
v -0.030002 14.099999 -19.990000
v -0.700002 14.089999 -19.600000
v -0.630002 14.549999 -19.639999
v 0.589998 14.099999 -20.219999
v -0.030002 14.099999 -19.990000
v 0.609998 14.559999 -20.150000
v -0.030002 14.099999 -19.990000
v -0.020002 14.549999 -19.950001
v 0.609998 14.559999 -20.150000
v 0.649998 14.099999 -20.170000
v 0.589998 14.099999 -20.219999
v 0.609998 14.559999 -20.150000
v 11.539998 -7.010000 -20.170002
v 11.569998 -6.960000 -20.220001
v 11.959998 -7.210000 -20.150002
v -12.190001 -5.890000 -20.170000
v -12.160002 -5.940000 -20.219999
v -12.570002 -6.150000 -20.150000
v 0.649998 14.099999 -20.170000
v -0.630002 14.549999 -19.639999
v -0.700002 14.089999 -19.600000
v 11.539998 -7.010000 -20.170002
v 12.569998 -6.130000 -19.640001
v 12.209998 -5.840000 -19.600000
v -12.190001 -5.890000 -20.170000
v -11.940001 -7.220000 -19.639999
v -11.510002 -7.050000 -19.600000
vn 0.380400 -0.007100 0.924800
vn -0.198600 -0.324500 0.924800
vn 0.254900 0.435500 -0.863300
vn 0.306400 0.218700 -0.926400
vn 0.236000 0.215800 -0.947500
vn 0.308000 0.339600 -0.888700
vn 0.144500 -0.437400 -0.887600
vn 0.069100 -0.309100 -0.948500
vn 0.034000 -0.375100 -0.926400
vn 0.253600 -0.438600 -0.862100
vn -0.180300 0.334700 0.924900
vn -0.451300 0.089000 -0.887900
vn -0.503100 0.001400 -0.864200
vn -0.343600 0.155900 -0.926100
vn -0.302600 0.091100 -0.948700
vn 0.637700 0.088700 -0.765200
vn -0.251900 -0.604600 -0.755700
vn -0.395500 0.519800 -0.757200
vn 0.388800 0.020900 0.921100
vn -0.177300 -0.347100 0.920900
vn -0.214700 0.326500 0.920500
usemtl Shape.076
s 1
f 397//132 398//132 399//132
f 400//133 401//133 402//133
f 403//134 404//134 405//134
f 406//135 407//135 408//135
f 409//136 410//136 411//136
f 412//137 413//137 414//137
f 415//138 416//138 417//138
f 418//139 419//139 420//139
f 421//140 422//140 423//140
f 424//141 425//141 426//141
f 427//142 428//142 429//142
f 430//143 431//143 432//143
f 433//144 434//144 435//144
f 436//145 437//145 438//145
f 439//146 440//146 441//146
f 442//147 443//147 444//147
f 445//148 446//148 447//148
f 448//149 449//149 450//149
f 451//150 452//150 453//150
f 454//151 455//151 456//151
f 457//152 458//152 459//152
