# Blender v2.75 (sub 0) OBJ File: ''
# www.blender.org
mtllib prop_savoia21.mtl
o ShapeIndexedFaceSet.063_ShapeIndexedFaceSet.064
v -3.683964 -2.450618 -6.262109
v -2.470163 -3.672650 -6.283571
v -0.004763 -0.020456 -5.908637
v 3.674437 2.416427 -6.176724
v 2.460637 3.638416 -6.155261
v -0.004763 -0.020456 -5.908637
v -2.470163 -3.672650 -6.283571
v -3.683964 -2.450618 -6.262109
v -0.004764 -0.009619 -6.525953
v 2.460637 3.638416 -6.155261
v 3.674437 2.416427 -6.176724
v -0.004764 -0.009619 -6.525953
vn -0.050800 -0.068000 0.996400
vn 0.050900 0.033000 0.998200
vn -0.050200 -0.032300 -0.998200
vn 0.050200 0.067300 -0.996500
usemtl Shape.063
s 1
f 1//1 2//1 3//1
f 4//2 5//2 6//2
f 7//3 8//3 9//3
f 10//4 11//4 12//4
o ShapeIndexedFaceSet.062_ShapeIndexedFaceSet.063
v -2.470163 -3.672650 -6.283571
v -0.882563 -4.336165 -6.295205
v -0.004763 -0.020456 -5.908637
v 2.460637 3.638416 -6.155261
v 0.873037 4.306132 -6.143544
v -0.004763 -0.020456 -5.908637
v -0.882563 -4.336165 -6.295205
v -2.470163 -3.672650 -6.283571
v -0.004764 -0.009619 -6.525953
v 0.873037 4.306132 -6.143544
v 2.460637 3.638416 -6.155261
v -0.004764 -0.009619 -6.525953
vn -0.027600 -0.083600 0.996100
vn 0.027800 0.048600 0.998400
vn -0.027300 -0.047700 -0.998500
vn 0.027400 0.082700 -0.996200
usemtl Shape.062
s 1
f 13//5 14//5 15//5
f 16//6 17//6 18//6
f 19//7 20//7 21//7
f 22//8 23//8 24//8
o ShapeIndexedFaceSet.060_ShapeIndexedFaceSet.061
v 0.049837 -4.356242 -6.345983
v 0.125437 -4.309412 -6.382943
v -0.097163 -4.315460 -6.278027
v 0.238837 -4.048213 -6.424565
v -0.210563 -4.055816 -6.231491
v -0.097163 -4.315460 -6.278027
v 0.125437 -4.309412 -6.382943
v -0.412163 -2.558516 -6.100199
v -0.210563 -4.055816 -6.231491
v 0.238837 -4.048213 -6.424565
v 0.238837 -2.556584 -6.448799
v -0.399563 -1.458578 -6.064080
v -0.412163 -2.558516 -6.100199
v 0.238837 -2.556584 -6.448799
v 0.272436 -1.476848 -6.459258
v 0.272436 -1.476848 -6.459258
v 0.230436 -0.665744 -6.478619
v -0.290363 -0.695606 -5.975081
v -0.399563 -1.458578 -6.064080
v -0.290363 -0.695606 -5.975081
v 0.230436 -0.665744 -6.478619
v 0.138036 -0.363932 -6.443927
v 0.138037 -0.372247 -5.969410
v 0.243037 0.694384 -5.950680
v -0.273563 0.686446 -6.454932
v -0.181164 0.383543 -6.430824
v -0.172763 0.375226 -5.956307
v 0.054037 4.322639 -6.126449
v -0.092963 4.370015 -6.192851
v -0.172763 4.320286 -6.231533
v -0.281963 4.060727 -6.282269
v 0.167437 4.061524 -6.089028
v 0.054037 4.322639 -6.126449
v -0.172763 4.320286 -6.231533
v -0.323963 2.566618 -6.358919
v 0.373237 2.560528 -6.010361
v 0.167437 4.061524 -6.089028
v -0.281963 4.060727 -6.282269
v -0.319764 1.492133 -6.407177
v 0.356436 1.460002 -6.012881
v 0.373237 2.560528 -6.010361
v -0.323963 2.566618 -6.358919
v 0.243037 0.694384 -5.950680
v 0.356436 1.460002 -6.012881
v -0.319764 1.492133 -6.407177
v -0.273563 0.686446 -6.454932
v 0.138037 0.375226 -5.956307
v 0.243037 0.694384 -5.950680
v -0.172763 0.375226 -5.956307
v -0.181163 -0.372164 -5.973610
v -0.290363 -0.695606 -5.975081
v 0.138037 -0.372247 -5.969410
v 0.243037 0.694384 -5.950680
v 0.138037 0.375310 -5.960507
v 0.133836 0.383543 -6.430824
v -0.080363 0.686446 -6.454932
v 0.133836 0.383543 -6.430824
v -0.176964 0.383543 -6.430824
v -0.273563 0.686446 -6.454932
v -0.080363 0.686446 -6.454932
v 0.054037 4.322639 -6.126449
v 0.167437 4.061524 -6.089028
v -0.071963 4.064927 -6.282227
v -0.092963 4.370015 -6.192851
v 0.167437 4.061524 -6.089028
v 0.373237 2.560528 -6.010361
v 0.045637 2.565989 -6.321119
v -0.071963 4.064927 -6.282227
v 0.373237 2.560528 -6.010361
v 0.356436 1.460002 -6.012881
v -0.025763 1.487471 -6.382061
v 0.045637 2.565989 -6.321119
v -0.025763 1.487471 -6.382061
v -0.319764 1.492133 -6.407177
v -0.323963 2.566618 -6.358919
v 0.045637 2.565989 -6.321119
v 0.356436 1.460002 -6.012881
v 0.243037 0.694384 -5.950680
v -0.080363 0.686446 -6.454932
v -0.025763 1.487471 -6.382061
v -0.080363 0.686446 -6.454932
v -0.273563 0.686446 -6.454932
v -0.319764 1.492133 -6.407177
v -0.025763 1.487471 -6.382061
v -0.071963 4.064927 -6.282227
v -0.281963 4.060727 -6.282269
v -0.172763 4.320286 -6.231533
v -0.092963 4.370015 -6.192851
v 0.045637 2.565989 -6.321119
v -0.323963 2.566618 -6.358919
v -0.281963 4.060727 -6.282269
v -0.071963 4.064927 -6.282227
v -0.290363 -0.695606 -5.975081
v -0.181163 -0.372164 -5.973610
v -0.172764 -0.363932 -6.443927
v 0.033036 -0.669944 -6.478703
v -0.172764 -0.363932 -6.443927
v 0.138036 -0.368132 -6.444012
v 0.230436 -0.665744 -6.478619
v 0.033036 -0.669944 -6.478703
v -0.097163 -4.315460 -6.278027
v -0.210563 -4.055816 -6.231491
v 0.028836 -4.048213 -6.424565
v 0.049837 -4.356242 -6.345983
v 0.028836 -4.048213 -6.424565
v 0.238837 -4.048213 -6.424565
v 0.125437 -4.309412 -6.382943
v 0.049837 -4.356242 -6.345983
v -0.210563 -4.055816 -6.231491
v -0.412163 -2.558516 -6.100199
v -0.088764 -2.553056 -6.410957
v 0.028836 -4.048213 -6.424565
v -0.088764 -2.553056 -6.410957
v 0.238837 -2.556584 -6.448799
v 0.238837 -4.048213 -6.424565
v 0.028836 -4.048213 -6.424565
v -0.412163 -2.558516 -6.100199
v -0.399563 -1.458578 -6.064080
v -0.034163 -1.473278 -6.421416
v -0.088764 -2.553056 -6.410957
v -0.034163 -1.473278 -6.421416
v 0.272436 -1.476848 -6.459258
v 0.238837 -2.556584 -6.448799
v -0.088764 -2.553056 -6.410957
v -0.399563 -1.458578 -6.064080
v -0.290363 -0.695606 -5.975081
v 0.033036 -0.669944 -6.478703
v -0.034163 -1.473278 -6.421416
v 0.033036 -0.669944 -6.478703
v 0.230436 -0.665744 -6.478619
v 0.272436 -1.476848 -6.459258
v -0.034163 -1.473278 -6.421416
vn 0.425600 0.026800 0.904500
vn 0.405500 -0.008600 0.914100
vn 0.441700 -0.002300 0.897200
vn 0.489800 -0.020600 0.871600
vn 0.601000 -0.060900 0.796900
vn 0.794100 -0.453000 0.405200
vn -0.796800 0.427000 0.427600
vn -0.419900 -0.031700 0.907000
vn -0.403400 -0.026600 0.914600
vn -0.427200 -0.022800 0.903900
vn -0.476100 -0.017800 0.879200
vn -0.600900 0.033000 0.798600
vn 0.000000 -0.017600 0.999800
vn -0.013200 -0.000100 0.999900
vn 0.936100 0.157100 -0.314600
vn 0.000000 -0.079300 -0.996800
vn 0.564200 0.207300 -0.799200
vn 0.663600 0.061700 -0.745500
vn 0.691600 -0.007000 -0.722300
vn 0.094700 0.047500 -0.994400
vn 0.774600 -0.078800 -0.627500
vn 0.052100 0.074500 -0.995900
vn 0.087400 0.227000 -0.970000
vn 0.064900 0.040100 -0.997100
vn -0.937800 -0.125300 -0.323800
vn -0.000000 0.114200 -0.993500
vn -0.561300 -0.178500 -0.808200
vn -0.095100 -0.190900 -0.977000
vn -0.666100 -0.035000 -0.745000
vn -0.070300 -0.006300 -0.997500
vn -0.695700 0.029900 -0.717700
vn -0.118500 -0.004800 -0.992900
vn -0.777600 0.100100 -0.620800
vn -0.074600 -0.046100 -0.996100
usemtl Shape.060
s 1
f 25//9 26//9 27//9
f 28//10 29//10 30//10 31//10
f 32//11 33//11 34//11 35//11
f 36//12 37//12 38//12 39//12
f 40//13 41//13 42//13 43//13
f 44//14 45//14 46//14 47//14
f 48//15 49//15 50//15 51//15
f 52//16 53//16 54//16
f 55//17 56//17 57//17 58//17
f 59//18 60//18 61//18 62//18
f 63//19 64//19 65//19 66//19
f 67//20 68//20 69//20 70//20
f 71//21 72//21 73//21
f 74//22 75//22 76//22
f 77//23 78//23 79//23 80//23
f 81//24 82//24 83//24 84//24
f 85//25 86//25 87//25 88//25
f 89//26 90//26 91//26 92//26
f 93//27 94//27 95//27 96//27
f 97//28 98//28 99//28 100//28
f 101//29 102//29 103//29 104//29
f 105//30 106//30 107//30 108//30
f 109//31 110//31 111//31 112//31
f 113//32 114//32 115//32 116//32
f 117//33 118//33 119//33 120//33
f 121//34 122//34 123//34 124//34
f 125//35 126//35 127//35 128//35
f 129//36 130//36 131//36 132//36
f 133//37 134//37 135//37 136//37
f 137//38 138//38 139//38 140//38
f 141//39 142//39 143//39 144//39
f 145//40 146//40 147//40 148//40
f 149//41 150//41 151//41 152//41
f 153//42 154//42 155//42 156//42
o ShapeIndexedFaceSet.064_ShapeIndexedFaceSet.065
v -4.334965 -0.859070 -6.234179
v -3.683964 -2.450618 -6.262109
v -0.004763 -0.020456 -5.908637
v 4.325437 0.824878 -6.204654
v 3.674437 2.416427 -6.176724
v -0.004763 -0.020456 -5.908637
v -3.683964 -2.450618 -6.262109
v -4.334965 -0.859070 -6.234179
v -0.004764 -0.009619 -6.525953
v 3.674437 2.416427 -6.176724
v 4.325437 0.824878 -6.204654
v -0.004764 -0.009619 -6.525953
vn -0.066300 -0.044600 0.996800
vn 0.066300 0.009600 0.997800
vn -0.065400 -0.009200 -0.997800
vn 0.065400 0.044300 -0.996900
usemtl Shape.064
s 1
f 157//43 158//43 159//43
f 160//44 161//44 162//44
f 163//45 164//45 165//45
f 166//46 167//46 168//46
o ShapeIndexedFaceSet.061_ShapeIndexedFaceSet.062
v -0.882563 -4.336165 -6.295205
v 0.835237 -4.344565 -6.295331
v -0.004763 -0.020456 -5.908637
v 0.873037 4.306132 -6.143544
v -0.844764 4.314532 -6.143417
v -0.004763 -0.020456 -5.908637
v 0.835237 -4.344565 -6.295331
v -0.882563 -4.336165 -6.295205
v -0.004764 -0.009619 -6.525953
v -0.844764 4.314532 -6.143417
v 0.873037 4.306132 -6.143544
v -0.004764 -0.009619 -6.525953
vn -0.000400 -0.089100 0.996000
vn 0.000300 0.054100 0.998500
vn -0.000300 -0.053200 -0.998600
vn 0.000400 0.088200 -0.996100
usemtl Shape.061
s 1
f 169//47 170//47 171//47
f 172//48 173//48 174//48
f 175//49 176//49 177//49
f 178//50 179//50 180//50
o ShapeIndexedFaceSet.065_ShapeIndexedFaceSet
v -4.326565 0.862637 -6.203980
v -4.334965 -0.859070 -6.234179
v -0.004763 -0.020456 -5.908637
v -3.662964 2.450027 -6.176134
v -4.326565 0.862637 -6.203980
v -0.004763 -0.020456 -5.908637
v -2.440763 3.659417 -6.154925
v -3.662964 2.450027 -6.176134
v -0.004763 -0.020456 -5.908637
v -0.844764 4.314532 -6.143417
v -2.440763 3.659417 -6.154925
v -0.004763 -0.020456 -5.908637
v 4.317037 -0.896870 -6.234852
v 4.325437 0.824878 -6.204654
v -0.004763 -0.020456 -5.908637
v 3.653437 -2.480018 -6.262656
v 4.317037 -0.896870 -6.234852
v -0.004763 -0.020456 -5.908637
v 2.431236 -3.693650 -6.283949
v 3.653437 -2.480018 -6.262656
v -0.004763 -0.020456 -5.908637
v 0.835237 -4.344565 -6.295331
v 2.431236 -3.693650 -6.283949
v -0.004763 -0.020456 -5.908637
v -4.334965 -0.859070 -6.234179
v -4.326565 0.862637 -6.203980
v -0.004764 -0.009619 -6.525953
v -4.326565 0.862637 -6.203980
v -3.662964 2.450027 -6.176134
v -0.004764 -0.009619 -6.525953
v -3.662964 2.450027 -6.176134
v -2.440763 3.659417 -6.154925
v -0.004764 -0.009619 -6.525953
v -2.440763 3.659417 -6.154925
v -0.844764 4.314532 -6.143417
v -0.004764 -0.009619 -6.525953
v 4.325437 0.824878 -6.204654
v 4.317037 -0.896870 -6.234852
v -0.004764 -0.009619 -6.525953
v 4.317037 -0.896870 -6.234852
v 3.653437 -2.480018 -6.262656
v -0.004764 -0.009619 -6.525953
v 3.653437 -2.480018 -6.262656
v 2.431236 -3.693650 -6.283949
v -0.004764 -0.009619 -6.525953
v 2.431236 -3.693650 -6.283949
v 0.835237 -4.344565 -6.295331
v -0.004764 -0.009619 -6.525953
vn -0.071700 -0.017100 0.997300
vn -0.066100 0.010100 0.997800
vn -0.050400 0.033400 0.998200
vn -0.027200 0.048800 0.998400
vn 0.071700 -0.017800 0.997300
vn 0.066100 -0.045200 0.996800
vn 0.050500 -0.068300 0.996400
vn 0.027100 -0.083800 0.996100
vn -0.070700 0.017800 -0.997300
vn -0.065200 0.044800 -0.996900
vn -0.049700 0.067700 -0.996500
vn -0.026900 0.082900 -0.996200
vn 0.070700 0.017100 -0.997400
vn 0.065200 -0.009800 -0.997800
vn 0.049800 -0.032600 -0.998200
vn 0.026700 -0.048000 -0.998500
usemtl Shape.065
s 1
f 181//51 182//51 183//51
f 184//52 185//52 186//52
f 187//53 188//53 189//53
f 190//54 191//54 192//54
f 193//55 194//55 195//55
f 196//56 197//56 198//56
f 199//57 200//57 201//57
f 202//58 203//58 204//58
f 205//59 206//59 207//59
f 208//60 209//60 210//60
f 211//61 212//61 213//61
f 214//62 215//62 216//62
f 217//63 218//63 219//63
f 220//64 221//64 222//64
f 223//65 224//65 225//65
f 226//66 227//66 228//66
o ShapeIndexedFaceSet.059_ShapeIndexedFaceSet.060
v -0.244164 -0.335792 -6.850907
v -0.004764 0.003191 -7.256627
v -0.004764 -0.411391 -6.852251
v -0.391164 -0.134233 -6.847380
v -0.004764 0.003191 -7.256627
v -0.244164 -0.335792 -6.850907
v -0.391164 0.117766 -6.842968
v -0.004764 0.003191 -7.256627
v -0.391164 -0.134233 -6.847380
v -0.244164 0.319324 -6.839400
v -0.004764 0.003191 -7.256627
v -0.391164 0.117766 -6.842968
v -0.004764 0.394924 -6.838098
v -0.004764 0.003191 -7.256627
v -0.244164 0.319324 -6.839400
v -0.004764 -0.411391 -6.852251
v -0.004764 0.003191 -7.256627
v 0.234636 -0.335792 -6.850907
v 0.234636 -0.335792 -6.850907
v -0.004764 0.003191 -7.256627
v 0.381636 -0.134233 -6.847380
v 0.381636 -0.134233 -6.847380
v -0.004764 0.003191 -7.256627
v 0.381636 0.117766 -6.842968
v 0.381636 0.117766 -6.842968
v -0.004764 0.003191 -7.256627
v 0.234636 0.319324 -6.839400
v 0.234636 0.319324 -6.839400
v -0.004764 0.003191 -7.256627
v -0.004764 0.394924 -6.838098
v -0.004764 -0.618536 -6.536621
v -0.004763 -0.876710 -5.709431
v -0.500363 -0.717110 -5.706618
v -0.361763 -0.505177 -6.534647
v -0.244164 -0.335792 -6.850907
v -0.004764 -0.411391 -6.852251
v -0.004764 -0.618536 -6.536621
v -0.361763 -0.505177 -6.534647
v -0.361763 -0.505177 -6.534647
v -0.500363 -0.717110 -5.706618
v -0.806963 -0.292994 -5.699183
v -0.580164 -0.202820 -6.529313
v -0.391164 -0.134233 -6.847380
v -0.244164 -0.335792 -6.850907
v -0.361763 -0.505177 -6.534647
v -0.580164 -0.202820 -6.529313
v -0.580164 -0.202820 -6.529313
v -0.806963 -0.292994 -5.699183
v -0.806963 0.227722 -5.690028
v -0.580164 0.170938 -6.522762
v -0.391164 0.117766 -6.842968
v -0.391164 -0.134233 -6.847380
v -0.580164 -0.202820 -6.529313
v -0.580164 0.170938 -6.522762
v -0.580164 0.170938 -6.522762
v -0.806963 0.227722 -5.690028
v -0.500363 0.647681 -5.682678
v -0.361763 0.473296 -6.517468
v -0.244164 0.319324 -6.839400
v -0.391164 0.117766 -6.842968
v -0.580164 0.170938 -6.522762
v -0.361763 0.473296 -6.517468
v -0.361763 0.473296 -6.517468
v -0.500363 0.647681 -5.682678
v -0.004763 0.807239 -5.679862
v -0.004764 0.590854 -6.515412
v -0.004764 0.394924 -6.838098
v -0.244164 0.319324 -6.839400
v -0.361763 0.473296 -6.517468
v -0.004764 0.590854 -6.515412
v 0.352236 -0.505177 -6.534647
v 0.490837 -0.717110 -5.706618
v -0.004763 -0.876710 -5.709431
v -0.004764 -0.618536 -6.536621
v -0.004764 -0.411391 -6.852251
v 0.234636 -0.335792 -6.850907
v 0.352236 -0.505177 -6.534647
v -0.004764 -0.618536 -6.536621
v 0.570636 -0.202820 -6.529313
v 0.797437 -0.292994 -5.699183
v 0.490837 -0.717110 -5.706618
v 0.352236 -0.505177 -6.534647
v 0.234636 -0.335792 -6.850907
v 0.381636 -0.134233 -6.847380
v 0.570636 -0.202820 -6.529313
v 0.352236 -0.505177 -6.534647
v 0.570636 0.170938 -6.522762
v 0.797437 0.227722 -5.690028
v 0.797437 -0.292994 -5.699183
v 0.570636 -0.202820 -6.529313
v 0.381636 -0.134233 -6.847380
v 0.381636 0.117766 -6.842968
v 0.570636 0.170938 -6.522762
v 0.570636 -0.202820 -6.529313
v 0.352236 0.473296 -6.517468
v 0.490837 0.647681 -5.682678
v 0.797437 0.227722 -5.690028
v 0.570636 0.170938 -6.522762
v 0.381636 0.117766 -6.842968
v 0.234636 0.319324 -6.839400
v 0.352236 0.473296 -6.517468
v 0.570636 0.170938 -6.522762
v -0.004764 0.590854 -6.515412
v -0.004763 0.807239 -5.679862
v 0.490837 0.647681 -5.682678
v 0.352236 0.473296 -6.517468
v 0.234636 0.319324 -6.839400
v -0.004764 0.394924 -6.838098
v -0.004764 0.590854 -6.515412
v 0.352236 0.473296 -6.517468
vn -0.219100 -0.681300 -0.698500
vn -0.587300 -0.416200 -0.694200
vn -0.729100 0.012000 -0.684300
vn -0.590800 0.442800 -0.674500
vn -0.221200 0.712000 -0.666400
vn 0.219100 -0.681300 -0.698500
vn 0.587300 -0.416200 -0.694200
vn 0.729100 0.012000 -0.684300
vn 0.590800 0.442800 -0.674500
vn 0.221200 0.712000 -0.666400
vn -0.293800 -0.912800 -0.283800
vn -0.258900 -0.807800 -0.529500
vn -0.781700 -0.560100 -0.274300
vn -0.695100 -0.494800 -0.521600
vn -0.964800 0.004600 -0.263100
vn -0.860500 0.008900 -0.509400
vn -0.781000 0.572100 -0.250500
vn -0.697400 0.514500 -0.498900
vn -0.298800 0.923400 -0.240800
vn -0.264900 0.826400 -0.496900
vn 0.293800 -0.912800 -0.283800
vn 0.258900 -0.807800 -0.529500
vn 0.781700 -0.560100 -0.274300
vn 0.695100 -0.494800 -0.521600
vn 0.964800 0.004600 -0.263100
vn 0.860500 0.008900 -0.509400
vn 0.781000 0.572100 -0.250500
vn 0.697400 0.514500 -0.498900
vn 0.298800 0.923400 -0.240800
vn 0.264900 0.826400 -0.496900
usemtl Shape.059
s 1
f 229//67 230//67 231//67
f 232//68 233//68 234//68
f 235//69 236//69 237//69
f 238//70 239//70 240//70
f 241//71 242//71 243//71
f 244//72 245//72 246//72
f 247//73 248//73 249//73
f 250//74 251//74 252//74
f 253//75 254//75 255//75
f 256//76 257//76 258//76
f 259//77 260//77 261//77 262//77
f 263//78 264//78 265//78 266//78
f 267//79 268//79 269//79 270//79
f 271//80 272//80 273//80 274//80
f 275//81 276//81 277//81 278//81
f 279//82 280//82 281//82 282//82
f 283//83 284//83 285//83 286//83
f 287//84 288//84 289//84 290//84
f 291//85 292//85 293//85 294//85
f 295//86 296//86 297//86 298//86
f 299//87 300//87 301//87 302//87
f 303//88 304//88 305//88 306//88
f 307//89 308//89 309//89 310//89
f 311//90 312//90 313//90 314//90
f 315//91 316//91 317//91 318//91
f 319//92 320//92 321//92 322//92
f 323//93 324//93 325//93 326//93
f 327//94 328//94 329//94 330//94
f 331//95 332//95 333//95 334//95
f 335//96 336//96 337//96 338//96
