# Blender v2.75 (sub 0) OBJ File: ''
# www.blender.org
mtllib Prop_M100teiK.mtl
o ShapeIndexedFaceSet.133_ShapeIndexedFaceSet.134
v -1.361098 0.188404 0.013611
v 0.465817 -0.324047 -2.381659
v 0.463592 -0.327462 -2.334850
v 0.611439 -0.400588 -2.356449
v 0.611439 -0.400588 -2.356449
v 0.463592 -0.327462 -2.334850
v 0.500180 -0.265517 -2.486992
v 0.500180 -0.265517 -2.486992
v 0.463592 -0.327462 -2.334850
v -0.003098 -0.016516 -2.413563
v 0.733302 -0.421374 -2.447845
v 0.679780 -0.408896 -2.428257
v 0.672458 -0.421287 -2.397828
v 0.733302 -0.421374 -2.447845
v 0.690161 -0.392567 -2.455250
v 0.687221 -0.397602 -2.448699
v 0.687221 -0.397602 -2.448699
v 0.679780 -0.408896 -2.428257
v 0.733302 -0.421374 -2.447845
v 0.618039 -0.389656 -2.410090
v 0.465817 -0.324047 -2.381659
v 0.612523 -0.398894 -2.375758
v 0.715340 -0.451774 -2.372010
v 0.672458 -0.421287 -2.397828
v 0.668531 -0.427855 -2.373531
v 0.668531 -0.427855 -2.373531
v 0.668755 -0.428797 -2.365094
v 0.715340 -0.451774 -2.372010
v -0.003098 -0.016516 -2.413563
v 0.465817 -0.324047 -2.381659
v 0.483576 -0.293967 -2.454382
v 0.463592 -0.327462 -2.334850
v 0.465817 -0.324047 -2.381659
v -0.003098 -0.016516 -2.413563
v 0.483576 -0.293967 -2.454382
v 0.500180 -0.265517 -2.486992
v -0.003098 -0.016516 -2.413563
v 0.620293 -0.385856 -2.420592
v 0.483576 -0.293967 -2.454382
v 0.465817 -0.324047 -2.381659
v 0.630268 -0.368856 -2.450693
v 0.483576 -0.293967 -2.454382
v 0.620293 -0.385856 -2.420592
v 0.637870 -0.357220 -2.463837
v 0.500180 -0.265517 -2.486992
v 0.483576 -0.293967 -2.454382
v 0.465817 -0.324047 -2.381659
v 0.611439 -0.400588 -2.356449
v 0.612523 -0.398894 -2.375758
v 0.715340 -0.451774 -2.372010
v 0.668755 -0.428797 -2.365094
v 0.733302 -0.421374 -2.447845
v 0.668755 -0.428797 -2.365094
v 0.611439 -0.400588 -2.356449
v 0.637870 -0.357220 -2.463837
v 0.611439 -0.400588 -2.356449
v 0.500180 -0.265517 -2.486992
v 0.637870 -0.357220 -2.463837
v 0.715340 -0.451774 -2.372010
v 0.733302 -0.421374 -2.447845
v 0.672458 -0.421287 -2.397828
v 0.620293 -0.385856 -2.420592
v 0.465817 -0.324047 -2.381659
v 0.618039 -0.389656 -2.410090
v 0.637870 -0.357220 -2.463837
v 0.483576 -0.293967 -2.454382
v 0.630268 -0.368856 -2.450693
v 0.668755 -0.428797 -2.365094
v 0.690161 -0.392567 -2.455250
v 0.733302 -0.421374 -2.447845
v 0.668755 -0.428797 -2.365094
v 0.637870 -0.357220 -2.463837
v 0.690161 -0.392567 -2.455250
vn -0.451800 -0.887900 -0.086300
vn 0.450200 0.784000 0.427500
vn 0.450200 0.783900 0.427500
vn -0.350000 -0.835200 -0.424300
vn -0.333100 -0.669500 -0.664000
vn -0.375100 -0.746800 -0.549100
vn -0.424200 -0.855000 -0.298200
vn -0.426400 -0.853500 -0.299600
vn -0.451000 -0.888200 -0.087200
vn -0.473600 -0.767000 -0.432900
vn -0.542200 -0.835800 -0.086800
vn -0.392800 -0.584500 -0.710000
vn -0.426800 -0.794100 -0.432700
vn -0.369800 -0.751200 -0.546800
vn -0.304100 -0.635700 -0.709500
vn -0.448700 -0.887700 -0.103100
vn 0.450700 0.786600 0.422100
vn 0.450300 0.783900 0.427400
vn 0.450200 0.784000 0.427400
vn -0.345300 -0.840000 -0.418500
vn -0.425000 -0.818200 -0.387300
vn -0.299300 -0.621900 -0.723700
vn 0.451900 0.785500 0.422900
vn 0.458800 0.781400 0.422900
usemtl Shape.133
s off
f 4//1 3//1 2//1
f 7//2 6//2 5//2
f 10//3 9//3 8//3
f 13//4 12//4 11//4
f 16//5 15//5 14//5
f 19//6 18//6 17//6
f 22//7 21//7 20//7
f 25//8 24//8 23//8
f 28//9 27//9 26//9
f 31//10 30//10 29//10
f 34//11 33//11 32//11
f 37//12 36//12 35//12
f 40//13 39//13 38//13
f 43//14 42//14 41//14
f 46//15 45//15 44//15
f 49//16 48//16 47//16
f 52//17 51//17 50//17
f 55//18 54//18 53//18
f 58//19 57//19 56//19
f 61//20 60//20 59//20
f 64//21 63//21 62//21
f 67//22 66//22 65//22
f 70//23 69//23 68//23
f 73//24 72//24 71//24
o ShapeIndexedFaceSet.132_ShapeIndexedFaceSet.133
v -1.361098 0.188404 0.013611
v -0.659698 -0.384282 -2.414824
v -0.636857 -0.367803 -2.410296
v -0.642373 -0.357918 -2.376144
v -0.684233 -0.411906 -2.428228
v -0.659698 -0.384282 -2.414824
v -0.691555 -0.398944 -2.398039
v -0.624629 -0.389365 -2.450499
v -0.634603 -0.371801 -2.420724
v -0.659698 -0.384282 -2.414824
v -0.675064 -0.429442 -2.454902
v -0.618238 -0.401948 -2.463414
v -0.624629 -0.389365 -2.450499
v -0.634603 -0.371801 -2.420724
v -0.636857 -0.367803 -2.410296
v -0.659698 -0.384282 -2.414824
v -0.696476 -0.391517 -2.365446
v -0.695482 -0.391911 -2.373870
v -0.642373 -0.357918 -2.376144
v -0.675064 -0.429442 -2.454902
v -0.624629 -0.389365 -2.450499
v -0.678010 -0.424285 -2.448447
v -0.696476 -0.391517 -2.365446
v -0.642373 -0.357918 -2.376144
v -0.643458 -0.355860 -2.356871
v -0.659698 -0.384282 -2.414824
v -0.642373 -0.357918 -2.376144
v -0.695482 -0.391911 -2.373870
v -0.691555 -0.398944 -2.398039
v -0.659698 -0.384282 -2.414824
v -0.695482 -0.391911 -2.373870
v -0.678010 -0.424285 -2.448447
v -0.624629 -0.389365 -2.450499
v -0.659698 -0.384282 -2.414824
v -0.678010 -0.424285 -2.448447
v -0.659698 -0.384282 -2.414824
v -0.684233 -0.411906 -2.428228
vn -0.513800 0.798400 -0.314100
vn -0.555900 0.706400 -0.438100
vn -0.470800 0.681800 -0.559900
vn -0.381400 0.560700 -0.735000
vn -0.481800 0.778400 -0.402500
vn -0.539400 0.835800 -0.102800
vn -0.421600 0.604800 -0.675700
vn -0.540700 0.832700 -0.119400
vn -0.522200 0.795200 -0.308100
vn -0.528800 0.788100 -0.315200
vn -0.469000 0.684200 -0.558500
vn -0.463900 0.684800 -0.562000
usemtl Shape.132
s off
f 77//25 76//25 75//25
f 80//26 79//26 78//26
f 83//27 82//27 81//27
f 86//28 85//28 84//28
f 89//29 88//29 87//29
f 92//30 91//30 90//30
f 95//31 94//31 93//31
f 98//32 97//32 96//32
f 101//33 100//33 99//33
f 104//34 103//34 102//34
f 107//35 106//35 105//35
f 110//36 109//36 108//36
o ShapeIndexedFaceSet.131_ShapeIndexedFaceSet.132
v -1.361098 0.188404 0.013611
v -0.504151 -0.268378 -2.382184
v -0.506377 -0.264087 -2.335448
v -0.643458 -0.355860 -2.356871
v -0.643458 -0.355860 -2.356871
v -0.506377 -0.264087 -2.335448
v -0.469789 -0.328892 -2.486393
v -0.469789 -0.328892 -2.486393
v -0.506377 -0.264087 -2.335448
v -0.003098 -0.016516 -2.413563
v -0.721648 -0.452291 -2.447553
v -0.684233 -0.411906 -2.428228
v -0.691555 -0.398944 -2.398039
v -0.721648 -0.452291 -2.447553
v -0.675064 -0.429442 -2.454902
v -0.678010 -0.424285 -2.448447
v -0.678010 -0.424285 -2.448447
v -0.684233 -0.411906 -2.428228
v -0.721648 -0.452291 -2.447553
v -0.636857 -0.367803 -2.410296
v -0.504151 -0.268378 -2.382184
v -0.642373 -0.357918 -2.376144
v -0.739610 -0.420465 -2.372306
v -0.691555 -0.398944 -2.398039
v -0.695482 -0.391911 -2.373870
v -0.695482 -0.391911 -2.373870
v -0.696476 -0.391517 -2.365446
v -0.739610 -0.420465 -2.372306
v -0.003098 -0.016516 -2.413563
v -0.504151 -0.268378 -2.382184
v -0.486393 -0.299832 -2.454326
v -0.506377 -0.264087 -2.335448
v -0.504151 -0.268378 -2.382184
v -0.003098 -0.016516 -2.413563
v -0.486393 -0.299832 -2.454326
v -0.469789 -0.328892 -2.486393
v -0.003098 -0.016516 -2.413563
v -0.634603 -0.371801 -2.420724
v -0.486393 -0.299832 -2.454326
v -0.504151 -0.268378 -2.382184
v -0.624629 -0.389365 -2.450499
v -0.486393 -0.299832 -2.454326
v -0.634603 -0.371801 -2.420724
v -0.618238 -0.401948 -2.463414
v -0.469789 -0.328892 -2.486393
v -0.486393 -0.299832 -2.454326
v -0.504151 -0.268378 -2.382184
v -0.643458 -0.355860 -2.356871
v -0.642373 -0.357918 -2.376144
v -0.739610 -0.420465 -2.372306
v -0.696476 -0.391517 -2.365446
v -0.721648 -0.452291 -2.447553
v -0.696476 -0.391517 -2.365446
v -0.643458 -0.355860 -2.356871
v -0.618238 -0.401948 -2.463414
v -0.643458 -0.355860 -2.356871
v -0.469789 -0.328892 -2.486393
v -0.618238 -0.401948 -2.463414
v -0.739610 -0.420465 -2.372306
v -0.721648 -0.452291 -2.447553
v -0.691555 -0.398944 -2.398039
v -0.634603 -0.371801 -2.420724
v -0.504151 -0.268378 -2.382184
v -0.636857 -0.367803 -2.410296
v -0.618238 -0.401948 -2.463414
v -0.486393 -0.299832 -2.454326
v -0.624629 -0.389365 -2.450499
v -0.696476 -0.391517 -2.365446
v -0.675064 -0.429442 -2.454902
v -0.721648 -0.452291 -2.447553
v -0.696476 -0.391517 -2.365446
v -0.618238 -0.401948 -2.463414
v -0.675064 -0.429442 -2.454902
vn -0.542300 0.833900 -0.102400
vn 0.450200 -0.775700 0.442200
vn -0.544600 0.714600 -0.438900
vn -0.407600 0.613500 -0.676300
vn -0.454700 0.690500 -0.562600
vn -0.525900 0.790600 -0.313800
vn -0.523400 0.791600 -0.315400
vn -0.542900 0.833400 -0.103100
vn -0.423800 0.787400 -0.447600
vn -0.451900 0.886100 -0.102900
vn -0.304000 0.622300 -0.721300
vn -0.470700 0.760400 -0.447400
vn -0.461100 0.688000 -0.560400
vn -0.392600 0.571100 -0.720900
vn -0.543500 0.830900 -0.119300
vn 0.452300 -0.777500 0.436800
vn 0.450200 -0.775800 0.442100
vn -0.551300 0.713000 -0.433200
vn -0.492800 0.771500 -0.402300
vn -0.382900 0.559800 -0.734800
vn 0.450700 -0.778000 0.437700
vn 0.443900 -0.781900 0.437700
usemtl Shape.131
s off
f 114//37 113//37 112//37
f 117//38 116//38 115//38
f 120//38 119//38 118//38
f 123//39 122//39 121//39
f 126//40 125//40 124//40
f 129//41 128//41 127//41
f 132//42 131//42 130//42
f 135//43 134//43 133//43
f 138//44 137//44 136//44
f 141//45 140//45 139//45
f 144//46 143//46 142//46
f 147//47 146//47 145//47
f 150//48 149//48 148//48
f 153//49 152//49 151//49
f 156//50 155//50 154//50
f 159//51 158//51 157//51
f 162//52 161//52 160//52
f 165//53 164//53 163//53
f 168//53 167//53 166//53
f 171//54 170//54 169//54
f 174//55 173//55 172//55
f 177//56 176//56 175//56
f 180//57 179//57 178//57
f 183//58 182//58 181//58
o ShapeIndexedFaceSet.130_ShapeIndexedFaceSet.131
v -1.361098 0.188404 0.013611
v 0.006709 0.735906 -2.425399
v 0.009522 0.707951 -2.420451
v 0.020561 0.708274 -2.386209
v -0.004835 0.770775 -2.439393
v 0.006709 0.735906 -2.425399
v 0.009795 0.771061 -2.409084
v -0.014935 0.707570 -2.460854
v 0.005014 0.707852 -2.430916
v 0.006709 0.735906 -2.425399
v -0.024392 0.771222 -2.466236
v -0.028929 0.708147 -2.473894
v -0.014935 0.707570 -2.460854
v 0.005014 0.707852 -2.430916
v 0.009522 0.707951 -2.420451
v 0.006709 0.735906 -2.425399
v 0.018426 0.772070 -2.376430
v 0.017656 0.771290 -2.384851
v 0.020561 0.708274 -2.386209
v -0.024392 0.771222 -2.466236
v -0.014935 0.707570 -2.460854
v -0.018506 0.771283 -2.459733
v 0.018426 0.772070 -2.376430
v 0.020561 0.708274 -2.386209
v 0.022732 0.708457 -2.366918
v 0.006709 0.735906 -2.425399
v 0.020561 0.708274 -2.386209
v 0.017656 0.771290 -2.384851
v 0.009795 0.771061 -2.409084
v 0.006709 0.735906 -2.425399
v 0.017656 0.771290 -2.384851
v -0.018506 0.771283 -2.459733
v -0.014935 0.707570 -2.460854
v 0.006709 0.735906 -2.425399
v -0.018506 0.771283 -2.459733
v 0.006709 0.735906 -2.425399
v -0.004835 0.770775 -2.439393
vn 0.950800 0.041400 -0.306900
vn 0.893400 0.122200 -0.432400
vn 0.830500 0.058800 -0.554000
vn 0.682100 0.039600 -0.730200
vn 0.918100 0.022400 -0.395700
vn 0.994300 0.047900 -0.095300
vn 0.740100 0.053300 -0.670400
vn 0.992400 0.050400 -0.112100
vn 0.952300 0.050400 -0.301100
vn 0.949300 0.059800 -0.308500
vn 0.831500 0.056300 -0.552600
vn 0.829500 0.051400 -0.556200
usemtl Shape.130
s off
f 187//59 186//59 185//59
f 190//60 189//60 188//60
f 193//61 192//61 191//61
f 196//62 195//62 194//62
f 199//63 198//63 197//63
f 202//64 201//64 200//64
f 205//65 204//65 203//65
f 208//66 207//66 206//66
f 211//67 210//67 209//67
f 214//68 213//68 212//68
f 217//69 216//69 215//69
f 220//70 219//70 218//70
o ShapeIndexedFaceSet.129_ShapeIndexedFaceSet.130
v -1.361098 0.188404 0.013611
v 0.029045 0.543733 -2.389850
v 0.033491 0.544174 -2.343078
v 0.022732 0.708457 -2.366918
v 0.022732 0.708457 -2.366918
v 0.033491 0.544174 -2.343078
v -0.039688 0.542744 -2.494621
v -0.039688 0.542744 -2.494621
v 0.033491 0.544174 -2.343078
v -0.003098 -0.016516 -2.413563
v -0.020949 0.823087 -2.459592
v -0.004835 0.770775 -2.439393
v 0.009795 0.771061 -2.409084
v -0.020949 0.823087 -2.459592
v -0.024392 0.771222 -2.466236
v -0.018506 0.771283 -2.459733
v -0.018506 0.771283 -2.459733
v -0.004835 0.770775 -2.439393
v -0.020949 0.823087 -2.459592
v 0.009522 0.707951 -2.420451
v 0.029045 0.543733 -2.389850
v 0.020561 0.708274 -2.386209
v 0.014982 0.823800 -2.384051
v 0.009795 0.771061 -2.409084
v 0.017656 0.771290 -2.384851
v 0.017656 0.771290 -2.384851
v 0.018426 0.772070 -2.376430
v 0.014982 0.823800 -2.384051
v -0.003098 -0.016516 -2.413563
v 0.029045 0.543733 -2.389850
v -0.006487 0.543049 -2.462283
v 0.033491 0.544174 -2.343078
v 0.029045 0.543733 -2.389850
v -0.003098 -0.016516 -2.413563
v -0.006487 0.543049 -2.462283
v -0.039688 0.542744 -2.494621
v -0.003098 -0.016516 -2.413563
v 0.005014 0.707852 -2.430916
v -0.006487 0.543049 -2.462283
v 0.029045 0.543733 -2.389850
v -0.014935 0.707570 -2.460854
v -0.006487 0.543049 -2.462283
v 0.005014 0.707852 -2.430916
v -0.028929 0.708147 -2.473894
v -0.039688 0.542744 -2.494621
v -0.006487 0.543049 -2.462283
v 0.029045 0.543733 -2.389850
v 0.022732 0.708457 -2.366918
v 0.020561 0.708274 -2.386209
v 0.014982 0.823800 -2.384051
v 0.018426 0.772070 -2.376430
v -0.020949 0.823087 -2.459592
v 0.018426 0.772070 -2.376430
v 0.022732 0.708457 -2.366918
v -0.028929 0.708147 -2.473894
v 0.022732 0.708457 -2.366918
v -0.039688 0.542744 -2.494621
v -0.028929 0.708147 -2.473894
v 0.014982 0.823800 -2.384051
v -0.020949 0.823087 -2.459592
v 0.009795 0.771061 -2.409084
v 0.005014 0.707852 -2.430916
v 0.029045 0.543733 -2.389850
v 0.009522 0.707951 -2.420451
v -0.028929 0.708147 -2.473894
v -0.006487 0.543049 -2.462283
v -0.014935 0.707570 -2.460854
v 0.018426 0.772070 -2.376430
v -0.024392 0.771222 -2.466236
v -0.020949 0.823087 -2.459592
v 0.018426 0.772070 -2.376430
v -0.028929 0.708147 -2.473894
v -0.024392 0.771222 -2.466236
vn 0.994200 0.051300 -0.095000
vn -0.900500 0.004100 0.434800
vn 0.894900 0.108500 -0.433000
vn 0.740700 0.036800 -0.670900
vn 0.829700 0.040600 -0.556700
vn 0.950100 0.055800 -0.306800
vn 0.949700 0.053100 -0.308600
vn 0.994000 0.052100 -0.095700
vn 0.897400 -0.032900 -0.439900
vn 0.994200 -0.053100 -0.094000
vn 0.696800 -0.058000 -0.714900
vn 0.897500 0.021200 -0.440500
vn 0.831000 0.047500 -0.554200
vn 0.696800 0.044400 -0.715800
vn 0.992200 0.053600 -0.112100
vn -0.903100 0.003200 0.429500
vn 0.896700 0.114800 -0.427600
vn 0.917700 0.035400 -0.395700
vn 0.682100 0.041400 -0.730100
vn -0.902700 0.004800 0.430300
vn -0.902600 0.012700 0.430200
usemtl Shape.129
s off
f 224//71 223//71 222//71
f 227//72 226//72 225//72
f 230//72 229//72 228//72
f 233//73 232//73 231//73
f 236//74 235//74 234//74
f 239//75 238//75 237//75
f 242//76 241//76 240//76
f 245//77 244//77 243//77
f 248//78 247//78 246//78
f 251//79 250//79 249//79
f 254//80 253//80 252//80
f 257//81 256//81 255//81
f 260//82 259//82 258//82
f 263//83 262//83 261//83
f 266//84 265//84 264//84
f 269//85 268//85 267//85
f 272//86 271//86 270//86
f 275//72 274//72 273//72
f 278//72 277//72 276//72
f 281//87 280//87 279//87
f 284//88 283//88 282//88
f 287//89 286//89 285//89
f 290//90 289//90 288//90
f 293//91 292//91 291//91
