# Blender v2.75 (sub 0) OBJ File: ''
# www.blender.org
mtllib Prop_B29NP.mtl
o ShapeIndexedFaceSet.245_ShapeIndexedFaceSet.246
v -41.500000 -1.200000 49.500000
v -0.940002 2.569992 0.599995
v -2.620003 0.509992 0.599995
v -2.620003 0.509992 -0.600002
v -2.620003 0.509992 -0.600002
v -2.620003 0.509992 0.599995
v -1.670002 -1.940008 0.599995
v -0.940002 2.569992 0.599995
v -0.950005 2.569992 -0.600002
v 1.659996 2.159992 -0.600002
v 1.669994 2.139992 0.599995
v 1.659996 2.159992 -0.600002
v 2.619995 -0.310008 -0.600002
v 0.939995 -2.370008 0.599995
v -1.670002 -1.940008 0.599995
v -2.620003 0.509992 0.599995
v 2.619995 -0.310008 -0.600002
v 0.949997 -2.370008 -0.600002
v 0.939995 -2.370008 0.599995
v 0.939995 -2.370008 0.599995
v 0.949997 -2.370008 -0.600002
v -1.660004 -1.960008 -0.600002
v -0.950005 2.569992 -0.600002
v -0.940002 2.569992 0.599995
v -2.620003 0.509992 -0.600002
v -2.620003 0.509992 -0.600002
v -1.670002 -1.940008 0.599995
v -1.660004 -1.960008 -0.600002
v -0.940002 2.569992 0.599995
v 1.659996 2.159992 -0.600002
v 1.669994 2.139992 0.599995
v 2.619995 -0.310008 0.599995
v 1.669994 2.139992 0.599995
v 2.619995 -0.310008 -0.600002
v 2.619995 -0.310008 0.599995
v 0.939995 -2.370008 0.599995
v 1.669994 2.139992 0.599995
v -2.620003 0.509992 0.599995
v -0.940002 2.569992 0.599995
v 1.669994 2.139992 0.599995
v 0.939995 -2.370008 0.599995
v -2.620003 0.509992 0.599995
v 1.669994 2.139992 0.599995
v 2.619995 -0.310008 0.599995
v 2.619995 -0.310008 -0.600002
v 0.939995 -2.370008 0.599995
v 0.939995 -2.370008 0.599995
v -1.660004 -1.960008 -0.600002
v -1.670002 -1.940008 0.599995
vn -0.775000 0.632000 -0.000000
vn -0.932400 -0.361500 0.000000
vn 0.155200 0.987900 -0.001300
vn 0.932100 0.362300 -0.001700
vn -0.000000 0.000000 1.000000
vn 0.776800 -0.629700 0.006500
vn -0.155200 -0.987900 -0.001300
vn -0.776800 0.629700 0.006500
vn -0.932100 -0.362300 -0.001700
vn 0.162500 0.986600 0.015100
vn 0.932400 0.361500 -0.000000
vn 0.775000 -0.632000 0.000000
vn -0.162500 -0.986600 0.015100
usemtl Shape.245
s off
f 4//1 3//1 2//1
f 7//2 6//2 5//2
f 10//3 9//3 8//3
f 13//4 12//4 11//4
f 16//5 15//5 14//5
f 19//6 18//6 17//6
f 22//7 21//7 20//7
f 25//8 24//8 23//8
f 28//9 27//9 26//9
f 31//10 30//10 29//10
f 34//11 33//11 32//11
f 37//5 36//5 35//5
f 40//5 39//5 38//5
f 43//5 42//5 41//5
f 46//12 45//12 44//12
f 49//13 48//13 47//13
o ShapeIndexedFaceSet.234_ShapeIndexedFaceSet.235
v -41.500000 -1.200000 49.500000
v -16.390003 16.539991 0.299995
v -17.150003 15.869992 -1.020004
v -17.920004 16.819992 -0.900005
v -16.390003 16.539991 0.299995
v -16.720003 18.019991 0.849995
v -15.770004 17.249992 0.979996
v -16.360004 -16.190008 0.230000
v -15.770004 -17.050009 -1.020000
v -16.720003 -17.820009 -0.900002
v -16.360004 -16.190008 0.230000
v -17.920004 -16.620008 0.849998
v -17.150003 -15.670008 0.980000
v 17.919994 16.819992 0.849991
v 17.149998 15.869992 0.979992
v 16.369995 16.559992 0.229992
v 15.769997 17.249992 -1.020008
v 16.719997 18.019991 -0.900009
v 16.369995 16.559992 0.229992
v 16.719997 -17.820009 0.849995
v 15.769997 -17.050009 0.979996
v 16.379997 -16.180008 0.139996
v 17.919994 -16.620008 -0.900005
v 16.379997 -16.180008 0.139996
v 17.149998 -15.670009 -1.020004
v 17.669994 -17.570009 -0.000004
v 16.719997 -17.820009 0.849995
v 16.379997 -16.180008 0.139996
v 17.919994 -16.620008 -0.900005
v 17.669994 -17.570009 -0.000004
v 16.379997 -16.180008 0.139996
v -16.390003 16.539991 0.299995
v -17.920004 16.819992 -0.900005
v -17.670004 17.769991 -0.000004
v -16.390003 16.539991 0.299995
v -17.670004 17.769991 -0.000004
v -16.720003 18.019991 0.849995
v -17.670004 -17.570009 0.000000
v -17.920004 -16.620008 0.849998
v -16.360004 -16.190008 0.230000
v -16.720003 -17.820009 -0.900002
v -17.670004 -17.570009 0.000000
v -16.360004 -16.190008 0.230000
v 16.369995 16.559992 0.229992
v 16.719997 18.019991 -0.900009
v 17.669994 17.769991 -0.000008
v 16.369995 16.559992 0.229992
v 17.669994 17.769991 -0.000008
v 17.919994 16.819992 0.849991
v -17.670004 -17.570009 0.000000
v -16.720003 -17.820009 -0.900002
v -15.770004 -17.050009 -1.020000
v 15.769997 -17.050009 0.979996
v 16.719997 -17.820009 0.849995
v 17.669994 -17.570009 -0.000004
v 17.669994 17.769991 -0.000008
v 16.719997 18.019991 -0.900009
v 15.769997 17.249992 -1.020008
v -17.670004 17.769991 -0.000004
v -17.920004 16.819992 -0.900005
v -17.150003 15.869992 -1.020004
v -17.920004 -16.620008 0.849998
v -17.670004 -17.570009 0.000000
v -17.150003 -15.670008 0.980000
v -17.670004 -17.570009 0.000000
v -15.770004 -17.050009 -1.020000
v -17.150003 -15.670008 0.980000
v 17.149998 -15.670009 -1.020004
v 15.769997 -17.050009 0.979996
v 17.669994 -17.570009 -0.000004
v 17.149998 -15.670009 -1.020004
v 17.669994 -17.570009 -0.000004
v 17.919994 -16.620008 -0.900005
v 17.149998 15.869992 0.979992
v 17.919994 16.819992 0.849991
v 17.669994 17.769991 -0.000008
v 17.149998 15.869992 0.979992
v 17.669994 17.769991 -0.000008
v 15.769997 17.249992 -1.020008
v -15.770004 17.249992 0.979996
v -16.720003 18.019991 0.849995
v -17.670004 17.769991 -0.000004
v -15.770004 17.249992 0.979996
v -17.670004 17.769991 -0.000004
v -17.150003 15.869992 -1.020004
vn -0.577000 -0.544600 0.608700
vn -0.432700 -0.397200 0.809300
vn 0.532900 -0.558400 0.635700
vn 0.434500 -0.458300 0.775400
vn -0.396500 0.432200 0.809900
vn -0.552000 0.589100 0.590100
vn 0.456200 0.431500 0.778200
vn 0.571300 0.541000 0.617100
vn 0.538300 0.426300 0.727000
vn 0.581900 0.473400 0.661300
vn -0.598000 -0.462700 0.654500
vn -0.552300 -0.395800 0.733700
vn 0.435300 -0.534000 0.724800
vn 0.481900 -0.568600 0.666700
vn -0.453800 0.610900 0.648700
vn -0.387400 0.556000 0.735400
vn -0.509900 0.522600 -0.683300
vn -0.501200 -0.499000 -0.706900
vn 0.509900 -0.522600 -0.683300
vn 0.522600 0.509900 -0.683300
vn -0.499000 0.501200 -0.706900
vn -0.511800 0.500300 -0.698400
vn -0.500300 -0.511800 -0.698400
vn -0.522600 -0.509900 -0.683300
vn 0.499000 -0.501200 -0.706900
vn 0.511800 -0.500300 -0.698400
vn 0.501200 0.499000 -0.706900
vn 0.500300 0.511800 -0.698400
usemtl Shape.234
s off
f 53//14 52//14 51//14
f 56//15 55//15 54//15
f 59//16 58//16 57//16
f 62//17 61//17 60//17
f 65//18 64//18 63//18
f 68//19 67//19 66//19
f 71//20 70//20 69//20
f 74//21 73//21 72//21
f 77//22 76//22 75//22
f 80//23 79//23 78//23
f 83//24 82//24 81//24
f 86//25 85//25 84//25
f 89//26 88//26 87//26
f 92//27 91//27 90//27
f 95//28 94//28 93//28
f 98//29 97//29 96//29
f 101//30 100//30 99//30
f 104//31 103//31 102//31
f 107//32 106//32 105//32
f 110//33 109//33 108//33
f 113//34 112//34 111//34
f 116//35 115//35 114//35
f 119//36 118//36 117//36
f 122//37 121//37 120//37
f 125//38 124//38 123//38
f 128//39 127//39 126//39
f 131//40 130//40 129//40
f 134//41 133//41 132//41
o ShapeIndexedFaceSet.233_ShapeIndexedFaceSet.234
v -41.500000 -1.200000 49.500000
v 15.769997 17.249992 -1.020008
v 16.369995 16.559992 0.229992
v 7.909996 8.049993 0.349991
v 17.149998 15.869992 0.979992
v 8.659996 7.029992 1.229992
v 7.909996 8.049993 0.349991
v -7.860004 8.099993 0.389996
v -6.930004 8.759993 1.229996
v -0.000004 0.099992 -0.000004
v -8.660004 7.029991 -1.270004
v -7.860004 8.099993 0.389996
v -0.000004 0.099992 -0.000004
v 8.659996 -6.830009 -1.270004
v 17.149998 -15.670009 -1.020004
v 16.379997 -16.180008 0.139996
v 6.929996 -8.560008 1.229996
v 7.859997 -7.720008 0.309998
v 16.379997 -16.180008 0.139996
v 7.859997 -7.720008 0.309998
v 6.929996 -8.560008 1.229996
v -0.000004 0.099992 -0.000004
v 8.659996 -6.830009 -1.270004
v 7.859997 -7.720008 0.309998
v -0.000004 0.099992 -0.000004
v -6.930004 -8.560008 -1.270000
v -15.770004 -17.050009 -1.020000
v -16.360004 -16.190008 0.230000
v -16.360004 -16.190008 0.230000
v -17.150003 -15.670008 0.980000
v -8.660004 -6.830008 1.229996
v -0.000004 0.099992 -0.000004
v -6.930004 -8.560008 -1.270000
v -7.910004 -7.670008 0.349998
v -0.000004 0.099992 -0.000004
v -7.910004 -7.670008 0.349998
v -8.660004 -6.830008 1.229996
v -6.930004 8.759993 1.229996
v -15.770004 17.249992 0.979996
v -17.150003 15.869992 -1.020004
v 17.149998 15.869992 0.979992
v 15.769997 17.249992 -1.020008
v 6.929996 8.759992 -1.270008
v 15.769997 -17.050009 0.979996
v 17.149998 -15.670009 -1.020004
v 8.659996 -6.830009 -1.270004
v -17.150003 -15.670008 0.980000
v -15.770004 -17.050009 -1.020000
v -6.930004 -8.560008 -1.270000
v -15.770004 17.249992 0.979996
v -6.930004 8.759993 1.229996
v -7.860004 8.099993 0.389996
v -17.150003 15.869992 -1.020004
v -16.390003 16.539991 0.299995
v -7.860004 8.099993 0.389996
v -0.000004 0.099992 -0.000004
v 6.929996 8.759992 -1.270008
v 7.909996 8.049993 0.349991
v -0.000004 0.099992 -0.000004
v 7.909996 8.049993 0.349991
v 8.659996 7.029992 1.229992
v 6.929996 8.759992 -1.270008
v 15.769997 17.249992 -1.020008
v 7.909996 8.049993 0.349991
v 16.369995 16.559992 0.229992
v 17.149998 15.869992 0.979992
v 7.909996 8.049993 0.349991
v 7.859997 -7.720008 0.309998
v 8.659996 -6.830009 -1.270004
v 16.379997 -16.180008 0.139996
v 6.929996 -8.560008 1.229996
v 16.379997 -16.180008 0.139996
v 15.769997 -17.050009 0.979996
v -7.910004 -7.670008 0.349998
v -6.930004 -8.560008 -1.270000
v -16.360004 -16.190008 0.230000
v -7.910004 -7.670008 0.349998
v -16.360004 -16.190008 0.230000
v -8.660004 -6.830008 1.229996
v -8.660004 7.029991 -1.270004
v -0.000004 0.099992 -0.000004
v -6.930004 8.759993 1.229996
v -8.660004 7.029991 -1.270004
v -6.930004 8.759993 1.229996
v -17.150003 15.869992 -1.020004
v 8.659996 7.029992 1.229992
v 17.149998 15.869992 0.979992
v 6.929996 8.759992 -1.270008
v 8.659996 7.029992 1.229992
v 6.929996 8.759992 -1.270008
v -0.000004 0.099992 -0.000004
v 6.929996 -8.560008 1.229996
v 15.769997 -17.050009 0.979996
v 8.659996 -6.830009 -1.270004
v 6.929996 -8.560008 1.229996
v 8.659996 -6.830009 -1.270004
v -0.000004 0.099992 -0.000004
v -8.660004 -6.830008 1.229996
v -17.150003 -15.670008 0.980000
v -6.930004 -8.560008 -1.270000
v -0.000004 0.099992 -0.000004
v -8.660004 -6.830008 1.229996
v -6.930004 -8.560008 -1.270000
v -16.390003 16.539991 0.299995
v -15.770004 17.249992 0.979996
v -7.860004 8.099993 0.389996
v -8.660004 7.029991 -1.270004
v -17.150003 15.869992 -1.020004
v -7.860004 8.099993 0.389996
vn -0.568600 0.573600 0.589600
vn -0.402700 0.409900 0.818400
vn -0.408900 -0.440700 0.799100
vn -0.542000 -0.562900 0.624000
vn 0.559700 0.554900 0.615500
vn 0.425200 0.412000 0.805900
vn 0.402300 0.436200 0.804900
vn 0.550200 0.577000 0.603600
vn 0.544700 -0.548500 0.634400
vn 0.443000 -0.447400 0.776900
vn 0.556800 -0.538300 0.632600
vn 0.449900 -0.422600 0.786800
vn 0.505900 0.506200 -0.698400
vn 0.505900 -0.506200 -0.698400
vn -0.506200 -0.505900 -0.698400
vn -0.505900 0.506200 -0.698400
vn -0.425900 -0.419900 0.801400
vn -0.561600 -0.561100 0.608100
vn -0.582700 0.553500 0.595100
vn -0.427500 0.389500 0.815800
vn -0.566300 0.572100 0.593300
vn -0.409400 0.418400 0.810700
vn 0.568100 0.560000 0.603100
vn 0.445200 0.440600 0.779600
vn 0.545600 -0.550000 0.632300
vn 0.431900 -0.439500 0.787600
vn 0.506300 0.504500 -0.699400
vn 0.505500 0.505300 -0.699400
vn 0.505500 -0.505300 -0.699400
vn 0.504500 -0.506300 -0.699400
vn -0.505300 -0.505500 -0.699400
vn -0.506300 -0.504500 -0.699400
vn -0.505500 0.505300 -0.699400
vn -0.504500 0.506300 -0.699400
vn -0.416500 -0.412300 0.810300
vn -0.555400 -0.551000 0.622800
usemtl Shape.233
s off
f 138//42 137//42 136//42
f 141//43 140//43 139//43
f 144//44 143//44 142//44
f 147//45 146//45 145//45
f 150//46 149//46 148//46
f 153//47 152//47 151//47
f 156//48 155//48 154//48
f 159//49 158//49 157//49
f 162//50 161//50 160//50
f 165//51 164//51 163//51
f 168//52 167//52 166//52
f 171//53 170//53 169//53
f 174//54 173//54 172//54
f 177//55 176//55 175//55
f 180//56 179//56 178//56
f 183//57 182//57 181//57
f 186//58 185//58 184//58
f 189//59 188//59 187//59
f 192//60 191//60 190//60
f 195//61 194//61 193//61
f 198//62 197//62 196//62
f 201//63 200//63 199//63
f 204//64 203//64 202//64
f 207//65 206//65 205//65
f 210//66 209//66 208//66
f 213//67 212//67 211//67
f 216//68 215//68 214//68
f 219//69 218//69 217//69
f 222//70 221//70 220//70
f 225//71 224//71 223//71
f 228//72 227//72 226//72
f 231//73 230//73 229//73
f 234//74 233//74 232//74
f 237//75 236//75 235//75
f 240//76 239//76 238//76
f 243//77 242//77 241//77
o ShapeIndexedFaceSet.232_ShapeIndexedFaceSet.233
v -41.500000 -1.200000 49.500000
v 2.279995 -1.210008 -0.000004
v 2.049995 -1.460008 0.609997
v -1.560005 2.149992 0.609997
v 1.559998 -1.950008 0.609997
v -2.050003 1.659992 0.609997
v -1.560005 2.149992 0.609997
v 1.559998 -1.950008 0.609997
v 1.309998 -2.180008 -0.000004
v -2.280003 1.409992 -0.000004
v -2.280003 1.409992 -0.000004
v 1.309998 -2.180008 -0.000004
v 1.559998 -1.950008 -0.610004
v -2.280003 -1.210008 -0.000004
v -2.050003 -1.460008 -0.610004
v 1.559998 2.149992 -0.610004
v -1.560005 -1.950008 -0.610004
v 2.049995 1.659992 -0.610004
v 1.559998 2.149992 -0.610004
v -1.560005 -1.950008 -0.610004
v -1.310005 -2.180008 -0.000004
v 2.279995 1.409992 -0.000004
v -1.560005 -1.950008 0.609997
v 2.049995 1.659992 0.609997
v 2.279995 1.409992 -0.000004
v -2.050003 -1.460008 0.609997
v 1.559998 2.149992 0.609997
v 2.049995 1.659992 0.609997
v -2.280003 -1.210008 -0.000004
v 1.309998 2.379992 -0.000004
v 1.559998 2.149992 0.609997
v 2.049995 -1.460008 -0.610004
v -1.560005 2.149992 -0.610004
v -2.050003 1.659992 -0.610004
v 2.279995 -1.210008 -0.000004
v -1.310005 2.379992 -0.000004
v -1.560005 2.149992 -0.610004
v 2.049995 1.659992 0.609997
v 1.559998 2.149992 0.609997
v 1.309998 2.379992 -0.000004
v -1.310005 -2.180008 -0.000004
v -1.560005 -1.950008 -0.610004
v -2.050003 -1.460008 -0.610004
v 1.309998 -2.180008 -0.000004
v 1.559998 -1.950008 0.609997
v 2.049995 -1.460008 0.609997
v -1.310005 2.379992 -0.000004
v -1.560005 2.149992 0.609997
v -2.050003 1.659992 0.609997
v 2.279995 -1.210008 -0.000004
v -1.560005 2.149992 0.609997
v -1.310005 2.379992 -0.000004
v 2.049995 -1.460008 0.609997
v 1.559998 -1.950008 0.609997
v -1.560005 2.149992 0.609997
v 1.559998 -1.950008 0.609997
v -2.280003 1.409992 -0.000004
v -2.050003 1.659992 0.609997
v -2.050003 1.659992 -0.610004
v -2.280003 1.409992 -0.000004
v 1.559998 -1.950008 -0.610004
v -2.280003 -1.210008 -0.000004
v 1.559998 2.149992 -0.610004
v 1.309998 2.379992 -0.000004
v -2.050003 -1.460008 -0.610004
v -1.560005 -1.950008 -0.610004
v 1.559998 2.149992 -0.610004
v -1.560005 -1.950008 -0.610004
v 2.279995 1.409992 -0.000004
v 2.049995 1.659992 -0.610004
v -1.310005 -2.180008 -0.000004
v -1.560005 -1.950008 0.609997
v 2.279995 1.409992 -0.000004
v -1.560005 -1.950008 0.609997
v -2.050003 -1.460008 0.609997
v 2.049995 1.659992 0.609997
v -2.050003 -1.460008 0.609997
v -2.280003 -1.210008 -0.000004
v 1.559998 2.149992 0.609997
v 1.559998 -1.950008 -0.610004
v 2.049995 -1.460008 -0.610004
v -2.050003 1.659992 -0.610004
v 2.049995 -1.460008 -0.610004
v 2.279995 -1.210008 -0.000004
v -1.560005 2.149992 -0.610004
v 2.279995 1.409992 -0.000004
v 2.049995 1.659992 0.609997
v 1.309998 2.379992 -0.000004
v 1.559998 2.149992 -0.610004
v 2.049995 1.659992 -0.610004
v 1.309998 2.379992 -0.000004
v 2.049995 1.659992 -0.610004
v 2.279995 1.409992 -0.000004
v 1.309998 2.379992 -0.000004
v -2.050003 -1.460008 0.609997
v -1.560005 -1.950008 0.609997
v -1.310005 -2.180008 -0.000004
v -2.280003 -1.210008 -0.000004
v -2.050003 -1.460008 0.609997
v -1.310005 -2.180008 -0.000004
v -2.280003 -1.210008 -0.000004
v -1.310005 -2.180008 -0.000004
v -2.050003 -1.460008 -0.610004
v 1.309998 -2.180008 -0.000004
v 2.049995 -1.460008 -0.610004
v 1.559998 -1.950008 -0.610004
v 1.309998 -2.180008 -0.000004
v 2.049995 -1.460008 0.609997
v 2.279995 -1.210008 -0.000004
v 1.309998 -2.180008 -0.000004
v 2.279995 -1.210008 -0.000004
v 2.049995 -1.460008 -0.610004
v -2.050003 1.659992 -0.610004
v -1.560005 2.149992 -0.610004
v -1.310005 2.379992 -0.000004
v -1.310005 2.379992 -0.000004
v -2.050003 1.659992 0.609997
v -2.280003 1.409992 -0.000004
v -2.050003 1.659992 -0.610004
v -1.310005 2.379992 -0.000004
v -2.280003 1.409992 -0.000004
vn 0.617900 0.617900 0.486200
vn 0.000000 0.000000 1.000000
vn -0.617900 -0.617900 0.486200
vn -0.617900 -0.617900 -0.486200
vn -0.617900 0.617900 -0.486200
vn -0.000000 0.000000 -1.000000
vn 0.617900 -0.617900 -0.486200
vn 0.617900 -0.617900 0.486200
vn -0.617900 0.617900 0.486200
vn 0.617900 0.617900 -0.486200
vn 0.706900 0.706900 -0.023200
vn -0.706900 -0.706900 0.023200
vn 0.706900 -0.706900 -0.023200
vn -0.706900 0.706900 -0.023200
vn 0.706900 0.706900 0.023200
vn -0.706900 -0.706900 -0.023200
vn 0.706900 -0.706900 0.023200
vn -0.706900 0.706900 0.023200
usemtl Shape.232
s off
f 247//78 246//78 245//78
f 250//79 249//79 248//79
f 253//80 252//80 251//80
f 256//81 255//81 254//81
f 259//82 258//82 257//82
f 262//83 261//83 260//83
f 265//84 264//84 263//84
f 268//85 267//85 266//85
f 271//79 270//79 269//79
f 274//86 273//86 272//86
f 277//83 276//83 275//83
f 280//87 279//87 278//87
f 283//88 282//88 281//88
f 286//89 285//89 284//89
f 289//90 288//90 287//90
f 292//91 291//91 290//91
f 295//78 294//78 293//78
f 298//79 297//79 296//79
f 301//80 300//80 299//80
f 304//81 303//81 302//81
f 307//82 306//82 305//82
f 310//83 309//83 308//83
f 313//84 312//84 311//84
f 316//85 315//85 314//85
f 319//79 318//79 317//79
f 322//86 321//86 320//86
f 325//83 324//83 323//83
f 328//87 327//87 326//87
f 331//88 330//88 329//88
f 334//92 333//92 332//92
f 337//92 336//92 335//92
f 340//93 339//93 338//93
f 343//93 342//93 341//93
f 346//89 345//89 344//89
f 349//94 348//94 347//94
f 352//90 351//90 350//90
f 355//94 354//94 353//94
f 358//95 357//95 356//95
f 361//91 360//91 359//91
f 364//95 363//95 362//95
