# Blender v2.75 (sub 0) OBJ File: ''
# www.blender.org
mtllib Prop_F6FNP.mtl
o ShapeIndexedFaceSet.190_ShapeIndexedFaceSet.191
v 15.633698 9.414200 -28.580101
v 15.563197 9.550700 -28.307302
v 16.923798 10.165900 -28.479502
v 17.455698 9.190600 -29.485601
v 16.923798 10.165900 -28.479502
v 15.563197 9.550700 -28.307302
v 16.076698 8.580500 -29.444300
v 17.455698 9.190600 -29.485601
v 16.221899 8.322000 -29.570000
v 16.923798 10.165900 -28.479502
v 17.455698 9.190600 -29.485601
v 16.076698 8.580500 -29.444300
v -16.142601 8.533899 -28.533897
v -16.213102 8.426600 -28.248398
v -17.433302 9.284700 -28.433199
v -16.901302 10.149600 -29.535799
v -17.433302 9.284700 -28.433199
v -16.213102 8.426600 -28.248398
v -15.682302 9.262700 -29.480099
v -16.901302 10.149600 -29.535799
v -15.537003 9.506700 -29.631998
v -17.433302 9.284700 -28.433199
v -16.901302 10.149600 -29.535799
v -15.682302 9.262700 -29.480099
v 0.508898 -18.507401 -27.117100
v 0.649898 -18.492800 -26.837999
v 0.509498 -19.988100 -26.899401
v -0.554402 -20.043301 -27.954000
v 0.509498 -19.988100 -26.899401
v 0.649898 -18.492800 -26.837999
v -0.394402 -18.544901 -28.023100
v -0.554402 -20.043301 -27.954000
v -0.684902 -18.551901 -28.161900
v 0.509498 -19.988100 -26.899401
v -0.554402 -20.043301 -27.954000
v -0.394402 -18.544901 -28.023100
v 16.221899 8.322000 -29.570000
v 17.455698 9.190600 -29.485601
v 15.563197 9.550700 -28.307302
v 15.633698 9.414200 -28.580101
v 16.923798 10.165900 -28.479502
v 16.076698 8.580500 -29.444300
v -15.537003 9.506700 -29.631998
v -16.901302 10.149600 -29.535799
v -16.213102 8.426600 -28.248398
v -16.142601 8.533899 -28.533897
v -17.433302 9.284700 -28.433199
v -15.682302 9.262700 -29.480099
v -0.684902 -18.551901 -28.161900
v -0.554402 -20.043301 -27.954000
v 0.649898 -18.492800 -26.837999
v 0.508898 -18.507401 -27.117100
v 0.509498 -19.988100 -26.899401
v -0.394402 -18.544901 -28.023100
vn -0.409800 0.769000 -0.490700
vn 0.352400 -0.572000 0.740700
vn -0.180700 0.346200 -0.920600
vn -0.290200 0.605900 -0.740700
vn -0.482300 -0.774100 -0.410000
vn 0.352100 0.646400 0.676900
vn -0.250500 -0.399700 -0.881700
vn -0.412500 -0.609400 -0.677100
vn 0.892000 -0.065400 -0.447200
vn -0.704500 0.037000 0.708800
vn 0.431200 -0.087500 -0.898000
vn 0.702700 -0.107500 -0.703300
vn 0.352200 -0.572300 0.740600
vn -0.296200 0.607000 -0.737400
vn 0.352300 0.646400 0.676800
vn -0.410300 -0.615000 -0.673300
vn -0.704500 0.037100 0.708700
vn 0.706500 -0.102700 -0.700200
usemtl Shape.190
s 1
f 1//1 2//1 3//1
f 4//2 5//2 6//2
f 7//3 8//3 9//3
f 10//4 11//4 12//4
f 13//5 14//5 15//5
f 16//6 17//6 18//6
f 19//7 20//7 21//7
f 22//8 23//8 24//8
f 25//9 26//9 27//9
f 28//10 29//10 30//10
f 31//11 32//11 33//11
f 34//12 35//12 36//12
f 37//13 38//13 39//13
f 40//14 41//14 42//14
f 43//15 44//15 45//15
f 46//16 47//16 48//16
f 49//17 50//17 51//17
f 52//18 53//18 54//18
o ShapeIndexedFaceSet.189_ShapeIndexedFaceSet.190
v 14.854397 8.959800 -28.646400
v 15.291897 8.220300 -29.425800
v 7.913998 4.925000 -29.226103
v 15.291897 8.220300 -29.425800
v 15.525897 7.824000 -29.623600
v 13.596197 6.457300 -29.761499
v 7.913998 4.925000 -29.226103
v 13.596197 6.457300 -29.761499
v 6.321598 2.263100 -29.541700
v 5.362998 4.020600 -27.728302
v 12.637697 8.214800 -27.948000
v 7.913998 4.925000 -29.226103
v 1.149598 0.437200 -29.189400
v 0.904197 0.872500 -29.003700
v 1.943398 1.471700 -29.035101
v 0.904197 0.872500 -29.003700
v 0.798298 1.081300 -28.524799
v 1.837497 1.680400 -28.556200
v 0.902398 0.926900 -28.025299
v 1.941597 1.526101 -28.056700
v 1.837497 1.680400 -28.556200
v 1.146998 0.515200 -27.791599
v 2.186198 1.114100 -27.822901
v 1.941597 1.526101 -28.056700
v 1.146998 0.515200 -27.791599
v 1.392298 0.079500 -27.977301
v 2.431598 0.678700 -28.008699
v 1.498297 -0.129200 -28.456100
v 2.537498 0.470000 -28.487499
v 2.431598 0.678700 -28.008699
v 1.498297 -0.129200 -28.456100
v 1.394097 0.025300 -28.955700
v 2.433397 0.624400 -28.987101
v 1.149598 0.437200 -29.189400
v 2.188797 1.036400 -29.220800
v 2.433397 0.624400 -28.987101
v 1.943398 1.471700 -29.035101
v 1.837497 1.680400 -28.556200
v 1.941597 1.526101 -28.056700
v 13.596197 6.457300 -29.761499
v 15.525897 7.824000 -29.623600
v 14.783298 9.185800 -28.218399
v 1.941597 1.526101 -28.056700
v 5.362998 4.020600 -27.728302
v 7.913998 4.925000 -29.226103
v 7.913998 4.925000 -29.226103
v 1.943398 1.471700 -29.035101
v 1.941597 1.526101 -28.056700
v 2.433397 0.624400 -28.987101
v 1.943398 1.471700 -29.035101
v 7.913998 4.925000 -29.226103
v 7.913998 4.925000 -29.226103
v 6.321598 2.263100 -29.541700
v 2.433397 0.624400 -28.987101
v 14.854397 8.959800 -28.646400
v 7.913998 4.925000 -29.226103
v 12.637697 8.214800 -27.948000
v 15.633698 9.414200 -28.580101
v 16.076698 8.580500 -29.444300
v 15.291897 8.220300 -29.425800
v 16.076698 8.580500 -29.444300
v 16.221899 8.322000 -29.570000
v 15.525897 7.824000 -29.623600
v 14.854397 8.959800 -28.646400
v 14.783298 9.185800 -28.218399
v 15.563197 9.550700 -28.307302
v 16.221899 8.322000 -29.570000
v 15.563197 9.550700 -28.307302
v 14.783298 9.185800 -28.218399
v 2.186198 1.114100 -27.822901
v 2.431598 0.678700 -28.008699
v 2.537498 0.470000 -28.487499
v 2.188797 1.036400 -29.220800
v 1.943398 1.471700 -29.035101
v 2.433397 0.624400 -28.987101
v 1.943398 1.471700 -29.035101
v 1.941597 1.526101 -28.056700
v 2.186198 1.114100 -27.822901
v 1.943398 1.471700 -29.035101
v 2.186198 1.114100 -27.822901
v 2.537498 0.470000 -28.487499
v 13.596197 6.457300 -29.761499
v 14.783298 9.185800 -28.218399
v 12.637697 8.214800 -27.948000
v 1.941597 1.526101 -28.056700
v 2.433397 0.624400 -28.987101
v 5.362998 4.020600 -27.728302
v 2.433397 0.624400 -28.987101
v 6.321598 2.263100 -29.541700
v 5.362998 4.020600 -27.728302
v 6.321598 2.263100 -29.541700
v 12.637697 8.214800 -27.948000
v 5.362998 4.020600 -27.728302
v -15.363003 8.080000 -28.600298
v -14.977503 8.763900 -29.454298
v -8.429703 4.033100 -29.179300
v -14.977503 8.763900 -29.454298
v -14.760803 9.147500 -29.692898
v -12.620203 8.145400 -29.849897
v -8.429703 4.033100 -29.179300
v -12.620203 8.145400 -29.849897
v -5.345603 3.951500 -29.630199
v -6.304102 2.392801 -27.643000
v -13.578703 6.587000 -27.862799
v -8.429703 4.033100 -29.179300
v -1.164503 0.411200 -29.188000
v -1.409902 -0.002300 -28.957899
v -2.449103 0.596900 -28.989300
v -1.515803 -0.159800 -28.459801
v -2.555102 0.439300 -28.491100
v -2.449103 0.596900 -28.989300
v -1.515803 -0.159800 -28.459801
v -1.411703 0.045900 -27.979200
v -2.450902 0.645100 -28.010599
v -1.167102 0.480100 -27.789700
v -2.206402 1.079301 -27.821100
v -2.450902 0.645100 -28.010599
v -1.167102 0.480100 -27.789700
v -0.921702 0.893600 -28.020000
v -1.961002 1.492800 -28.051399
v -0.921702 0.893600 -28.020000
v -0.815803 1.051200 -28.518000
v -1.855103 1.650400 -28.549400
v -0.919903 0.845400 -28.998699
v -1.959203 1.444600 -29.030100
v -1.855103 1.650400 -28.549400
v -0.919903 0.845400 -28.998699
v -1.164503 0.411200 -29.188000
v -2.203803 1.010400 -29.219400
v -2.449103 0.596900 -28.989300
v -2.555102 0.439300 -28.491100
v -2.450902 0.645100 -28.010599
v -12.620203 8.145400 -29.849897
v -14.760803 9.147500 -29.692898
v -15.503503 7.940000 -28.153097
v -2.450902 0.645100 -28.010599
v -6.304102 2.392801 -27.643000
v -8.429703 4.033100 -29.179300
v -8.429703 4.033100 -29.179300
v -2.449103 0.596900 -28.989300
v -2.450902 0.645100 -28.010599
v -1.959203 1.444600 -29.030100
v -2.449103 0.596900 -28.989300
v -8.429703 4.033100 -29.179300
v -8.429703 4.033100 -29.179300
v -5.345603 3.951500 -29.630199
v -1.959203 1.444600 -29.030100
v -15.363003 8.080000 -28.600298
v -8.429703 4.033100 -29.179300
v -13.578703 6.587000 -27.862799
v -16.142601 8.533899 -28.533897
v -15.682302 9.262700 -29.480099
v -14.977503 8.763900 -29.454298
v -15.682302 9.262700 -29.480099
v -15.537003 9.506700 -29.631998
v -14.760803 9.147500 -29.692898
v -16.142601 8.533899 -28.533897
v -15.363003 8.080000 -28.600298
v -15.503503 7.940000 -28.153097
v -15.537003 9.506700 -29.631998
v -16.213102 8.426600 -28.248398
v -15.503503 7.940000 -28.153097
v -2.206402 1.079301 -27.821100
v -1.961002 1.492800 -28.051399
v -1.855103 1.650400 -28.549400
v -2.203803 1.010400 -29.219400
v -2.449103 0.596900 -28.989300
v -1.959203 1.444600 -29.030100
v -2.449103 0.596900 -28.989300
v -2.450902 0.645100 -28.010599
v -2.206402 1.079301 -27.821100
v -2.449103 0.596900 -28.989300
v -2.206402 1.079301 -27.821100
v -1.855103 1.650400 -28.549400
v -12.620203 8.145400 -29.849897
v -15.503503 7.940000 -28.153097
v -13.578703 6.587000 -27.862799
v -2.450902 0.645100 -28.010599
v -1.959203 1.444600 -29.030100
v -6.304102 2.392801 -27.643000
v -1.959203 1.444600 -29.030100
v -5.345603 3.951500 -29.630199
v -6.304102 2.392801 -27.643000
v -5.345603 3.951500 -29.630199
v -13.578703 6.587000 -27.862799
v -6.304102 2.392801 -27.643000
v 0.508598 -17.613400 -27.254103
v -0.314402 -17.686100 -28.068501
v 0.515697 -9.655699 -28.462099
v -0.314402 -17.686100 -28.068501
v -0.765202 -17.707500 -28.285900
v -0.976003 -15.371600 -28.617701
v 0.515697 -9.655699 -28.462099
v -0.976003 -15.371600 -28.617701
v -0.976003 -6.983100 -29.057301
v 0.941098 -6.883601 -27.157000
v 0.941098 -15.272100 -26.717400
v 0.515697 -9.655699 -28.462099
v 0.014997 -1.577100 -29.083799
v 0.505697 -1.566200 -28.875900
v 0.505697 -2.764600 -28.813101
v 0.505697 -1.566200 -28.875900
v 0.717597 -1.540600 -28.387400
v 0.717597 -2.739001 -28.324600
v 0.509298 -1.515000 -27.897301
v 0.509298 -2.713300 -27.834600
v 0.717597 -2.739001 -28.324600
v 0.509298 -1.515000 -27.897301
v 0.020198 -1.503901 -27.685801
v 0.020198 -2.702199 -27.622999
v -0.470602 -1.514799 -27.893801
v -0.470602 -2.713099 -27.830999
v 0.020198 -2.702199 -27.622999
v -0.682402 -1.540400 -28.382200
v -0.682402 -2.738699 -28.319401
v -0.470602 -2.713099 -27.830999
v -0.474203 -1.566200 -28.872299
v -0.474203 -2.764400 -28.809601
v -0.682402 -2.738699 -28.319401
v -0.474203 -1.566200 -28.872299
v 0.014997 -1.577100 -29.083799
v 0.014997 -2.775500 -29.021099
v 0.505697 -2.764600 -28.813101
v 0.717597 -2.739001 -28.324600
v 0.509298 -2.713300 -27.834600
v -0.976003 -15.371600 -28.617701
v -0.765202 -17.707500 -28.285900
v 0.720198 -17.630301 -26.813402
v 0.509298 -2.713300 -27.834600
v 0.941098 -6.883601 -27.157000
v 0.515697 -9.655699 -28.462099
v 0.515697 -9.655699 -28.462099
v 0.505697 -2.764600 -28.813101
v 0.509298 -2.713300 -27.834600
v -0.474203 -2.764400 -28.809601
v 0.505697 -2.764600 -28.813101
v 0.515697 -9.655699 -28.462099
v 0.515697 -9.655699 -28.462099
v -0.976003 -6.983100 -29.057301
v -0.474203 -2.764400 -28.809601
v 0.508598 -17.613400 -27.254103
v 0.515697 -9.655699 -28.462099
v 0.941098 -15.272100 -26.717400
v 0.508898 -18.507401 -27.117100
v -0.394402 -18.544901 -28.023100
v -0.314402 -17.686100 -28.068501
v -0.394402 -18.544901 -28.023100
v -0.684902 -18.551901 -28.161900
v -0.765202 -17.707500 -28.285900
v 0.508898 -18.507401 -27.117100
v 0.508598 -17.613400 -27.254103
v 0.720198 -17.630301 -26.813402
v -0.684902 -18.551901 -28.161900
v 0.649898 -18.492800 -26.837999
v 0.720198 -17.630301 -26.813402
v 0.020198 -2.702199 -27.622999
v -0.470602 -2.713099 -27.830999
v -0.682402 -2.738699 -28.319401
v 0.014997 -2.775500 -29.021099
v 0.505697 -2.764600 -28.813101
v -0.474203 -2.764400 -28.809601
v 0.505697 -2.764600 -28.813101
v 0.509298 -2.713300 -27.834600
v 0.020198 -2.702199 -27.622999
v 0.505697 -2.764600 -28.813101
v 0.020198 -2.702199 -27.622999
v -0.682402 -2.738699 -28.319401
v -0.976003 -15.371600 -28.617701
v 0.720198 -17.630301 -26.813402
v 0.941098 -15.272100 -26.717400
v 0.509298 -2.713300 -27.834600
v -0.474203 -2.764400 -28.809601
v 0.941098 -6.883601 -27.157000
v -0.474203 -2.764400 -28.809601
v -0.976003 -6.983100 -29.057301
v 0.941098 -6.883601 -27.157000
v -0.976003 -6.983100 -29.057301
v 0.941098 -15.272100 -26.717400
v 0.941098 -6.883601 -27.157000
v 15.291897 8.220300 -29.425800
v 13.596197 6.457300 -29.761499
v 7.913998 4.925000 -29.226103
v 1.149598 0.437200 -29.189400
v 1.943398 1.471700 -29.035101
v 2.188797 1.036400 -29.220800
v 0.904197 0.872500 -29.003700
v 1.837497 1.680400 -28.556200
v 1.943398 1.471700 -29.035101
v 0.798298 1.081300 -28.524799
v 0.902398 0.926900 -28.025299
v 1.837497 1.680400 -28.556200
v 0.902398 0.926900 -28.025299
v 1.146998 0.515200 -27.791599
v 1.941597 1.526101 -28.056700
v 1.146998 0.515200 -27.791599
v 2.431598 0.678700 -28.008699
v 2.186198 1.114100 -27.822901
v 1.392298 0.079500 -27.977301
v 1.498297 -0.129200 -28.456100
v 2.431598 0.678700 -28.008699
v 1.498297 -0.129200 -28.456100
v 2.433397 0.624400 -28.987101
v 2.537498 0.470000 -28.487499
v 1.394097 0.025300 -28.955700
v 1.149598 0.437200 -29.189400
v 2.433397 0.624400 -28.987101
v 14.854397 8.959800 -28.646400
v 12.637697 8.214800 -27.948000
v 14.783298 9.185800 -28.218399
v 14.854397 8.959800 -28.646400
v 15.633698 9.414200 -28.580101
v 15.291897 8.220300 -29.425800
v 15.291897 8.220300 -29.425800
v 16.076698 8.580500 -29.444300
v 15.525897 7.824000 -29.623600
v 15.633698 9.414200 -28.580101
v 14.854397 8.959800 -28.646400
v 15.563197 9.550700 -28.307302
v 15.525897 7.824000 -29.623600
v 16.221899 8.322000 -29.570000
v 14.783298 9.185800 -28.218399
v 1.943398 1.471700 -29.035101
v 2.537498 0.470000 -28.487499
v 2.433397 0.624400 -28.987101
v 6.321598 2.263100 -29.541700
v 13.596197 6.457300 -29.761499
v 12.637697 8.214800 -27.948000
v -14.977503 8.763900 -29.454298
v -12.620203 8.145400 -29.849897
v -8.429703 4.033100 -29.179300
v -1.164503 0.411200 -29.188000
v -2.449103 0.596900 -28.989300
v -2.203803 1.010400 -29.219400
v -1.409902 -0.002300 -28.957899
v -1.515803 -0.159800 -28.459801
v -2.449103 0.596900 -28.989300
v -1.515803 -0.159800 -28.459801
v -2.450902 0.645100 -28.010599
v -2.555102 0.439300 -28.491100
v -1.411703 0.045900 -27.979200
v -1.167102 0.480100 -27.789700
v -2.450902 0.645100 -28.010599
v -1.167102 0.480100 -27.789700
v -1.961002 1.492800 -28.051399
v -2.206402 1.079301 -27.821100
v -0.921702 0.893600 -28.020000
v -1.855103 1.650400 -28.549400
v -1.961002 1.492800 -28.051399
v -0.815803 1.051200 -28.518000
v -0.919903 0.845400 -28.998699
v -1.855103 1.650400 -28.549400
v -0.919903 0.845400 -28.998699
v -2.203803 1.010400 -29.219400
v -1.959203 1.444600 -29.030100
v -15.363003 8.080000 -28.600298
v -13.578703 6.587000 -27.862799
v -15.503503 7.940000 -28.153097
v -15.363003 8.080000 -28.600298
v -16.142601 8.533899 -28.533897
v -14.977503 8.763900 -29.454298
v -14.977503 8.763900 -29.454298
v -15.682302 9.262700 -29.480099
v -14.760803 9.147500 -29.692898
v -16.142601 8.533899 -28.533897
v -15.503503 7.940000 -28.153097
v -16.213102 8.426600 -28.248398
v -14.760803 9.147500 -29.692898
v -15.537003 9.506700 -29.631998
v -15.503503 7.940000 -28.153097
v -2.449103 0.596900 -28.989300
v -1.855103 1.650400 -28.549400
v -1.959203 1.444600 -29.030100
v -5.345603 3.951500 -29.630199
v -12.620203 8.145400 -29.849897
v -13.578703 6.587000 -27.862799
v -0.314402 -17.686100 -28.068501
v -0.976003 -15.371600 -28.617701
v 0.515697 -9.655699 -28.462099
v 0.014997 -1.577100 -29.083799
v 0.505697 -2.764600 -28.813101
v 0.014997 -2.775500 -29.021099
v 0.505697 -1.566200 -28.875900
v 0.717597 -2.739001 -28.324600
v 0.505697 -2.764600 -28.813101
v 0.717597 -1.540600 -28.387400
v 0.509298 -1.515000 -27.897301
v 0.717597 -2.739001 -28.324600
v 0.509298 -1.515000 -27.897301
v 0.020198 -2.702199 -27.622999
v 0.509298 -2.713300 -27.834600
v 0.020198 -1.503901 -27.685801
v -0.470602 -1.514799 -27.893801
v 0.020198 -2.702199 -27.622999
v -0.470602 -1.514799 -27.893801
v -0.682402 -1.540400 -28.382200
v -0.470602 -2.713099 -27.830999
v -0.682402 -1.540400 -28.382200
v -0.474203 -1.566200 -28.872299
v -0.682402 -2.738699 -28.319401
v -0.474203 -1.566200 -28.872299
v 0.014997 -2.775500 -29.021099
v -0.474203 -2.764400 -28.809601
v 0.508598 -17.613400 -27.254103
v 0.941098 -15.272100 -26.717400
v 0.720198 -17.630301 -26.813402
v 0.508598 -17.613400 -27.254103
v 0.508898 -18.507401 -27.117100
v -0.314402 -17.686100 -28.068501
v -0.314402 -17.686100 -28.068501
v -0.394402 -18.544901 -28.023100
v -0.765202 -17.707500 -28.285900
v 0.508898 -18.507401 -27.117100
v 0.720198 -17.630301 -26.813402
v 0.649898 -18.492800 -26.837999
v -0.765202 -17.707500 -28.285900
v -0.684902 -18.551901 -28.161900
v 0.720198 -17.630301 -26.813402
v 0.505697 -2.764600 -28.813101
v -0.682402 -2.738699 -28.319401
v -0.474203 -2.764400 -28.809601
v -0.976003 -6.983100 -29.057301
v -0.976003 -15.371600 -28.617701
v 0.941098 -15.272100 -26.717400
vn -0.291100 0.607100 -0.739400
vn -0.182700 0.350600 -0.918500
vn -0.145700 0.202000 -0.968500
vn -0.479700 0.815000 -0.324900
vn -0.195300 0.289600 -0.937000
vn -0.458800 0.772900 -0.438400
vn -0.460300 0.816600 0.348200
vn -0.198700 0.391800 0.898300
vn 0.195200 -0.289500 0.937100
vn 0.458900 -0.772800 0.438400
vn 0.460200 -0.816600 -0.348500
vn 0.198700 -0.391700 -0.898400
vn 0.865900 0.499500 -0.026200
vn 0.352300 -0.572100 0.740600
vn -0.510200 0.754200 -0.413500
vn -0.501200 0.863900 -0.049000
vn 0.000600 -0.056200 -0.998400
vn -0.241100 0.255300 -0.936300
vn -0.411400 0.776300 -0.477700
vn -0.296000 0.607100 -0.737400
vn -0.177900 0.347700 -0.920600
vn -0.416400 0.773600 -0.477700
vn 0.352200 -0.572300 0.740600
vn 0.866100 0.499300 -0.026100
vn 0.866000 0.499400 -0.026100
vn 0.866000 0.499300 -0.026200
vn 0.352300 -0.572100 0.740700
vn 0.347900 -0.574600 0.740800
vn 0.352200 -0.572100 0.740700
vn -0.412900 -0.610800 -0.675600
vn -0.253400 -0.403600 -0.879100
vn -0.145700 -0.302100 -0.942100
vn -0.479700 -0.844500 -0.238000
vn -0.195200 -0.385900 -0.901700
vn -0.458800 -0.814400 -0.355300
vn -0.460300 -0.775700 0.431700
vn -0.198800 -0.295800 0.934300
vn 0.195400 0.386100 0.901500
vn 0.458800 0.814400 0.355300
vn 0.460300 0.775700 -0.431800
vn 0.198600 0.295500 -0.934500
vn -0.865900 0.499600 -0.026200
vn 0.352300 0.646400 0.676800
vn -0.415900 -0.847600 -0.329600
vn -0.498700 -0.865700 0.041700
vn 0.003100 -0.049900 -0.998800
vn -0.142600 -0.408500 -0.901600
vn -0.487300 -0.778100 -0.396300
vn -0.410500 -0.614900 -0.673300
vn -0.253400 -0.398000 -0.881700
vn -0.486900 -0.778200 -0.396600
vn 0.352400 0.646400 0.676800
vn -0.866000 0.499400 -0.026100
vn -0.866100 0.499300 -0.026100
vn -0.866100 0.499100 -0.026200
vn -0.866000 0.499300 -0.026200
vn 0.356600 0.643900 0.676900
vn 0.356600 0.643800 0.677000
vn 0.352200 0.646400 0.676900
vn 0.704100 -0.107200 -0.702000
vn 0.436100 -0.087900 -0.895600
vn 0.291500 -0.050100 -0.955300
vn 0.959500 -0.014700 -0.281400
vn 0.390600 -0.048200 -0.919300
vn 0.917600 -0.020800 -0.396900
vn 0.920500 0.020400 0.390200
vn 0.397400 0.048000 0.916400
vn -0.390700 0.048200 0.919300
vn -0.917600 0.020800 0.396900
vn -0.920600 -0.020400 -0.389900
vn -0.397300 -0.047900 -0.916400
vn -0.000100 -0.998600 0.052400
vn -0.704500 0.037100 0.708700
vn 0.926000 0.034800 -0.375800
vn 1.000000 0.001300 -0.003700
vn -0.003600 -0.050900 -0.998700
vn 0.383800 0.008600 -0.923400
vn 0.898700 -0.066600 -0.433600
vn 0.706500 -0.102800 -0.700200
vn 0.431100 -0.090800 -0.897700
vn 0.898500 -0.066200 -0.434000
vn -0.704500 0.037200 0.708700
vn -0.000000 -0.998600 0.052300
vn -0.000000 -0.998600 0.052400
vn -0.704500 0.037100 0.708800
vn -0.704500 0.042200 0.708400
vn -0.704500 0.042200 0.708500
vn -0.180700 0.348900 -0.919600
vn -0.458900 0.772900 -0.438300
vn -0.460300 0.816600 0.348300
vn -0.198800 0.391800 0.898300
vn 0.195200 -0.289800 0.937000
vn 0.458800 -0.772800 0.438400
vn 0.460300 -0.816600 -0.348300
vn 0.198700 -0.391800 -0.898400
vn -0.411400 0.776000 -0.478100
vn -0.182600 0.350600 -0.918500
vn -0.407400 0.770200 -0.490700
vn 0.866000 0.499300 -0.026100
vn -0.253000 -0.401400 -0.880300
vn -0.195200 -0.385900 -0.901600
vn -0.458900 -0.814500 -0.355100
vn -0.460100 -0.775700 0.432000
vn -0.487100 -0.778100 -0.396600
vn -0.413100 -0.610700 -0.675600
vn -0.253500 -0.403600 -0.879100
vn -0.477700 -0.777000 -0.410000
vn 0.352200 0.646400 0.676800
vn -0.866100 0.499200 -0.026200
vn 0.433700 -0.088800 -0.896700
vn 0.390700 -0.048100 -0.919300
vn 0.397500 0.047900 0.916300
vn -0.920600 -0.020400 -0.390000
vn -0.397300 -0.048000 -0.916400
vn 0.898500 -0.066500 -0.433900
vn 0.704100 -0.107300 -0.701900
vn 0.436100 -0.088000 -0.895600
vn 0.892200 -0.060000 -0.447600
usemtl Shape.189
s 1
f 55//19 56//19 57//19
f 58//20 59//20 60//20
f 61//21 62//21 63//21
f 64//22 65//22 66//22
f 67//23 68//23 69//23
f 70//24 71//24 72//24
f 73//25 74//25 75//25
f 76//26 77//26 78//26
f 79//27 80//27 81//27
f 82//28 83//28 84//28
f 85//29 86//29 87//29
f 88//30 89//30 90//30
f 91//31 92//31 93//31
f 94//32 95//32 96//32
f 97//33 98//33 99//33
f 100//34 101//34 102//34
f 103//35 104//35 105//35
f 106//36 107//36 108//36
f 109//37 110//37 111//37
f 112//38 113//38 114//38
f 115//39 116//39 117//39
f 118//40 119//40 120//40
f 121//41 122//41 123//41
f 124//42 125//42 126//42
f 127//43 128//43 129//43
f 130//44 131//44 132//44
f 133//44 134//44 135//44
f 136//45 137//45 138//45
f 139//46 140//46 141//46
f 142//46 143//46 144//46
f 145//47 146//47 147//47
f 148//48 149//48 150//48
f 151//49 152//49 153//49
f 154//50 155//50 156//50
f 157//51 158//51 159//51
f 160//52 161//52 162//52
f 163//53 164//53 165//53
f 166//54 167//54 168//54
f 169//55 170//55 171//55
f 172//56 173//56 174//56
f 175//57 176//57 177//57
f 178//58 179//58 180//58
f 181//59 182//59 183//59
f 184//60 185//60 186//60
f 187//61 188//61 189//61
f 190//62 191//62 192//62
f 193//63 194//63 195//63
f 196//64 197//64 198//64
f 199//65 200//65 201//65
f 202//66 203//66 204//66
f 205//67 206//67 207//67
f 208//68 209//68 210//68
f 211//69 212//69 213//69
f 214//70 215//70 216//70
f 217//71 218//71 219//71
f 220//72 221//72 222//72
f 223//73 224//73 225//73
f 226//74 227//74 228//74
f 229//61 230//61 231//61
f 232//75 233//75 234//75
f 235//76 236//76 237//76
f 238//77 239//77 240//77
f 241//78 242//78 243//78
f 244//79 245//79 246//79
f 247//80 248//80 249//80
f 250//81 251//81 252//81
f 253//82 254//82 255//82
f 256//83 257//83 258//83
f 259//84 260//84 261//84
f 262//85 263//85 264//85
f 265//86 266//86 267//86
f 268//87 269//87 270//87
f 271//88 272//88 273//88
f 274//89 275//89 276//89
f 277//90 278//90 279//90
f 280//91 281//91 282//91
f 283//92 284//92 285//92
f 286//93 287//93 288//93
f 289//94 290//94 291//94
f 292//95 293//95 294//95
f 295//96 296//96 297//96
f 298//97 299//97 300//97
f 301//98 302//98 303//98
f 304//99 305//99 306//99
f 307//100 308//100 309//100
f 310//101 311//101 312//101
f 313//102 314//102 315//102
f 316//102 317//102 318//102
f 319//102 320//102 321//102
f 322//103 323//103 324//103
f 325//104 326//104 327//104
f 328//105 329//105 330//105
f 331//103 332//103 333//103
f 334//106 335//106 336//106
f 337//23 338//23 339//23
f 340//107 341//107 342//107
f 343//108 344//108 345//108
f 346//109 347//109 348//109
f 349//110 350//110 351//110
f 352//111 353//111 354//111
f 355//112 356//112 357//112
f 358//113 359//113 360//113
f 361//114 362//114 363//114
f 364//19 365//19 366//19
f 367//115 368//115 369//115
f 370//116 371//116 372//116
f 373//32 374//32 375//32
f 376//117 377//117 378//117
f 379//45 380//45 381//45
f 382//118 383//118 384//118
f 385//119 386//119 387//119
f 388//120 389//120 390//120
f 391//121 392//121 393//121
f 394//55 395//55 396//55
f 397//56 398//56 399//56
f 400//57 401//57 402//57
f 403//58 404//58 405//58
f 406//59 407//59 408//59
f 409//122 410//122 411//122
f 412//123 413//123 414//123
f 415//124 416//124 417//124
f 418//125 419//125 420//125
f 421//126 422//126 423//126
f 424//127 425//127 426//127
f 427//126 428//126 429//126
f 430//128 431//128 432//128
f 433//129 434//129 435//129
f 436//83 437//83 438//83
f 439//84 440//84 441//84
f 442//130 443//130 444//130
f 445//86 446//86 447//86
f 448//87 449//87 450//87
f 451//131 452//131 453//131
f 454//132 455//132 456//132
f 457//133 458//133 459//133
f 460//134 461//134 462//134
f 463//135 464//135 465//135
f 466//136 467//136 468//136
f 469//91 470//91 471//91
f 472//101 473//101 474//101
f 475//103 476//103 477//103
