# Blender v2.75 (sub 0) OBJ File: ''
# www.blender.org
mtllib Prop_extra3000NP.mtl
o ShapeIndexedFaceSet.055_ShapeIndexedFaceSet.056
v -0.000002 -0.599997 -20.700001
v 9.499998 -0.699997 -20.299999
v 9.399998 0.800003 -20.400000
v -0.000002 -0.599997 -20.700001
v -0.000002 0.700003 -20.000000
v 9.399998 0.800003 -20.400000
v -1.000002 0.400003 -20.700001
v -1.100002 -9.099998 -20.000002
v 0.399998 -9.099998 -20.000002
v -1.100002 -9.099998 -20.000002
v -1.000002 0.400003 -20.700001
v 0.299998 0.400003 -20.000000
v -0.000002 1.400003 -20.799999
v -9.500002 1.500003 -20.000000
v -9.400002 0.000003 -20.000000
v -9.400002 0.000003 -20.000000
v -9.500002 1.500003 -20.000000
v -0.000002 1.400003 -20.799999
v 0.999998 0.400003 -20.799999
v 1.099998 9.900002 -20.399998
v -0.400002 9.800003 -20.399998
v -0.400002 9.800003 -20.399998
v 1.099998 9.900002 -20.399998
v 0.999998 0.400003 -20.799999
v -0.000002 0.700003 -20.000000
v -0.000002 -0.599997 -20.700001
v 9.399998 0.800003 -20.400000
v -0.000002 -0.599997 -20.700001
v 9.399998 0.800003 -20.400000
v 9.499998 -0.699997 -20.299999
v 0.299998 0.400003 -20.000000
v -1.000002 0.400003 -20.700001
v 0.399998 -9.099998 -20.000002
v 0.399998 -9.099998 -20.000002
v -1.100002 -9.099998 -20.000002
v 0.299998 0.400003 -20.000000
v -0.000002 0.100003 -20.000000
v -0.000002 1.400003 -20.799999
v -9.400002 0.000003 -20.000000
v -9.400002 0.000003 -20.000000
v -0.000002 1.400003 -20.799999
v -0.000002 0.100003 -20.000000
v -0.300002 0.400003 -20.000000
v 0.999998 0.400003 -20.799999
v -0.400002 9.800003 -20.399998
v -0.400002 9.800003 -20.399998
v 0.999998 0.400003 -20.799999
v -0.300002 0.400003 -20.000000
vn -0.041300 0.063700 0.997100
vn -0.042500 0.473700 -0.879700
vn 0.000000 0.073500 0.997300
vn 0.472900 -0.069700 -0.878300
vn 0.084000 0.005600 0.996500
vn -0.084000 -0.005600 -0.996500
vn 0.002800 -0.042100 0.999100
vn -0.002800 0.042100 -0.999100
vn 0.042500 -0.473700 0.879700
vn 0.041300 -0.063700 -0.997100
vn -0.474100 -0.005000 0.880500
vn 0.000000 0.000000 -1.000000
vn -0.005600 0.524100 0.851600
vn 0.005600 -0.524100 -0.851600
vn 0.523600 0.041800 0.850900
vn -0.523600 -0.041800 -0.850900
usemtl Shape.055
s 1
f 1//1 2//1 3//1
f 4//2 5//2 6//2
f 7//3 8//3 9//3
f 10//4 11//4 12//4
f 13//5 14//5 15//5
f 16//6 17//6 18//6
f 19//7 20//7 21//7
f 22//8 23//8 24//8
f 25//9 26//9 27//9
f 28//10 29//10 30//10
f 31//11 32//11 33//11
f 34//12 35//12 36//12
f 37//13 38//13 39//13
f 40//14 41//14 42//14
f 43//15 44//15 45//15
f 46//16 47//16 48//16
o ShapeIndexedFaceSet.056_ShapeIndexedFaceSet.057
v -0.800002 -9.699997 -20.000002
v -0.400002 -9.899996 -20.000002
v -0.100002 -9.899996 -20.000002
v -10.000002 1.200003 -20.000000
v -10.300002 0.900003 -20.000000
v -10.300002 0.600003 -20.000000
v 0.799998 10.400002 -20.399998
v 0.499998 10.700003 -20.399998
v 0.199998 10.700003 -20.399998
v 9.999998 -0.399997 -20.400000
v 10.299998 -0.099997 -20.400000
v 10.299998 0.200003 -20.400000
v 10.299998 0.200003 -20.400000
v 10.299998 -0.099997 -20.400000
v 9.999998 -0.399997 -20.400000
v -0.100002 -9.899996 -20.000002
v -0.400002 -9.899996 -20.000002
v -0.800002 -9.699997 -20.000002
v -10.300002 0.600003 -20.000000
v -10.300002 0.900003 -20.000000
v -10.000002 1.200003 -20.000000
v 0.199998 10.700003 -20.399998
v 0.499998 10.700003 -20.399998
v 0.799998 10.400002 -20.399998
v -0.100002 -9.899996 -20.000002
v 0.299998 -9.599998 -20.000002
v 0.399998 -9.099998 -20.000002
v -1.100002 -9.099998 -20.000002
v -0.800002 -9.699997 -20.000002
v -0.100002 -9.899996 -20.000002
v -1.100002 -9.099998 -20.000002
v -0.100002 -9.899996 -20.000002
v 0.399998 -9.099998 -20.000002
v -10.000002 1.200003 -20.000000
v -10.300002 0.600003 -20.000000
v -10.000002 0.200003 -20.000000
v -10.000002 1.200003 -20.000000
v -10.000002 0.200003 -20.000000
v -9.400002 0.000003 -20.000000
v -9.500002 1.500003 -20.000000
v -10.000002 1.200003 -20.000000
v -9.400002 0.000003 -20.000000
v 0.799998 10.400002 -20.399998
v 0.199998 10.700003 -20.399998
v -0.200002 10.400002 -20.399998
v 0.799998 10.400002 -20.399998
v -0.200002 10.400002 -20.399998
v -0.400002 9.800003 -20.399998
v 1.099998 9.900002 -20.399998
v 0.799998 10.400002 -20.399998
v -0.400002 9.800003 -20.399998
v 9.999998 -0.399997 -20.400000
v 10.299998 0.200003 -20.400000
v 9.999998 0.600003 -20.400002
v 9.999998 -0.399997 -20.400000
v 9.999998 0.600003 -20.400002
v 9.399998 0.800003 -20.400000
v 9.499998 -0.699997 -20.299999
v 9.999998 -0.399997 -20.400000
v 9.399998 0.800003 -20.400000
v 9.999998 0.600003 -20.400002
v 10.299998 0.200003 -20.400000
v 9.999998 -0.399997 -20.400000
v 9.399998 0.800003 -20.400000
v 9.999998 0.600003 -20.400002
v 9.999998 -0.399997 -20.400000
v 9.399998 0.800003 -20.400000
v 9.999998 -0.399997 -20.400000
v 9.499998 -0.699997 -20.299999
v 0.399998 -9.099998 -20.000002
v 0.299998 -9.599998 -20.000002
v -0.100002 -9.899996 -20.000002
v -0.100002 -9.899996 -20.000002
v -0.800002 -9.699997 -20.000002
v -1.100002 -9.099998 -20.000002
v 0.399998 -9.099998 -20.000002
v -0.100002 -9.899996 -20.000002
v -1.100002 -9.099998 -20.000002
v -10.000002 0.200003 -20.000000
v -10.300002 0.600003 -20.000000
v -10.000002 1.200003 -20.000000
v -9.400002 0.000003 -20.000000
v -10.000002 0.200003 -20.000000
v -10.000002 1.200003 -20.000000
v -9.400002 0.000003 -20.000000
v -10.000002 1.200003 -20.000000
v -9.500002 1.500003 -20.000000
v -0.200002 10.400002 -20.399998
v 0.199998 10.700003 -20.399998
v 0.799998 10.400002 -20.399998
v -0.400002 9.800003 -20.399998
v -0.200002 10.400002 -20.399998
v 0.799998 10.400002 -20.399998
v -0.400002 9.800003 -20.399998
v 0.799998 10.400002 -20.399998
v 1.099998 9.900002 -20.399998
vn 0.000000 0.000000 1.000000
vn 0.000000 0.000000 -1.000000
vn 0.151600 0.075800 0.985500
vn -0.151600 -0.075800 -0.985500
usemtl Shape.056
s 1
f 49//17 50//17 51//17
f 52//17 53//17 54//17
f 55//17 56//17 57//17
f 58//17 59//17 60//17
f 61//18 62//18 63//18
f 64//18 65//18 66//18
f 67//18 68//18 69//18
f 70//18 71//18 72//18
f 73//17 74//17 75//17
f 76//17 77//17 78//17
f 79//17 80//17 81//17
f 82//17 83//17 84//17
f 85//17 86//17 87//17
f 88//17 89//17 90//17
f 91//17 92//17 93//17
f 94//17 95//17 96//17
f 97//17 98//17 99//17
f 100//17 101//17 102//17
f 103//17 104//17 105//17
f 106//19 107//19 108//19
f 109//18 110//18 111//18
f 112//18 113//18 114//18
f 115//20 116//20 117//20
f 118//18 119//18 120//18
f 121//18 122//18 123//18
f 124//18 125//18 126//18
f 127//18 128//18 129//18
f 130//18 131//18 132//18
f 133//18 134//18 135//18
f 136//18 137//18 138//18
f 139//18 140//18 141//18
f 142//18 143//18 144//18
