# Blender v2.75 (sub 0) OBJ File: ''
# www.blender.org
mtllib Prop_kamikaze.mtl
o ShapeIndexedFaceSet.012_ShapeIndexedFaceSet.013
v -0.050002 12.563200 -22.992800
v -0.050002 12.913200 -22.942600
v 0.499998 12.912800 -22.242599
v -0.050002 12.563200 -22.992800
v -0.600002 12.563400 -23.342800
v -0.550002 12.913400 -23.292601
v -0.550002 12.913400 -23.292601
v -0.600002 12.563400 -23.342800
v -0.250002 12.563100 -22.792801
v 0.549998 12.562800 -22.192801
v 0.499998 12.912800 -22.242599
v -0.200002 12.913100 -22.792601
v 0.049998 -12.536800 -23.007200
v 0.049998 -12.886800 -22.957399
v -0.500002 -12.887200 -22.257401
v 0.049998 -12.536800 -23.007200
v 0.599998 -12.536600 -23.357201
v 0.549998 -12.886600 -23.307400
v 0.549998 -12.886600 -23.307400
v 0.599998 -12.536600 -23.357201
v 0.249998 -12.536900 -22.807199
v -0.550002 -12.537200 -22.207199
v -0.500002 -12.887200 -22.257401
v 0.199998 -12.886900 -22.807400
v -0.050002 12.563200 -22.992800
v 0.499998 12.912800 -22.242599
v 0.549998 12.562800 -22.192801
v -0.050002 12.913200 -22.942600
v -0.050002 12.563200 -22.992800
v -0.550002 12.913400 -23.292601
v -0.200002 12.913100 -22.792601
v -0.550002 12.913400 -23.292601
v -0.250002 12.563100 -22.792801
v 0.549998 12.562800 -22.192801
v -0.200002 12.913100 -22.792601
v -0.250002 12.563100 -22.792801
v 0.049998 -12.536800 -23.007200
v -0.500002 -12.887200 -22.257401
v -0.550002 -12.537200 -22.207199
v 0.049998 -12.886800 -22.957399
v 0.049998 -12.536800 -23.007200
v 0.549998 -12.886600 -23.307400
v 0.199998 -12.886900 -22.807400
v 0.549998 -12.886600 -23.307400
v 0.249998 -12.536900 -22.807199
v -0.550002 -12.537200 -22.207199
v 0.199998 -12.886900 -22.807400
v 0.249998 -12.536900 -22.807199
vn 0.783300 0.088300 -0.615400
vn 0.536400 0.044300 -0.842800
vn -0.842800 0.043500 0.536400
vn -0.617600 0.023600 0.786100
vn -0.783300 -0.087600 -0.615500
vn -0.536400 -0.043300 -0.842900
vn 0.842900 -0.044100 0.536300
vn 0.617600 -0.024500 0.786100
vn 0.799700 0.028900 -0.599700
vn 0.569600 0.116700 -0.813600
vn -0.813700 0.115900 0.569600
vn -0.597800 0.084900 0.797100
vn -0.799700 -0.028200 -0.599800
vn -0.569600 -0.115800 -0.813700
vn 0.813700 -0.116600 0.569500
vn 0.597800 -0.085900 0.797000
usemtl Shape.012
s 1
f 1//1 2//1 3//1
f 4//2 5//2 6//2
f 7//3 8//3 9//3
f 10//4 11//4 12//4
f 13//5 14//5 15//5
f 16//6 17//6 18//6
f 19//7 20//7 21//7
f 22//8 23//8 24//8
f 25//9 26//9 27//9
f 28//10 29//10 30//10
f 31//11 32//11 33//11
f 34//12 35//12 36//12
f 37//13 38//13 39//13
f 40//14 41//14 42//14
f 43//15 44//15 45//15
f 46//16 47//16 48//16
o ShapeIndexedFaceSet.010_ShapeIndexedFaceSet.011
v -0.350002 4.163100 -22.747601
v -0.700002 4.163500 -23.447599
v -0.350002 1.163300 -23.099300
v 0.449998 1.162800 -22.299299
v 0.699998 4.162700 -22.047600
v -0.350002 4.163100 -22.747601
v 0.699998 4.162700 -22.047600
v 0.849998 7.612600 -21.895599
v -0.400002 7.613100 -22.695601
v -0.400002 7.613100 -22.695601
v -0.800002 7.613500 -23.545601
v -0.700002 4.163500 -23.447599
v -0.400002 7.613100 -22.695601
v -0.300002 12.163100 -22.792999
v -0.650002 12.163500 -23.393000
v -0.350002 1.163300 -23.099300
v -0.700002 4.163500 -23.447599
v -0.000002 4.163300 -23.097601
v -0.700002 4.163500 -23.447599
v -0.800002 7.613500 -23.545601
v 0.049998 7.613300 -23.145599
v -0.650002 12.163500 -23.393000
v -0.050002 12.163300 -23.042999
v 0.049998 7.613300 -23.145599
v 0.049998 7.613300 -23.145599
v -0.050002 12.163300 -23.042999
v 0.599998 12.162700 -22.143000
v 0.699998 4.162700 -22.047600
v -0.000002 4.163300 -23.097601
v 0.049998 7.613300 -23.145599
v 0.449998 1.162800 -22.299299
v 0.099998 1.163200 -22.899300
v -0.000002 4.163300 -23.097601
v -0.400002 7.613100 -22.695601
v 0.849998 7.612600 -21.895599
v 0.599998 12.162700 -22.143000
v -0.550002 12.913400 -23.292601
v -0.200002 12.913100 -22.792601
v -0.400002 13.813300 -23.142099
v -0.400002 13.813300 -23.142099
v -0.200002 12.913100 -22.792601
v -0.050002 14.513100 -22.791700
v -0.050002 14.513100 -22.791700
v -0.200002 12.913100 -22.792601
v 0.299998 13.812900 -22.442101
v 0.299998 13.812900 -22.442101
v -0.200002 12.913100 -22.792601
v 0.499998 12.912800 -22.242599
v -0.050002 12.913200 -22.942600
v -0.050002 14.513100 -22.791700
v 0.299998 13.812900 -22.442101
v 0.299998 13.812900 -22.442101
v 0.499998 12.912800 -22.242599
v -0.050002 12.913200 -22.942600
v -0.050002 12.913200 -22.942600
v -0.550002 12.913400 -23.292601
v -0.400002 13.813300 -23.142099
v -0.400002 13.813300 -23.142099
v -0.050002 14.513100 -22.791700
v -0.050002 12.913200 -22.942600
v 0.349998 -4.136900 -22.752399
v 0.699998 -4.136500 -23.452400
v 0.349998 -1.136700 -23.100700
v -0.450002 -1.137200 -22.300699
v -0.700002 -4.137300 -22.052401
v 0.349998 -4.136900 -22.752399
v -0.700002 -4.137300 -22.052401
v -0.850002 -7.587399 -21.904400
v 0.399998 -7.586900 -22.704399
v 0.399998 -7.586900 -22.704399
v 0.799998 -7.586500 -23.554399
v 0.699998 -4.136500 -23.452400
v 0.399998 -7.586900 -22.704399
v 0.299998 -12.136900 -22.806999
v 0.649998 -12.136500 -23.407000
v 0.349998 -1.136700 -23.100700
v 0.699998 -4.136500 -23.452400
v -0.000002 -4.136700 -23.102400
v 0.699998 -4.136500 -23.452400
v 0.799998 -7.586500 -23.554399
v -0.050002 -7.586700 -23.154400
v 0.649998 -12.136500 -23.407000
v 0.049998 -12.136699 -23.056999
v -0.050002 -7.586700 -23.154400
v -0.050002 -7.586700 -23.154400
v 0.049998 -12.136699 -23.056999
v -0.600002 -12.137300 -22.157000
v -0.700002 -4.137300 -22.052401
v -0.000002 -4.136700 -23.102400
v -0.050002 -7.586700 -23.154400
v -0.450002 -1.137200 -22.300699
v -0.100002 -1.136800 -22.900700
v -0.000002 -4.136700 -23.102400
v 0.399998 -7.586900 -22.704399
v -0.850002 -7.587399 -21.904400
v -0.600002 -12.137300 -22.157000
v 0.549998 -12.886600 -23.307400
v 0.199998 -12.886900 -22.807400
v 0.399998 -13.786700 -23.157900
v 0.399998 -13.786700 -23.157900
v 0.199998 -12.886900 -22.807400
v 0.049998 -14.486900 -22.808300
v 0.049998 -14.486900 -22.808300
v 0.199998 -12.886900 -22.807400
v -0.300002 -13.787100 -22.457899
v -0.300002 -13.787100 -22.457899
v 0.199998 -12.886900 -22.807400
v -0.500002 -12.887200 -22.257401
v 0.049998 -12.886800 -22.957399
v 0.049998 -14.486900 -22.808300
v -0.300002 -13.787100 -22.457899
v -0.300002 -13.787100 -22.457899
v -0.500002 -12.887200 -22.257401
v 0.049998 -12.886800 -22.957399
v 0.049998 -12.886800 -22.957399
v 0.549998 -12.886600 -23.307400
v 0.399998 -13.786700 -23.157900
v 0.399998 -13.786700 -23.157900
v 0.049998 -14.486900 -22.808300
v 0.049998 -12.886800 -22.957399
v -0.150002 1.163000 -22.649300
v -0.350002 4.163100 -22.747601
v -0.350002 1.163300 -23.099300
v -0.150002 1.163000 -22.649300
v 0.449998 1.162800 -22.299299
v -0.350002 4.163100 -22.747601
v -0.350002 4.163100 -22.747601
v 0.699998 4.162700 -22.047600
v -0.400002 7.613100 -22.695601
v -0.400002 7.613100 -22.695601
v -0.700002 4.163500 -23.447599
v -0.350002 4.163100 -22.747601
v -0.400002 7.613100 -22.695601
v -0.650002 12.163500 -23.393000
v -0.800002 7.613500 -23.545601
v 0.099998 1.163200 -22.899300
v -0.350002 1.163300 -23.099300
v -0.000002 4.163300 -23.097601
v -0.000002 4.163300 -23.097601
v -0.700002 4.163500 -23.447599
v 0.049998 7.613300 -23.145599
v -0.650002 12.163500 -23.393000
v 0.049998 7.613300 -23.145599
v -0.800002 7.613500 -23.545601
v 0.849998 7.612600 -21.895599
v 0.049998 7.613300 -23.145599
v 0.599998 12.162700 -22.143000
v 0.699998 4.162700 -22.047600
v 0.049998 7.613300 -23.145599
v 0.849998 7.612600 -21.895599
v 0.449998 1.162800 -22.299299
v -0.000002 4.163300 -23.097601
v 0.699998 4.162700 -22.047600
v -0.300002 12.163100 -22.792999
v -0.400002 7.613100 -22.695601
v 0.599998 12.162700 -22.143000
v 0.149998 -1.137000 -22.650700
v 0.349998 -4.136900 -22.752399
v 0.349998 -1.136700 -23.100700
v 0.149998 -1.137000 -22.650700
v -0.450002 -1.137200 -22.300699
v 0.349998 -4.136900 -22.752399
v 0.349998 -4.136900 -22.752399
v -0.700002 -4.137300 -22.052401
v 0.399998 -7.586900 -22.704399
v 0.399998 -7.586900 -22.704399
v 0.699998 -4.136500 -23.452400
v 0.349998 -4.136900 -22.752399
v 0.399998 -7.586900 -22.704399
v 0.649998 -12.136500 -23.407000
v 0.799998 -7.586500 -23.554399
v -0.100002 -1.136800 -22.900700
v 0.349998 -1.136700 -23.100700
v -0.000002 -4.136700 -23.102400
v -0.000002 -4.136700 -23.102400
v 0.699998 -4.136500 -23.452400
v -0.050002 -7.586700 -23.154400
v 0.649998 -12.136500 -23.407000
v -0.050002 -7.586700 -23.154400
v 0.799998 -7.586500 -23.554399
v -0.850002 -7.587399 -21.904400
v -0.050002 -7.586700 -23.154400
v -0.600002 -12.137300 -22.157000
v -0.700002 -4.137300 -22.052401
v -0.050002 -7.586700 -23.154400
v -0.850002 -7.587399 -21.904400
v -0.450002 -1.137200 -22.300699
v -0.000002 -4.136700 -23.102400
v -0.700002 -4.137300 -22.052401
v 0.299998 -12.136900 -22.806999
v 0.399998 -7.586900 -22.704399
v -0.600002 -12.137300 -22.157000
vn -0.893200 -0.052400 0.446600
vn -0.554600 -0.023600 0.831800
vn -0.539000 -0.013700 0.842200
vn -0.904700 -0.014100 0.425700
vn -0.863400 0.029800 0.503700
vn 0.446600 -0.051600 -0.893200
vn 0.425800 -0.013400 -0.904700
vn 0.503600 0.030500 -0.863400
vn 0.810300 0.031000 -0.585200
vn 0.831900 -0.019800 -0.554600
vn 0.863800 -0.004500 -0.503900
vn -0.539000 0.016200 0.842200
vn -0.818500 0.040600 0.573000
vn -0.774100 0.072200 0.629000
vn -0.643000 0.059800 0.763600
vn -0.617400 0.037000 0.785800
vn 0.763500 0.060600 -0.642900
vn 0.785800 0.037800 -0.617400
vn 0.573000 0.041400 -0.818500
vn 0.628900 0.073000 -0.774000
vn 0.893200 0.051900 0.446600
vn 0.554600 0.022600 0.831800
vn 0.539000 0.012700 0.842200
vn 0.904700 0.013600 0.425800
vn 0.863400 -0.030300 0.503600
vn -0.446600 0.052600 -0.893200
vn -0.425800 0.014400 -0.904700
vn -0.503600 -0.029600 -0.863400
vn -0.810300 -0.030300 -0.585200
vn -0.831900 0.020400 -0.554600
vn -0.863800 0.005100 -0.503900
vn 0.539000 -0.017100 0.842100
vn 0.818500 -0.041200 0.573000
vn 0.774100 -0.072900 0.628900
vn 0.643000 -0.060700 0.763500
vn 0.617400 -0.037900 0.785700
vn -0.763500 -0.059900 -0.643000
vn -0.785800 -0.037100 -0.617400
vn -0.573000 -0.040500 -0.818600
vn -0.628900 -0.072100 -0.774100
vn -0.912800 -0.047600 0.405700
vn -0.503900 -0.005300 0.863800
vn -0.554600 -0.020600 0.831900
vn -0.894300 -0.019700 0.447100
vn -0.904700 0.015500 0.425800
vn 0.405700 -0.046800 -0.912800
vn 0.447100 -0.018900 -0.894300
vn 0.425700 0.016300 -0.904700
vn 0.842200 0.017000 -0.539000
vn 0.842200 -0.012900 -0.539000
vn 0.831800 -0.022800 -0.554600
vn -0.585200 0.030200 0.810300
vn 0.912800 0.047100 0.405700
vn 0.503900 0.004300 0.863800
vn 0.554600 0.019600 0.831900
vn 0.894300 0.019200 0.447100
vn 0.904700 -0.016000 0.425700
vn -0.405700 0.047800 -0.912800
vn -0.447100 0.020000 -0.894200
vn -0.425700 -0.015300 -0.904700
vn -0.842200 -0.016300 -0.539000
vn -0.842200 0.013500 -0.539000
vn -0.831800 0.023400 -0.554500
vn 0.585200 -0.031100 0.810300
usemtl Shape.010
s 1
f 49//17 50//17 51//17
f 52//18 53//18 54//18
f 55//19 56//19 57//19
f 58//20 59//20 60//20
f 61//21 62//21 63//21
f 64//22 65//22 66//22
f 67//23 68//23 69//23
f 70//24 71//24 72//24
f 73//25 74//25 75//25
f 76//26 77//26 78//26
f 79//27 80//27 81//27
f 82//28 83//28 84//28
f 85//29 86//29 87//29
f 88//30 89//30 90//30
f 91//31 92//31 93//31
f 94//32 95//32 96//32
f 97//33 98//33 99//33
f 100//34 101//34 102//34
f 103//35 104//35 105//35
f 106//36 107//36 108//36
f 109//37 110//37 111//37
f 112//38 113//38 114//38
f 115//39 116//39 117//39
f 118//40 119//40 120//40
f 121//41 122//41 123//41
f 124//42 125//42 126//42
f 127//43 128//43 129//43
f 130//44 131//44 132//44
f 133//45 134//45 135//45
f 136//46 137//46 138//46
f 139//47 140//47 141//47
f 142//48 143//48 144//48
f 145//49 146//49 147//49
f 148//50 149//50 150//50
f 151//51 152//51 153//51
f 154//52 155//52 156//52
f 157//53 158//53 159//53
f 160//54 161//54 162//54
f 163//55 164//55 165//55
f 166//56 167//56 168//56
f 169//57 170//57 171//57
f 172//58 173//58 174//58
f 175//59 176//59 177//59
f 178//60 179//60 180//60
f 181//61 182//61 183//61
f 184//62 185//62 186//62
f 187//63 188//63 189//63
f 190//64 191//64 192//64
f 193//65 194//65 195//65
f 196//66 197//66 198//66
f 199//67 200//67 201//67
f 202//68 203//68 204//68
f 205//69 206//69 207//69
f 208//70 209//70 210//70
f 211//71 212//71 213//71
f 214//72 215//72 216//72
f 217//73 218//73 219//73
f 220//74 221//74 222//74
f 223//75 224//75 225//75
f 226//76 227//76 228//76
f 229//77 230//77 231//77
f 232//78 233//78 234//78
f 235//79 236//79 237//79
f 238//80 239//80 240//80
o ShapeIndexedFaceSet.011_ShapeIndexedFaceSet.012
v -0.050002 12.563200 -22.992800
v 0.549998 12.562800 -22.192801
v 0.599998 12.162700 -22.143000
v -0.600002 12.563400 -23.342800
v -0.050002 12.563200 -22.992800
v -0.050002 12.163300 -23.042999
v 0.549998 12.562800 -22.192801
v -0.250002 12.563100 -22.792801
v -0.300002 12.163100 -22.792999
v -0.300002 12.163100 -22.792999
v -0.250002 12.563100 -22.792801
v -0.600002 12.563400 -23.342800
v 0.049998 -12.536800 -23.007200
v -0.550002 -12.537200 -22.207199
v -0.600002 -12.137300 -22.157000
v 0.599998 -12.536600 -23.357201
v 0.049998 -12.536800 -23.007200
v 0.049998 -12.136699 -23.056999
v -0.550002 -12.537200 -22.207199
v 0.249998 -12.536900 -22.807199
v 0.299998 -12.136900 -22.806999
v 0.299998 -12.136900 -22.806999
v 0.249998 -12.536900 -22.807199
v 0.599998 -12.536600 -23.357201
v -0.050002 12.563200 -22.992800
v 0.599998 12.162700 -22.143000
v -0.050002 12.163300 -23.042999
v -0.650002 12.163500 -23.393000
v -0.600002 12.563400 -23.342800
v -0.050002 12.163300 -23.042999
v 0.599998 12.162700 -22.143000
v 0.549998 12.562800 -22.192801
v -0.300002 12.163100 -22.792999
v -0.650002 12.163500 -23.393000
v -0.300002 12.163100 -22.792999
v -0.600002 12.563400 -23.342800
v 0.049998 -12.536800 -23.007200
v -0.600002 -12.137300 -22.157000
v 0.049998 -12.136699 -23.056999
v 0.649998 -12.136500 -23.407000
v 0.599998 -12.536600 -23.357201
v 0.049998 -12.136699 -23.056999
v -0.600002 -12.137300 -22.157000
v -0.550002 -12.537200 -22.207199
v 0.299998 -12.136900 -22.806999
v 0.649998 -12.136500 -23.407000
v 0.299998 -12.136900 -22.806999
v 0.599998 -12.536600 -23.357201
vn 0.799700 0.025300 -0.599800
vn 0.533900 0.105300 -0.838900
vn -0.598300 0.074400 0.797800
vn -0.839000 0.104600 0.534000
vn -0.799700 -0.024700 -0.599800
vn -0.533900 -0.104400 -0.839100
vn 0.598300 -0.075200 0.797700
vn 0.839000 -0.105100 0.533900
vn 0.808500 0.073300 -0.583900
vn 0.503400 0.045400 -0.862900
vn -0.585300 0.027700 0.810400
vn -0.862900 0.044700 0.503400
vn -0.808500 -0.072700 -0.584000
vn -0.503400 -0.044500 -0.862900
vn 0.585300 -0.028500 0.810300
vn 0.862900 -0.045200 0.503300
usemtl Shape.011
s 1
f 241//81 242//81 243//81
f 244//82 245//82 246//82
f 247//83 248//83 249//83
f 250//84 251//84 252//84
f 253//85 254//85 255//85
f 256//86 257//86 258//86
f 259//87 260//87 261//87
f 262//88 263//88 264//88
f 265//89 266//89 267//89
f 268//90 269//90 270//90
f 271//91 272//91 273//91
f 274//92 275//92 276//92
f 277//93 278//93 279//93
f 280//94 281//94 282//94
f 283//95 284//95 285//95
f 286//96 287//96 288//96
