# Blender v2.75 (sub 0) OBJ File: ''
# www.blender.org
mtllib Prop_HSSB2.mtl
o ShapeIndexedFaceSet.038_ShapeIndexedFaceSet.039
v 2.500000 27.239799 -0.236997
v 0.770000 27.444901 2.134206
v -2.020000 27.366501 1.227504
v 0.770000 27.931299 -2.685694
v 2.500000 28.136400 -0.314595
v 2.500000 27.239799 -0.236997
v 2.500000 28.136400 -0.314595
v 0.770000 28.341499 2.056605
v 0.770000 27.444901 2.134206
v 0.770000 28.341499 2.056605
v -2.020000 28.263100 1.150006
v -2.020000 27.366501 1.227504
v -2.020000 28.263100 1.150006
v -2.030000 28.009701 -1.779094
v -2.030000 27.113100 -1.701496
v -2.030000 28.009701 -1.779094
v 0.770000 27.931299 -2.685694
v 0.770000 27.034700 -2.608096
v 0.250000 27.174299 -0.994196
v 0.800000 27.239799 -0.236997
v 0.800000 24.549801 -0.004296
v 0.800000 27.239799 -0.236997
v 0.250000 27.305300 0.520204
v 0.250000 24.615299 0.752904
v 0.250000 27.305300 0.520204
v -0.650000 27.280300 0.231304
v -0.650000 24.590300 0.463904
v -0.650000 27.280300 0.231304
v -0.650000 27.199301 -0.705196
v -0.650000 24.509300 -0.472596
v -0.650000 27.199301 -0.705196
v 0.250000 27.174299 -0.994196
v 0.250000 24.484301 -0.761496
v -3.000000 28.136400 -0.314594
v -2.420000 28.289000 1.448906
v -1.210000 28.859800 0.506205
v -1.210000 28.859800 0.506205
v 0.000000 28.983299 -0.387795
v -1.500000 28.784000 -0.370595
v -0.460000 28.907200 1.054105
v 0.000000 28.983299 -0.387795
v -1.210000 28.859800 0.506205
v 0.460000 28.906401 1.044105
v 0.000000 28.983299 -0.387795
v -0.460000 28.907200 1.054105
v 1.220000 28.859800 0.506205
v 0.000000 28.983299 -0.387795
v 0.460000 28.906401 1.044105
v 3.000000 28.136400 -0.314595
v 2.420000 27.983900 -2.077996
v 1.210000 28.708200 -1.247295
v 1.500000 28.784000 -0.370595
v 0.000000 28.983299 -0.387795
v 1.220000 28.859800 0.506205
v 1.210000 28.708200 -1.247295
v 0.000000 28.983299 -0.387795
v 1.500000 28.784000 -0.370595
v 0.460000 28.660801 -1.795295
v 0.000000 28.983299 -0.387795
v 1.210000 28.708200 -1.247295
v -0.460000 28.661600 -1.785295
v 0.000000 28.983299 -0.387795
v 0.460000 28.660801 -1.795295
v -1.500000 28.784000 -0.370595
v 0.000000 28.983299 -0.387795
v -1.220000 28.708200 -1.247295
v -1.220000 28.708200 -1.247295
v 0.000000 28.983299 -0.387795
v -0.460000 28.661600 -1.785295
v -0.460000 28.907200 1.054105
v -1.210000 28.859800 0.506205
v -2.420000 28.289000 1.448906
v 0.920000 28.382000 2.524805
v 0.460000 28.906401 1.044105
v -0.460000 28.907200 1.054105
v 2.420000 28.289000 1.448905
v 1.220000 28.859800 0.506205
v 0.460000 28.906401 1.044105
v 3.000000 28.136400 -0.314595
v 1.500000 28.784000 -0.370595
v 1.220000 28.859800 0.506205
v 2.420000 27.983900 -2.077996
v 0.930000 27.890800 -3.153996
v 0.460000 28.660801 -1.795295
v -0.920000 27.890800 -3.153996
v -0.460000 28.661600 -1.785295
v 0.460000 28.660801 -1.795295
v -0.460000 28.661600 -1.785295
v -0.920000 27.890800 -3.153996
v -2.420000 27.983900 -2.077995
v -3.000000 28.136400 -0.314594
v -1.500000 28.784000 -0.370595
v -1.220000 28.708200 -1.247295
v 2.420000 28.289000 1.448905
v 0.920000 28.382000 2.524805
v -0.930000 28.382000 2.524806
v 0.770000 27.034700 -2.608096
v 2.500000 27.239799 -0.236997
v -2.020000 27.366501 1.227504
v 0.770000 27.034700 -2.608096
v -2.020000 27.366501 1.227504
v -2.030000 27.113100 -1.701496
v 0.770000 27.034700 -2.608096
v 0.770000 27.931299 -2.685694
v 2.500000 27.239799 -0.236997
v 2.500000 27.239799 -0.236997
v 2.500000 28.136400 -0.314595
v 0.770000 27.444901 2.134206
v 0.770000 27.444901 2.134206
v 0.770000 28.341499 2.056605
v -2.020000 27.366501 1.227504
v -2.020000 27.366501 1.227504
v -2.020000 28.263100 1.150006
v -2.030000 27.113100 -1.701496
v -2.030000 27.113100 -1.701496
v -2.030000 28.009701 -1.779094
v 0.770000 27.034700 -2.608096
v 0.250000 24.484301 -0.761496
v 0.250000 27.174299 -0.994196
v 0.800000 24.549801 -0.004296
v 0.800000 24.549801 -0.004296
v 0.800000 27.239799 -0.236997
v 0.250000 24.615299 0.752904
v 0.250000 24.615299 0.752904
v 0.250000 27.305300 0.520204
v -0.650000 24.590300 0.463904
v -0.650000 24.590300 0.463904
v -0.650000 27.280300 0.231304
v -0.650000 24.509300 -0.472596
v -0.650000 24.509300 -0.472596
v -0.650000 27.199301 -0.705196
v 0.250000 24.484301 -0.761496
v -1.500000 28.784000 -0.370595
v -3.000000 28.136400 -0.314594
v -1.210000 28.859800 0.506205
v 1.500000 28.784000 -0.370595
v 3.000000 28.136400 -0.314595
v 1.210000 28.708200 -1.247295
v -0.930000 28.382000 2.524806
v -0.460000 28.907200 1.054105
v -2.420000 28.289000 1.448906
v 0.920000 28.382000 2.524805
v -0.460000 28.907200 1.054105
v -0.930000 28.382000 2.524806
v 0.920000 28.382000 2.524805
v 2.420000 28.289000 1.448905
v 0.460000 28.906401 1.044105
v 2.420000 28.289000 1.448905
v 3.000000 28.136400 -0.314595
v 1.220000 28.859800 0.506205
v 2.420000 27.983900 -2.077996
v 0.460000 28.660801 -1.795295
v 1.210000 28.708200 -1.247295
v 0.930000 27.890800 -3.153996
v -0.920000 27.890800 -3.153996
v 0.460000 28.660801 -1.795295
v -0.460000 28.661600 -1.785295
v -2.420000 27.983900 -2.077995
v -1.220000 28.708200 -1.247295
v -2.420000 27.983900 -2.077995
v -3.000000 28.136400 -0.314594
v -1.220000 28.708200 -1.247295
v 2.420000 27.983900 -2.077996
v -0.920000 27.890800 -3.153996
v 0.930000 27.890800 -3.153996
v -0.930000 28.382000 2.524806
v -2.420000 28.289000 1.448906
v -3.000000 28.136400 -0.314594
v -3.000000 28.136400 -0.314594
v -2.420000 27.983900 -2.077995
v -0.920000 27.890800 -3.153996
v 2.420000 27.983900 -2.077996
v 3.000000 28.136400 -0.314595
v 2.420000 28.289000 1.448905
v -0.930000 28.382000 2.524806
v -3.000000 28.136400 -0.314594
v -0.920000 27.890800 -3.153996
v 2.420000 28.289000 1.448905
v -0.930000 28.382000 2.524806
v -0.920000 27.890800 -3.153996
v 2.420000 27.983900 -2.077996
v 2.420000 28.289000 1.448905
v -0.920000 27.890800 -3.153996
vn -0.000000 -0.996300 0.086200
vn 0.808900 -0.050700 -0.585800
vn 0.808900 0.050700 0.585800
vn -0.310100 0.081900 0.947200
vn -1.000000 0.000300 0.003400
vn -0.309100 -0.082000 -0.947500
vn 0.810100 -0.050500 -0.584100
vn 0.810100 0.050500 0.584100
vn -0.306700 0.082000 0.948300
vn -1.000000 -0.000000 0.000000
vn -0.306800 -0.082000 -0.948200
vn -0.393900 0.917800 0.050100
vn -0.132100 0.990400 -0.041900
vn -0.082200 0.996300 0.026400
vn 0.001400 0.998600 0.053200
vn 0.080600 0.996400 0.027600
vn 0.393900 0.895500 -0.207000
vn 0.132100 0.990300 -0.043400
vn 0.132100 0.982900 -0.128700
vn 0.082200 0.977000 -0.197000
vn -0.001600 0.974600 -0.223800
vn -0.132100 0.983000 -0.127200
vn -0.080500 0.976800 -0.198400
vn -0.244200 0.936100 0.253300
vn 0.004400 0.943100 0.332600
vn 0.241000 0.935200 0.259500
vn 0.394500 0.917700 0.046600
vn 0.243500 0.877500 -0.413100
vn -0.004600 0.872000 -0.489500
vn -0.241900 0.878000 -0.413100
vn -0.394500 0.896100 -0.203500
vn 0.000000 -0.996300 0.086100
vn -0.310100 0.082000 0.947200
vn -0.306800 0.082000 0.948200
vn -0.306700 -0.082000 -0.948300
vn -0.394200 0.917600 0.051100
vn 0.394200 0.895200 -0.207800
vn -0.243400 0.935500 0.256300
vn 0.000000 0.941800 0.336300
vn 0.241900 0.935800 0.256300
vn 0.396100 0.916800 0.050900
vn 0.244300 0.878600 -0.410300
vn 0.000000 0.870000 -0.493000
vn -0.241000 0.876700 -0.416300
vn -0.396100 0.894400 -0.207600
vn -0.000100 -0.996300 0.086200
usemtl Shape.038
s 1
f 1//1 2//1 3//1
f 4//2 5//2 6//2
f 7//3 8//3 9//3
f 10//4 11//4 12//4
f 13//5 14//5 15//5
f 16//6 17//6 18//6
f 19//7 20//7 21//7
f 22//8 23//8 24//8
f 25//9 26//9 27//9
f 28//10 29//10 30//10
f 31//11 32//11 33//11
f 34//12 35//12 36//12
f 37//13 38//13 39//13
f 40//14 41//14 42//14
f 43//15 44//15 45//15
f 46//16 47//16 48//16
f 49//17 50//17 51//17
f 52//18 53//18 54//18
f 55//19 56//19 57//19
f 58//20 59//20 60//20
f 61//21 62//21 63//21
f 64//22 65//22 66//22
f 67//23 68//23 69//23
f 70//24 71//24 72//24
f 73//25 74//25 75//25
f 76//26 77//26 78//26
f 79//27 80//27 81//27
f 82//28 83//28 84//28
f 85//29 86//29 87//29
f 88//30 89//30 90//30
f 91//31 92//31 93//31
f 94//32 95//32 96//32
f 97//1 98//1 99//1
f 100//1 101//1 102//1
f 103//2 104//2 105//2
f 106//3 107//3 108//3
f 109//33 110//33 111//33
f 112//5 113//5 114//5
f 115//6 116//6 117//6
f 118//7 119//7 120//7
f 121//8 122//8 123//8
f 124//34 125//34 126//34
f 127//10 128//10 129//10
f 130//35 131//35 132//35
f 133//36 134//36 135//36
f 136//37 137//37 138//37
f 139//38 140//38 141//38
f 142//39 143//39 144//39
f 145//40 146//40 147//40
f 148//41 149//41 150//41
f 151//42 152//42 153//42
f 154//43 155//43 156//43
f 157//44 158//44 159//44
f 160//45 161//45 162//45
f 163//1 164//1 165//1
f 166//46 167//46 168//46
f 169//32 170//32 171//32
f 172//46 173//46 174//46
f 175//1 176//1 177//1
f 178//1 179//1 180//1
f 181//1 182//1 183//1
o ShapeIndexedFaceSet.013_ShapeIndexedFaceSet.014
v -1.790000 27.757401 -1.215194
v -1.440000 27.715200 -1.703394
v -12.120001 27.047302 -9.424594
v -1.800000 27.917700 0.637806
v -1.440000 27.959900 1.126006
v -12.119999 28.627798 8.847206
v 0.910000 27.993500 1.514605
v 4.990001 29.075098 14.017905
v 4.410001 29.091398 14.207205
v 2.000000 27.811701 -0.587595
v 15.200000 27.811701 -0.587596
v 15.200000 27.863400 0.010204
v 0.900000 27.681601 -2.091995
v 4.979999 26.600002 -14.595294
v 4.409998 26.583601 -14.784595
v -12.479999 28.586397 8.369006
v -14.760000 28.215300 5.239306
v -79.729996 32.282993 52.263706
v -12.480000 27.088602 -8.946393
v -12.120001 27.047302 -9.424594
v -9.830001 26.675303 -12.564195
v 4.409998 26.583601 -14.784595
v 4.979999 26.600002 -14.595294
v 8.689999 26.603802 -13.391095
v 95.500000 28.099899 3.904297
v 15.200000 28.099899 3.904304
v 15.200000 27.863400 0.010204
v 4.410001 29.091398 14.207205
v 0.700001 29.096098 15.421305
v 25.520008 35.677586 91.507210
v 2.500000 27.239799 -0.236997
v 0.770000 27.444901 2.134206
v -2.020000 27.366501 1.227504
v 0.770000 27.931299 -2.685694
v 2.500000 28.136400 -0.314595
v 2.500000 27.239799 -0.236997
v 2.500000 28.136400 -0.314595
v 0.770000 28.341499 2.056605
v 0.770000 27.444901 2.134206
v 0.770000 28.341499 2.056605
v -2.020000 28.263100 1.150006
v -2.020000 27.366501 1.227504
v -2.020000 28.263100 1.150006
v -2.030000 28.009701 -1.779094
v -2.030000 27.113100 -1.701496
v -2.030000 28.009701 -1.779094
v 0.770000 27.931299 -2.685694
v 0.770000 27.034700 -2.608096
v 0.250000 27.174299 -0.994196
v 0.800000 27.239799 -0.236997
v 0.800000 24.549801 -0.004296
v 0.800000 27.239799 -0.236997
v 0.250000 27.305300 0.520204
v 0.250000 24.615299 0.752904
v 0.250000 27.305300 0.520204
v -0.650000 27.280300 0.231304
v -0.650000 24.590300 0.463904
v -0.650000 27.280300 0.231304
v -0.650000 27.199301 -0.705196
v -0.650000 24.509300 -0.472596
v -0.650000 27.199301 -0.705196
v 0.250000 27.174299 -0.994196
v 0.250000 24.484301 -0.761496
v -3.000000 28.136400 -0.314594
v -2.420000 28.289000 1.448906
v -1.210000 28.859800 0.506205
v -1.210000 28.859800 0.506205
v 0.000000 28.983299 -0.387795
v -1.500000 28.784000 -0.370595
v -0.460000 28.907200 1.054105
v 0.000000 28.983299 -0.387795
v -1.210000 28.859800 0.506205
v 0.460000 28.906401 1.044105
v 0.000000 28.983299 -0.387795
v -0.460000 28.907200 1.054105
v 1.220000 28.859800 0.506205
v 0.000000 28.983299 -0.387795
v 0.460000 28.906401 1.044105
v 3.000000 28.136400 -0.314595
v 2.420000 27.983900 -2.077996
v 1.210000 28.708200 -1.247295
v 1.500000 28.784000 -0.370595
v 0.000000 28.983299 -0.387795
v 1.220000 28.859800 0.506205
v 1.210000 28.708200 -1.247295
v 0.000000 28.983299 -0.387795
v 1.500000 28.784000 -0.370595
v 0.460000 28.660801 -1.795295
v 0.000000 28.983299 -0.387795
v 1.210000 28.708200 -1.247295
v -0.460000 28.661600 -1.785295
v 0.000000 28.983299 -0.387795
v 0.460000 28.660801 -1.795295
v -1.500000 28.784000 -0.370595
v 0.000000 28.983299 -0.387795
v -1.220000 28.708200 -1.247295
v -1.220000 28.708200 -1.247295
v 0.000000 28.983299 -0.387795
v -0.460000 28.661600 -1.785295
v -0.460000 28.907200 1.054105
v -1.210000 28.859800 0.506205
v -2.420000 28.289000 1.448906
v 0.920000 28.382000 2.524805
v 0.460000 28.906401 1.044105
v -0.460000 28.907200 1.054105
v 2.420000 28.289000 1.448905
v 1.220000 28.859800 0.506205
v 0.460000 28.906401 1.044105
v 3.000000 28.136400 -0.314595
v 1.500000 28.784000 -0.370595
v 1.220000 28.859800 0.506205
v 2.420000 27.983900 -2.077996
v 0.930000 27.890800 -3.153996
v 0.460000 28.660801 -1.795295
v -0.920000 27.890800 -3.153996
v -0.460000 28.661600 -1.785295
v 0.460000 28.660801 -1.795295
v -0.460000 28.661600 -1.785295
v -0.920000 27.890800 -3.153996
v -2.420000 27.983900 -2.077995
v -3.000000 28.136400 -0.314594
v -1.500000 28.784000 -0.370595
v -1.220000 28.708200 -1.247295
v 2.420000 28.289000 1.448905
v 0.920000 28.382000 2.524805
v -0.930000 28.382000 2.524806
v -1.790000 27.757401 -1.215194
v -12.120001 27.047302 -9.424594
v -12.480000 27.088602 -8.946393
v -1.800000 27.917700 0.637806
v -12.119999 28.627798 8.847206
v -12.479999 28.586397 8.369006
v 0.330000 28.009001 1.693905
v 0.910000 27.993500 1.514605
v 4.410001 29.091398 14.207205
v 1.990000 27.863400 0.010205
v 2.000000 27.811701 -0.587595
v 15.200000 27.863400 0.010204
v 0.330000 27.666000 -2.271297
v 0.900000 27.681601 -2.091995
v 4.409998 26.583601 -14.784595
v -12.119999 28.627798 8.847206
v -12.479999 28.586397 8.369006
v -77.079994 32.696293 55.881508
v -12.479999 28.586397 8.369006
v -79.729996 32.282993 52.263706
v -77.079994 32.696293 55.881508
v -12.480000 27.088602 -8.946393
v -9.830001 26.675303 -12.564195
v -74.800011 22.607609 -59.588589
v -12.480000 27.088602 -8.946393
v -74.800011 22.607609 -59.588589
v -77.440010 23.021009 -55.970787
v 8.689999 26.603802 -13.391095
v 33.509991 20.022316 -89.477005
v 29.229992 20.002115 -90.870407
v 4.409998 26.583601 -14.784595
v 8.689999 26.603802 -13.391095
v 29.229992 20.002115 -90.870407
v 95.500000 27.811701 -0.587603
v 15.200000 27.863400 0.010204
v 15.200000 27.811701 -0.587596
v 95.500000 27.811701 -0.587603
v 95.500000 28.099899 3.904297
v 15.200000 27.863400 0.010204
v 4.990001 29.075098 14.017905
v 4.410001 29.091398 14.207205
v 29.800007 35.656586 90.103806
v 4.410001 29.091398 14.207205
v 25.520008 35.677586 91.507210
v 29.800007 35.656586 90.103806
v 0.770000 27.034700 -2.608096
v 2.500000 27.239799 -0.236997
v -2.020000 27.366501 1.227504
v 0.770000 27.034700 -2.608096
v -2.020000 27.366501 1.227504
v -2.030000 27.113100 -1.701496
v 0.770000 27.034700 -2.608096
v 0.770000 27.931299 -2.685694
v 2.500000 27.239799 -0.236997
v 2.500000 27.239799 -0.236997
v 2.500000 28.136400 -0.314595
v 0.770000 27.444901 2.134206
v 0.770000 27.444901 2.134206
v 0.770000 28.341499 2.056605
v -2.020000 27.366501 1.227504
v -2.020000 27.366501 1.227504
v -2.020000 28.263100 1.150006
v -2.030000 27.113100 -1.701496
v -2.030000 27.113100 -1.701496
v -2.030000 28.009701 -1.779094
v 0.770000 27.034700 -2.608096
v 0.250000 24.484301 -0.761496
v 0.250000 27.174299 -0.994196
v 0.800000 24.549801 -0.004296
v 0.800000 24.549801 -0.004296
v 0.800000 27.239799 -0.236997
v 0.250000 24.615299 0.752904
v 0.250000 24.615299 0.752904
v 0.250000 27.305300 0.520204
v -0.650000 24.590300 0.463904
v -0.650000 24.590300 0.463904
v -0.650000 27.280300 0.231304
v -0.650000 24.509300 -0.472596
v -0.650000 24.509300 -0.472596
v -0.650000 27.199301 -0.705196
v 0.250000 24.484301 -0.761496
v -1.500000 28.784000 -0.370595
v -3.000000 28.136400 -0.314594
v -1.210000 28.859800 0.506205
v 1.500000 28.784000 -0.370595
v 3.000000 28.136400 -0.314595
v 1.210000 28.708200 -1.247295
v -0.930000 28.382000 2.524806
v -0.460000 28.907200 1.054105
v -2.420000 28.289000 1.448906
v 0.920000 28.382000 2.524805
v -0.460000 28.907200 1.054105
v -0.930000 28.382000 2.524806
v 0.920000 28.382000 2.524805
v 2.420000 28.289000 1.448905
v 0.460000 28.906401 1.044105
v 2.420000 28.289000 1.448905
v 3.000000 28.136400 -0.314595
v 1.220000 28.859800 0.506205
v 2.420000 27.983900 -2.077996
v 0.460000 28.660801 -1.795295
v 1.210000 28.708200 -1.247295
v 0.930000 27.890800 -3.153996
v -0.920000 27.890800 -3.153996
v 0.460000 28.660801 -1.795295
v -0.460000 28.661600 -1.785295
v -2.420000 27.983900 -2.077995
v -1.220000 28.708200 -1.247295
v -2.420000 27.983900 -2.077995
v -3.000000 28.136400 -0.314594
v -1.220000 28.708200 -1.247295
v 2.420000 27.983900 -2.077996
v -0.920000 27.890800 -3.153996
v 0.930000 27.890800 -3.153996
v -0.930000 28.382000 2.524806
v -2.420000 28.289000 1.448906
v -3.000000 28.136400 -0.314594
v -3.000000 28.136400 -0.314594
v -2.420000 27.983900 -2.077995
v -0.920000 27.890800 -3.153996
v 2.420000 27.983900 -2.077996
v 3.000000 28.136400 -0.314595
v 2.420000 28.289000 1.448905
v -0.930000 28.382000 2.524806
v -3.000000 28.136400 -0.314594
v -0.920000 27.890800 -3.153996
v 2.420000 28.289000 1.448905
v -0.930000 28.382000 2.524806
v -0.920000 27.890800 -3.153996
v 2.420000 27.983900 -2.077996
v 2.420000 28.289000 1.448905
v -0.920000 27.890800 -3.153996
vn -0.000000 0.996300 -0.086100
vn -0.000000 -0.996300 0.086200
vn 0.000100 -0.996300 0.086100
vn -0.000000 0.996300 -0.086200
vn -0.015100 0.994200 -0.106900
vn -0.674600 0.492100 -0.550200
vn 0.298600 0.249700 -0.921100
vn 0.000000 -0.998200 0.060600
vn -0.024400 0.996600 -0.078300
vn 0.808900 -0.050700 -0.585800
vn 0.808900 0.050700 0.585800
vn -0.310100 0.081900 0.947200
vn -1.000000 0.000300 0.003400
vn -0.309100 -0.082000 -0.947500
vn 0.810100 -0.050500 -0.584100
vn 0.810100 0.050500 0.584100
vn -0.306700 0.082000 0.948300
vn -1.000000 -0.000000 0.000000
vn -0.306800 -0.082000 -0.948200
vn -0.393900 0.917800 0.050100
vn -0.132100 0.990400 -0.041900
vn -0.082200 0.996300 0.026400
vn 0.001400 0.998600 0.053200
vn 0.080600 0.996400 0.027600
vn 0.393900 0.895500 -0.207000
vn 0.132100 0.990300 -0.043400
vn 0.132100 0.982900 -0.128700
vn 0.082200 0.977000 -0.197000
vn -0.001600 0.974600 -0.223800
vn -0.132100 0.983000 -0.127200
vn -0.080500 0.976800 -0.198400
vn -0.244200 0.936100 0.253300
vn 0.004400 0.943100 0.332600
vn 0.241000 0.935200 0.259500
vn 0.394500 0.917700 0.046600
vn 0.243500 0.877500 -0.413100
vn -0.004600 0.872000 -0.489500
vn -0.241900 0.878000 -0.413100
vn -0.394500 0.896100 -0.203500
vn 0.000000 -0.996300 0.086100
vn -0.000100 0.996300 -0.086100
vn -0.000100 0.996300 -0.086200
vn -0.013200 0.994500 -0.104000
vn 0.013000 0.994500 -0.104100
vn 0.013100 0.994500 -0.104100
vn 0.021100 0.996600 -0.079300
vn -0.000200 -0.997900 0.064000
vn -0.021100 0.996600 -0.079200
vn -0.310100 0.082000 0.947200
vn -0.306800 0.082000 0.948200
vn -0.306700 -0.082000 -0.948300
vn -0.394200 0.917600 0.051100
vn 0.394200 0.895200 -0.207800
vn -0.243400 0.935500 0.256300
vn 0.000000 0.941800 0.336300
vn 0.241900 0.935800 0.256300
vn 0.396100 0.916800 0.050900
vn 0.244300 0.878600 -0.410300
vn 0.000000 0.870000 -0.493000
vn -0.241000 0.876700 -0.416300
vn -0.396100 0.894400 -0.207600
vn -0.000100 -0.996300 0.086200
usemtl Shape.013
s 1
f 184//47 185//47 186//47
f 187//48 188//48 189//48
f 190//49 191//49 192//49
f 193//48 194//48 195//48
f 196//50 197//50 198//50
f 199//51 200//51 201//51
f 202//52 203//52 204//52
f 205//53 206//53 207//53
f 208//54 209//54 210//54
f 211//55 212//55 213//55
f 214//48 215//48 216//48
f 217//56 218//56 219//56
f 220//57 221//57 222//57
f 223//58 224//58 225//58
f 226//59 227//59 228//59
f 229//60 230//60 231//60
f 232//61 233//61 234//61
f 235//62 236//62 237//62
f 238//63 239//63 240//63
f 241//64 242//64 243//64
f 244//65 245//65 246//65
f 247//66 248//66 249//66
f 250//67 251//67 252//67
f 253//68 254//68 255//68
f 256//69 257//69 258//69
f 259//70 260//70 261//70
f 262//71 263//71 264//71
f 265//72 266//72 267//72
f 268//73 269//73 270//73
f 271//74 272//74 273//74
f 274//75 275//75 276//75
f 277//76 278//76 279//76
f 280//77 281//77 282//77
f 283//78 284//78 285//78
f 286//79 287//79 288//79
f 289//80 290//80 291//80
f 292//81 293//81 294//81
f 295//82 296//82 297//82
f 298//83 299//83 300//83
f 301//84 302//84 303//84
f 304//85 305//85 306//85
f 307//86 308//86 309//86
f 310//87 311//87 312//87
f 313//48 314//48 315//48
f 316//48 317//48 318//48
f 319//48 320//48 321//48
f 322//88 323//88 324//88
f 325//50 326//50 327//50
f 328//89 329//89 330//89
f 331//90 332//90 333//90
f 334//91 335//91 336//91
f 337//92 338//92 339//92
f 340//92 341//92 342//92
f 343//48 344//48 345//48
f 346//93 347//93 348//93
f 349//87 350//87 351//87
f 352//94 353//94 354//94
f 355//48 356//48 357//48
f 358//48 359//48 360//48
f 361//56 362//56 363//56
f 364//57 365//57 366//57
f 367//95 368//95 369//95
f 370//59 371//59 372//59
f 373//60 374//60 375//60
f 376//61 377//61 378//61
f 379//62 380//62 381//62
f 382//96 383//96 384//96
f 385//64 386//64 387//64
f 388//97 389//97 390//97
f 391//98 392//98 393//98
f 394//99 395//99 396//99
f 397//100 398//100 399//100
f 400//101 401//101 402//101
f 403//102 404//102 405//102
f 406//103 407//103 408//103
f 409//104 410//104 411//104
f 412//105 413//105 414//105
f 415//106 416//106 417//106
f 418//107 419//107 420//107
f 421//48 422//48 423//48
f 424//108 425//108 426//108
f 427//86 428//86 429//86
f 430//108 431//108 432//108
f 433//48 434//48 435//48
f 436//48 437//48 438//48
f 439//48 440//48 441//48
o ShapeIndexedFaceSet.039_ShapeIndexedFaceSet.040
v 2.000000 27.811701 -0.587595
v 15.200000 27.811701 -0.587596
v 15.200000 27.863400 0.010204
v 95.500000 28.099899 3.904297
v 15.200000 28.099899 3.904304
v 15.200000 27.863400 0.010204
v 0.332800 27.665600 -2.276094
v 4.411999 26.583702 -14.783296
v 4.982698 26.599703 -14.598596
v 33.507294 20.022514 -89.474411
v 8.691799 26.604002 -13.389095
v 4.982698 26.599703 -14.598596
v -1.794300 27.757099 -1.218094
v -12.473101 27.088501 -8.948493
v -12.120401 27.046602 -9.432095
v -9.827901 26.675102 -12.566794
v -12.120401 27.046602 -9.432095
v -12.473101 27.088501 -8.948493
v 0.903400 27.993500 1.514005
v 4.982701 29.075397 14.021205
v 4.412002 29.091297 14.205905
v 0.702901 29.095598 15.415205
v 4.412002 29.091297 14.205905
v 4.982701 29.075397 14.021205
v -1.441600 27.959801 1.124305
v -12.120399 28.628399 8.854706
v -12.473099 28.586597 8.371106
v -79.727791 32.282894 52.262409
v -14.765500 28.215099 5.236307
v -12.473099 28.586597 8.371106
v 1.990000 27.863400 0.010205
v 2.000000 27.811701 -0.587595
v 15.200000 27.863400 0.010204
v 95.500000 27.811701 -0.587603
v 15.200000 27.863400 0.010204
v 15.200000 27.811701 -0.587596
v 95.500000 27.811701 -0.587603
v 95.500000 28.099899 3.904297
v 15.200000 27.863400 0.010204
v 0.900300 27.682400 -2.081894
v 0.332800 27.665600 -2.276094
v 4.982698 26.599703 -14.598596
v 29.227592 20.002316 -90.868507
v 4.982698 26.599703 -14.598596
v 4.411999 26.583702 -14.783296
v 29.227592 20.002316 -90.868507
v 33.507294 20.022514 -89.474411
v 4.982698 26.599703 -14.598596
v -1.433600 27.715799 -1.695894
v -1.794300 27.757099 -1.218094
v -12.120401 27.046602 -9.432095
v -74.790108 22.607309 -59.592789
v -9.827901 26.675102 -12.566794
v -12.473101 27.088501 -8.948493
v -77.435310 23.020609 -55.974590
v -74.790108 22.607309 -59.592789
v -12.473101 27.088501 -8.948493
v 0.329700 28.008600 1.689205
v 0.903400 27.993500 1.514005
v 4.412002 29.091297 14.205905
v 25.518507 35.676983 91.500511
v 0.702901 29.095598 15.415205
v 4.982701 29.075397 14.021205
v 29.798208 35.656784 90.106308
v 25.518507 35.676983 91.500511
v 4.982701 29.075397 14.021205
v -1.786200 27.917400 0.634906
v -1.441600 27.959801 1.124305
v -12.473099 28.586597 8.371106
v -77.082596 32.696293 55.880608
v -12.473099 28.586597 8.371106
v -12.120399 28.628399 8.854706
v -77.082596 32.696293 55.880608
v -79.727791 32.282894 52.262409
v -12.473099 28.586597 8.371106
vn 0.000000 -0.996300 0.086200
vn 0.000000 -0.998200 0.060600
vn -0.024400 -0.996600 0.078300
vn -0.000100 -0.996300 0.086300
vn 0.809000 0.051100 0.585500
vn 0.000100 -0.996300 0.086100
vn -0.309000 -0.085100 -0.947300
vn -0.000000 -0.996300 0.086100
vn 0.015100 -0.994200 0.106800
vn -0.000200 -0.997900 0.064000
vn -0.021200 -0.996600 0.079500
vn -0.013100 -0.994500 0.104100
vn 0.000100 -0.996300 0.086200
vn 0.021100 -0.996600 0.079300
vn 0.000100 -0.996300 0.086300
vn 0.013200 -0.994500 0.104000
usemtl Shape.039
s 1
f 442//109 443//109 444//109
f 445//110 446//110 447//110
f 448//109 449//109 450//109
f 451//111 452//111 453//111
f 454//112 455//112 456//112
f 457//113 458//113 459//113
f 460//114 461//114 462//114
f 463//115 464//115 465//115
f 466//116 467//116 468//116
f 469//117 470//117 471//117
f 472//109 473//109 474//109
f 475//109 476//109 477//109
f 478//118 479//118 480//118
f 481//109 482//109 483//109
f 484//109 485//109 486//109
f 487//119 488//119 489//119
f 490//116 491//116 492//116
f 493//120 494//120 495//120
f 496//120 497//120 498//120
f 499//121 500//121 501//121
f 502//122 503//122 504//122
f 505//122 506//122 507//122
f 508//123 509//123 510//123
f 511//116 512//116 513//116
f 514//124 515//124 516//124
