# Blender v2.75 (sub 0) OBJ File: ''
# www.blender.org
mtllib Prop_P38NP.mtl
o ShapeIndexedFaceSet.117_ShapeIndexedFaceSet.118
v -14.143633 -8.535832 0.598677
v -14.486834 -7.981334 -0.751225
v -15.671133 -9.110033 -0.034323
v -14.212633 -8.356233 -0.071224
v -15.671133 -9.110033 -0.034323
v -14.486834 -7.981334 -0.751225
v -14.143633 -8.535832 0.598677
v -15.671133 -9.110033 -0.034323
v -14.212633 -8.356233 -0.071224
vn -0.469200 0.768600 0.435000
vn 0.369700 -0.742600 -0.558500
vn 0.436000 -0.857000 -0.274700
usemtl Shape.117
s 1
f 1//1 2//1 3//1
f 4//2 5//2 6//2
f 7//3 8//3 9//3
o ShapeIndexedFaceSet.120_ShapeIndexedFaceSet.121
v 14.418369 -8.074331 0.598675
v 14.109770 -8.648832 -0.751226
v 15.679469 -9.110033 -0.034327
v 14.297369 -8.223933 -0.071226
v 15.679469 -9.110033 -0.034327
v 14.109770 -8.648832 -0.751226
v 14.418369 -8.074331 0.598675
v 15.679469 -9.110033 -0.034327
v 14.297369 -8.223933 -0.071226
vn -0.431000 -0.790600 0.435000
vn 0.458200 0.691500 -0.558500
vn 0.524200 0.806100 -0.274700
usemtl Shape.120
s 1
f 10//4 11//4 12//4
f 13//5 14//5 15//5
f 16//6 17//6 18//6
o ShapeIndexedFaceSet.118_ShapeIndexedFaceSet.119
v -3.562231 -1.683333 -0.166023
v -3.551630 -1.701633 0.137877
v -2.425831 -1.051633 0.137877
v -3.430630 -1.891333 0.343376
v -2.304731 -1.241433 0.343376
v -2.425831 -1.051633 0.137877
v -3.430630 -1.891333 0.343376
v -3.287331 -2.159533 0.322277
v -2.161430 -1.509533 0.322277
v -3.287331 -2.159533 0.322277
v -3.184530 -2.337533 0.097376
v -2.058731 -1.687533 0.097376
v -3.184530 -2.337533 0.097376
v -3.195131 -2.319233 -0.206524
v -2.069231 -1.669233 -0.206524
v -3.195131 -2.319233 -0.206524
v -3.316231 -2.129533 -0.412024
v -2.190331 -1.479533 -0.412024
v -3.459431 -1.861333 -0.390924
v -2.333630 -1.211333 -0.390924
v -2.190331 -1.479533 -0.412024
v -3.459431 -1.861333 -0.390924
v -3.562231 -1.683333 -0.166023
v -2.436331 -1.033333 -0.166023
v -3.459431 -1.861333 -0.390924
v -3.316231 -2.129533 -0.412024
v -3.195131 -2.319233 -0.206524
v -3.562231 -1.683333 -0.166023
v -2.425831 -1.051633 0.137877
v -2.436331 -1.033333 -0.166023
v -3.551630 -1.701633 0.137877
v -3.430630 -1.891333 0.343376
v -2.425831 -1.051633 0.137877
v -3.430630 -1.891333 0.343376
v -2.161430 -1.509533 0.322277
v -2.304731 -1.241433 0.343376
v -3.287331 -2.159533 0.322277
v -2.058731 -1.687533 0.097376
v -2.161430 -1.509533 0.322277
v -3.184530 -2.337533 0.097376
v -2.069231 -1.669233 -0.206524
v -2.058731 -1.687533 0.097376
v -3.195131 -2.319233 -0.206524
v -2.190331 -1.479533 -0.412024
v -2.069231 -1.669233 -0.206524
v -3.316231 -2.129533 -0.412024
v -3.459431 -1.861333 -0.390924
v -2.190331 -1.479533 -0.412024
v -3.459431 -1.861333 -0.390924
v -2.436331 -1.033333 -0.166023
v -2.333630 -1.211333 -0.390924
v -3.184530 -2.337533 0.097376
v -3.287331 -2.159533 0.322277
v -3.430630 -1.891333 0.343376
v -3.459431 -1.861333 -0.390924
v -3.551630 -1.701633 0.137877
v -3.562231 -1.683333 -0.166023
v -3.195131 -2.319233 -0.206524
v -3.184530 -2.337533 0.097376
v -3.430630 -1.891333 0.343376
v -3.459431 -1.861333 -0.390924
v -3.195131 -2.319233 -0.206524
v -3.430630 -1.891333 0.343376
v -3.459431 -1.861333 -0.390924
v -3.430630 -1.891333 0.343376
v -3.551630 -1.701633 0.137877
vn -0.498800 0.863900 0.069400
vn -0.337200 0.584200 0.738300
vn 0.034600 -0.060000 0.997600
vn 0.369100 -0.639200 0.674600
vn 0.498800 -0.863900 -0.069400
vn 0.337300 -0.584300 -0.738100
vn -0.034600 0.060000 -0.997600
vn -0.369100 0.639300 -0.674600
vn -0.876800 -0.474300 0.078800
vn -0.498800 0.864000 0.069300
vn -0.337400 0.584300 0.738100
vn 0.369100 -0.639300 0.674600
vn 0.498800 -0.863900 -0.069300
vn -0.882600 -0.469000 -0.032200
vn -0.865900 -0.500200 0.000100
vn -0.875300 -0.483600 0.001400
vn -0.868400 -0.495700 0.013800
vn -0.848700 -0.528700 0.011700
usemtl Shape.118
s 1
f 19//7 20//7 21//7
f 22//8 23//8 24//8
f 25//9 26//9 27//9
f 28//10 29//10 30//10
f 31//11 32//11 33//11
f 34//12 35//12 36//12
f 37//13 38//13 39//13
f 40//14 41//14 42//14
f 43//15 44//15 45//15
f 46//16 47//16 48//16
f 49//17 50//17 51//17
f 52//9 53//9 54//9
f 55//18 56//18 57//18
f 58//19 59//19 60//19
f 61//12 62//12 63//12
f 64//13 65//13 66//13
f 67//14 68//14 69//14
f 70//20 71//20 72//20
f 73//21 74//21 75//21
f 76//22 77//22 78//22
f 79//23 80//23 81//23
f 82//24 83//24 84//24
o ShapeIndexedFaceSet.115_ShapeIndexedFaceSet.116
v 0.381870 3.839467 -0.166023
v 0.360769 3.839467 0.137877
v 0.360769 2.539467 0.137877
v 0.135870 3.829467 0.343376
v 0.135870 2.529467 0.343376
v 0.360769 2.539467 0.137877
v 0.135870 3.829467 0.343376
v -0.168030 3.839467 0.322277
v -0.168030 2.539467 0.322277
v -0.168030 3.839467 0.322277
v -0.373531 3.839467 0.097376
v -0.373531 2.539467 0.097376
v -0.373531 3.839467 0.097376
v -0.352430 3.839467 -0.206524
v -0.352430 2.539467 -0.206524
v -0.352430 3.839467 -0.206524
v -0.127531 3.849467 -0.412024
v -0.127531 2.549467 -0.412024
v 0.176369 3.839467 -0.390924
v 0.176369 2.539467 -0.390924
v -0.127531 2.549467 -0.412024
v 0.176369 3.839467 -0.390924
v 0.381870 3.839467 -0.166023
v 0.381870 2.539467 -0.166023
v 0.176369 3.839467 -0.390924
v -0.127531 3.849467 -0.412024
v -0.352430 3.839467 -0.206524
v 0.381870 3.839467 -0.166023
v 0.360769 2.539467 0.137877
v 0.381870 2.539467 -0.166023
v 0.360769 3.839467 0.137877
v 0.135870 3.829467 0.343376
v 0.360769 2.539467 0.137877
v 0.135870 3.829467 0.343376
v -0.168030 2.539467 0.322277
v 0.135870 2.529467 0.343376
v -0.168030 3.839467 0.322277
v -0.373531 2.539467 0.097376
v -0.168030 2.539467 0.322277
v -0.373531 3.839467 0.097376
v -0.352430 2.539467 -0.206524
v -0.373531 2.539467 0.097376
v -0.352430 3.839467 -0.206524
v -0.127531 2.549467 -0.412024
v -0.352430 2.539467 -0.206524
v -0.127531 3.849467 -0.412024
v 0.176369 3.839467 -0.390924
v -0.127531 2.549467 -0.412024
v 0.176369 3.839467 -0.390924
v 0.381870 2.539467 -0.166023
v 0.176369 2.539467 -0.390924
v -0.373531 3.839467 0.097376
v -0.168030 3.839467 0.322277
v 0.135870 3.829467 0.343376
v 0.176369 3.839467 -0.390924
v 0.360769 3.839467 0.137877
v 0.381870 3.839467 -0.166023
v -0.352430 3.839467 -0.206524
v -0.373531 3.839467 0.097376
v 0.135870 3.829467 0.343376
v 0.176369 3.839467 -0.390924
v -0.352430 3.839467 -0.206524
v 0.135870 3.829467 0.343376
v 0.176369 3.839467 -0.390924
v 0.135870 3.829467 0.343376
v 0.360769 3.839467 0.137877
vn 0.997600 0.000000 0.069300
vn 0.674600 0.000000 0.738200
vn -0.069300 0.000000 0.997600
vn -0.738200 0.000000 0.674600
vn -0.997600 0.000000 -0.069300
vn -0.674600 0.000000 -0.738200
vn 0.069300 0.000000 -0.997600
vn 0.738200 0.000000 -0.674600
vn 0.027300 0.996500 0.078400
vn 0.035100 0.998900 -0.032100
vn -0.000000 1.000000 0.000000
vn 0.019000 0.999800 0.001300
vn 0.004800 0.999900 0.013900
vn -0.033700 0.999400 0.011800
usemtl Shape.115
s 1
f 85//25 86//25 87//25
f 88//26 89//26 90//26
f 91//27 92//27 93//27
f 94//28 95//28 96//28
f 97//29 98//29 99//29
f 100//30 101//30 102//30
f 103//31 104//31 105//31
f 106//32 107//32 108//32
f 109//33 110//33 111//33
f 112//25 113//25 114//25
f 115//26 116//26 117//26
f 118//27 119//27 120//27
f 121//28 122//28 123//28
f 124//29 125//29 126//29
f 127//30 128//30 129//30
f 130//31 131//31 132//31
f 133//32 134//32 135//32
f 136//34 137//34 138//34
f 139//35 140//35 141//35
f 142//36 143//36 144//36
f 145//37 146//37 147//37
f 148//38 149//38 150//38
o ShapeIndexedFaceSet.114_ShapeIndexedFaceSet.115
v -0.262230 16.429466 0.598677
v 0.389570 16.449467 -0.751225
v 0.004169 18.039467 -0.034323
v -0.072231 16.399466 -0.071224
v 0.004169 18.039467 -0.034323
v 0.389570 16.449467 -0.751225
v -0.262230 16.429466 0.598677
v 0.004169 18.039467 -0.034323
v -0.072231 16.399466 -0.071224
vn 0.900200 0.022100 0.435000
vn -0.827900 0.051100 -0.558500
vn -0.960200 0.050900 -0.274600
usemtl Shape.114
s 1
f 151//39 152//39 153//39
f 154//40 155//40 156//40
f 157//41 158//41 159//41
o ShapeIndexedFaceSet.119_ShapeIndexedFaceSet.120
v -14.143633 -8.535832 0.598677
v -14.212633 -8.356233 -0.071224
v -8.465231 -5.391133 -0.218822
v -11.262232 -7.106633 1.018976
v -14.143633 -8.535832 0.598677
v -8.465231 -5.391133 -0.218822
v -8.132132 -5.328033 1.069878
v -11.262232 -7.106633 1.018976
v -8.465231 -5.391133 -0.218822
v -4.493731 -3.050033 0.751577
v -8.132132 -5.328033 1.069878
v -8.465231 -5.391133 -0.218822
v -3.195131 -2.319233 -0.206524
v -4.493731 -3.050033 0.751577
v -8.465231 -5.391133 -0.218822
v -3.195131 -2.319233 -0.206524
v -3.287331 -2.159533 0.322277
v -4.493731 -3.050033 0.751577
v -4.884731 -2.412733 -0.780022
v -3.459431 -1.861333 -0.390924
v -3.195131 -2.319233 -0.206524
v -3.195131 -2.319233 -0.206524
v -8.465231 -5.391133 -0.218822
v -4.884731 -2.412733 -0.780022
v -8.465231 -5.391133 -0.218822
v -8.659334 -4.474933 -1.005922
v -4.884731 -2.412733 -0.780022
v -11.767832 -6.290833 -0.967724
v -8.659334 -4.474933 -1.005922
v -8.465231 -5.391133 -0.218822
v -14.486834 -7.981334 -0.751225
v -11.767832 -6.290833 -0.967724
v -8.465231 -5.391133 -0.218822
v -8.465231 -5.391133 -0.218822
v -14.212633 -8.356233 -0.071224
v -14.486834 -7.981334 -0.751225
v -3.287331 -2.159533 0.322277
v -3.459431 -1.861333 -0.390924
v -4.884731 -2.412733 -0.780022
v -8.132132 -5.328033 1.069878
v -4.493731 -3.050033 0.751577
v -4.884731 -2.412733 -0.780022
v -14.143633 -8.535832 0.598677
v -11.262232 -7.106633 1.018976
v -11.767832 -6.290833 -0.967724
v -14.143633 -8.535832 0.598677
v -11.767832 -6.290833 -0.967724
v -14.486834 -7.981334 -0.751225
v -11.262232 -7.106633 1.018976
v -8.132132 -5.328033 1.069878
v -8.659334 -4.474933 -1.005922
v -11.262232 -7.106633 1.018976
v -8.659334 -4.474933 -1.005922
v -11.767832 -6.290833 -0.967724
v -8.132132 -5.328033 1.069878
v -4.884731 -2.412733 -0.780022
v -8.659334 -4.474933 -1.005922
v -4.493731 -3.050033 0.751577
v -3.287331 -2.159533 0.322277
v -4.884731 -2.412733 -0.780022
vn 0.435300 -0.857400 -0.274700
vn 0.457800 -0.871900 -0.173800
vn 0.493300 -0.865700 -0.085100
vn 0.522500 -0.847500 -0.093500
vn 0.503400 -0.863700 0.023500
vn 0.633800 -0.703000 0.322800
vn 0.325000 -0.185800 -0.927300
vn 0.301200 -0.513400 -0.803500
vn 0.353500 -0.565400 -0.745300
vn 0.326700 -0.575100 -0.750000
vn 0.330400 -0.622400 -0.709600
vn 0.369000 -0.743000 -0.558400
vn -0.425700 0.793700 0.434600
vn -0.449000 0.778500 0.438600
vn -0.450300 0.779900 0.434800
vn -0.450200 0.779900 0.434900
vn -0.450200 0.779900 0.434800
vn -0.451600 0.779000 0.434900
vn -0.427700 0.790600 0.438200
usemtl Shape.119
s 1
f 160//42 161//42 162//42
f 163//43 164//43 165//43
f 166//44 167//44 168//44
f 169//45 170//45 171//45
f 172//46 173//46 174//46
f 175//47 176//47 177//47
f 178//48 179//48 180//48
f 181//49 182//49 183//49
f 184//50 185//50 186//50
f 187//51 188//51 189//51
f 190//52 191//52 192//52
f 193//53 194//53 195//53
f 196//54 197//54 198//54
f 199//55 200//55 201//55
f 202//56 203//56 204//56
f 205//56 206//56 207//56
f 208//57 209//57 210//57
f 211//58 212//58 213//58
f 214//59 215//59 216//59
f 217//60 218//60 219//60
o ShapeIndexedFaceSet.121_ShapeIndexedFaceSet.122
v 3.192869 -2.337533 -0.166023
v 3.203470 -2.319233 0.137877
v 2.077570 -1.669233 0.137877
v 3.307169 -2.119533 0.343376
v 2.181370 -1.469533 0.343376
v 2.077570 -1.669233 0.137877
v 3.307169 -2.119533 0.343376
v 3.467770 -1.861333 0.322277
v 2.341969 -1.211333 0.322277
v 3.467770 -1.861333 0.322277
v 3.570570 -1.683333 0.097376
v 2.444670 -1.033333 0.097376
v 3.570570 -1.683333 0.097376
v 3.559969 -1.701633 -0.206524
v 2.434170 -1.051633 -0.206524
v 3.559969 -1.701633 -0.206524
v 3.456270 -1.901333 -0.412024
v 2.330370 -1.251433 -0.412024
v 3.295670 -2.159533 -0.390924
v 2.169769 -1.509533 -0.390924
v 2.330370 -1.251433 -0.412024
v 3.295670 -2.159533 -0.390924
v 3.192869 -2.337533 -0.166023
v 2.067070 -1.687533 -0.166023
v 3.295670 -2.159533 -0.390924
v 3.456270 -1.901333 -0.412024
v 3.559969 -1.701633 -0.206524
v 3.192869 -2.337533 -0.166023
v 2.077570 -1.669233 0.137877
v 2.067070 -1.687533 -0.166023
v 3.203470 -2.319233 0.137877
v 3.307169 -2.119533 0.343376
v 2.077570 -1.669233 0.137877
v 3.307169 -2.119533 0.343376
v 2.341969 -1.211333 0.322277
v 2.181370 -1.469533 0.343376
v 3.467770 -1.861333 0.322277
v 2.444670 -1.033333 0.097376
v 2.341969 -1.211333 0.322277
v 3.570570 -1.683333 0.097376
v 2.434170 -1.051633 -0.206524
v 2.444670 -1.033333 0.097376
v 3.559969 -1.701633 -0.206524
v 2.330370 -1.251433 -0.412024
v 2.434170 -1.051633 -0.206524
v 3.456270 -1.901333 -0.412024
v 3.295670 -2.159533 -0.390924
v 2.330370 -1.251433 -0.412024
v 3.295670 -2.159533 -0.390924
v 2.067070 -1.687533 -0.166023
v 2.169769 -1.509533 -0.390924
v 3.570570 -1.683333 0.097376
v 3.467770 -1.861333 0.322277
v 3.307169 -2.119533 0.343376
v 3.295670 -2.159533 -0.390924
v 3.203470 -2.319233 0.137877
v 3.192869 -2.337533 -0.166023
v 3.559969 -1.701633 -0.206524
v 3.570570 -1.683333 0.097376
v 3.307169 -2.119533 0.343376
v 3.295670 -2.159533 -0.390924
v 3.559969 -1.701633 -0.206524
v 3.307169 -2.119533 0.343376
v 3.295670 -2.159533 -0.390924
v 3.307169 -2.119533 0.343376
v 3.203470 -2.319233 0.137877
vn -0.498800 -0.863900 0.069400
vn -0.337300 -0.584200 0.738100
vn 0.034600 0.060000 0.997600
vn 0.369100 0.639300 0.674600
vn 0.498800 0.863900 -0.069400
vn 0.337300 0.584400 -0.738100
vn -0.034600 -0.060000 -0.997600
vn -0.369100 -0.639200 -0.674600
vn 0.849400 -0.521900 0.078600
vn -0.498800 -0.863900 0.069300
vn -0.337300 -0.584300 0.738100
vn 0.498800 0.864000 -0.069300
vn 0.337300 0.584100 -0.738300
vn -0.369100 -0.639300 -0.674600
vn 0.847500 -0.529800 -0.031900
vn 0.865900 -0.500200 -0.000100
vn 0.856300 -0.516400 0.001200
vn 0.863600 -0.504100 0.013900
vn 0.882400 -0.470400 0.011800
usemtl Shape.121
s 1
f 220//61 221//61 222//61
f 223//62 224//62 225//62
f 226//63 227//63 228//63
f 229//64 230//64 231//64
f 232//65 233//65 234//65
f 235//66 236//66 237//66
f 238//67 239//67 240//67
f 241//68 242//68 243//68
f 244//69 245//69 246//69
f 247//70 248//70 249//70
f 250//71 251//71 252//71
f 253//63 254//63 255//63
f 256//64 257//64 258//64
f 259//72 260//72 261//72
f 262//73 263//73 264//73
f 265//67 266//67 267//67
f 268//74 269//74 270//74
f 271//75 272//75 273//75
f 274//76 275//76 276//76
f 277//77 278//77 279//77
f 280//78 281//78 282//78
f 283//79 284//79 285//79
o ShapeIndexedFaceSet.116_ShapeIndexedFaceSet.117
v -0.262230 16.429466 0.598677
v -0.072231 16.399466 -0.071224
v -0.377930 9.939467 -0.218824
v -0.465130 13.219467 1.018976
v -0.262230 16.429466 0.598677
v -0.377930 9.939467 -0.218824
v -0.489731 9.619467 1.069876
v -0.465130 13.219467 1.018976
v -0.377930 9.939467 -0.218824
v -0.336031 5.329467 0.751575
v -0.489731 9.619467 1.069876
v -0.377930 9.939467 -0.218824
v -0.352430 3.839467 -0.206524
v -0.336031 5.329467 0.751575
v -0.377930 9.939467 -0.218824
v -0.352430 3.839467 -0.206524
v -0.168030 3.839467 0.322277
v -0.336031 5.329467 0.751575
v 0.411369 5.349467 -0.780024
v 0.176369 3.839467 -0.390924
v -0.352430 3.839467 -0.206524
v -0.352430 3.839467 -0.206524
v -0.377930 9.939467 -0.218824
v 0.411369 5.349467 -0.780024
v -0.377930 9.939467 -0.218824
v 0.512569 9.649467 -1.005924
v 0.411369 5.349467 -0.780024
v 0.494169 13.249468 -0.967724
v 0.512569 9.649467 -1.005924
v -0.377930 9.939467 -0.218824
v 0.389570 16.449467 -0.751225
v 0.494169 13.249468 -0.967724
v -0.377930 9.939467 -0.218824
v -0.377930 9.939467 -0.218824
v -0.072231 16.399466 -0.071224
v 0.389570 16.449467 -0.751225
v -0.168030 3.839467 0.322277
v 0.176369 3.839467 -0.390924
v 0.411369 5.349467 -0.780024
v -0.489731 9.619467 1.069876
v -0.336031 5.329467 0.751575
v 0.411369 5.349467 -0.780024
v -0.262230 16.429466 0.598677
v -0.465130 13.219467 1.018976
v 0.494169 13.249468 -0.967724
v -0.262230 16.429466 0.598677
v 0.494169 13.249468 -0.967724
v 0.389570 16.449467 -0.751225
v -0.465130 13.219467 1.018976
v -0.489731 9.619467 1.069876
v 0.512569 9.649467 -1.005924
v -0.465130 13.219467 1.018976
v 0.512569 9.649467 -1.005924
v 0.494169 13.249468 -0.967724
v -0.489731 9.619467 1.069876
v 0.411369 5.349467 -0.780024
v 0.512569 9.649467 -1.005924
v -0.336031 5.329467 0.751575
v -0.168030 3.839467 0.322277
v 0.411369 5.349467 -0.780024
vn -0.960200 0.051700 -0.274600
vn -0.984000 0.039400 -0.173800
vn -0.996400 0.005600 -0.085000
vn -0.995200 -0.028700 -0.093500
vn -0.999700 -0.004100 0.023500
vn -0.925700 -0.197400 0.322800
vn -0.323400 -0.188600 -0.927300
vn -0.595200 -0.004100 -0.803500
vn -0.666400 -0.023500 -0.745300
vn -0.661400 0.004600 -0.750000
vn -0.704200 0.025000 -0.709600
vn -0.827900 0.051900 -0.558400
vn 0.900100 -0.028100 0.434700
vn 0.898700 -0.000300 0.438600
vn 0.900500 0.000000 0.434800
vn 0.900500 0.001700 0.434800
vn 0.898600 -0.024900 0.438200
usemtl Shape.116
s 1
f 286//80 287//80 288//80
f 289//81 290//81 291//81
f 292//82 293//82 294//82
f 295//83 296//83 297//83
f 298//84 299//84 300//84
f 301//85 302//85 303//85
f 304//86 305//86 306//86
f 307//87 308//87 309//87
f 310//88 311//88 312//88
f 313//89 314//89 315//89
f 316//90 317//90 318//90
f 319//91 320//91 321//91
f 322//92 323//92 324//92
f 325//93 326//93 327//93
f 328//94 329//94 330//94
f 331//94 332//94 333//94
f 334//94 335//94 336//94
f 337//94 338//94 339//94
f 340//95 341//95 342//95
f 343//96 344//96 345//96
o ShapeIndexedFaceSet.122_ShapeIndexedFaceSet.123
v 14.418369 -8.074331 0.598675
v 14.297369 -8.223933 -0.071226
v 8.855570 -4.729333 -0.218824
v 11.739869 -6.293733 1.018974
v 14.418369 -8.074331 0.598675
v 8.855570 -4.729333 -0.218824
v 8.634369 -4.472533 1.069876
v 11.739869 -6.293733 1.018974
v 8.855570 -4.729333 -0.218824
v 4.842270 -2.460733 0.751575
v 8.634369 -4.472533 1.069876
v 8.855570 -4.729333 -0.218824
v 3.559969 -1.701633 -0.206524
v 4.842270 -2.460733 0.751575
v 8.855570 -4.729333 -0.218824
v 3.559969 -1.701633 -0.206524
v 3.467770 -1.861333 0.322277
v 4.842270 -2.460733 0.751575
v 4.485870 -3.118033 -0.780024
v 3.295670 -2.159533 -0.390924
v 3.559969 -1.701633 -0.206524
v 3.559969 -1.701633 -0.206524
v 8.855570 -4.729333 -0.218824
v 4.485870 -3.118033 -0.780024
v 8.855570 -4.729333 -0.218824
v 8.159269 -5.355533 -1.005924
v 4.485870 -3.118033 -0.780024
v 11.286169 -7.139532 -0.967726
v 8.159269 -5.355533 -1.005924
v 8.855570 -4.729333 -0.218824
v 14.109770 -8.648832 -0.751226
v 11.286169 -7.139532 -0.967726
v 8.855570 -4.729333 -0.218824
v 8.855570 -4.729333 -0.218824
v 14.297369 -8.223933 -0.071226
v 14.109770 -8.648832 -0.751226
v 3.467770 -1.861333 0.322277
v 3.295670 -2.159533 -0.390924
v 4.485870 -3.118033 -0.780024
v 8.634369 -4.472533 1.069876
v 4.842270 -2.460733 0.751575
v 4.485870 -3.118033 -0.780024
v 14.418369 -8.074331 0.598675
v 11.739869 -6.293733 1.018974
v 11.286169 -7.139532 -0.967726
v 14.418369 -8.074331 0.598675
v 11.286169 -7.139532 -0.967726
v 14.109770 -8.648832 -0.751226
v 11.739869 -6.293733 1.018974
v 8.634369 -4.472533 1.069876
v 8.159269 -5.355533 -1.005924
v 11.739869 -6.293733 1.018974
v 8.159269 -5.355533 -1.005924
v 11.286169 -7.139532 -0.967726
v 8.634369 -4.472533 1.069876
v 4.485870 -3.118033 -0.780024
v 8.159269 -5.355533 -1.005924
v 4.842270 -2.460733 0.751575
v 3.467770 -1.861333 0.322277
v 4.485870 -3.118033 -0.780024
vn 0.524800 0.805700 -0.274700
vn 0.526100 0.832500 -0.173800
vn 0.503000 0.860100 -0.085100
vn 0.472700 0.876200 -0.093500
vn 0.496200 0.867900 0.023400
vn 0.291800 0.900400 0.322800
vn -0.001700 0.374400 -0.927300
vn 0.294000 0.517600 -0.803500
vn 0.312800 0.588900 -0.745200
vn 0.334700 0.570500 -0.750000
vn 0.373700 0.597400 -0.709600
vn 0.458900 0.691100 -0.558400
vn -0.474400 -0.765500 0.434600
vn -0.449600 -0.778100 0.438600
vn -0.450200 -0.779900 0.434800
vn -0.450300 -0.779900 0.434800
vn -0.448800 -0.780700 0.434800
vn -0.470800 -0.765700 0.438200
usemtl Shape.122
s 1
f 346//97 347//97 348//97
f 349//98 350//98 351//98
f 352//99 353//99 354//99
f 355//100 356//100 357//100
f 358//101 359//101 360//101
f 361//102 362//102 363//102
f 364//103 365//103 366//103
f 367//104 368//104 369//104
f 370//105 371//105 372//105
f 373//106 374//106 375//106
f 376//107 377//107 378//107
f 379//108 380//108 381//108
f 382//109 383//109 384//109
f 385//110 386//110 387//110
f 388//111 389//111 390//111
f 391//111 392//111 393//111
f 394//111 395//111 396//111
f 397//112 398//112 399//112
f 400//113 401//113 402//113
f 403//114 404//114 405//114
