# Blender v2.75 (sub 0) OBJ File: ''
# www.blender.org
mtllib T-Roter.mtl
o ShapeIndexedFaceSet.090_ShapeIndexedFaceSet.091
v 0.054762 0.127377 0.052094
v 0.064871 -0.110204 0.042138
v 0.064349 -0.106708 -0.041788
v 0.062075 -0.036540 0.122291
v 0.060596 -0.026637 -0.115498
v 0.057029 0.057211 -0.111984
v 0.060596 -0.026637 -0.115498
v 0.018636 -0.028430 -0.115312
v 0.015070 0.055418 -0.111798
v 0.062075 -0.036540 0.122291
v 0.020115 -0.038333 0.122478
v 0.018636 -0.028430 -0.115312
v 0.058509 0.047308 0.125805
v 0.016549 0.045515 0.125991
v 0.020115 -0.038333 0.122478
v 0.057029 0.057211 -0.111984
v 0.015070 0.055418 -0.111798
v 0.016549 0.045515 0.125991
v 0.018636 -0.028430 -0.115312
v 0.020115 -0.038333 0.122478
v 0.016549 0.045515 0.125991
v 0.012796 0.125586 0.052281
v 0.054762 0.127377 0.052094
v 0.054240 0.130872 -0.031831
v 0.022904 -0.111994 0.042324
v 0.064871 -0.110204 0.042138
v 0.054762 0.127377 0.052094
v 0.022382 -0.108499 -0.041601
v 0.064349 -0.106708 -0.041788
v 0.064871 -0.110204 0.042138
v 0.012274 0.129081 -0.031644
v 0.054240 0.130872 -0.031831
v 0.064349 -0.106708 -0.041788
v 0.022904 -0.111994 0.042324
v 0.012796 0.125586 0.052281
v 0.012274 0.129081 -0.031644
v 0.064005 0.077598 0.077989
v 0.015056 0.075506 0.078207
v 0.014295 0.095594 0.100066
v 0.077235 0.098283 0.099787
v 0.064005 0.077598 0.077989
v 0.069084 -0.056330 -0.067744
v 0.069084 -0.056330 -0.067744
v 0.020129 -0.058420 -0.067527
v 0.020890 -0.078509 -0.089387
v 0.013164 0.103167 -0.081773
v 0.014186 0.081331 -0.061670
v 0.063135 0.083424 -0.061887
v 0.076104 0.105855 -0.082052
v 0.063135 0.083424 -0.061887
v 0.069954 -0.062155 0.072132
v 0.069954 -0.062155 0.072132
v 0.084967 -0.083395 0.092173
v 0.022021 -0.086081 0.092452
v -0.172251 0.027258 0.035325
v 0.016578 0.035329 0.034486
v 0.016230 0.037659 -0.021464
v -0.169874 -0.028645 0.032982
v 0.018954 -0.020574 0.032144
v 0.016578 0.035329 0.034486
v -0.170222 -0.026315 -0.022968
v 0.018606 -0.018244 -0.023807
v 0.018954 -0.020574 0.032144
v -0.172599 0.029588 -0.020626
v 0.016230 0.037659 -0.021464
v 0.018606 -0.018244 -0.023807
v 0.054240 0.130872 -0.031831
v 0.054762 0.127377 0.052094
v 0.064349 -0.106708 -0.041788
v 0.058509 0.047308 0.125805
v 0.062075 -0.036540 0.122291
v 0.057029 0.057211 -0.111984
v 0.057029 0.057211 -0.111984
v 0.060596 -0.026637 -0.115498
v 0.015070 0.055418 -0.111798
v 0.060596 -0.026637 -0.115498
v 0.062075 -0.036540 0.122291
v 0.018636 -0.028430 -0.115312
v 0.062075 -0.036540 0.122291
v 0.058509 0.047308 0.125805
v 0.020115 -0.038333 0.122478
v 0.058509 0.047308 0.125805
v 0.057029 0.057211 -0.111984
v 0.016549 0.045515 0.125991
v 0.015070 0.055418 -0.111798
v 0.018636 -0.028430 -0.115312
v 0.016549 0.045515 0.125991
v 0.012274 0.129081 -0.031644
v 0.012796 0.125586 0.052281
v 0.054240 0.130872 -0.031831
v 0.012796 0.125586 0.052281
v 0.022904 -0.111994 0.042324
v 0.054762 0.127377 0.052094
v 0.022904 -0.111994 0.042324
v 0.022382 -0.108499 -0.041601
v 0.064871 -0.110204 0.042138
v 0.022382 -0.108499 -0.041601
v 0.012274 0.129081 -0.031644
v 0.064349 -0.106708 -0.041788
v 0.022382 -0.108499 -0.041601
v 0.022904 -0.111994 0.042324
v 0.012274 0.129081 -0.031644
v 0.077235 0.098283 0.099787
v 0.064005 0.077598 0.077989
v 0.014295 0.095594 0.100066
v 0.077235 0.098283 0.099787
v 0.069084 -0.056330 -0.067744
v 0.083836 -0.075822 -0.089666
v 0.083836 -0.075822 -0.089666
v 0.069084 -0.056330 -0.067744
v 0.020890 -0.078509 -0.089387
v 0.076104 0.105855 -0.082052
v 0.013164 0.103167 -0.081773
v 0.063135 0.083424 -0.061887
v 0.076104 0.105855 -0.082052
v 0.069954 -0.062155 0.072132
v 0.084967 -0.083395 0.092173
v 0.069954 -0.062155 0.072132
v 0.022021 -0.086081 0.092452
v 0.020999 -0.064246 0.072350
v -0.172599 0.029588 -0.020626
v -0.172251 0.027258 0.035325
v 0.016230 0.037659 -0.021464
v -0.172251 0.027258 0.035325
v -0.169874 -0.028645 0.032982
v 0.016578 0.035329 0.034486
v -0.169874 -0.028645 0.032982
v -0.170222 -0.026315 -0.022968
v 0.018954 -0.020574 0.032144
v -0.170222 -0.026315 -0.022968
v -0.172599 0.029588 -0.020626
v 0.018606 -0.018244 -0.023807
vn 0.999100 0.042700 -0.004400
vn -0.006200 0.041600 -0.999100
vn 0.042500 -0.998200 -0.041800
vn 0.006200 -0.041600 0.999100
vn -0.042500 0.998200 0.041800
vn -0.999100 -0.042700 0.004400
vn -0.042400 0.998200 0.041800
vn 0.042400 -0.998200 -0.041800
vn -0.034400 0.735300 -0.676900
vn 0.034300 -0.735300 0.676900
vn 0.034400 -0.735300 0.676900
vn -0.025600 0.676400 0.736100
vn -0.025500 0.676400 0.736100
vn 0.025600 -0.676400 -0.736100
vn -0.025600 0.676500 0.736000
usemtl Shape.090
s 1
f 1//1 2//1 3//1
f 4//1 5//1 6//1
f 7//2 8//2 9//2
f 10//3 11//3 12//3
f 13//4 14//4 15//4
f 16//5 17//5 18//5
f 19//6 20//6 21//6
f 22//7 23//7 24//7
f 25//4 26//4 27//4
f 28//8 29//8 30//8
f 31//2 32//2 33//2
f 34//6 35//6 36//6
f 37//9 38//9 39//9
f 40//10 41//10 42//10
f 43//11 44//11 45//11
f 46//12 47//12 48//12
f 49//13 50//13 51//13
f 52//14 53//14 54//14
f 55//5 56//5 57//5
f 58//4 59//4 60//4
f 61//3 62//3 63//3
f 64//2 65//2 66//2
f 67//1 68//1 69//1
f 70//1 71//1 72//1
f 73//2 74//2 75//2
f 76//3 77//3 78//3
f 79//4 80//4 81//4
f 82//5 83//5 84//5
f 85//6 86//6 87//6
f 88//7 89//7 90//7
f 91//4 92//4 93//4
f 94//8 95//8 96//8
f 97//2 98//2 99//2
f 100//6 101//6 102//6
f 103//9 104//9 105//9
f 106//11 107//11 108//11
f 109//11 110//11 111//11
f 112//15 113//15 114//15
f 115//12 116//12 117//12
f 118//14 119//14 120//14
f 121//5 122//5 123//5
f 124//4 125//4 126//4
f 127//3 128//3 129//3
f 130//2 131//2 132//2
o ShapeIndexedFaceSet.091_ShapeIndexedFaceSet.092
v 0.016974 0.503808 -0.100142
v 0.021707 0.398182 -0.051324
v 0.030627 0.188553 -0.060109
v 0.050303 -0.383881 -1.139205
v 0.040883 -0.095947 -0.489591
v 0.036315 -0.065364 -1.223940
v 0.046517 -0.169675 0.070602
v 0.055438 -0.379304 0.061817
v 0.060170 -0.484930 0.110635
v 0.036577 0.074771 0.184536
v 0.037882 0.066033 0.394350
v 0.036261 0.114825 0.500084
v -0.012044 1.152784 -0.388213
v -0.014246 1.237505 -0.069392
v 0.016974 0.503808 -0.100142
v 0.036261 0.114825 0.500084
v 0.040829 0.084242 1.234433
v 0.026841 0.402758 1.149698
v 0.060170 -0.484930 0.110635
v 0.091390 -1.218627 0.079885
v 0.089188 -1.133907 0.398707
v 0.040567 -0.055893 -0.174043
v 0.039262 -0.047155 -0.383857
v 0.040883 -0.095947 -0.489591
v -0.012044 1.152784 -0.388213
v 0.016974 0.503808 -0.100142
v 0.030627 0.188553 -0.060109
v 0.046517 -0.169675 0.070602
v 0.060170 -0.484930 0.110635
v 0.089188 -1.133907 0.398707
v 0.036577 0.074771 0.184536
v 0.036261 0.114825 0.500084
v 0.026841 0.402758 1.149698
v 0.050303 -0.383881 -1.139205
v 0.040567 -0.055893 -0.174043
v 0.040883 -0.095947 -0.489591
vn 0.999100 0.042700 -0.004500
vn -0.999100 -0.042700 0.004400
vn -0.999100 -0.042700 0.004500
vn -0.999100 -0.042800 0.004400
vn 0.999100 0.042700 -0.004400
vn -0.999100 -0.042600 0.004400
usemtl Shape.091
s 1
f 133//16 134//16 135//16
f 136//17 137//17 138//17
f 139//18 140//18 141//18
f 142//19 143//19 144//19
f 145//20 146//20 147//20
f 148//17 149//17 150//17
f 151//17 152//17 153//17
f 154//19 155//19 156//19
f 157//20 158//20 159//20
f 160//17 161//17 162//17
f 163//21 164//21 165//21
f 166//21 167//21 168//21
o ShapeIndexedFaceSet.085_ShapeIndexedFaceSet.086
v 0.041591 -0.043262 0.178188
v 0.037728 0.047576 0.181995
v 0.037380 0.049906 0.126045
v 0.035553 0.062139 -0.167695
v 0.039416 -0.028698 -0.171502
v 0.039764 -0.031028 -0.115551
v 0.045726 -0.163356 -0.047534
v 0.046291 -0.167142 0.043385
v 0.043913 -0.111246 0.045727
v 0.031419 0.182233 0.058027
v 0.030854 0.186020 -0.032892
v 0.033232 0.130123 -0.035234
v 0.041591 -0.043262 0.178188
v 0.037380 0.049906 0.126045
v 0.041243 -0.040931 0.122238
v 0.035553 0.062139 -0.167695
v 0.039764 -0.031028 -0.115551
v 0.035901 0.059809 -0.111744
v 0.045726 -0.163356 -0.047534
v 0.043913 -0.111246 0.045727
v 0.043347 -0.107459 -0.045192
v 0.031419 0.182233 0.058027
v 0.033232 0.130123 -0.035234
v 0.033797 0.126337 0.055685
vn -0.999100 -0.042700 0.004400
usemtl Shape.085
s 1
f 169//22 170//22 171//22
f 172//22 173//22 174//22
f 175//22 176//22 177//22
f 178//22 179//22 180//22
f 181//22 182//22 183//22
f 184//22 185//22 186//22
f 187//22 188//22 189//22
f 190//22 191//22 192//22
o ShapeIndexedFaceSet.092_ShapeIndexedFaceSet.093
v 0.036577 0.074771 0.184536
v 0.026841 0.402758 1.149698
v 0.016406 0.627532 0.962950
v 0.046517 -0.169675 0.070602
v 0.082209 -0.947286 0.623714
v 0.089188 -1.133907 0.398707
v 0.060738 -0.608654 -0.952458
v 0.050303 -0.383881 -1.139205
v 0.040567 -0.055893 -0.174043
v -0.005065 0.966164 -0.613220
v -0.012044 1.152784 -0.388213
v 0.030627 0.188553 -0.060109
vn -0.999100 -0.042700 0.004400
vn 0.999100 0.042700 -0.004400
usemtl Shape.092
s 1
f 193//23 194//23 195//23
f 196//24 197//24 198//24
f 199//24 200//24 201//24
f 202//24 203//24 204//24
o ShapeIndexedFaceSet.086_ShapeIndexedFaceSet.087
v 0.054762 0.127377 0.052094
v 0.064871 -0.110204 0.042138
v 0.064349 -0.106708 -0.041788
v 0.062075 -0.036540 0.122291
v 0.060596 -0.026637 -0.115498
v 0.057029 0.057211 -0.111984
v 0.060596 -0.026637 -0.115498
v 0.018636 -0.028430 -0.115312
v 0.015070 0.055418 -0.111798
v 0.062075 -0.036540 0.122291
v 0.020115 -0.038333 0.122478
v 0.018636 -0.028430 -0.115312
v 0.058509 0.047308 0.125805
v 0.016549 0.045515 0.125991
v 0.020115 -0.038333 0.122478
v 0.057029 0.057211 -0.111984
v 0.015070 0.055418 -0.111798
v 0.016549 0.045515 0.125991
v 0.018636 -0.028430 -0.115312
v 0.020115 -0.038333 0.122478
v 0.016549 0.045515 0.125991
v 0.012796 0.125586 0.052281
v 0.054762 0.127377 0.052094
v 0.054240 0.130872 -0.031831
v 0.022904 -0.111994 0.042324
v 0.064871 -0.110204 0.042138
v 0.054762 0.127377 0.052094
v 0.022382 -0.108499 -0.041601
v 0.064349 -0.106708 -0.041788
v 0.064871 -0.110204 0.042138
v 0.012274 0.129081 -0.031644
v 0.054240 0.130872 -0.031831
v 0.064349 -0.106708 -0.041788
v 0.022904 -0.111994 0.042324
v 0.012796 0.125586 0.052281
v 0.012274 0.129081 -0.031644
v 0.064005 0.077598 0.077989
v 0.015056 0.075506 0.078207
v 0.014295 0.095594 0.100066
v 0.077235 0.098283 0.099787
v 0.064005 0.077598 0.077989
v 0.069084 -0.056330 -0.067744
v 0.069084 -0.056330 -0.067744
v 0.020129 -0.058420 -0.067527
v 0.020890 -0.078509 -0.089387
v 0.013164 0.103167 -0.081773
v 0.014186 0.081331 -0.061670
v 0.063135 0.083424 -0.061887
v 0.076104 0.105855 -0.082052
v 0.063135 0.083424 -0.061887
v 0.069954 -0.062155 0.072132
v 0.069954 -0.062155 0.072132
v 0.084967 -0.083395 0.092173
v 0.022021 -0.086081 0.092452
v -0.172251 0.027258 0.035325
v 0.016578 0.035329 0.034486
v 0.016230 0.037659 -0.021464
v -0.169874 -0.028645 0.032982
v 0.018954 -0.020574 0.032144
v 0.016578 0.035329 0.034486
v -0.170222 -0.026315 -0.022968
v 0.018606 -0.018244 -0.023807
v 0.018954 -0.020574 0.032144
v -0.172599 0.029588 -0.020626
v 0.016230 0.037659 -0.021464
v 0.018606 -0.018244 -0.023807
v 0.054240 0.130872 -0.031831
v 0.054762 0.127377 0.052094
v 0.064349 -0.106708 -0.041788
v 0.058509 0.047308 0.125805
v 0.062075 -0.036540 0.122291
v 0.057029 0.057211 -0.111984
v 0.057029 0.057211 -0.111984
v 0.060596 -0.026637 -0.115498
v 0.015070 0.055418 -0.111798
v 0.060596 -0.026637 -0.115498
v 0.062075 -0.036540 0.122291
v 0.018636 -0.028430 -0.115312
v 0.062075 -0.036540 0.122291
v 0.058509 0.047308 0.125805
v 0.020115 -0.038333 0.122478
v 0.058509 0.047308 0.125805
v 0.057029 0.057211 -0.111984
v 0.016549 0.045515 0.125991
v 0.015070 0.055418 -0.111798
v 0.018636 -0.028430 -0.115312
v 0.016549 0.045515 0.125991
v 0.012274 0.129081 -0.031644
v 0.012796 0.125586 0.052281
v 0.054240 0.130872 -0.031831
v 0.012796 0.125586 0.052281
v 0.022904 -0.111994 0.042324
v 0.054762 0.127377 0.052094
v 0.022904 -0.111994 0.042324
v 0.022382 -0.108499 -0.041601
v 0.064871 -0.110204 0.042138
v 0.022382 -0.108499 -0.041601
v 0.012274 0.129081 -0.031644
v 0.064349 -0.106708 -0.041788
v 0.022382 -0.108499 -0.041601
v 0.022904 -0.111994 0.042324
v 0.012274 0.129081 -0.031644
v 0.077235 0.098283 0.099787
v 0.064005 0.077598 0.077989
v 0.014295 0.095594 0.100066
v 0.077235 0.098283 0.099787
v 0.069084 -0.056330 -0.067744
v 0.083836 -0.075822 -0.089666
v 0.083836 -0.075822 -0.089666
v 0.069084 -0.056330 -0.067744
v 0.020890 -0.078509 -0.089387
v 0.076104 0.105855 -0.082052
v 0.013164 0.103167 -0.081773
v 0.063135 0.083424 -0.061887
v 0.076104 0.105855 -0.082052
v 0.069954 -0.062155 0.072132
v 0.084967 -0.083395 0.092173
v 0.069954 -0.062155 0.072132
v 0.022021 -0.086081 0.092452
v 0.020999 -0.064246 0.072350
v -0.172599 0.029588 -0.020626
v -0.172251 0.027258 0.035325
v 0.016230 0.037659 -0.021464
v -0.172251 0.027258 0.035325
v -0.169874 -0.028645 0.032982
v 0.016578 0.035329 0.034486
v -0.169874 -0.028645 0.032982
v -0.170222 -0.026315 -0.022968
v 0.018954 -0.020574 0.032144
v -0.170222 -0.026315 -0.022968
v -0.172599 0.029588 -0.020626
v 0.018606 -0.018244 -0.023807
vn 0.999100 0.042700 -0.004400
vn -0.006200 0.041600 -0.999100
vn 0.042500 -0.998200 -0.041800
vn 0.006200 -0.041600 0.999100
vn -0.042500 0.998200 0.041800
vn -0.999100 -0.042700 0.004400
vn -0.042400 0.998200 0.041800
vn 0.042400 -0.998200 -0.041800
vn -0.034400 0.735300 -0.676900
vn 0.034300 -0.735300 0.676900
vn 0.034400 -0.735300 0.676900
vn -0.025600 0.676400 0.736100
vn -0.025500 0.676400 0.736100
vn 0.025600 -0.676400 -0.736100
vn -0.025600 0.676500 0.736000
usemtl Shape.086
s 1
f 205//25 206//25 207//25
f 208//25 209//25 210//25
f 211//26 212//26 213//26
f 214//27 215//27 216//27
f 217//28 218//28 219//28
f 220//29 221//29 222//29
f 223//30 224//30 225//30
f 226//31 227//31 228//31
f 229//28 230//28 231//28
f 232//32 233//32 234//32
f 235//26 236//26 237//26
f 238//30 239//30 240//30
f 241//33 242//33 243//33
f 244//34 245//34 246//34
f 247//35 248//35 249//35
f 250//36 251//36 252//36
f 253//37 254//37 255//37
f 256//38 257//38 258//38
f 259//29 260//29 261//29
f 262//28 263//28 264//28
f 265//27 266//27 267//27
f 268//26 269//26 270//26
f 271//25 272//25 273//25
f 274//25 275//25 276//25
f 277//26 278//26 279//26
f 280//27 281//27 282//27
f 283//28 284//28 285//28
f 286//29 287//29 288//29
f 289//30 290//30 291//30
f 292//31 293//31 294//31
f 295//28 296//28 297//28
f 298//32 299//32 300//32
f 301//26 302//26 303//26
f 304//30 305//30 306//30
f 307//33 308//33 309//33
f 310//35 311//35 312//35
f 313//35 314//35 315//35
f 316//39 317//39 318//39
f 319//36 320//36 321//36
f 322//38 323//38 324//38
f 325//29 326//29 327//29
f 328//28 329//28 330//28
f 331//27 332//27 333//27
f 334//26 335//26 336//26
o ShapeIndexedFaceSet.089_ShapeIndexedFaceSet.090
v 0.016974 0.503808 -0.100142
v 0.021707 0.398182 -0.051324
v -0.013239 1.231739 0.102712
v 0.021707 0.398182 -0.051324
v 0.030627 0.188553 -0.060109
v 0.031419 0.182233 0.058027
v 0.037882 0.066033 0.394350
v 0.036577 0.074771 0.184536
v 0.041591 -0.043262 0.178188
v 0.060170 -0.484930 0.110635
v 0.055438 -0.379304 0.061817
v 0.090383 -1.212861 -0.092221
v 0.055438 -0.379304 0.061817
v 0.046517 -0.169675 0.070602
v 0.045726 -0.163356 -0.047534
v 0.036261 0.114825 0.500084
v 0.037882 0.066033 0.394350
v 0.048154 -0.087708 1.228628
v 0.040883 -0.095947 -0.489591
v 0.039262 -0.047155 -0.383857
v 0.028991 0.106586 -1.218135
v 0.039262 -0.047155 -0.383857
v 0.040567 -0.055893 -0.174043
v 0.035553 0.062139 -0.167695
v 0.016974 0.503808 -0.100142
v -0.013239 1.231739 0.102712
v -0.014246 1.237505 -0.069392
v 0.021707 0.398182 -0.051324
v 0.031419 0.182233 0.058027
v -0.013239 1.231739 0.102712
v 0.037882 0.066033 0.394350
v 0.041591 -0.043262 0.178188
v 0.048154 -0.087708 1.228628
v 0.060170 -0.484930 0.110635
v 0.090383 -1.212861 -0.092221
v 0.091390 -1.218627 0.079885
v 0.055438 -0.379304 0.061817
v 0.045726 -0.163356 -0.047534
v 0.090383 -1.212861 -0.092221
v 0.036261 0.114825 0.500084
v 0.048154 -0.087708 1.228628
v 0.040829 0.084242 1.234433
v 0.040883 -0.095947 -0.489591
v 0.028991 0.106586 -1.218135
v 0.036315 -0.065364 -1.223940
v 0.039262 -0.047155 -0.383857
v 0.035553 0.062139 -0.167695
v 0.028991 0.106586 -1.218135
vn -0.999100 -0.042700 0.004400
vn -0.999100 -0.042800 0.004400
usemtl Shape.089
s 1
f 337//40 338//40 339//40
f 340//40 341//40 342//40
f 343//40 344//40 345//40
f 346//40 347//40 348//40
f 349//40 350//40 351//40
f 352//41 353//41 354//41
f 355//41 356//41 357//41
f 358//40 359//40 360//40
f 361//40 362//40 363//40
f 364//40 365//40 366//40
f 367//40 368//40 369//40
f 370//40 371//40 372//40
f 373//40 374//40 375//40
f 376//40 377//40 378//40
f 379//40 380//40 381//40
f 382//40 383//40 384//40
o ShapeIndexedFaceSet.087_ShapeIndexedFaceSet.088
v 0.016974 0.503808 -0.100142
v 0.021707 0.398182 -0.051324
v -0.013239 1.231739 0.102712
v 0.021707 0.398182 -0.051324
v 0.030627 0.188553 -0.060109
v 0.031419 0.182233 0.058027
v 0.037882 0.066033 0.394350
v 0.036577 0.074771 0.184536
v 0.041591 -0.043262 0.178188
v 0.060170 -0.484930 0.110635
v 0.055438 -0.379304 0.061817
v 0.090383 -1.212861 -0.092221
v 0.055438 -0.379304 0.061817
v 0.046517 -0.169675 0.070602
v 0.045726 -0.163356 -0.047534
v 0.036261 0.114825 0.500084
v 0.037882 0.066033 0.394350
v 0.048154 -0.087708 1.228628
v 0.040883 -0.095947 -0.489591
v 0.039262 -0.047155 -0.383857
v 0.028991 0.106586 -1.218135
v 0.039262 -0.047155 -0.383857
v 0.040567 -0.055893 -0.174043
v 0.035553 0.062139 -0.167695
v 0.016974 0.503808 -0.100142
v -0.013239 1.231739 0.102712
v -0.014246 1.237505 -0.069392
v 0.021707 0.398182 -0.051324
v 0.031419 0.182233 0.058027
v -0.013239 1.231739 0.102712
v 0.037882 0.066033 0.394350
v 0.041591 -0.043262 0.178188
v 0.048154 -0.087708 1.228628
v 0.060170 -0.484930 0.110635
v 0.090383 -1.212861 -0.092221
v 0.091390 -1.218627 0.079885
v 0.055438 -0.379304 0.061817
v 0.045726 -0.163356 -0.047534
v 0.090383 -1.212861 -0.092221
v 0.036261 0.114825 0.500084
v 0.048154 -0.087708 1.228628
v 0.040829 0.084242 1.234433
v 0.040883 -0.095947 -0.489591
v 0.028991 0.106586 -1.218135
v 0.036315 -0.065364 -1.223940
v 0.039262 -0.047155 -0.383857
v 0.035553 0.062139 -0.167695
v 0.028991 0.106586 -1.218135
vn -0.999100 -0.042700 0.004400
vn -0.999100 -0.042800 0.004400
usemtl Shape.087
s 1
f 385//42 386//42 387//42
f 388//42 389//42 390//42
f 391//42 392//42 393//42
f 394//42 395//42 396//42
f 397//42 398//42 399//42
f 400//43 401//43 402//43
f 403//43 404//43 405//43
f 406//42 407//42 408//42
f 409//42 410//42 411//42
f 412//42 413//42 414//42
f 415//42 416//42 417//42
f 418//42 419//42 420//42
f 421//42 422//42 423//42
f 424//42 425//42 426//42
f 427//42 428//42 429//42
f 430//42 431//42 432//42
o ShapeIndexedFaceSet.088_ShapeIndexedFaceSet.089
v 0.041591 -0.043262 0.178188
v 0.037728 0.047576 0.181995
v 0.037380 0.049906 0.126045
v 0.035553 0.062139 -0.167695
v 0.039416 -0.028698 -0.171502
v 0.039764 -0.031028 -0.115551
v 0.045726 -0.163356 -0.047534
v 0.046291 -0.167142 0.043385
v 0.043913 -0.111246 0.045727
v 0.031419 0.182233 0.058027
v 0.030854 0.186020 -0.032892
v 0.033232 0.130123 -0.035234
v 0.041591 -0.043262 0.178188
v 0.037380 0.049906 0.126045
v 0.041243 -0.040931 0.122238
v 0.035553 0.062139 -0.167695
v 0.039764 -0.031028 -0.115551
v 0.035901 0.059809 -0.111744
v 0.045726 -0.163356 -0.047534
v 0.043913 -0.111246 0.045727
v 0.043347 -0.107459 -0.045192
v 0.031419 0.182233 0.058027
v 0.033232 0.130123 -0.035234
v 0.033797 0.126337 0.055685
vn -0.999100 -0.042700 0.004400
usemtl Shape.088
s 1
f 433//44 434//44 435//44
f 436//44 437//44 438//44
f 439//44 440//44 441//44
f 442//44 443//44 444//44
f 445//44 446//44 447//44
f 448//44 449//44 450//44
f 451//44 452//44 453//44
f 454//44 455//44 456//44
